G04 #@! TF.GenerationSoftware,KiCad,Pcbnew,(5.0.0)*
G04 #@! TF.CreationDate,2018-08-18T23:54:30+08:00*
G04 #@! TF.ProjectId,Envelope,456E76656C6F70652E6B696361645F70,rev?*
G04 #@! TF.SameCoordinates,Original*
G04 #@! TF.FileFunction,Legend,Bot*
G04 #@! TF.FilePolarity,Positive*
%FSLAX46Y46*%
G04 Gerber Fmt 4.6, Leading zero omitted, Abs format (unit mm)*
G04 Created by KiCad (PCBNEW (5.0.0)) date 08/18/18 23:54:30*
%MOMM*%
%LPD*%
G01*
G04 APERTURE LIST*
%ADD10C,0.200000*%
%ADD11C,0.300000*%
%ADD12C,0.400000*%
%ADD13C,0.120000*%
%ADD14C,0.150000*%
G04 APERTURE END LIST*
D10*
X144408571Y-116602857D02*
X144351428Y-116488571D01*
X144351428Y-116260000D01*
X144408571Y-116145714D01*
X144522857Y-116031428D01*
X144637142Y-115974285D01*
X144865714Y-115974285D01*
X144980000Y-116031428D01*
X145094285Y-116145714D01*
X145151428Y-116260000D01*
X145151428Y-116488571D01*
X145094285Y-116602857D01*
X143951428Y-116374285D02*
X144008571Y-116088571D01*
X144180000Y-115802857D01*
X144465714Y-115631428D01*
X144751428Y-115574285D01*
X145037142Y-115631428D01*
X145322857Y-115802857D01*
X145494285Y-116088571D01*
X145551428Y-116374285D01*
X145494285Y-116660000D01*
X145322857Y-116945714D01*
X145037142Y-117117142D01*
X144751428Y-117174285D01*
X144465714Y-117117142D01*
X144180000Y-116945714D01*
X144008571Y-116660000D01*
X143951428Y-116374285D01*
X145322857Y-118602857D02*
X144122857Y-118602857D01*
X144980000Y-119002857D01*
X144122857Y-119402857D01*
X145322857Y-119402857D01*
X145322857Y-120488571D02*
X144694285Y-120488571D01*
X144580000Y-120431428D01*
X144522857Y-120317142D01*
X144522857Y-120088571D01*
X144580000Y-119974285D01*
X145265714Y-120488571D02*
X145322857Y-120374285D01*
X145322857Y-120088571D01*
X145265714Y-119974285D01*
X145151428Y-119917142D01*
X145037142Y-119917142D01*
X144922857Y-119974285D01*
X144865714Y-120088571D01*
X144865714Y-120374285D01*
X144808571Y-120488571D01*
X145322857Y-121060000D02*
X144522857Y-121060000D01*
X144751428Y-121060000D02*
X144637142Y-121117142D01*
X144580000Y-121174285D01*
X144522857Y-121288571D01*
X144522857Y-121402857D01*
X145322857Y-122317142D02*
X144694285Y-122317142D01*
X144580000Y-122260000D01*
X144522857Y-122145714D01*
X144522857Y-121917142D01*
X144580000Y-121802857D01*
X145265714Y-122317142D02*
X145322857Y-122202857D01*
X145322857Y-121917142D01*
X145265714Y-121802857D01*
X145151428Y-121745714D01*
X145037142Y-121745714D01*
X144922857Y-121802857D01*
X144865714Y-121917142D01*
X144865714Y-122202857D01*
X144808571Y-122317142D01*
X144522857Y-122888571D02*
X145322857Y-122888571D01*
X144637142Y-122888571D02*
X144580000Y-122945714D01*
X144522857Y-123060000D01*
X144522857Y-123231428D01*
X144580000Y-123345714D01*
X144694285Y-123402857D01*
X145322857Y-123402857D01*
X144522857Y-124488571D02*
X145494285Y-124488571D01*
X145608571Y-124431428D01*
X145665714Y-124374285D01*
X145722857Y-124260000D01*
X145722857Y-124088571D01*
X145665714Y-123974285D01*
X145265714Y-124488571D02*
X145322857Y-124374285D01*
X145322857Y-124145714D01*
X145265714Y-124031428D01*
X145208571Y-123974285D01*
X145094285Y-123917142D01*
X144751428Y-123917142D01*
X144637142Y-123974285D01*
X144580000Y-124031428D01*
X144522857Y-124145714D01*
X144522857Y-124374285D01*
X144580000Y-124488571D01*
X145322857Y-125060000D02*
X144522857Y-125060000D01*
X144122857Y-125060000D02*
X144180000Y-125002857D01*
X144237142Y-125060000D01*
X144180000Y-125117142D01*
X144122857Y-125060000D01*
X144237142Y-125060000D01*
X145265714Y-125574285D02*
X145322857Y-125688571D01*
X145322857Y-125917142D01*
X145265714Y-126031428D01*
X145151428Y-126088571D01*
X145094285Y-126088571D01*
X144980000Y-126031428D01*
X144922857Y-125917142D01*
X144922857Y-125745714D01*
X144865714Y-125631428D01*
X144751428Y-125574285D01*
X144694285Y-125574285D01*
X144580000Y-125631428D01*
X144522857Y-125745714D01*
X144522857Y-125917142D01*
X144580000Y-126031428D01*
X144522857Y-126431428D02*
X144522857Y-126888571D01*
X144122857Y-126602857D02*
X145151428Y-126602857D01*
X145265714Y-126660000D01*
X145322857Y-126774285D01*
X145322857Y-126888571D01*
X145322857Y-127460000D02*
X145265714Y-127345714D01*
X145208571Y-127288571D01*
X145094285Y-127231428D01*
X144751428Y-127231428D01*
X144637142Y-127288571D01*
X144580000Y-127345714D01*
X144522857Y-127460000D01*
X144522857Y-127631428D01*
X144580000Y-127745714D01*
X144637142Y-127802857D01*
X144751428Y-127860000D01*
X145094285Y-127860000D01*
X145208571Y-127802857D01*
X145265714Y-127745714D01*
X145322857Y-127631428D01*
X145322857Y-127460000D01*
X144237142Y-129231428D02*
X144180000Y-129288571D01*
X144122857Y-129402857D01*
X144122857Y-129688571D01*
X144180000Y-129802857D01*
X144237142Y-129860000D01*
X144351428Y-129917142D01*
X144465714Y-129917142D01*
X144637142Y-129860000D01*
X145322857Y-129174285D01*
X145322857Y-129917142D01*
X144122857Y-130660000D02*
X144122857Y-130774285D01*
X144180000Y-130888571D01*
X144237142Y-130945714D01*
X144351428Y-131002857D01*
X144580000Y-131060000D01*
X144865714Y-131060000D01*
X145094285Y-131002857D01*
X145208571Y-130945714D01*
X145265714Y-130888571D01*
X145322857Y-130774285D01*
X145322857Y-130660000D01*
X145265714Y-130545714D01*
X145208571Y-130488571D01*
X145094285Y-130431428D01*
X144865714Y-130374285D01*
X144580000Y-130374285D01*
X144351428Y-130431428D01*
X144237142Y-130488571D01*
X144180000Y-130545714D01*
X144122857Y-130660000D01*
X145322857Y-132202857D02*
X145322857Y-131517142D01*
X145322857Y-131860000D02*
X144122857Y-131860000D01*
X144294285Y-131745714D01*
X144408571Y-131631428D01*
X144465714Y-131517142D01*
X144637142Y-132888571D02*
X144580000Y-132774285D01*
X144522857Y-132717142D01*
X144408571Y-132660000D01*
X144351428Y-132660000D01*
X144237142Y-132717142D01*
X144180000Y-132774285D01*
X144122857Y-132888571D01*
X144122857Y-133117142D01*
X144180000Y-133231428D01*
X144237142Y-133288571D01*
X144351428Y-133345714D01*
X144408571Y-133345714D01*
X144522857Y-133288571D01*
X144580000Y-133231428D01*
X144637142Y-133117142D01*
X144637142Y-132888571D01*
X144694285Y-132774285D01*
X144751428Y-132717142D01*
X144865714Y-132660000D01*
X145094285Y-132660000D01*
X145208571Y-132717142D01*
X145265714Y-132774285D01*
X145322857Y-132888571D01*
X145322857Y-133117142D01*
X145265714Y-133231428D01*
X145208571Y-133288571D01*
X145094285Y-133345714D01*
X144865714Y-133345714D01*
X144751428Y-133288571D01*
X144694285Y-133231428D01*
X144637142Y-133117142D01*
X145322857Y-141938571D02*
X144751428Y-141538571D01*
X145322857Y-141252857D02*
X144122857Y-141252857D01*
X144122857Y-141710000D01*
X144180000Y-141824285D01*
X144237142Y-141881428D01*
X144351428Y-141938571D01*
X144522857Y-141938571D01*
X144637142Y-141881428D01*
X144694285Y-141824285D01*
X144751428Y-141710000D01*
X144751428Y-141252857D01*
X145265714Y-142910000D02*
X145322857Y-142795714D01*
X145322857Y-142567142D01*
X145265714Y-142452857D01*
X145151428Y-142395714D01*
X144694285Y-142395714D01*
X144580000Y-142452857D01*
X144522857Y-142567142D01*
X144522857Y-142795714D01*
X144580000Y-142910000D01*
X144694285Y-142967142D01*
X144808571Y-142967142D01*
X144922857Y-142395714D01*
X144522857Y-143367142D02*
X145322857Y-143652857D01*
X144522857Y-143938571D01*
X144980000Y-145252857D02*
X144980000Y-145824285D01*
X145322857Y-145138571D02*
X144122857Y-145538571D01*
X145322857Y-145938571D01*
D11*
X123046285Y-74072666D02*
X121617714Y-74072666D01*
X123332000Y-75215523D02*
X122332000Y-71215523D01*
X121332000Y-75215523D01*
X120332000Y-75215523D02*
X120332000Y-71215523D01*
X120332000Y-73120285D02*
X118617714Y-73120285D01*
X118617714Y-75215523D02*
X118617714Y-71215523D01*
X117189142Y-75215523D02*
X117189142Y-71215523D01*
X116474857Y-71215523D01*
X116046285Y-71406000D01*
X115760571Y-71786952D01*
X115617714Y-72167904D01*
X115474857Y-72929809D01*
X115474857Y-73501238D01*
X115617714Y-74263142D01*
X115760571Y-74644095D01*
X116046285Y-75025047D01*
X116474857Y-75215523D01*
X117189142Y-75215523D01*
X114332000Y-75025047D02*
X113903428Y-75215523D01*
X113189142Y-75215523D01*
X112903428Y-75025047D01*
X112760571Y-74834571D01*
X112617714Y-74453619D01*
X112617714Y-74072666D01*
X112760571Y-73691714D01*
X112903428Y-73501238D01*
X113189142Y-73310761D01*
X113760571Y-73120285D01*
X114046285Y-72929809D01*
X114189142Y-72739333D01*
X114332000Y-72358380D01*
X114332000Y-71977428D01*
X114189142Y-71596476D01*
X114046285Y-71406000D01*
X113760571Y-71215523D01*
X113046285Y-71215523D01*
X112617714Y-71406000D01*
X109617714Y-75215523D02*
X110617714Y-73310761D01*
X111332000Y-75215523D02*
X111332000Y-71215523D01*
X110189142Y-71215523D01*
X109903428Y-71406000D01*
X109760571Y-71596476D01*
X109617714Y-71977428D01*
X109617714Y-72548857D01*
X109760571Y-72929809D01*
X109903428Y-73120285D01*
X110189142Y-73310761D01*
X111332000Y-73310761D01*
D12*
X129794000Y-62992000D02*
X124714000Y-62992000D01*
D11*
X123920000Y-60559142D02*
X122777142Y-60559142D01*
X121277142Y-61130571D02*
X122134285Y-61130571D01*
X121705714Y-61130571D02*
X121705714Y-59630571D01*
X121848571Y-59844857D01*
X121991428Y-59987714D01*
X122134285Y-60059142D01*
X120705714Y-59773428D02*
X120634285Y-59702000D01*
X120491428Y-59630571D01*
X120134285Y-59630571D01*
X119991428Y-59702000D01*
X119920000Y-59773428D01*
X119848571Y-59916285D01*
X119848571Y-60059142D01*
X119920000Y-60273428D01*
X120777142Y-61130571D01*
X119848571Y-61130571D01*
X123920000Y-50399142D02*
X122777142Y-50399142D01*
X123348571Y-50970571D02*
X123348571Y-49827714D01*
X121277142Y-50970571D02*
X122134285Y-50970571D01*
X121705714Y-50970571D02*
X121705714Y-49470571D01*
X121848571Y-49684857D01*
X121991428Y-49827714D01*
X122134285Y-49899142D01*
X120705714Y-49613428D02*
X120634285Y-49542000D01*
X120491428Y-49470571D01*
X120134285Y-49470571D01*
X119991428Y-49542000D01*
X119920000Y-49613428D01*
X119848571Y-49756285D01*
X119848571Y-49899142D01*
X119920000Y-50113428D01*
X120777142Y-50970571D01*
X119848571Y-50970571D01*
D13*
G04 #@! TO.C,J3*
X118424000Y-67504000D02*
X118424000Y-70164000D01*
X113284000Y-67504000D02*
X118424000Y-67504000D01*
X113284000Y-70164000D02*
X118424000Y-70164000D01*
X113284000Y-67504000D02*
X113284000Y-70164000D01*
X112014000Y-67504000D02*
X110684000Y-67504000D01*
X110684000Y-67504000D02*
X110684000Y-68834000D01*
G04 #@! TO.C,Y1*
X146199000Y-87732000D02*
X146199000Y-93632000D01*
X142599000Y-87732000D02*
X146199000Y-87732000D01*
X142599000Y-93632000D02*
X142599000Y-87732000D01*
G04 #@! TO.C,C19*
X143689000Y-83815422D02*
X143689000Y-84332578D01*
X145109000Y-83815422D02*
X145109000Y-84332578D01*
G04 #@! TO.C,C18*
X115899000Y-90165422D02*
X115899000Y-90682578D01*
X114479000Y-90165422D02*
X114479000Y-90682578D01*
G04 #@! TO.C,C17*
X132028000Y-81284578D02*
X132028000Y-80767422D01*
X130608000Y-81284578D02*
X130608000Y-80767422D01*
G04 #@! TO.C,C16*
X119709000Y-90165422D02*
X119709000Y-90682578D01*
X118289000Y-90165422D02*
X118289000Y-90682578D01*
G04 #@! TO.C,C20*
X145109000Y-98302578D02*
X145109000Y-97785422D01*
X143689000Y-98302578D02*
X143689000Y-97785422D01*
G04 #@! TO.C,J2*
X114494000Y-94174000D02*
X119694000Y-94174000D01*
X114494000Y-99314000D02*
X114494000Y-94174000D01*
X119694000Y-101914000D02*
X119694000Y-94174000D01*
X114494000Y-99314000D02*
X117094000Y-99314000D01*
X117094000Y-99314000D02*
X117094000Y-101914000D01*
X117094000Y-101914000D02*
X119694000Y-101914000D01*
X114494000Y-100584000D02*
X114494000Y-101914000D01*
X114494000Y-101914000D02*
X115824000Y-101914000D01*
G04 #@! TO.C,D13*
X114739000Y-54559000D02*
X114739000Y-50474000D01*
X114739000Y-50474000D02*
X116909000Y-50474000D01*
X116909000Y-50474000D02*
X116909000Y-54559000D01*
G04 #@! TO.C,R27*
X126995422Y-68274000D02*
X127512578Y-68274000D01*
X126995422Y-66854000D02*
X127512578Y-66854000D01*
G04 #@! TO.C,R28*
X115114000Y-61472578D02*
X115114000Y-60955422D01*
X116534000Y-61472578D02*
X116534000Y-60955422D01*
G04 #@! TO.C,R26*
X126694000Y-102112578D02*
X126694000Y-101595422D01*
X125274000Y-102112578D02*
X125274000Y-101595422D01*
G04 #@! TO.C,R25*
X126694000Y-107310422D02*
X126694000Y-107827578D01*
X125274000Y-107310422D02*
X125274000Y-107827578D01*
G04 #@! TO.C,R24*
X125274000Y-120947922D02*
X125274000Y-121465078D01*
X126694000Y-120947922D02*
X126694000Y-121465078D01*
G04 #@! TO.C,R23*
X112724000Y-61472578D02*
X112724000Y-60955422D01*
X111304000Y-61472578D02*
X111304000Y-60955422D01*
G04 #@! TO.C,R22*
X139624750Y-124246200D02*
X139624750Y-124763356D01*
X138204750Y-124246200D02*
X138204750Y-124763356D01*
G04 #@! TO.C,R21*
X137084750Y-124763356D02*
X137084750Y-124246200D01*
X135664750Y-124763356D02*
X135664750Y-124246200D01*
G04 #@! TO.C,R20*
X119384000Y-129167422D02*
X119384000Y-129684578D01*
X117964000Y-129167422D02*
X117964000Y-129684578D01*
G04 #@! TO.C,R19*
X119423000Y-134188578D02*
X119423000Y-133671422D01*
X118003000Y-134188578D02*
X118003000Y-133671422D01*
G04 #@! TO.C,R18*
X116248000Y-133671422D02*
X116248000Y-134188578D01*
X114828000Y-133671422D02*
X114828000Y-134188578D01*
G04 #@! TO.C,R17*
X140704000Y-138025422D02*
X140704000Y-138542578D01*
X142124000Y-138025422D02*
X142124000Y-138542578D01*
G04 #@! TO.C,R16*
X138164000Y-138542578D02*
X138164000Y-138025422D01*
X139584000Y-138542578D02*
X139584000Y-138025422D01*
G04 #@! TO.C,R15*
X129394000Y-129167422D02*
X129394000Y-129684578D01*
X130814000Y-129167422D02*
X130814000Y-129684578D01*
G04 #@! TO.C,R14*
X131914000Y-138557578D02*
X131914000Y-138040422D01*
X133334000Y-138557578D02*
X133334000Y-138040422D01*
G04 #@! TO.C,R13*
X135089000Y-138040422D02*
X135089000Y-138557578D01*
X136509000Y-138040422D02*
X136509000Y-138557578D01*
G04 #@! TO.C,R11*
X125773000Y-133671422D02*
X125773000Y-134188578D01*
X124353000Y-133671422D02*
X124353000Y-134188578D01*
G04 #@! TO.C,R10*
X113994000Y-109732578D02*
X113994000Y-109215422D01*
X112574000Y-109732578D02*
X112574000Y-109215422D01*
G04 #@! TO.C,R9*
X115114000Y-109732578D02*
X115114000Y-109215422D01*
X116534000Y-109732578D02*
X116534000Y-109215422D01*
G04 #@! TO.C,R8*
X119074000Y-109732578D02*
X119074000Y-109215422D01*
X117654000Y-109732578D02*
X117654000Y-109215422D01*
G04 #@! TO.C,R7*
X120194000Y-109732578D02*
X120194000Y-109215422D01*
X121614000Y-109732578D02*
X121614000Y-109215422D01*
G04 #@! TO.C,R6*
X133529000Y-80640422D02*
X133529000Y-81157578D01*
X134949000Y-80640422D02*
X134949000Y-81157578D01*
G04 #@! TO.C,R5*
X134949000Y-107945422D02*
X134949000Y-108462578D01*
X133529000Y-107945422D02*
X133529000Y-108462578D01*
G04 #@! TO.C,R4*
X133529000Y-94610422D02*
X133529000Y-95127578D01*
X134949000Y-94610422D02*
X134949000Y-95127578D01*
G04 #@! TO.C,R3*
X139879000Y-81157578D02*
X139879000Y-80640422D01*
X141299000Y-81157578D02*
X141299000Y-80640422D01*
G04 #@! TO.C,R2*
X141299000Y-108462578D02*
X141299000Y-107945422D01*
X139879000Y-108462578D02*
X139879000Y-107945422D01*
G04 #@! TO.C,R1*
X139879000Y-95127578D02*
X139879000Y-94610422D01*
X141299000Y-95127578D02*
X141299000Y-94610422D01*
G04 #@! TO.C,R12*
X125564000Y-138040422D02*
X125564000Y-138557578D01*
X126984000Y-138040422D02*
X126984000Y-138557578D01*
G04 #@! TO.C,C15*
X129514000Y-79222000D02*
X128314000Y-79222000D01*
X124994000Y-79222000D02*
X126194000Y-79222000D01*
X124994000Y-75766437D02*
X124994000Y-79222000D01*
X129514000Y-75766437D02*
X129514000Y-79222000D01*
X128449563Y-74702000D02*
X128314000Y-74702000D01*
X126058437Y-74702000D02*
X126194000Y-74702000D01*
X126058437Y-74702000D02*
X124994000Y-75766437D01*
X128449563Y-74702000D02*
X129514000Y-75766437D01*
X125694000Y-73962000D02*
X125694000Y-74462000D01*
X125444000Y-74212000D02*
X125944000Y-74212000D01*
G04 #@! TO.C,C12*
X145879000Y-57499000D02*
X145879000Y-57999000D01*
X146129000Y-57749000D02*
X145629000Y-57749000D01*
X145389000Y-60504563D02*
X144324563Y-61569000D01*
X145389000Y-58113437D02*
X144324563Y-57049000D01*
X145389000Y-58113437D02*
X145389000Y-58249000D01*
X145389000Y-60504563D02*
X145389000Y-60369000D01*
X144324563Y-61569000D02*
X140869000Y-61569000D01*
X144324563Y-57049000D02*
X140869000Y-57049000D01*
X140869000Y-57049000D02*
X140869000Y-58249000D01*
X140869000Y-61569000D02*
X140869000Y-60369000D01*
G04 #@! TO.C,C11*
X145389000Y-48794000D02*
X145389000Y-49994000D01*
X145389000Y-53314000D02*
X145389000Y-52114000D01*
X141933437Y-53314000D02*
X145389000Y-53314000D01*
X141933437Y-48794000D02*
X145389000Y-48794000D01*
X140869000Y-49858437D02*
X140869000Y-49994000D01*
X140869000Y-52249563D02*
X140869000Y-52114000D01*
X140869000Y-52249563D02*
X141933437Y-53314000D01*
X140869000Y-49858437D02*
X141933437Y-48794000D01*
X140129000Y-52614000D02*
X140629000Y-52614000D01*
X140379000Y-52864000D02*
X140379000Y-52364000D01*
G04 #@! TO.C,C7*
X122598000Y-133671422D02*
X122598000Y-134188578D01*
X121178000Y-133671422D02*
X121178000Y-134188578D01*
G04 #@! TO.C,C14*
X143260578Y-75236000D02*
X142743422Y-75236000D01*
X143260578Y-76656000D02*
X142743422Y-76656000D01*
G04 #@! TO.C,C13*
X143790500Y-54859422D02*
X143790500Y-55376578D01*
X142370500Y-54859422D02*
X142370500Y-55376578D01*
G04 #@! TO.C,C10*
X130250000Y-133608578D02*
X130250000Y-133091422D01*
X128830000Y-133608578D02*
X128830000Y-133091422D01*
G04 #@! TO.C,C9*
X122099000Y-123702578D02*
X122099000Y-123185422D01*
X123519000Y-123702578D02*
X123519000Y-123185422D01*
G04 #@! TO.C,C8*
X116209000Y-129167422D02*
X116209000Y-129684578D01*
X114789000Y-129167422D02*
X114789000Y-129684578D01*
G04 #@! TO.C,C5*
X130159000Y-138040422D02*
X130159000Y-138557578D01*
X128739000Y-138040422D02*
X128739000Y-138557578D01*
G04 #@! TO.C,C4*
X112574000Y-114295422D02*
X112574000Y-114812578D01*
X113994000Y-114295422D02*
X113994000Y-114812578D01*
G04 #@! TO.C,C3*
X116534000Y-114295422D02*
X116534000Y-114812578D01*
X115114000Y-114295422D02*
X115114000Y-114812578D01*
G04 #@! TO.C,C2*
X117654000Y-114295422D02*
X117654000Y-114812578D01*
X119074000Y-114295422D02*
X119074000Y-114812578D01*
G04 #@! TO.C,C1*
X121614000Y-114295422D02*
X121614000Y-114812578D01*
X120194000Y-114295422D02*
X120194000Y-114812578D01*
G04 #@! TO.C,C6*
X132569000Y-129167422D02*
X132569000Y-129684578D01*
X133989000Y-129167422D02*
X133989000Y-129684578D01*
G04 #@! TO.C,J1*
X124654000Y-49089000D02*
X129854000Y-49089000D01*
X124654000Y-59309000D02*
X124654000Y-49089000D01*
X129854000Y-61909000D02*
X129854000Y-49089000D01*
X124654000Y-59309000D02*
X127254000Y-59309000D01*
X127254000Y-59309000D02*
X127254000Y-61909000D01*
X127254000Y-61909000D02*
X129854000Y-61909000D01*
X124654000Y-60579000D02*
X124654000Y-61909000D01*
X124654000Y-61909000D02*
X125984000Y-61909000D01*
G04 #@! TO.C,D8*
X131334000Y-62144000D02*
X133334000Y-62144000D01*
X131334000Y-62144000D02*
X131334000Y-58944000D01*
X133334000Y-58944000D02*
X133334000Y-62144000D01*
G04 #@! TO.C,D7*
X133334000Y-50689000D02*
X133334000Y-53889000D01*
X131334000Y-53889000D02*
X131334000Y-50689000D01*
X131334000Y-53889000D02*
X133334000Y-53889000D01*
G04 #@! TO.C,D6*
X139589000Y-83729000D02*
X139589000Y-87629000D01*
X141589000Y-83729000D02*
X141589000Y-87629000D01*
X139589000Y-83729000D02*
X141589000Y-83729000D01*
G04 #@! TO.C,D5*
X138414000Y-86070000D02*
X136414000Y-86070000D01*
X136414000Y-86070000D02*
X136414000Y-82170000D01*
X138414000Y-86070000D02*
X138414000Y-82170000D01*
G04 #@! TO.C,D4*
X139589000Y-111034000D02*
X139589000Y-114934000D01*
X141589000Y-111034000D02*
X141589000Y-114934000D01*
X139589000Y-111034000D02*
X141589000Y-111034000D01*
G04 #@! TO.C,D3*
X135239000Y-115534000D02*
X133239000Y-115534000D01*
X133239000Y-115534000D02*
X133239000Y-111634000D01*
X135239000Y-115534000D02*
X135239000Y-111634000D01*
G04 #@! TO.C,D1*
X135239000Y-102199000D02*
X135239000Y-98299000D01*
X133239000Y-102199000D02*
X133239000Y-98299000D01*
X135239000Y-102199000D02*
X133239000Y-102199000D01*
G04 #@! TO.C,D2*
X139589000Y-97699000D02*
X141589000Y-97699000D01*
X141589000Y-97699000D02*
X141589000Y-101599000D01*
X139589000Y-97699000D02*
X139589000Y-101599000D01*
G04 #@! TO.C,D9*
X113099000Y-50474000D02*
X113099000Y-54559000D01*
X110929000Y-50474000D02*
X113099000Y-50474000D01*
X110929000Y-54559000D02*
X110929000Y-50474000D01*
G04 #@! TO.C,U3*
X139224000Y-63206000D02*
X139224000Y-73446000D01*
X143865000Y-63206000D02*
X143865000Y-73446000D01*
X139224000Y-63206000D02*
X143865000Y-63206000D01*
X139224000Y-73446000D02*
X143865000Y-73446000D01*
X140734000Y-63206000D02*
X140734000Y-73446000D01*
X139224000Y-66476000D02*
X140734000Y-66476000D01*
X139224000Y-70177000D02*
X140734000Y-70177000D01*
D14*
G04 #@! TO.C,U2*
X127254000Y-83265476D02*
X127413099Y-83424575D01*
X122127476Y-88392000D02*
X122357286Y-88621810D01*
X127254000Y-93518524D02*
X127024190Y-93288714D01*
X132380524Y-88392000D02*
X132150714Y-88162190D01*
X127254000Y-83265476D02*
X127024190Y-83495286D01*
X132380524Y-88392000D02*
X132150714Y-88621810D01*
X127254000Y-93518524D02*
X127483810Y-93288714D01*
X122127476Y-88392000D02*
X122357286Y-88162190D01*
X127413099Y-83424575D02*
X128420726Y-82416948D01*
G04 #@! TO.C,U1*
X126014000Y-127801000D02*
X126014000Y-127926000D01*
X122764000Y-127801000D02*
X122764000Y-128026000D01*
X122764000Y-131051000D02*
X122764000Y-130826000D01*
X126014000Y-131051000D02*
X126014000Y-130826000D01*
X126014000Y-127801000D02*
X122764000Y-127801000D01*
X126014000Y-131051000D02*
X122764000Y-131051000D01*
X126014000Y-127926000D02*
X127089000Y-127926000D01*
G04 #@! TO.C,J3*
X119086380Y-68500666D02*
X119800666Y-68500666D01*
X119943523Y-68453047D01*
X120038761Y-68357809D01*
X120086380Y-68214952D01*
X120086380Y-68119714D01*
X119086380Y-68881619D02*
X119086380Y-69500666D01*
X119467333Y-69167333D01*
X119467333Y-69310190D01*
X119514952Y-69405428D01*
X119562571Y-69453047D01*
X119657809Y-69500666D01*
X119895904Y-69500666D01*
X119991142Y-69453047D01*
X120038761Y-69405428D01*
X120086380Y-69310190D01*
X120086380Y-69024476D01*
X120038761Y-68929238D01*
X119991142Y-68881619D01*
G04 #@! TO.C,Y1*
X141575190Y-90455809D02*
X142051380Y-90455809D01*
X141051380Y-90122476D02*
X141575190Y-90455809D01*
X141051380Y-90789142D01*
X142051380Y-91646285D02*
X142051380Y-91074857D01*
X142051380Y-91360571D02*
X141051380Y-91360571D01*
X141194238Y-91265333D01*
X141289476Y-91170095D01*
X141337095Y-91074857D01*
G04 #@! TO.C,C19*
X146407142Y-83431142D02*
X146454761Y-83383523D01*
X146502380Y-83240666D01*
X146502380Y-83145428D01*
X146454761Y-83002571D01*
X146359523Y-82907333D01*
X146264285Y-82859714D01*
X146073809Y-82812095D01*
X145930952Y-82812095D01*
X145740476Y-82859714D01*
X145645238Y-82907333D01*
X145550000Y-83002571D01*
X145502380Y-83145428D01*
X145502380Y-83240666D01*
X145550000Y-83383523D01*
X145597619Y-83431142D01*
X146502380Y-84383523D02*
X146502380Y-83812095D01*
X146502380Y-84097809D02*
X145502380Y-84097809D01*
X145645238Y-84002571D01*
X145740476Y-83907333D01*
X145788095Y-83812095D01*
X146502380Y-84859714D02*
X146502380Y-85050190D01*
X146454761Y-85145428D01*
X146407142Y-85193047D01*
X146264285Y-85288285D01*
X146073809Y-85335904D01*
X145692857Y-85335904D01*
X145597619Y-85288285D01*
X145550000Y-85240666D01*
X145502380Y-85145428D01*
X145502380Y-84954952D01*
X145550000Y-84859714D01*
X145597619Y-84812095D01*
X145692857Y-84764476D01*
X145930952Y-84764476D01*
X146026190Y-84812095D01*
X146073809Y-84859714D01*
X146121428Y-84954952D01*
X146121428Y-85145428D01*
X146073809Y-85240666D01*
X146026190Y-85288285D01*
X145930952Y-85335904D01*
G04 #@! TO.C,C18*
X117197142Y-90035142D02*
X117244761Y-89987523D01*
X117292380Y-89844666D01*
X117292380Y-89749428D01*
X117244761Y-89606571D01*
X117149523Y-89511333D01*
X117054285Y-89463714D01*
X116863809Y-89416095D01*
X116720952Y-89416095D01*
X116530476Y-89463714D01*
X116435238Y-89511333D01*
X116340000Y-89606571D01*
X116292380Y-89749428D01*
X116292380Y-89844666D01*
X116340000Y-89987523D01*
X116387619Y-90035142D01*
X117292380Y-90987523D02*
X117292380Y-90416095D01*
X117292380Y-90701809D02*
X116292380Y-90701809D01*
X116435238Y-90606571D01*
X116530476Y-90511333D01*
X116578095Y-90416095D01*
X116720952Y-91558952D02*
X116673333Y-91463714D01*
X116625714Y-91416095D01*
X116530476Y-91368476D01*
X116482857Y-91368476D01*
X116387619Y-91416095D01*
X116340000Y-91463714D01*
X116292380Y-91558952D01*
X116292380Y-91749428D01*
X116340000Y-91844666D01*
X116387619Y-91892285D01*
X116482857Y-91939904D01*
X116530476Y-91939904D01*
X116625714Y-91892285D01*
X116673333Y-91844666D01*
X116720952Y-91749428D01*
X116720952Y-91558952D01*
X116768571Y-91463714D01*
X116816190Y-91416095D01*
X116911428Y-91368476D01*
X117101904Y-91368476D01*
X117197142Y-91416095D01*
X117244761Y-91463714D01*
X117292380Y-91558952D01*
X117292380Y-91749428D01*
X117244761Y-91844666D01*
X117197142Y-91892285D01*
X117101904Y-91939904D01*
X116911428Y-91939904D01*
X116816190Y-91892285D01*
X116768571Y-91844666D01*
X116720952Y-91749428D01*
G04 #@! TO.C,C17*
X133199142Y-80383142D02*
X133246761Y-80335523D01*
X133294380Y-80192666D01*
X133294380Y-80097428D01*
X133246761Y-79954571D01*
X133151523Y-79859333D01*
X133056285Y-79811714D01*
X132865809Y-79764095D01*
X132722952Y-79764095D01*
X132532476Y-79811714D01*
X132437238Y-79859333D01*
X132342000Y-79954571D01*
X132294380Y-80097428D01*
X132294380Y-80192666D01*
X132342000Y-80335523D01*
X132389619Y-80383142D01*
X133294380Y-81335523D02*
X133294380Y-80764095D01*
X133294380Y-81049809D02*
X132294380Y-81049809D01*
X132437238Y-80954571D01*
X132532476Y-80859333D01*
X132580095Y-80764095D01*
X132294380Y-81668857D02*
X132294380Y-82335523D01*
X133294380Y-81906952D01*
G04 #@! TO.C,C16*
X121007142Y-90035142D02*
X121054761Y-89987523D01*
X121102380Y-89844666D01*
X121102380Y-89749428D01*
X121054761Y-89606571D01*
X120959523Y-89511333D01*
X120864285Y-89463714D01*
X120673809Y-89416095D01*
X120530952Y-89416095D01*
X120340476Y-89463714D01*
X120245238Y-89511333D01*
X120150000Y-89606571D01*
X120102380Y-89749428D01*
X120102380Y-89844666D01*
X120150000Y-89987523D01*
X120197619Y-90035142D01*
X121102380Y-90987523D02*
X121102380Y-90416095D01*
X121102380Y-90701809D02*
X120102380Y-90701809D01*
X120245238Y-90606571D01*
X120340476Y-90511333D01*
X120388095Y-90416095D01*
X120102380Y-91844666D02*
X120102380Y-91654190D01*
X120150000Y-91558952D01*
X120197619Y-91511333D01*
X120340476Y-91416095D01*
X120530952Y-91368476D01*
X120911904Y-91368476D01*
X121007142Y-91416095D01*
X121054761Y-91463714D01*
X121102380Y-91558952D01*
X121102380Y-91749428D01*
X121054761Y-91844666D01*
X121007142Y-91892285D01*
X120911904Y-91939904D01*
X120673809Y-91939904D01*
X120578571Y-91892285D01*
X120530952Y-91844666D01*
X120483333Y-91749428D01*
X120483333Y-91558952D01*
X120530952Y-91463714D01*
X120578571Y-91416095D01*
X120673809Y-91368476D01*
G04 #@! TO.C,C20*
X146406142Y-97401142D02*
X146453761Y-97353523D01*
X146501380Y-97210666D01*
X146501380Y-97115428D01*
X146453761Y-96972571D01*
X146358523Y-96877333D01*
X146263285Y-96829714D01*
X146072809Y-96782095D01*
X145929952Y-96782095D01*
X145739476Y-96829714D01*
X145644238Y-96877333D01*
X145549000Y-96972571D01*
X145501380Y-97115428D01*
X145501380Y-97210666D01*
X145549000Y-97353523D01*
X145596619Y-97401142D01*
X145596619Y-97782095D02*
X145549000Y-97829714D01*
X145501380Y-97924952D01*
X145501380Y-98163047D01*
X145549000Y-98258285D01*
X145596619Y-98305904D01*
X145691857Y-98353523D01*
X145787095Y-98353523D01*
X145929952Y-98305904D01*
X146501380Y-97734476D01*
X146501380Y-98353523D01*
X145501380Y-98972571D02*
X145501380Y-99067809D01*
X145549000Y-99163047D01*
X145596619Y-99210666D01*
X145691857Y-99258285D01*
X145882333Y-99305904D01*
X146120428Y-99305904D01*
X146310904Y-99258285D01*
X146406142Y-99210666D01*
X146453761Y-99163047D01*
X146501380Y-99067809D01*
X146501380Y-98972571D01*
X146453761Y-98877333D01*
X146406142Y-98829714D01*
X146310904Y-98782095D01*
X146120428Y-98734476D01*
X145882333Y-98734476D01*
X145691857Y-98782095D01*
X145596619Y-98829714D01*
X145549000Y-98877333D01*
X145501380Y-98972571D01*
G04 #@! TO.C,J2*
X120356380Y-100504666D02*
X121070666Y-100504666D01*
X121213523Y-100457047D01*
X121308761Y-100361809D01*
X121356380Y-100218952D01*
X121356380Y-100123714D01*
X120451619Y-100933238D02*
X120404000Y-100980857D01*
X120356380Y-101076095D01*
X120356380Y-101314190D01*
X120404000Y-101409428D01*
X120451619Y-101457047D01*
X120546857Y-101504666D01*
X120642095Y-101504666D01*
X120784952Y-101457047D01*
X121356380Y-100885619D01*
X121356380Y-101504666D01*
G04 #@! TO.C,D13*
X118562380Y-51617714D02*
X117562380Y-51617714D01*
X117562380Y-51855809D01*
X117610000Y-51998666D01*
X117705238Y-52093904D01*
X117800476Y-52141523D01*
X117990952Y-52189142D01*
X118133809Y-52189142D01*
X118324285Y-52141523D01*
X118419523Y-52093904D01*
X118514761Y-51998666D01*
X118562380Y-51855809D01*
X118562380Y-51617714D01*
X118562380Y-53141523D02*
X118562380Y-52570095D01*
X118562380Y-52855809D02*
X117562380Y-52855809D01*
X117705238Y-52760571D01*
X117800476Y-52665333D01*
X117848095Y-52570095D01*
X117562380Y-53474857D02*
X117562380Y-54093904D01*
X117943333Y-53760571D01*
X117943333Y-53903428D01*
X117990952Y-53998666D01*
X118038571Y-54046285D01*
X118133809Y-54093904D01*
X118371904Y-54093904D01*
X118467142Y-54046285D01*
X118514761Y-53998666D01*
X118562380Y-53903428D01*
X118562380Y-53617714D01*
X118514761Y-53522476D01*
X118467142Y-53474857D01*
G04 #@! TO.C,R27*
X127960380Y-69715142D02*
X127484190Y-69381809D01*
X127960380Y-69143714D02*
X126960380Y-69143714D01*
X126960380Y-69524666D01*
X127008000Y-69619904D01*
X127055619Y-69667523D01*
X127150857Y-69715142D01*
X127293714Y-69715142D01*
X127388952Y-69667523D01*
X127436571Y-69619904D01*
X127484190Y-69524666D01*
X127484190Y-69143714D01*
X127055619Y-70096095D02*
X127008000Y-70143714D01*
X126960380Y-70238952D01*
X126960380Y-70477047D01*
X127008000Y-70572285D01*
X127055619Y-70619904D01*
X127150857Y-70667523D01*
X127246095Y-70667523D01*
X127388952Y-70619904D01*
X127960380Y-70048476D01*
X127960380Y-70667523D01*
X126960380Y-71000857D02*
X126960380Y-71667523D01*
X127960380Y-71238952D01*
G04 #@! TO.C,R28*
X117926380Y-60571142D02*
X117450190Y-60237809D01*
X117926380Y-59999714D02*
X116926380Y-59999714D01*
X116926380Y-60380666D01*
X116974000Y-60475904D01*
X117021619Y-60523523D01*
X117116857Y-60571142D01*
X117259714Y-60571142D01*
X117354952Y-60523523D01*
X117402571Y-60475904D01*
X117450190Y-60380666D01*
X117450190Y-59999714D01*
X117021619Y-60952095D02*
X116974000Y-60999714D01*
X116926380Y-61094952D01*
X116926380Y-61333047D01*
X116974000Y-61428285D01*
X117021619Y-61475904D01*
X117116857Y-61523523D01*
X117212095Y-61523523D01*
X117354952Y-61475904D01*
X117926380Y-60904476D01*
X117926380Y-61523523D01*
X117354952Y-62094952D02*
X117307333Y-61999714D01*
X117259714Y-61952095D01*
X117164476Y-61904476D01*
X117116857Y-61904476D01*
X117021619Y-61952095D01*
X116974000Y-61999714D01*
X116926380Y-62094952D01*
X116926380Y-62285428D01*
X116974000Y-62380666D01*
X117021619Y-62428285D01*
X117116857Y-62475904D01*
X117164476Y-62475904D01*
X117259714Y-62428285D01*
X117307333Y-62380666D01*
X117354952Y-62285428D01*
X117354952Y-62094952D01*
X117402571Y-61999714D01*
X117450190Y-61952095D01*
X117545428Y-61904476D01*
X117735904Y-61904476D01*
X117831142Y-61952095D01*
X117878761Y-61999714D01*
X117926380Y-62094952D01*
X117926380Y-62285428D01*
X117878761Y-62380666D01*
X117831142Y-62428285D01*
X117735904Y-62475904D01*
X117545428Y-62475904D01*
X117450190Y-62428285D01*
X117402571Y-62380666D01*
X117354952Y-62285428D01*
G04 #@! TO.C,R26*
X128086380Y-101211142D02*
X127610190Y-100877809D01*
X128086380Y-100639714D02*
X127086380Y-100639714D01*
X127086380Y-101020666D01*
X127134000Y-101115904D01*
X127181619Y-101163523D01*
X127276857Y-101211142D01*
X127419714Y-101211142D01*
X127514952Y-101163523D01*
X127562571Y-101115904D01*
X127610190Y-101020666D01*
X127610190Y-100639714D01*
X127181619Y-101592095D02*
X127134000Y-101639714D01*
X127086380Y-101734952D01*
X127086380Y-101973047D01*
X127134000Y-102068285D01*
X127181619Y-102115904D01*
X127276857Y-102163523D01*
X127372095Y-102163523D01*
X127514952Y-102115904D01*
X128086380Y-101544476D01*
X128086380Y-102163523D01*
X127086380Y-103020666D02*
X127086380Y-102830190D01*
X127134000Y-102734952D01*
X127181619Y-102687333D01*
X127324476Y-102592095D01*
X127514952Y-102544476D01*
X127895904Y-102544476D01*
X127991142Y-102592095D01*
X128038761Y-102639714D01*
X128086380Y-102734952D01*
X128086380Y-102925428D01*
X128038761Y-103020666D01*
X127991142Y-103068285D01*
X127895904Y-103115904D01*
X127657809Y-103115904D01*
X127562571Y-103068285D01*
X127514952Y-103020666D01*
X127467333Y-102925428D01*
X127467333Y-102734952D01*
X127514952Y-102639714D01*
X127562571Y-102592095D01*
X127657809Y-102544476D01*
G04 #@! TO.C,R25*
X128214380Y-106926142D02*
X127738190Y-106592809D01*
X128214380Y-106354714D02*
X127214380Y-106354714D01*
X127214380Y-106735666D01*
X127262000Y-106830904D01*
X127309619Y-106878523D01*
X127404857Y-106926142D01*
X127547714Y-106926142D01*
X127642952Y-106878523D01*
X127690571Y-106830904D01*
X127738190Y-106735666D01*
X127738190Y-106354714D01*
X127309619Y-107307095D02*
X127262000Y-107354714D01*
X127214380Y-107449952D01*
X127214380Y-107688047D01*
X127262000Y-107783285D01*
X127309619Y-107830904D01*
X127404857Y-107878523D01*
X127500095Y-107878523D01*
X127642952Y-107830904D01*
X128214380Y-107259476D01*
X128214380Y-107878523D01*
X127214380Y-108783285D02*
X127214380Y-108307095D01*
X127690571Y-108259476D01*
X127642952Y-108307095D01*
X127595333Y-108402333D01*
X127595333Y-108640428D01*
X127642952Y-108735666D01*
X127690571Y-108783285D01*
X127785809Y-108830904D01*
X128023904Y-108830904D01*
X128119142Y-108783285D01*
X128166761Y-108735666D01*
X128214380Y-108640428D01*
X128214380Y-108402333D01*
X128166761Y-108307095D01*
X128119142Y-108259476D01*
G04 #@! TO.C,R24*
X128214380Y-120515142D02*
X127738190Y-120181809D01*
X128214380Y-119943714D02*
X127214380Y-119943714D01*
X127214380Y-120324666D01*
X127262000Y-120419904D01*
X127309619Y-120467523D01*
X127404857Y-120515142D01*
X127547714Y-120515142D01*
X127642952Y-120467523D01*
X127690571Y-120419904D01*
X127738190Y-120324666D01*
X127738190Y-119943714D01*
X127309619Y-120896095D02*
X127262000Y-120943714D01*
X127214380Y-121038952D01*
X127214380Y-121277047D01*
X127262000Y-121372285D01*
X127309619Y-121419904D01*
X127404857Y-121467523D01*
X127500095Y-121467523D01*
X127642952Y-121419904D01*
X128214380Y-120848476D01*
X128214380Y-121467523D01*
X127547714Y-122324666D02*
X128214380Y-122324666D01*
X127166761Y-122086571D02*
X127881047Y-121848476D01*
X127881047Y-122467523D01*
G04 #@! TO.C,R23*
X114116380Y-60571142D02*
X113640190Y-60237809D01*
X114116380Y-59999714D02*
X113116380Y-59999714D01*
X113116380Y-60380666D01*
X113164000Y-60475904D01*
X113211619Y-60523523D01*
X113306857Y-60571142D01*
X113449714Y-60571142D01*
X113544952Y-60523523D01*
X113592571Y-60475904D01*
X113640190Y-60380666D01*
X113640190Y-59999714D01*
X113211619Y-60952095D02*
X113164000Y-60999714D01*
X113116380Y-61094952D01*
X113116380Y-61333047D01*
X113164000Y-61428285D01*
X113211619Y-61475904D01*
X113306857Y-61523523D01*
X113402095Y-61523523D01*
X113544952Y-61475904D01*
X114116380Y-60904476D01*
X114116380Y-61523523D01*
X113116380Y-61856857D02*
X113116380Y-62475904D01*
X113497333Y-62142571D01*
X113497333Y-62285428D01*
X113544952Y-62380666D01*
X113592571Y-62428285D01*
X113687809Y-62475904D01*
X113925904Y-62475904D01*
X114021142Y-62428285D01*
X114068761Y-62380666D01*
X114116380Y-62285428D01*
X114116380Y-61999714D01*
X114068761Y-61904476D01*
X114021142Y-61856857D01*
G04 #@! TO.C,R22*
X141168380Y-123861920D02*
X140692190Y-123528587D01*
X141168380Y-123290492D02*
X140168380Y-123290492D01*
X140168380Y-123671444D01*
X140216000Y-123766682D01*
X140263619Y-123814301D01*
X140358857Y-123861920D01*
X140501714Y-123861920D01*
X140596952Y-123814301D01*
X140644571Y-123766682D01*
X140692190Y-123671444D01*
X140692190Y-123290492D01*
X140263619Y-124242873D02*
X140216000Y-124290492D01*
X140168380Y-124385730D01*
X140168380Y-124623825D01*
X140216000Y-124719063D01*
X140263619Y-124766682D01*
X140358857Y-124814301D01*
X140454095Y-124814301D01*
X140596952Y-124766682D01*
X141168380Y-124195254D01*
X141168380Y-124814301D01*
X140263619Y-125195254D02*
X140216000Y-125242873D01*
X140168380Y-125338111D01*
X140168380Y-125576206D01*
X140216000Y-125671444D01*
X140263619Y-125719063D01*
X140358857Y-125766682D01*
X140454095Y-125766682D01*
X140596952Y-125719063D01*
X141168380Y-125147635D01*
X141168380Y-125766682D01*
G04 #@! TO.C,R21*
X138477130Y-123861920D02*
X138000940Y-123528587D01*
X138477130Y-123290492D02*
X137477130Y-123290492D01*
X137477130Y-123671444D01*
X137524750Y-123766682D01*
X137572369Y-123814301D01*
X137667607Y-123861920D01*
X137810464Y-123861920D01*
X137905702Y-123814301D01*
X137953321Y-123766682D01*
X138000940Y-123671444D01*
X138000940Y-123290492D01*
X137572369Y-124242873D02*
X137524750Y-124290492D01*
X137477130Y-124385730D01*
X137477130Y-124623825D01*
X137524750Y-124719063D01*
X137572369Y-124766682D01*
X137667607Y-124814301D01*
X137762845Y-124814301D01*
X137905702Y-124766682D01*
X138477130Y-124195254D01*
X138477130Y-124814301D01*
X138477130Y-125766682D02*
X138477130Y-125195254D01*
X138477130Y-125480968D02*
X137477130Y-125480968D01*
X137619988Y-125385730D01*
X137715226Y-125290492D01*
X137762845Y-125195254D01*
G04 #@! TO.C,R20*
X120848380Y-128783142D02*
X120372190Y-128449809D01*
X120848380Y-128211714D02*
X119848380Y-128211714D01*
X119848380Y-128592666D01*
X119896000Y-128687904D01*
X119943619Y-128735523D01*
X120038857Y-128783142D01*
X120181714Y-128783142D01*
X120276952Y-128735523D01*
X120324571Y-128687904D01*
X120372190Y-128592666D01*
X120372190Y-128211714D01*
X119943619Y-129164095D02*
X119896000Y-129211714D01*
X119848380Y-129306952D01*
X119848380Y-129545047D01*
X119896000Y-129640285D01*
X119943619Y-129687904D01*
X120038857Y-129735523D01*
X120134095Y-129735523D01*
X120276952Y-129687904D01*
X120848380Y-129116476D01*
X120848380Y-129735523D01*
X119848380Y-130354571D02*
X119848380Y-130449809D01*
X119896000Y-130545047D01*
X119943619Y-130592666D01*
X120038857Y-130640285D01*
X120229333Y-130687904D01*
X120467428Y-130687904D01*
X120657904Y-130640285D01*
X120753142Y-130592666D01*
X120800761Y-130545047D01*
X120848380Y-130449809D01*
X120848380Y-130354571D01*
X120800761Y-130259333D01*
X120753142Y-130211714D01*
X120657904Y-130164095D01*
X120467428Y-130116476D01*
X120229333Y-130116476D01*
X120038857Y-130164095D01*
X119943619Y-130211714D01*
X119896000Y-130259333D01*
X119848380Y-130354571D01*
G04 #@! TO.C,R19*
X120815380Y-133287142D02*
X120339190Y-132953809D01*
X120815380Y-132715714D02*
X119815380Y-132715714D01*
X119815380Y-133096666D01*
X119863000Y-133191904D01*
X119910619Y-133239523D01*
X120005857Y-133287142D01*
X120148714Y-133287142D01*
X120243952Y-133239523D01*
X120291571Y-133191904D01*
X120339190Y-133096666D01*
X120339190Y-132715714D01*
X120815380Y-134239523D02*
X120815380Y-133668095D01*
X120815380Y-133953809D02*
X119815380Y-133953809D01*
X119958238Y-133858571D01*
X120053476Y-133763333D01*
X120101095Y-133668095D01*
X120815380Y-134715714D02*
X120815380Y-134906190D01*
X120767761Y-135001428D01*
X120720142Y-135049047D01*
X120577285Y-135144285D01*
X120386809Y-135191904D01*
X120005857Y-135191904D01*
X119910619Y-135144285D01*
X119863000Y-135096666D01*
X119815380Y-135001428D01*
X119815380Y-134810952D01*
X119863000Y-134715714D01*
X119910619Y-134668095D01*
X120005857Y-134620476D01*
X120243952Y-134620476D01*
X120339190Y-134668095D01*
X120386809Y-134715714D01*
X120434428Y-134810952D01*
X120434428Y-135001428D01*
X120386809Y-135096666D01*
X120339190Y-135144285D01*
X120243952Y-135191904D01*
G04 #@! TO.C,R18*
X117546380Y-133215142D02*
X117070190Y-132881809D01*
X117546380Y-132643714D02*
X116546380Y-132643714D01*
X116546380Y-133024666D01*
X116594000Y-133119904D01*
X116641619Y-133167523D01*
X116736857Y-133215142D01*
X116879714Y-133215142D01*
X116974952Y-133167523D01*
X117022571Y-133119904D01*
X117070190Y-133024666D01*
X117070190Y-132643714D01*
X117546380Y-134167523D02*
X117546380Y-133596095D01*
X117546380Y-133881809D02*
X116546380Y-133881809D01*
X116689238Y-133786571D01*
X116784476Y-133691333D01*
X116832095Y-133596095D01*
X116974952Y-134738952D02*
X116927333Y-134643714D01*
X116879714Y-134596095D01*
X116784476Y-134548476D01*
X116736857Y-134548476D01*
X116641619Y-134596095D01*
X116594000Y-134643714D01*
X116546380Y-134738952D01*
X116546380Y-134929428D01*
X116594000Y-135024666D01*
X116641619Y-135072285D01*
X116736857Y-135119904D01*
X116784476Y-135119904D01*
X116879714Y-135072285D01*
X116927333Y-135024666D01*
X116974952Y-134929428D01*
X116974952Y-134738952D01*
X117022571Y-134643714D01*
X117070190Y-134596095D01*
X117165428Y-134548476D01*
X117355904Y-134548476D01*
X117451142Y-134596095D01*
X117498761Y-134643714D01*
X117546380Y-134738952D01*
X117546380Y-134929428D01*
X117498761Y-135024666D01*
X117451142Y-135072285D01*
X117355904Y-135119904D01*
X117165428Y-135119904D01*
X117070190Y-135072285D01*
X117022571Y-135024666D01*
X116974952Y-134929428D01*
G04 #@! TO.C,R17*
X143454380Y-137641142D02*
X142978190Y-137307809D01*
X143454380Y-137069714D02*
X142454380Y-137069714D01*
X142454380Y-137450666D01*
X142502000Y-137545904D01*
X142549619Y-137593523D01*
X142644857Y-137641142D01*
X142787714Y-137641142D01*
X142882952Y-137593523D01*
X142930571Y-137545904D01*
X142978190Y-137450666D01*
X142978190Y-137069714D01*
X143454380Y-138593523D02*
X143454380Y-138022095D01*
X143454380Y-138307809D02*
X142454380Y-138307809D01*
X142597238Y-138212571D01*
X142692476Y-138117333D01*
X142740095Y-138022095D01*
X142454380Y-138926857D02*
X142454380Y-139593523D01*
X143454380Y-139164952D01*
G04 #@! TO.C,R16*
X140660380Y-137787142D02*
X140184190Y-137453809D01*
X140660380Y-137215714D02*
X139660380Y-137215714D01*
X139660380Y-137596666D01*
X139708000Y-137691904D01*
X139755619Y-137739523D01*
X139850857Y-137787142D01*
X139993714Y-137787142D01*
X140088952Y-137739523D01*
X140136571Y-137691904D01*
X140184190Y-137596666D01*
X140184190Y-137215714D01*
X140660380Y-138739523D02*
X140660380Y-138168095D01*
X140660380Y-138453809D02*
X139660380Y-138453809D01*
X139803238Y-138358571D01*
X139898476Y-138263333D01*
X139946095Y-138168095D01*
X139660380Y-139596666D02*
X139660380Y-139406190D01*
X139708000Y-139310952D01*
X139755619Y-139263333D01*
X139898476Y-139168095D01*
X140088952Y-139120476D01*
X140469904Y-139120476D01*
X140565142Y-139168095D01*
X140612761Y-139215714D01*
X140660380Y-139310952D01*
X140660380Y-139501428D01*
X140612761Y-139596666D01*
X140565142Y-139644285D01*
X140469904Y-139691904D01*
X140231809Y-139691904D01*
X140136571Y-139644285D01*
X140088952Y-139596666D01*
X140041333Y-139501428D01*
X140041333Y-139310952D01*
X140088952Y-139215714D01*
X140136571Y-139168095D01*
X140231809Y-139120476D01*
G04 #@! TO.C,R15*
X132278380Y-128897142D02*
X131802190Y-128563809D01*
X132278380Y-128325714D02*
X131278380Y-128325714D01*
X131278380Y-128706666D01*
X131326000Y-128801904D01*
X131373619Y-128849523D01*
X131468857Y-128897142D01*
X131611714Y-128897142D01*
X131706952Y-128849523D01*
X131754571Y-128801904D01*
X131802190Y-128706666D01*
X131802190Y-128325714D01*
X132278380Y-129849523D02*
X132278380Y-129278095D01*
X132278380Y-129563809D02*
X131278380Y-129563809D01*
X131421238Y-129468571D01*
X131516476Y-129373333D01*
X131564095Y-129278095D01*
X131278380Y-130754285D02*
X131278380Y-130278095D01*
X131754571Y-130230476D01*
X131706952Y-130278095D01*
X131659333Y-130373333D01*
X131659333Y-130611428D01*
X131706952Y-130706666D01*
X131754571Y-130754285D01*
X131849809Y-130801904D01*
X132087904Y-130801904D01*
X132183142Y-130754285D01*
X132230761Y-130706666D01*
X132278380Y-130611428D01*
X132278380Y-130373333D01*
X132230761Y-130278095D01*
X132183142Y-130230476D01*
G04 #@! TO.C,R14*
X134564380Y-137787142D02*
X134088190Y-137453809D01*
X134564380Y-137215714D02*
X133564380Y-137215714D01*
X133564380Y-137596666D01*
X133612000Y-137691904D01*
X133659619Y-137739523D01*
X133754857Y-137787142D01*
X133897714Y-137787142D01*
X133992952Y-137739523D01*
X134040571Y-137691904D01*
X134088190Y-137596666D01*
X134088190Y-137215714D01*
X134564380Y-138739523D02*
X134564380Y-138168095D01*
X134564380Y-138453809D02*
X133564380Y-138453809D01*
X133707238Y-138358571D01*
X133802476Y-138263333D01*
X133850095Y-138168095D01*
X133897714Y-139596666D02*
X134564380Y-139596666D01*
X133516761Y-139358571D02*
X134231047Y-139120476D01*
X134231047Y-139739523D01*
G04 #@! TO.C,R13*
X137866380Y-137656142D02*
X137390190Y-137322809D01*
X137866380Y-137084714D02*
X136866380Y-137084714D01*
X136866380Y-137465666D01*
X136914000Y-137560904D01*
X136961619Y-137608523D01*
X137056857Y-137656142D01*
X137199714Y-137656142D01*
X137294952Y-137608523D01*
X137342571Y-137560904D01*
X137390190Y-137465666D01*
X137390190Y-137084714D01*
X137866380Y-138608523D02*
X137866380Y-138037095D01*
X137866380Y-138322809D02*
X136866380Y-138322809D01*
X137009238Y-138227571D01*
X137104476Y-138132333D01*
X137152095Y-138037095D01*
X136866380Y-138941857D02*
X136866380Y-139560904D01*
X137247333Y-139227571D01*
X137247333Y-139370428D01*
X137294952Y-139465666D01*
X137342571Y-139513285D01*
X137437809Y-139560904D01*
X137675904Y-139560904D01*
X137771142Y-139513285D01*
X137818761Y-139465666D01*
X137866380Y-139370428D01*
X137866380Y-139084714D01*
X137818761Y-138989476D01*
X137771142Y-138941857D01*
G04 #@! TO.C,R11*
X127198380Y-133469142D02*
X126722190Y-133135809D01*
X127198380Y-132897714D02*
X126198380Y-132897714D01*
X126198380Y-133278666D01*
X126246000Y-133373904D01*
X126293619Y-133421523D01*
X126388857Y-133469142D01*
X126531714Y-133469142D01*
X126626952Y-133421523D01*
X126674571Y-133373904D01*
X126722190Y-133278666D01*
X126722190Y-132897714D01*
X127198380Y-134421523D02*
X127198380Y-133850095D01*
X127198380Y-134135809D02*
X126198380Y-134135809D01*
X126341238Y-134040571D01*
X126436476Y-133945333D01*
X126484095Y-133850095D01*
X127198380Y-135373904D02*
X127198380Y-134802476D01*
X127198380Y-135088190D02*
X126198380Y-135088190D01*
X126341238Y-134992952D01*
X126436476Y-134897714D01*
X126484095Y-134802476D01*
G04 #@! TO.C,R10*
X115386380Y-108831142D02*
X114910190Y-108497809D01*
X115386380Y-108259714D02*
X114386380Y-108259714D01*
X114386380Y-108640666D01*
X114434000Y-108735904D01*
X114481619Y-108783523D01*
X114576857Y-108831142D01*
X114719714Y-108831142D01*
X114814952Y-108783523D01*
X114862571Y-108735904D01*
X114910190Y-108640666D01*
X114910190Y-108259714D01*
X115386380Y-109783523D02*
X115386380Y-109212095D01*
X115386380Y-109497809D02*
X114386380Y-109497809D01*
X114529238Y-109402571D01*
X114624476Y-109307333D01*
X114672095Y-109212095D01*
X114386380Y-110402571D02*
X114386380Y-110497809D01*
X114434000Y-110593047D01*
X114481619Y-110640666D01*
X114576857Y-110688285D01*
X114767333Y-110735904D01*
X115005428Y-110735904D01*
X115195904Y-110688285D01*
X115291142Y-110640666D01*
X115338761Y-110593047D01*
X115386380Y-110497809D01*
X115386380Y-110402571D01*
X115338761Y-110307333D01*
X115291142Y-110259714D01*
X115195904Y-110212095D01*
X115005428Y-110164476D01*
X114767333Y-110164476D01*
X114576857Y-110212095D01*
X114481619Y-110259714D01*
X114434000Y-110307333D01*
X114386380Y-110402571D01*
G04 #@! TO.C,R9*
X117926380Y-109307333D02*
X117450190Y-108974000D01*
X117926380Y-108735904D02*
X116926380Y-108735904D01*
X116926380Y-109116857D01*
X116974000Y-109212095D01*
X117021619Y-109259714D01*
X117116857Y-109307333D01*
X117259714Y-109307333D01*
X117354952Y-109259714D01*
X117402571Y-109212095D01*
X117450190Y-109116857D01*
X117450190Y-108735904D01*
X117926380Y-109783523D02*
X117926380Y-109974000D01*
X117878761Y-110069238D01*
X117831142Y-110116857D01*
X117688285Y-110212095D01*
X117497809Y-110259714D01*
X117116857Y-110259714D01*
X117021619Y-110212095D01*
X116974000Y-110164476D01*
X116926380Y-110069238D01*
X116926380Y-109878761D01*
X116974000Y-109783523D01*
X117021619Y-109735904D01*
X117116857Y-109688285D01*
X117354952Y-109688285D01*
X117450190Y-109735904D01*
X117497809Y-109783523D01*
X117545428Y-109878761D01*
X117545428Y-110069238D01*
X117497809Y-110164476D01*
X117450190Y-110212095D01*
X117354952Y-110259714D01*
G04 #@! TO.C,R8*
X120466380Y-109307333D02*
X119990190Y-108974000D01*
X120466380Y-108735904D02*
X119466380Y-108735904D01*
X119466380Y-109116857D01*
X119514000Y-109212095D01*
X119561619Y-109259714D01*
X119656857Y-109307333D01*
X119799714Y-109307333D01*
X119894952Y-109259714D01*
X119942571Y-109212095D01*
X119990190Y-109116857D01*
X119990190Y-108735904D01*
X119894952Y-109878761D02*
X119847333Y-109783523D01*
X119799714Y-109735904D01*
X119704476Y-109688285D01*
X119656857Y-109688285D01*
X119561619Y-109735904D01*
X119514000Y-109783523D01*
X119466380Y-109878761D01*
X119466380Y-110069238D01*
X119514000Y-110164476D01*
X119561619Y-110212095D01*
X119656857Y-110259714D01*
X119704476Y-110259714D01*
X119799714Y-110212095D01*
X119847333Y-110164476D01*
X119894952Y-110069238D01*
X119894952Y-109878761D01*
X119942571Y-109783523D01*
X119990190Y-109735904D01*
X120085428Y-109688285D01*
X120275904Y-109688285D01*
X120371142Y-109735904D01*
X120418761Y-109783523D01*
X120466380Y-109878761D01*
X120466380Y-110069238D01*
X120418761Y-110164476D01*
X120371142Y-110212095D01*
X120275904Y-110259714D01*
X120085428Y-110259714D01*
X119990190Y-110212095D01*
X119942571Y-110164476D01*
X119894952Y-110069238D01*
G04 #@! TO.C,R7*
X123006380Y-109307333D02*
X122530190Y-108974000D01*
X123006380Y-108735904D02*
X122006380Y-108735904D01*
X122006380Y-109116857D01*
X122054000Y-109212095D01*
X122101619Y-109259714D01*
X122196857Y-109307333D01*
X122339714Y-109307333D01*
X122434952Y-109259714D01*
X122482571Y-109212095D01*
X122530190Y-109116857D01*
X122530190Y-108735904D01*
X122006380Y-109640666D02*
X122006380Y-110307333D01*
X123006380Y-109878761D01*
G04 #@! TO.C,R6*
X136342380Y-81113333D02*
X135866190Y-80780000D01*
X136342380Y-80541904D02*
X135342380Y-80541904D01*
X135342380Y-80922857D01*
X135390000Y-81018095D01*
X135437619Y-81065714D01*
X135532857Y-81113333D01*
X135675714Y-81113333D01*
X135770952Y-81065714D01*
X135818571Y-81018095D01*
X135866190Y-80922857D01*
X135866190Y-80541904D01*
X135342380Y-81970476D02*
X135342380Y-81780000D01*
X135390000Y-81684761D01*
X135437619Y-81637142D01*
X135580476Y-81541904D01*
X135770952Y-81494285D01*
X136151904Y-81494285D01*
X136247142Y-81541904D01*
X136294761Y-81589523D01*
X136342380Y-81684761D01*
X136342380Y-81875238D01*
X136294761Y-81970476D01*
X136247142Y-82018095D01*
X136151904Y-82065714D01*
X135913809Y-82065714D01*
X135818571Y-82018095D01*
X135770952Y-81970476D01*
X135723333Y-81875238D01*
X135723333Y-81684761D01*
X135770952Y-81589523D01*
X135818571Y-81541904D01*
X135913809Y-81494285D01*
G04 #@! TO.C,R5*
X136342380Y-108037333D02*
X135866190Y-107704000D01*
X136342380Y-107465904D02*
X135342380Y-107465904D01*
X135342380Y-107846857D01*
X135390000Y-107942095D01*
X135437619Y-107989714D01*
X135532857Y-108037333D01*
X135675714Y-108037333D01*
X135770952Y-107989714D01*
X135818571Y-107942095D01*
X135866190Y-107846857D01*
X135866190Y-107465904D01*
X135342380Y-108942095D02*
X135342380Y-108465904D01*
X135818571Y-108418285D01*
X135770952Y-108465904D01*
X135723333Y-108561142D01*
X135723333Y-108799238D01*
X135770952Y-108894476D01*
X135818571Y-108942095D01*
X135913809Y-108989714D01*
X136151904Y-108989714D01*
X136247142Y-108942095D01*
X136294761Y-108894476D01*
X136342380Y-108799238D01*
X136342380Y-108561142D01*
X136294761Y-108465904D01*
X136247142Y-108418285D01*
G04 #@! TO.C,R4*
X136342380Y-94829333D02*
X135866190Y-94496000D01*
X136342380Y-94257904D02*
X135342380Y-94257904D01*
X135342380Y-94638857D01*
X135390000Y-94734095D01*
X135437619Y-94781714D01*
X135532857Y-94829333D01*
X135675714Y-94829333D01*
X135770952Y-94781714D01*
X135818571Y-94734095D01*
X135866190Y-94638857D01*
X135866190Y-94257904D01*
X135675714Y-95686476D02*
X136342380Y-95686476D01*
X135294761Y-95448380D02*
X136009047Y-95210285D01*
X136009047Y-95829333D01*
G04 #@! TO.C,R3*
X142691380Y-80732333D02*
X142215190Y-80399000D01*
X142691380Y-80160904D02*
X141691380Y-80160904D01*
X141691380Y-80541857D01*
X141739000Y-80637095D01*
X141786619Y-80684714D01*
X141881857Y-80732333D01*
X142024714Y-80732333D01*
X142119952Y-80684714D01*
X142167571Y-80637095D01*
X142215190Y-80541857D01*
X142215190Y-80160904D01*
X141691380Y-81065666D02*
X141691380Y-81684714D01*
X142072333Y-81351380D01*
X142072333Y-81494238D01*
X142119952Y-81589476D01*
X142167571Y-81637095D01*
X142262809Y-81684714D01*
X142500904Y-81684714D01*
X142596142Y-81637095D01*
X142643761Y-81589476D01*
X142691380Y-81494238D01*
X142691380Y-81208523D01*
X142643761Y-81113285D01*
X142596142Y-81065666D01*
G04 #@! TO.C,R2*
X142691380Y-108037333D02*
X142215190Y-107704000D01*
X142691380Y-107465904D02*
X141691380Y-107465904D01*
X141691380Y-107846857D01*
X141739000Y-107942095D01*
X141786619Y-107989714D01*
X141881857Y-108037333D01*
X142024714Y-108037333D01*
X142119952Y-107989714D01*
X142167571Y-107942095D01*
X142215190Y-107846857D01*
X142215190Y-107465904D01*
X141786619Y-108418285D02*
X141739000Y-108465904D01*
X141691380Y-108561142D01*
X141691380Y-108799238D01*
X141739000Y-108894476D01*
X141786619Y-108942095D01*
X141881857Y-108989714D01*
X141977095Y-108989714D01*
X142119952Y-108942095D01*
X142691380Y-108370666D01*
X142691380Y-108989714D01*
G04 #@! TO.C,R1*
X142691380Y-94702333D02*
X142215190Y-94369000D01*
X142691380Y-94130904D02*
X141691380Y-94130904D01*
X141691380Y-94511857D01*
X141739000Y-94607095D01*
X141786619Y-94654714D01*
X141881857Y-94702333D01*
X142024714Y-94702333D01*
X142119952Y-94654714D01*
X142167571Y-94607095D01*
X142215190Y-94511857D01*
X142215190Y-94130904D01*
X142691380Y-95654714D02*
X142691380Y-95083285D01*
X142691380Y-95369000D02*
X141691380Y-95369000D01*
X141834238Y-95273761D01*
X141929476Y-95178523D01*
X141977095Y-95083285D01*
G04 #@! TO.C,R12*
X128214380Y-137787142D02*
X127738190Y-137453809D01*
X128214380Y-137215714D02*
X127214380Y-137215714D01*
X127214380Y-137596666D01*
X127262000Y-137691904D01*
X127309619Y-137739523D01*
X127404857Y-137787142D01*
X127547714Y-137787142D01*
X127642952Y-137739523D01*
X127690571Y-137691904D01*
X127738190Y-137596666D01*
X127738190Y-137215714D01*
X128214380Y-138739523D02*
X128214380Y-138168095D01*
X128214380Y-138453809D02*
X127214380Y-138453809D01*
X127357238Y-138358571D01*
X127452476Y-138263333D01*
X127500095Y-138168095D01*
X127309619Y-139120476D02*
X127262000Y-139168095D01*
X127214380Y-139263333D01*
X127214380Y-139501428D01*
X127262000Y-139596666D01*
X127309619Y-139644285D01*
X127404857Y-139691904D01*
X127500095Y-139691904D01*
X127642952Y-139644285D01*
X128214380Y-139072857D01*
X128214380Y-139691904D01*
G04 #@! TO.C,C15*
X131167142Y-76827142D02*
X131214761Y-76779523D01*
X131262380Y-76636666D01*
X131262380Y-76541428D01*
X131214761Y-76398571D01*
X131119523Y-76303333D01*
X131024285Y-76255714D01*
X130833809Y-76208095D01*
X130690952Y-76208095D01*
X130500476Y-76255714D01*
X130405238Y-76303333D01*
X130310000Y-76398571D01*
X130262380Y-76541428D01*
X130262380Y-76636666D01*
X130310000Y-76779523D01*
X130357619Y-76827142D01*
X131262380Y-77779523D02*
X131262380Y-77208095D01*
X131262380Y-77493809D02*
X130262380Y-77493809D01*
X130405238Y-77398571D01*
X130500476Y-77303333D01*
X130548095Y-77208095D01*
X130262380Y-78684285D02*
X130262380Y-78208095D01*
X130738571Y-78160476D01*
X130690952Y-78208095D01*
X130643333Y-78303333D01*
X130643333Y-78541428D01*
X130690952Y-78636666D01*
X130738571Y-78684285D01*
X130833809Y-78731904D01*
X131071904Y-78731904D01*
X131167142Y-78684285D01*
X131214761Y-78636666D01*
X131262380Y-78541428D01*
X131262380Y-78303333D01*
X131214761Y-78208095D01*
X131167142Y-78160476D01*
G04 #@! TO.C,C12*
X139549142Y-59047142D02*
X139596761Y-58999523D01*
X139644380Y-58856666D01*
X139644380Y-58761428D01*
X139596761Y-58618571D01*
X139501523Y-58523333D01*
X139406285Y-58475714D01*
X139215809Y-58428095D01*
X139072952Y-58428095D01*
X138882476Y-58475714D01*
X138787238Y-58523333D01*
X138692000Y-58618571D01*
X138644380Y-58761428D01*
X138644380Y-58856666D01*
X138692000Y-58999523D01*
X138739619Y-59047142D01*
X139644380Y-59999523D02*
X139644380Y-59428095D01*
X139644380Y-59713809D02*
X138644380Y-59713809D01*
X138787238Y-59618571D01*
X138882476Y-59523333D01*
X138930095Y-59428095D01*
X138739619Y-60380476D02*
X138692000Y-60428095D01*
X138644380Y-60523333D01*
X138644380Y-60761428D01*
X138692000Y-60856666D01*
X138739619Y-60904285D01*
X138834857Y-60951904D01*
X138930095Y-60951904D01*
X139072952Y-60904285D01*
X139644380Y-60332857D01*
X139644380Y-60951904D01*
G04 #@! TO.C,C11*
X139295142Y-49649142D02*
X139342761Y-49601523D01*
X139390380Y-49458666D01*
X139390380Y-49363428D01*
X139342761Y-49220571D01*
X139247523Y-49125333D01*
X139152285Y-49077714D01*
X138961809Y-49030095D01*
X138818952Y-49030095D01*
X138628476Y-49077714D01*
X138533238Y-49125333D01*
X138438000Y-49220571D01*
X138390380Y-49363428D01*
X138390380Y-49458666D01*
X138438000Y-49601523D01*
X138485619Y-49649142D01*
X139390380Y-50601523D02*
X139390380Y-50030095D01*
X139390380Y-50315809D02*
X138390380Y-50315809D01*
X138533238Y-50220571D01*
X138628476Y-50125333D01*
X138676095Y-50030095D01*
X139390380Y-51553904D02*
X139390380Y-50982476D01*
X139390380Y-51268190D02*
X138390380Y-51268190D01*
X138533238Y-51172952D01*
X138628476Y-51077714D01*
X138676095Y-50982476D01*
G04 #@! TO.C,C7*
X123801142Y-133763333D02*
X123848761Y-133715714D01*
X123896380Y-133572857D01*
X123896380Y-133477619D01*
X123848761Y-133334761D01*
X123753523Y-133239523D01*
X123658285Y-133191904D01*
X123467809Y-133144285D01*
X123324952Y-133144285D01*
X123134476Y-133191904D01*
X123039238Y-133239523D01*
X122944000Y-133334761D01*
X122896380Y-133477619D01*
X122896380Y-133572857D01*
X122944000Y-133715714D01*
X122991619Y-133763333D01*
X122896380Y-134096666D02*
X122896380Y-134763333D01*
X123896380Y-134334761D01*
G04 #@! TO.C,C14*
X145899142Y-75557142D02*
X145946761Y-75509523D01*
X145994380Y-75366666D01*
X145994380Y-75271428D01*
X145946761Y-75128571D01*
X145851523Y-75033333D01*
X145756285Y-74985714D01*
X145565809Y-74938095D01*
X145422952Y-74938095D01*
X145232476Y-74985714D01*
X145137238Y-75033333D01*
X145042000Y-75128571D01*
X144994380Y-75271428D01*
X144994380Y-75366666D01*
X145042000Y-75509523D01*
X145089619Y-75557142D01*
X145994380Y-76509523D02*
X145994380Y-75938095D01*
X145994380Y-76223809D02*
X144994380Y-76223809D01*
X145137238Y-76128571D01*
X145232476Y-76033333D01*
X145280095Y-75938095D01*
X145327714Y-77366666D02*
X145994380Y-77366666D01*
X144946761Y-77128571D02*
X145661047Y-76890476D01*
X145661047Y-77509523D01*
G04 #@! TO.C,C13*
X145391142Y-54475142D02*
X145438761Y-54427523D01*
X145486380Y-54284666D01*
X145486380Y-54189428D01*
X145438761Y-54046571D01*
X145343523Y-53951333D01*
X145248285Y-53903714D01*
X145057809Y-53856095D01*
X144914952Y-53856095D01*
X144724476Y-53903714D01*
X144629238Y-53951333D01*
X144534000Y-54046571D01*
X144486380Y-54189428D01*
X144486380Y-54284666D01*
X144534000Y-54427523D01*
X144581619Y-54475142D01*
X145486380Y-55427523D02*
X145486380Y-54856095D01*
X145486380Y-55141809D02*
X144486380Y-55141809D01*
X144629238Y-55046571D01*
X144724476Y-54951333D01*
X144772095Y-54856095D01*
X144486380Y-55760857D02*
X144486380Y-56379904D01*
X144867333Y-56046571D01*
X144867333Y-56189428D01*
X144914952Y-56284666D01*
X144962571Y-56332285D01*
X145057809Y-56379904D01*
X145295904Y-56379904D01*
X145391142Y-56332285D01*
X145438761Y-56284666D01*
X145486380Y-56189428D01*
X145486380Y-55903714D01*
X145438761Y-55808476D01*
X145391142Y-55760857D01*
G04 #@! TO.C,C10*
X131547142Y-132707142D02*
X131594761Y-132659523D01*
X131642380Y-132516666D01*
X131642380Y-132421428D01*
X131594761Y-132278571D01*
X131499523Y-132183333D01*
X131404285Y-132135714D01*
X131213809Y-132088095D01*
X131070952Y-132088095D01*
X130880476Y-132135714D01*
X130785238Y-132183333D01*
X130690000Y-132278571D01*
X130642380Y-132421428D01*
X130642380Y-132516666D01*
X130690000Y-132659523D01*
X130737619Y-132707142D01*
X131642380Y-133659523D02*
X131642380Y-133088095D01*
X131642380Y-133373809D02*
X130642380Y-133373809D01*
X130785238Y-133278571D01*
X130880476Y-133183333D01*
X130928095Y-133088095D01*
X130642380Y-134278571D02*
X130642380Y-134373809D01*
X130690000Y-134469047D01*
X130737619Y-134516666D01*
X130832857Y-134564285D01*
X131023333Y-134611904D01*
X131261428Y-134611904D01*
X131451904Y-134564285D01*
X131547142Y-134516666D01*
X131594761Y-134469047D01*
X131642380Y-134373809D01*
X131642380Y-134278571D01*
X131594761Y-134183333D01*
X131547142Y-134135714D01*
X131451904Y-134088095D01*
X131261428Y-134040476D01*
X131023333Y-134040476D01*
X130832857Y-134088095D01*
X130737619Y-134135714D01*
X130690000Y-134183333D01*
X130642380Y-134278571D01*
G04 #@! TO.C,C9*
X124816142Y-123277333D02*
X124863761Y-123229714D01*
X124911380Y-123086857D01*
X124911380Y-122991619D01*
X124863761Y-122848761D01*
X124768523Y-122753523D01*
X124673285Y-122705904D01*
X124482809Y-122658285D01*
X124339952Y-122658285D01*
X124149476Y-122705904D01*
X124054238Y-122753523D01*
X123959000Y-122848761D01*
X123911380Y-122991619D01*
X123911380Y-123086857D01*
X123959000Y-123229714D01*
X124006619Y-123277333D01*
X124911380Y-123753523D02*
X124911380Y-123944000D01*
X124863761Y-124039238D01*
X124816142Y-124086857D01*
X124673285Y-124182095D01*
X124482809Y-124229714D01*
X124101857Y-124229714D01*
X124006619Y-124182095D01*
X123959000Y-124134476D01*
X123911380Y-124039238D01*
X123911380Y-123848761D01*
X123959000Y-123753523D01*
X124006619Y-123705904D01*
X124101857Y-123658285D01*
X124339952Y-123658285D01*
X124435190Y-123705904D01*
X124482809Y-123753523D01*
X124530428Y-123848761D01*
X124530428Y-124039238D01*
X124482809Y-124134476D01*
X124435190Y-124182095D01*
X124339952Y-124229714D01*
G04 #@! TO.C,C8*
X117451142Y-129119333D02*
X117498761Y-129071714D01*
X117546380Y-128928857D01*
X117546380Y-128833619D01*
X117498761Y-128690761D01*
X117403523Y-128595523D01*
X117308285Y-128547904D01*
X117117809Y-128500285D01*
X116974952Y-128500285D01*
X116784476Y-128547904D01*
X116689238Y-128595523D01*
X116594000Y-128690761D01*
X116546380Y-128833619D01*
X116546380Y-128928857D01*
X116594000Y-129071714D01*
X116641619Y-129119333D01*
X116974952Y-129690761D02*
X116927333Y-129595523D01*
X116879714Y-129547904D01*
X116784476Y-129500285D01*
X116736857Y-129500285D01*
X116641619Y-129547904D01*
X116594000Y-129595523D01*
X116546380Y-129690761D01*
X116546380Y-129881238D01*
X116594000Y-129976476D01*
X116641619Y-130024095D01*
X116736857Y-130071714D01*
X116784476Y-130071714D01*
X116879714Y-130024095D01*
X116927333Y-129976476D01*
X116974952Y-129881238D01*
X116974952Y-129690761D01*
X117022571Y-129595523D01*
X117070190Y-129547904D01*
X117165428Y-129500285D01*
X117355904Y-129500285D01*
X117451142Y-129547904D01*
X117498761Y-129595523D01*
X117546380Y-129690761D01*
X117546380Y-129881238D01*
X117498761Y-129976476D01*
X117451142Y-130024095D01*
X117355904Y-130071714D01*
X117165428Y-130071714D01*
X117070190Y-130024095D01*
X117022571Y-129976476D01*
X116974952Y-129881238D01*
G04 #@! TO.C,C5*
X131421142Y-138009333D02*
X131468761Y-137961714D01*
X131516380Y-137818857D01*
X131516380Y-137723619D01*
X131468761Y-137580761D01*
X131373523Y-137485523D01*
X131278285Y-137437904D01*
X131087809Y-137390285D01*
X130944952Y-137390285D01*
X130754476Y-137437904D01*
X130659238Y-137485523D01*
X130564000Y-137580761D01*
X130516380Y-137723619D01*
X130516380Y-137818857D01*
X130564000Y-137961714D01*
X130611619Y-138009333D01*
X130516380Y-138914095D02*
X130516380Y-138437904D01*
X130992571Y-138390285D01*
X130944952Y-138437904D01*
X130897333Y-138533142D01*
X130897333Y-138771238D01*
X130944952Y-138866476D01*
X130992571Y-138914095D01*
X131087809Y-138961714D01*
X131325904Y-138961714D01*
X131421142Y-138914095D01*
X131468761Y-138866476D01*
X131516380Y-138771238D01*
X131516380Y-138533142D01*
X131468761Y-138437904D01*
X131421142Y-138390285D01*
G04 #@! TO.C,C4*
X114911142Y-114387333D02*
X114958761Y-114339714D01*
X115006380Y-114196857D01*
X115006380Y-114101619D01*
X114958761Y-113958761D01*
X114863523Y-113863523D01*
X114768285Y-113815904D01*
X114577809Y-113768285D01*
X114434952Y-113768285D01*
X114244476Y-113815904D01*
X114149238Y-113863523D01*
X114054000Y-113958761D01*
X114006380Y-114101619D01*
X114006380Y-114196857D01*
X114054000Y-114339714D01*
X114101619Y-114387333D01*
X114339714Y-115244476D02*
X115006380Y-115244476D01*
X113958761Y-115006380D02*
X114673047Y-114768285D01*
X114673047Y-115387333D01*
G04 #@! TO.C,C3*
X117451142Y-114387333D02*
X117498761Y-114339714D01*
X117546380Y-114196857D01*
X117546380Y-114101619D01*
X117498761Y-113958761D01*
X117403523Y-113863523D01*
X117308285Y-113815904D01*
X117117809Y-113768285D01*
X116974952Y-113768285D01*
X116784476Y-113815904D01*
X116689238Y-113863523D01*
X116594000Y-113958761D01*
X116546380Y-114101619D01*
X116546380Y-114196857D01*
X116594000Y-114339714D01*
X116641619Y-114387333D01*
X116546380Y-114720666D02*
X116546380Y-115339714D01*
X116927333Y-115006380D01*
X116927333Y-115149238D01*
X116974952Y-115244476D01*
X117022571Y-115292095D01*
X117117809Y-115339714D01*
X117355904Y-115339714D01*
X117451142Y-115292095D01*
X117498761Y-115244476D01*
X117546380Y-115149238D01*
X117546380Y-114863523D01*
X117498761Y-114768285D01*
X117451142Y-114720666D01*
G04 #@! TO.C,C2*
X119991142Y-114387333D02*
X120038761Y-114339714D01*
X120086380Y-114196857D01*
X120086380Y-114101619D01*
X120038761Y-113958761D01*
X119943523Y-113863523D01*
X119848285Y-113815904D01*
X119657809Y-113768285D01*
X119514952Y-113768285D01*
X119324476Y-113815904D01*
X119229238Y-113863523D01*
X119134000Y-113958761D01*
X119086380Y-114101619D01*
X119086380Y-114196857D01*
X119134000Y-114339714D01*
X119181619Y-114387333D01*
X119181619Y-114768285D02*
X119134000Y-114815904D01*
X119086380Y-114911142D01*
X119086380Y-115149238D01*
X119134000Y-115244476D01*
X119181619Y-115292095D01*
X119276857Y-115339714D01*
X119372095Y-115339714D01*
X119514952Y-115292095D01*
X120086380Y-114720666D01*
X120086380Y-115339714D01*
G04 #@! TO.C,C1*
X123039142Y-114387333D02*
X123086761Y-114339714D01*
X123134380Y-114196857D01*
X123134380Y-114101619D01*
X123086761Y-113958761D01*
X122991523Y-113863523D01*
X122896285Y-113815904D01*
X122705809Y-113768285D01*
X122562952Y-113768285D01*
X122372476Y-113815904D01*
X122277238Y-113863523D01*
X122182000Y-113958761D01*
X122134380Y-114101619D01*
X122134380Y-114196857D01*
X122182000Y-114339714D01*
X122229619Y-114387333D01*
X123134380Y-115339714D02*
X123134380Y-114768285D01*
X123134380Y-115054000D02*
X122134380Y-115054000D01*
X122277238Y-114958761D01*
X122372476Y-114863523D01*
X122420095Y-114768285D01*
G04 #@! TO.C,C6*
X135231142Y-129259333D02*
X135278761Y-129211714D01*
X135326380Y-129068857D01*
X135326380Y-128973619D01*
X135278761Y-128830761D01*
X135183523Y-128735523D01*
X135088285Y-128687904D01*
X134897809Y-128640285D01*
X134754952Y-128640285D01*
X134564476Y-128687904D01*
X134469238Y-128735523D01*
X134374000Y-128830761D01*
X134326380Y-128973619D01*
X134326380Y-129068857D01*
X134374000Y-129211714D01*
X134421619Y-129259333D01*
X134326380Y-130116476D02*
X134326380Y-129926000D01*
X134374000Y-129830761D01*
X134421619Y-129783142D01*
X134564476Y-129687904D01*
X134754952Y-129640285D01*
X135135904Y-129640285D01*
X135231142Y-129687904D01*
X135278761Y-129735523D01*
X135326380Y-129830761D01*
X135326380Y-130021238D01*
X135278761Y-130116476D01*
X135231142Y-130164095D01*
X135135904Y-130211714D01*
X134897809Y-130211714D01*
X134802571Y-130164095D01*
X134754952Y-130116476D01*
X134707333Y-130021238D01*
X134707333Y-129830761D01*
X134754952Y-129735523D01*
X134802571Y-129687904D01*
X134897809Y-129640285D01*
G04 #@! TO.C,J1*
X130516380Y-55800666D02*
X131230666Y-55800666D01*
X131373523Y-55753047D01*
X131468761Y-55657809D01*
X131516380Y-55514952D01*
X131516380Y-55419714D01*
X131516380Y-56800666D02*
X131516380Y-56229238D01*
X131516380Y-56514952D02*
X130516380Y-56514952D01*
X130659238Y-56419714D01*
X130754476Y-56324476D01*
X130802095Y-56229238D01*
G04 #@! TO.C,D8*
X134786380Y-59205904D02*
X133786380Y-59205904D01*
X133786380Y-59444000D01*
X133834000Y-59586857D01*
X133929238Y-59682095D01*
X134024476Y-59729714D01*
X134214952Y-59777333D01*
X134357809Y-59777333D01*
X134548285Y-59729714D01*
X134643523Y-59682095D01*
X134738761Y-59586857D01*
X134786380Y-59444000D01*
X134786380Y-59205904D01*
X134214952Y-60348761D02*
X134167333Y-60253523D01*
X134119714Y-60205904D01*
X134024476Y-60158285D01*
X133976857Y-60158285D01*
X133881619Y-60205904D01*
X133834000Y-60253523D01*
X133786380Y-60348761D01*
X133786380Y-60539238D01*
X133834000Y-60634476D01*
X133881619Y-60682095D01*
X133976857Y-60729714D01*
X134024476Y-60729714D01*
X134119714Y-60682095D01*
X134167333Y-60634476D01*
X134214952Y-60539238D01*
X134214952Y-60348761D01*
X134262571Y-60253523D01*
X134310190Y-60205904D01*
X134405428Y-60158285D01*
X134595904Y-60158285D01*
X134691142Y-60205904D01*
X134738761Y-60253523D01*
X134786380Y-60348761D01*
X134786380Y-60539238D01*
X134738761Y-60634476D01*
X134691142Y-60682095D01*
X134595904Y-60729714D01*
X134405428Y-60729714D01*
X134310190Y-60682095D01*
X134262571Y-60634476D01*
X134214952Y-60539238D01*
G04 #@! TO.C,D7*
X134786380Y-50950904D02*
X133786380Y-50950904D01*
X133786380Y-51189000D01*
X133834000Y-51331857D01*
X133929238Y-51427095D01*
X134024476Y-51474714D01*
X134214952Y-51522333D01*
X134357809Y-51522333D01*
X134548285Y-51474714D01*
X134643523Y-51427095D01*
X134738761Y-51331857D01*
X134786380Y-51189000D01*
X134786380Y-50950904D01*
X133786380Y-51855666D02*
X133786380Y-52522333D01*
X134786380Y-52093761D01*
G04 #@! TO.C,D6*
X142946380Y-85621904D02*
X141946380Y-85621904D01*
X141946380Y-85860000D01*
X141994000Y-86002857D01*
X142089238Y-86098095D01*
X142184476Y-86145714D01*
X142374952Y-86193333D01*
X142517809Y-86193333D01*
X142708285Y-86145714D01*
X142803523Y-86098095D01*
X142898761Y-86002857D01*
X142946380Y-85860000D01*
X142946380Y-85621904D01*
X141946380Y-87050476D02*
X141946380Y-86860000D01*
X141994000Y-86764761D01*
X142041619Y-86717142D01*
X142184476Y-86621904D01*
X142374952Y-86574285D01*
X142755904Y-86574285D01*
X142851142Y-86621904D01*
X142898761Y-86669523D01*
X142946380Y-86764761D01*
X142946380Y-86955238D01*
X142898761Y-87050476D01*
X142851142Y-87098095D01*
X142755904Y-87145714D01*
X142517809Y-87145714D01*
X142422571Y-87098095D01*
X142374952Y-87050476D01*
X142327333Y-86955238D01*
X142327333Y-86764761D01*
X142374952Y-86669523D01*
X142422571Y-86621904D01*
X142517809Y-86574285D01*
G04 #@! TO.C,D5*
X139866380Y-82065904D02*
X138866380Y-82065904D01*
X138866380Y-82304000D01*
X138914000Y-82446857D01*
X139009238Y-82542095D01*
X139104476Y-82589714D01*
X139294952Y-82637333D01*
X139437809Y-82637333D01*
X139628285Y-82589714D01*
X139723523Y-82542095D01*
X139818761Y-82446857D01*
X139866380Y-82304000D01*
X139866380Y-82065904D01*
X138866380Y-83542095D02*
X138866380Y-83065904D01*
X139342571Y-83018285D01*
X139294952Y-83065904D01*
X139247333Y-83161142D01*
X139247333Y-83399238D01*
X139294952Y-83494476D01*
X139342571Y-83542095D01*
X139437809Y-83589714D01*
X139675904Y-83589714D01*
X139771142Y-83542095D01*
X139818761Y-83494476D01*
X139866380Y-83399238D01*
X139866380Y-83161142D01*
X139818761Y-83065904D01*
X139771142Y-83018285D01*
G04 #@! TO.C,D4*
X143200380Y-112291904D02*
X142200380Y-112291904D01*
X142200380Y-112530000D01*
X142248000Y-112672857D01*
X142343238Y-112768095D01*
X142438476Y-112815714D01*
X142628952Y-112863333D01*
X142771809Y-112863333D01*
X142962285Y-112815714D01*
X143057523Y-112768095D01*
X143152761Y-112672857D01*
X143200380Y-112530000D01*
X143200380Y-112291904D01*
X142533714Y-113720476D02*
X143200380Y-113720476D01*
X142152761Y-113482380D02*
X142867047Y-113244285D01*
X142867047Y-113863333D01*
G04 #@! TO.C,D3*
X136691380Y-112545904D02*
X135691380Y-112545904D01*
X135691380Y-112784000D01*
X135739000Y-112926857D01*
X135834238Y-113022095D01*
X135929476Y-113069714D01*
X136119952Y-113117333D01*
X136262809Y-113117333D01*
X136453285Y-113069714D01*
X136548523Y-113022095D01*
X136643761Y-112926857D01*
X136691380Y-112784000D01*
X136691380Y-112545904D01*
X135691380Y-113450666D02*
X135691380Y-114069714D01*
X136072333Y-113736380D01*
X136072333Y-113879238D01*
X136119952Y-113974476D01*
X136167571Y-114022095D01*
X136262809Y-114069714D01*
X136500904Y-114069714D01*
X136596142Y-114022095D01*
X136643761Y-113974476D01*
X136691380Y-113879238D01*
X136691380Y-113593523D01*
X136643761Y-113498285D01*
X136596142Y-113450666D01*
G04 #@! TO.C,D1*
X136691380Y-99210904D02*
X135691380Y-99210904D01*
X135691380Y-99449000D01*
X135739000Y-99591857D01*
X135834238Y-99687095D01*
X135929476Y-99734714D01*
X136119952Y-99782333D01*
X136262809Y-99782333D01*
X136453285Y-99734714D01*
X136548523Y-99687095D01*
X136643761Y-99591857D01*
X136691380Y-99449000D01*
X136691380Y-99210904D01*
X136691380Y-100734714D02*
X136691380Y-100163285D01*
X136691380Y-100449000D02*
X135691380Y-100449000D01*
X135834238Y-100353761D01*
X135929476Y-100258523D01*
X135977095Y-100163285D01*
G04 #@! TO.C,D2*
X142946380Y-99210904D02*
X141946380Y-99210904D01*
X141946380Y-99449000D01*
X141994000Y-99591857D01*
X142089238Y-99687095D01*
X142184476Y-99734714D01*
X142374952Y-99782333D01*
X142517809Y-99782333D01*
X142708285Y-99734714D01*
X142803523Y-99687095D01*
X142898761Y-99591857D01*
X142946380Y-99449000D01*
X142946380Y-99210904D01*
X142041619Y-100163285D02*
X141994000Y-100210904D01*
X141946380Y-100306142D01*
X141946380Y-100544238D01*
X141994000Y-100639476D01*
X142041619Y-100687095D01*
X142136857Y-100734714D01*
X142232095Y-100734714D01*
X142374952Y-100687095D01*
X142946380Y-100115666D01*
X142946380Y-100734714D01*
G04 #@! TO.C,D9*
X114498380Y-51839904D02*
X113498380Y-51839904D01*
X113498380Y-52078000D01*
X113546000Y-52220857D01*
X113641238Y-52316095D01*
X113736476Y-52363714D01*
X113926952Y-52411333D01*
X114069809Y-52411333D01*
X114260285Y-52363714D01*
X114355523Y-52316095D01*
X114450761Y-52220857D01*
X114498380Y-52078000D01*
X114498380Y-51839904D01*
X114498380Y-52887523D02*
X114498380Y-53078000D01*
X114450761Y-53173238D01*
X114403142Y-53220857D01*
X114260285Y-53316095D01*
X114069809Y-53363714D01*
X113688857Y-53363714D01*
X113593619Y-53316095D01*
X113546000Y-53268476D01*
X113498380Y-53173238D01*
X113498380Y-52982761D01*
X113546000Y-52887523D01*
X113593619Y-52839904D01*
X113688857Y-52792285D01*
X113926952Y-52792285D01*
X114022190Y-52839904D01*
X114069809Y-52887523D01*
X114117428Y-52982761D01*
X114117428Y-53173238D01*
X114069809Y-53268476D01*
X114022190Y-53316095D01*
X113926952Y-53363714D01*
G04 #@! TO.C,U3*
X137676380Y-67564095D02*
X138485904Y-67564095D01*
X138581142Y-67611714D01*
X138628761Y-67659333D01*
X138676380Y-67754571D01*
X138676380Y-67945047D01*
X138628761Y-68040285D01*
X138581142Y-68087904D01*
X138485904Y-68135523D01*
X137676380Y-68135523D01*
X137676380Y-68516476D02*
X137676380Y-69135523D01*
X138057333Y-68802190D01*
X138057333Y-68945047D01*
X138104952Y-69040285D01*
X138152571Y-69087904D01*
X138247809Y-69135523D01*
X138485904Y-69135523D01*
X138581142Y-69087904D01*
X138628761Y-69040285D01*
X138676380Y-68945047D01*
X138676380Y-68659333D01*
X138628761Y-68564095D01*
X138581142Y-68516476D01*
G04 #@! TO.C,U2*
X123127526Y-83188030D02*
X123699946Y-83760450D01*
X123733618Y-83861465D01*
X123733618Y-83928809D01*
X123699946Y-84029824D01*
X123565259Y-84164511D01*
X123464244Y-84198183D01*
X123396900Y-84198183D01*
X123295885Y-84164511D01*
X122723465Y-83592091D01*
X122487763Y-83962481D02*
X122420420Y-83962481D01*
X122319404Y-83996152D01*
X122151046Y-84164511D01*
X122117374Y-84265526D01*
X122117374Y-84332870D01*
X122151046Y-84433885D01*
X122218389Y-84501229D01*
X122353076Y-84568572D01*
X123161198Y-84568572D01*
X122723465Y-85006305D01*
G04 #@! TO.C,U1*
X127722380Y-128778095D02*
X128531904Y-128778095D01*
X128627142Y-128825714D01*
X128674761Y-128873333D01*
X128722380Y-128968571D01*
X128722380Y-129159047D01*
X128674761Y-129254285D01*
X128627142Y-129301904D01*
X128531904Y-129349523D01*
X127722380Y-129349523D01*
X128722380Y-130349523D02*
X128722380Y-129778095D01*
X128722380Y-130063809D02*
X127722380Y-130063809D01*
X127865238Y-129968571D01*
X127960476Y-129873333D01*
X128008095Y-129778095D01*
G04 #@! TD*
M02*
