M48
;DRILL file {KiCad (5.0.0)} date 08/19/18 12:52:40
;FORMAT={-:-/ absolute / inch / decimal}
FMAT,2
INCH,TZ
T1C0.0157
T2C0.0197
T3C0.0236
T4C0.0250
T5C0.0354
T6C0.0394
T7C0.0433
%
G90
G05
M72
T1
X4.365Y-3.355
X4.4Y-3.215
X4.41Y-3.5
X4.44Y-5.185
X4.45Y-3.45
X4.464Y-3.587
X4.466Y-3.519
X4.565Y-3.685
X4.57Y-5.185
X4.603Y-2.873
X4.63Y-3.485
X4.676Y-5.371
X4.686Y-3.487
X4.756Y-3.614
X4.8Y-5.368
X4.801Y-3.614
X4.83Y-3.29
X4.8493Y-2.96
X4.88Y-3.2
X4.88Y-5.185
X4.9Y-3.82
X4.9Y-4.81
X4.905Y-3.52
X4.907Y-3.446
X4.935Y-3.215
X4.9483Y-3.4083
X4.955Y-2.96
X4.965Y-3.59
X5.005Y-5.185
X5.01Y-3.194
X5.01Y-3.236
X5.015Y-3.5
X5.022Y-5.247
X5.022Y-5.302
X5.055Y-3.47
X5.072Y-3.411
X5.075Y-4.065
X5.08Y-3.78
X5.085Y-3.15
X5.122Y-2.935
X5.123Y-2.854
X5.124Y-3.493
X5.125Y-3.452
X5.13Y-3.74
X5.1321Y-4.2179
X5.1321Y-4.288
X5.179Y-3.006
X5.1893Y-3.3
X5.19Y-4.56
X5.19Y-4.65
X5.245Y-3.36
X5.26Y-4.065
X5.2733Y-3.0833
X5.285Y-3.3
X5.289Y-4.927
X5.33Y-3.07
X5.415Y-4.81
X5.439Y-5.35
X5.559Y-2.151
X5.633Y-3.42
T4
X5.73Y-2.2
X5.73Y-2.26
T5
X4.96Y-4.925
X5.06Y-4.925
X4.96Y-4.395
X5.06Y-4.395
X4.96Y-3.86
X5.06Y-3.86
T6
X4.5116Y-4.9553
X4.6116Y-4.9553
X4.7084Y-4.9553
X4.96Y-1.985
X4.96Y-2.085
X4.96Y-2.185
X4.96Y-2.285
X4.96Y-2.385
X5.06Y-1.985
X5.06Y-2.085
X5.06Y-2.185
X5.06Y-2.285
X5.06Y-2.385
X4.5116Y-3.3553
X4.6116Y-3.3553
X4.7084Y-3.3553
X4.56Y-3.76
X4.56Y-3.86
X4.56Y-3.96
X4.66Y-3.76
X4.66Y-3.86
X4.66Y-3.96
X4.41Y-2.71
X4.51Y-2.71
X4.61Y-2.71
X4.5116Y-4.1553
X4.6116Y-4.1553
X4.7084Y-4.1553
X4.5116Y-5.7553
X4.6116Y-5.7553
X4.7084Y-5.7553
X4.5116Y-2.5553
X4.6116Y-2.5553
X4.7084Y-2.5553
T7
X4.8791Y-2.5728
X4.8791Y-2.75
X5.135Y-2.5728
X5.135Y-2.75
X5.61Y-2.59
X5.61Y-2.69
X5.61Y-2.79
T2
X5.3883Y-4.7323G85X5.4317Y-4.7323
G05
X5.3883Y-5.2663G85X5.4317Y-5.2663
G05
X5.3883Y-3.6663G85X5.4317Y-3.6663
G05
X5.3883Y-4.1993G85X5.4317Y-4.1993
G05
X5.3883Y-3.1323G85X5.4317Y-3.1323
G05
T3
X5.3903Y-5.0591G85X5.4297Y-5.0591
G05
X5.3943Y-5.1811G85X5.4257Y-5.1811
G05
X5.3903Y-5.5931G85X5.4297Y-5.5931
G05
X5.3943Y-5.7151G85X5.4257Y-5.7151
G05
X5.3903Y-3.9931G85X5.4297Y-3.9931
G05
X5.3943Y-4.1151G85X5.4257Y-4.1151
G05
X5.3903Y-4.5261G85X5.4297Y-4.5261
G05
X5.3943Y-4.6481G85X5.4257Y-4.6481
G05
X5.3903Y-3.4591G85X5.4297Y-3.4591
G05
X5.3943Y-3.5811G85X5.4257Y-3.5811
G05
T5
X5.3844Y-2.61G85X5.4356Y-2.61
G05
X5.3844Y-2.795G85X5.4356Y-2.795
G05
X5.3844Y-2.9801G85X5.4356Y-2.9801
G05
X5.3844Y-2.075G85X5.4356Y-2.075
G05
X5.3844Y-2.26G85X5.4356Y-2.26
G05
X5.3844Y-2.445G85X5.4356Y-2.445
G05
T0
M30
