G04 #@! TF.GenerationSoftware,KiCad,Pcbnew,(5.0.0)*
G04 #@! TF.CreationDate,2018-08-18T23:54:30+08:00*
G04 #@! TF.ProjectId,Envelope,456E76656C6F70652E6B696361645F70,rev?*
G04 #@! TF.SameCoordinates,Original*
G04 #@! TF.FileFunction,Soldermask,Bot*
G04 #@! TF.FilePolarity,Negative*
%FSLAX46Y46*%
G04 Gerber Fmt 4.6, Leading zero omitted, Abs format (unit mm)*
G04 Created by KiCad (PCBNEW (5.0.0)) date 08/18/18 23:54:30*
%MOMM*%
%LPD*%
G01*
G04 APERTURE LIST*
%ADD10R,1.700000X1.700000*%
%ADD11O,1.700000X1.700000*%
%ADD12R,2.400000X1.900000*%
%ADD13C,2.000000*%
%ADD14C,0.100000*%
%ADD15C,0.975000*%
%ADD16C,1.600000*%
%ADD17R,1.800000X1.800000*%
%ADD18C,1.800000*%
%ADD19O,3.556000X2.032000*%
%ADD20R,1.600000X2.600000*%
%ADD21R,2.600000X1.600000*%
%ADD22R,1.500000X1.050000*%
%ADD23R,1.500000X2.400000*%
%ADD24R,1.200000X0.900000*%
%ADD25O,3.000000X2.200000*%
%ADD26R,2.000000X1.905000*%
%ADD27O,2.000000X1.905000*%
%ADD28O,2.600000X1.600000*%
%ADD29O,2.400000X1.600000*%
%ADD30O,2.600000X1.500000*%
%ADD31C,0.550000*%
%ADD32R,1.100000X0.400000*%
G04 APERTURE END LIST*
D10*
G04 #@! TO.C,J3*
X112014000Y-68834000D03*
D11*
X114554000Y-68834000D03*
X117094000Y-68834000D03*
G04 #@! TD*
D12*
G04 #@! TO.C,Y1*
X144399000Y-92982000D03*
X144399000Y-88882000D03*
G04 #@! TD*
D13*
G04 #@! TO.C,SW3*
X130429000Y-65350000D03*
X130429000Y-69850000D03*
X123929000Y-65350000D03*
X123929000Y-69850000D03*
G04 #@! TD*
D14*
G04 #@! TO.C,C19*
G36*
X144879142Y-82650174D02*
X144902803Y-82653684D01*
X144926007Y-82659496D01*
X144948529Y-82667554D01*
X144970153Y-82677782D01*
X144990670Y-82690079D01*
X145009883Y-82704329D01*
X145027607Y-82720393D01*
X145043671Y-82738117D01*
X145057921Y-82757330D01*
X145070218Y-82777847D01*
X145080446Y-82799471D01*
X145088504Y-82821993D01*
X145094316Y-82845197D01*
X145097826Y-82868858D01*
X145099000Y-82892750D01*
X145099000Y-83380250D01*
X145097826Y-83404142D01*
X145094316Y-83427803D01*
X145088504Y-83451007D01*
X145080446Y-83473529D01*
X145070218Y-83495153D01*
X145057921Y-83515670D01*
X145043671Y-83534883D01*
X145027607Y-83552607D01*
X145009883Y-83568671D01*
X144990670Y-83582921D01*
X144970153Y-83595218D01*
X144948529Y-83605446D01*
X144926007Y-83613504D01*
X144902803Y-83619316D01*
X144879142Y-83622826D01*
X144855250Y-83624000D01*
X143942750Y-83624000D01*
X143918858Y-83622826D01*
X143895197Y-83619316D01*
X143871993Y-83613504D01*
X143849471Y-83605446D01*
X143827847Y-83595218D01*
X143807330Y-83582921D01*
X143788117Y-83568671D01*
X143770393Y-83552607D01*
X143754329Y-83534883D01*
X143740079Y-83515670D01*
X143727782Y-83495153D01*
X143717554Y-83473529D01*
X143709496Y-83451007D01*
X143703684Y-83427803D01*
X143700174Y-83404142D01*
X143699000Y-83380250D01*
X143699000Y-82892750D01*
X143700174Y-82868858D01*
X143703684Y-82845197D01*
X143709496Y-82821993D01*
X143717554Y-82799471D01*
X143727782Y-82777847D01*
X143740079Y-82757330D01*
X143754329Y-82738117D01*
X143770393Y-82720393D01*
X143788117Y-82704329D01*
X143807330Y-82690079D01*
X143827847Y-82677782D01*
X143849471Y-82667554D01*
X143871993Y-82659496D01*
X143895197Y-82653684D01*
X143918858Y-82650174D01*
X143942750Y-82649000D01*
X144855250Y-82649000D01*
X144879142Y-82650174D01*
X144879142Y-82650174D01*
G37*
D15*
X144399000Y-83136500D03*
D14*
G36*
X144879142Y-84525174D02*
X144902803Y-84528684D01*
X144926007Y-84534496D01*
X144948529Y-84542554D01*
X144970153Y-84552782D01*
X144990670Y-84565079D01*
X145009883Y-84579329D01*
X145027607Y-84595393D01*
X145043671Y-84613117D01*
X145057921Y-84632330D01*
X145070218Y-84652847D01*
X145080446Y-84674471D01*
X145088504Y-84696993D01*
X145094316Y-84720197D01*
X145097826Y-84743858D01*
X145099000Y-84767750D01*
X145099000Y-85255250D01*
X145097826Y-85279142D01*
X145094316Y-85302803D01*
X145088504Y-85326007D01*
X145080446Y-85348529D01*
X145070218Y-85370153D01*
X145057921Y-85390670D01*
X145043671Y-85409883D01*
X145027607Y-85427607D01*
X145009883Y-85443671D01*
X144990670Y-85457921D01*
X144970153Y-85470218D01*
X144948529Y-85480446D01*
X144926007Y-85488504D01*
X144902803Y-85494316D01*
X144879142Y-85497826D01*
X144855250Y-85499000D01*
X143942750Y-85499000D01*
X143918858Y-85497826D01*
X143895197Y-85494316D01*
X143871993Y-85488504D01*
X143849471Y-85480446D01*
X143827847Y-85470218D01*
X143807330Y-85457921D01*
X143788117Y-85443671D01*
X143770393Y-85427607D01*
X143754329Y-85409883D01*
X143740079Y-85390670D01*
X143727782Y-85370153D01*
X143717554Y-85348529D01*
X143709496Y-85326007D01*
X143703684Y-85302803D01*
X143700174Y-85279142D01*
X143699000Y-85255250D01*
X143699000Y-84767750D01*
X143700174Y-84743858D01*
X143703684Y-84720197D01*
X143709496Y-84696993D01*
X143717554Y-84674471D01*
X143727782Y-84652847D01*
X143740079Y-84632330D01*
X143754329Y-84613117D01*
X143770393Y-84595393D01*
X143788117Y-84579329D01*
X143807330Y-84565079D01*
X143827847Y-84552782D01*
X143849471Y-84542554D01*
X143871993Y-84534496D01*
X143895197Y-84528684D01*
X143918858Y-84525174D01*
X143942750Y-84524000D01*
X144855250Y-84524000D01*
X144879142Y-84525174D01*
X144879142Y-84525174D01*
G37*
D15*
X144399000Y-85011500D03*
G04 #@! TD*
D14*
G04 #@! TO.C,C18*
G36*
X115669142Y-90875174D02*
X115692803Y-90878684D01*
X115716007Y-90884496D01*
X115738529Y-90892554D01*
X115760153Y-90902782D01*
X115780670Y-90915079D01*
X115799883Y-90929329D01*
X115817607Y-90945393D01*
X115833671Y-90963117D01*
X115847921Y-90982330D01*
X115860218Y-91002847D01*
X115870446Y-91024471D01*
X115878504Y-91046993D01*
X115884316Y-91070197D01*
X115887826Y-91093858D01*
X115889000Y-91117750D01*
X115889000Y-91605250D01*
X115887826Y-91629142D01*
X115884316Y-91652803D01*
X115878504Y-91676007D01*
X115870446Y-91698529D01*
X115860218Y-91720153D01*
X115847921Y-91740670D01*
X115833671Y-91759883D01*
X115817607Y-91777607D01*
X115799883Y-91793671D01*
X115780670Y-91807921D01*
X115760153Y-91820218D01*
X115738529Y-91830446D01*
X115716007Y-91838504D01*
X115692803Y-91844316D01*
X115669142Y-91847826D01*
X115645250Y-91849000D01*
X114732750Y-91849000D01*
X114708858Y-91847826D01*
X114685197Y-91844316D01*
X114661993Y-91838504D01*
X114639471Y-91830446D01*
X114617847Y-91820218D01*
X114597330Y-91807921D01*
X114578117Y-91793671D01*
X114560393Y-91777607D01*
X114544329Y-91759883D01*
X114530079Y-91740670D01*
X114517782Y-91720153D01*
X114507554Y-91698529D01*
X114499496Y-91676007D01*
X114493684Y-91652803D01*
X114490174Y-91629142D01*
X114489000Y-91605250D01*
X114489000Y-91117750D01*
X114490174Y-91093858D01*
X114493684Y-91070197D01*
X114499496Y-91046993D01*
X114507554Y-91024471D01*
X114517782Y-91002847D01*
X114530079Y-90982330D01*
X114544329Y-90963117D01*
X114560393Y-90945393D01*
X114578117Y-90929329D01*
X114597330Y-90915079D01*
X114617847Y-90902782D01*
X114639471Y-90892554D01*
X114661993Y-90884496D01*
X114685197Y-90878684D01*
X114708858Y-90875174D01*
X114732750Y-90874000D01*
X115645250Y-90874000D01*
X115669142Y-90875174D01*
X115669142Y-90875174D01*
G37*
D15*
X115189000Y-91361500D03*
D14*
G36*
X115669142Y-89000174D02*
X115692803Y-89003684D01*
X115716007Y-89009496D01*
X115738529Y-89017554D01*
X115760153Y-89027782D01*
X115780670Y-89040079D01*
X115799883Y-89054329D01*
X115817607Y-89070393D01*
X115833671Y-89088117D01*
X115847921Y-89107330D01*
X115860218Y-89127847D01*
X115870446Y-89149471D01*
X115878504Y-89171993D01*
X115884316Y-89195197D01*
X115887826Y-89218858D01*
X115889000Y-89242750D01*
X115889000Y-89730250D01*
X115887826Y-89754142D01*
X115884316Y-89777803D01*
X115878504Y-89801007D01*
X115870446Y-89823529D01*
X115860218Y-89845153D01*
X115847921Y-89865670D01*
X115833671Y-89884883D01*
X115817607Y-89902607D01*
X115799883Y-89918671D01*
X115780670Y-89932921D01*
X115760153Y-89945218D01*
X115738529Y-89955446D01*
X115716007Y-89963504D01*
X115692803Y-89969316D01*
X115669142Y-89972826D01*
X115645250Y-89974000D01*
X114732750Y-89974000D01*
X114708858Y-89972826D01*
X114685197Y-89969316D01*
X114661993Y-89963504D01*
X114639471Y-89955446D01*
X114617847Y-89945218D01*
X114597330Y-89932921D01*
X114578117Y-89918671D01*
X114560393Y-89902607D01*
X114544329Y-89884883D01*
X114530079Y-89865670D01*
X114517782Y-89845153D01*
X114507554Y-89823529D01*
X114499496Y-89801007D01*
X114493684Y-89777803D01*
X114490174Y-89754142D01*
X114489000Y-89730250D01*
X114489000Y-89242750D01*
X114490174Y-89218858D01*
X114493684Y-89195197D01*
X114499496Y-89171993D01*
X114507554Y-89149471D01*
X114517782Y-89127847D01*
X114530079Y-89107330D01*
X114544329Y-89088117D01*
X114560393Y-89070393D01*
X114578117Y-89054329D01*
X114597330Y-89040079D01*
X114617847Y-89027782D01*
X114639471Y-89017554D01*
X114661993Y-89009496D01*
X114685197Y-89003684D01*
X114708858Y-89000174D01*
X114732750Y-88999000D01*
X115645250Y-88999000D01*
X115669142Y-89000174D01*
X115669142Y-89000174D01*
G37*
D15*
X115189000Y-89486500D03*
G04 #@! TD*
D14*
G04 #@! TO.C,C17*
G36*
X131798142Y-81477174D02*
X131821803Y-81480684D01*
X131845007Y-81486496D01*
X131867529Y-81494554D01*
X131889153Y-81504782D01*
X131909670Y-81517079D01*
X131928883Y-81531329D01*
X131946607Y-81547393D01*
X131962671Y-81565117D01*
X131976921Y-81584330D01*
X131989218Y-81604847D01*
X131999446Y-81626471D01*
X132007504Y-81648993D01*
X132013316Y-81672197D01*
X132016826Y-81695858D01*
X132018000Y-81719750D01*
X132018000Y-82207250D01*
X132016826Y-82231142D01*
X132013316Y-82254803D01*
X132007504Y-82278007D01*
X131999446Y-82300529D01*
X131989218Y-82322153D01*
X131976921Y-82342670D01*
X131962671Y-82361883D01*
X131946607Y-82379607D01*
X131928883Y-82395671D01*
X131909670Y-82409921D01*
X131889153Y-82422218D01*
X131867529Y-82432446D01*
X131845007Y-82440504D01*
X131821803Y-82446316D01*
X131798142Y-82449826D01*
X131774250Y-82451000D01*
X130861750Y-82451000D01*
X130837858Y-82449826D01*
X130814197Y-82446316D01*
X130790993Y-82440504D01*
X130768471Y-82432446D01*
X130746847Y-82422218D01*
X130726330Y-82409921D01*
X130707117Y-82395671D01*
X130689393Y-82379607D01*
X130673329Y-82361883D01*
X130659079Y-82342670D01*
X130646782Y-82322153D01*
X130636554Y-82300529D01*
X130628496Y-82278007D01*
X130622684Y-82254803D01*
X130619174Y-82231142D01*
X130618000Y-82207250D01*
X130618000Y-81719750D01*
X130619174Y-81695858D01*
X130622684Y-81672197D01*
X130628496Y-81648993D01*
X130636554Y-81626471D01*
X130646782Y-81604847D01*
X130659079Y-81584330D01*
X130673329Y-81565117D01*
X130689393Y-81547393D01*
X130707117Y-81531329D01*
X130726330Y-81517079D01*
X130746847Y-81504782D01*
X130768471Y-81494554D01*
X130790993Y-81486496D01*
X130814197Y-81480684D01*
X130837858Y-81477174D01*
X130861750Y-81476000D01*
X131774250Y-81476000D01*
X131798142Y-81477174D01*
X131798142Y-81477174D01*
G37*
D15*
X131318000Y-81963500D03*
D14*
G36*
X131798142Y-79602174D02*
X131821803Y-79605684D01*
X131845007Y-79611496D01*
X131867529Y-79619554D01*
X131889153Y-79629782D01*
X131909670Y-79642079D01*
X131928883Y-79656329D01*
X131946607Y-79672393D01*
X131962671Y-79690117D01*
X131976921Y-79709330D01*
X131989218Y-79729847D01*
X131999446Y-79751471D01*
X132007504Y-79773993D01*
X132013316Y-79797197D01*
X132016826Y-79820858D01*
X132018000Y-79844750D01*
X132018000Y-80332250D01*
X132016826Y-80356142D01*
X132013316Y-80379803D01*
X132007504Y-80403007D01*
X131999446Y-80425529D01*
X131989218Y-80447153D01*
X131976921Y-80467670D01*
X131962671Y-80486883D01*
X131946607Y-80504607D01*
X131928883Y-80520671D01*
X131909670Y-80534921D01*
X131889153Y-80547218D01*
X131867529Y-80557446D01*
X131845007Y-80565504D01*
X131821803Y-80571316D01*
X131798142Y-80574826D01*
X131774250Y-80576000D01*
X130861750Y-80576000D01*
X130837858Y-80574826D01*
X130814197Y-80571316D01*
X130790993Y-80565504D01*
X130768471Y-80557446D01*
X130746847Y-80547218D01*
X130726330Y-80534921D01*
X130707117Y-80520671D01*
X130689393Y-80504607D01*
X130673329Y-80486883D01*
X130659079Y-80467670D01*
X130646782Y-80447153D01*
X130636554Y-80425529D01*
X130628496Y-80403007D01*
X130622684Y-80379803D01*
X130619174Y-80356142D01*
X130618000Y-80332250D01*
X130618000Y-79844750D01*
X130619174Y-79820858D01*
X130622684Y-79797197D01*
X130628496Y-79773993D01*
X130636554Y-79751471D01*
X130646782Y-79729847D01*
X130659079Y-79709330D01*
X130673329Y-79690117D01*
X130689393Y-79672393D01*
X130707117Y-79656329D01*
X130726330Y-79642079D01*
X130746847Y-79629782D01*
X130768471Y-79619554D01*
X130790993Y-79611496D01*
X130814197Y-79605684D01*
X130837858Y-79602174D01*
X130861750Y-79601000D01*
X131774250Y-79601000D01*
X131798142Y-79602174D01*
X131798142Y-79602174D01*
G37*
D15*
X131318000Y-80088500D03*
G04 #@! TD*
D14*
G04 #@! TO.C,C16*
G36*
X119479142Y-90875174D02*
X119502803Y-90878684D01*
X119526007Y-90884496D01*
X119548529Y-90892554D01*
X119570153Y-90902782D01*
X119590670Y-90915079D01*
X119609883Y-90929329D01*
X119627607Y-90945393D01*
X119643671Y-90963117D01*
X119657921Y-90982330D01*
X119670218Y-91002847D01*
X119680446Y-91024471D01*
X119688504Y-91046993D01*
X119694316Y-91070197D01*
X119697826Y-91093858D01*
X119699000Y-91117750D01*
X119699000Y-91605250D01*
X119697826Y-91629142D01*
X119694316Y-91652803D01*
X119688504Y-91676007D01*
X119680446Y-91698529D01*
X119670218Y-91720153D01*
X119657921Y-91740670D01*
X119643671Y-91759883D01*
X119627607Y-91777607D01*
X119609883Y-91793671D01*
X119590670Y-91807921D01*
X119570153Y-91820218D01*
X119548529Y-91830446D01*
X119526007Y-91838504D01*
X119502803Y-91844316D01*
X119479142Y-91847826D01*
X119455250Y-91849000D01*
X118542750Y-91849000D01*
X118518858Y-91847826D01*
X118495197Y-91844316D01*
X118471993Y-91838504D01*
X118449471Y-91830446D01*
X118427847Y-91820218D01*
X118407330Y-91807921D01*
X118388117Y-91793671D01*
X118370393Y-91777607D01*
X118354329Y-91759883D01*
X118340079Y-91740670D01*
X118327782Y-91720153D01*
X118317554Y-91698529D01*
X118309496Y-91676007D01*
X118303684Y-91652803D01*
X118300174Y-91629142D01*
X118299000Y-91605250D01*
X118299000Y-91117750D01*
X118300174Y-91093858D01*
X118303684Y-91070197D01*
X118309496Y-91046993D01*
X118317554Y-91024471D01*
X118327782Y-91002847D01*
X118340079Y-90982330D01*
X118354329Y-90963117D01*
X118370393Y-90945393D01*
X118388117Y-90929329D01*
X118407330Y-90915079D01*
X118427847Y-90902782D01*
X118449471Y-90892554D01*
X118471993Y-90884496D01*
X118495197Y-90878684D01*
X118518858Y-90875174D01*
X118542750Y-90874000D01*
X119455250Y-90874000D01*
X119479142Y-90875174D01*
X119479142Y-90875174D01*
G37*
D15*
X118999000Y-91361500D03*
D14*
G36*
X119479142Y-89000174D02*
X119502803Y-89003684D01*
X119526007Y-89009496D01*
X119548529Y-89017554D01*
X119570153Y-89027782D01*
X119590670Y-89040079D01*
X119609883Y-89054329D01*
X119627607Y-89070393D01*
X119643671Y-89088117D01*
X119657921Y-89107330D01*
X119670218Y-89127847D01*
X119680446Y-89149471D01*
X119688504Y-89171993D01*
X119694316Y-89195197D01*
X119697826Y-89218858D01*
X119699000Y-89242750D01*
X119699000Y-89730250D01*
X119697826Y-89754142D01*
X119694316Y-89777803D01*
X119688504Y-89801007D01*
X119680446Y-89823529D01*
X119670218Y-89845153D01*
X119657921Y-89865670D01*
X119643671Y-89884883D01*
X119627607Y-89902607D01*
X119609883Y-89918671D01*
X119590670Y-89932921D01*
X119570153Y-89945218D01*
X119548529Y-89955446D01*
X119526007Y-89963504D01*
X119502803Y-89969316D01*
X119479142Y-89972826D01*
X119455250Y-89974000D01*
X118542750Y-89974000D01*
X118518858Y-89972826D01*
X118495197Y-89969316D01*
X118471993Y-89963504D01*
X118449471Y-89955446D01*
X118427847Y-89945218D01*
X118407330Y-89932921D01*
X118388117Y-89918671D01*
X118370393Y-89902607D01*
X118354329Y-89884883D01*
X118340079Y-89865670D01*
X118327782Y-89845153D01*
X118317554Y-89823529D01*
X118309496Y-89801007D01*
X118303684Y-89777803D01*
X118300174Y-89754142D01*
X118299000Y-89730250D01*
X118299000Y-89242750D01*
X118300174Y-89218858D01*
X118303684Y-89195197D01*
X118309496Y-89171993D01*
X118317554Y-89149471D01*
X118327782Y-89127847D01*
X118340079Y-89107330D01*
X118354329Y-89088117D01*
X118370393Y-89070393D01*
X118388117Y-89054329D01*
X118407330Y-89040079D01*
X118427847Y-89027782D01*
X118449471Y-89017554D01*
X118471993Y-89009496D01*
X118495197Y-89003684D01*
X118518858Y-89000174D01*
X118542750Y-88999000D01*
X119455250Y-88999000D01*
X119479142Y-89000174D01*
X119479142Y-89000174D01*
G37*
D15*
X118999000Y-89486500D03*
G04 #@! TD*
D14*
G04 #@! TO.C,C20*
G36*
X144879142Y-98495174D02*
X144902803Y-98498684D01*
X144926007Y-98504496D01*
X144948529Y-98512554D01*
X144970153Y-98522782D01*
X144990670Y-98535079D01*
X145009883Y-98549329D01*
X145027607Y-98565393D01*
X145043671Y-98583117D01*
X145057921Y-98602330D01*
X145070218Y-98622847D01*
X145080446Y-98644471D01*
X145088504Y-98666993D01*
X145094316Y-98690197D01*
X145097826Y-98713858D01*
X145099000Y-98737750D01*
X145099000Y-99225250D01*
X145097826Y-99249142D01*
X145094316Y-99272803D01*
X145088504Y-99296007D01*
X145080446Y-99318529D01*
X145070218Y-99340153D01*
X145057921Y-99360670D01*
X145043671Y-99379883D01*
X145027607Y-99397607D01*
X145009883Y-99413671D01*
X144990670Y-99427921D01*
X144970153Y-99440218D01*
X144948529Y-99450446D01*
X144926007Y-99458504D01*
X144902803Y-99464316D01*
X144879142Y-99467826D01*
X144855250Y-99469000D01*
X143942750Y-99469000D01*
X143918858Y-99467826D01*
X143895197Y-99464316D01*
X143871993Y-99458504D01*
X143849471Y-99450446D01*
X143827847Y-99440218D01*
X143807330Y-99427921D01*
X143788117Y-99413671D01*
X143770393Y-99397607D01*
X143754329Y-99379883D01*
X143740079Y-99360670D01*
X143727782Y-99340153D01*
X143717554Y-99318529D01*
X143709496Y-99296007D01*
X143703684Y-99272803D01*
X143700174Y-99249142D01*
X143699000Y-99225250D01*
X143699000Y-98737750D01*
X143700174Y-98713858D01*
X143703684Y-98690197D01*
X143709496Y-98666993D01*
X143717554Y-98644471D01*
X143727782Y-98622847D01*
X143740079Y-98602330D01*
X143754329Y-98583117D01*
X143770393Y-98565393D01*
X143788117Y-98549329D01*
X143807330Y-98535079D01*
X143827847Y-98522782D01*
X143849471Y-98512554D01*
X143871993Y-98504496D01*
X143895197Y-98498684D01*
X143918858Y-98495174D01*
X143942750Y-98494000D01*
X144855250Y-98494000D01*
X144879142Y-98495174D01*
X144879142Y-98495174D01*
G37*
D15*
X144399000Y-98981500D03*
D14*
G36*
X144879142Y-96620174D02*
X144902803Y-96623684D01*
X144926007Y-96629496D01*
X144948529Y-96637554D01*
X144970153Y-96647782D01*
X144990670Y-96660079D01*
X145009883Y-96674329D01*
X145027607Y-96690393D01*
X145043671Y-96708117D01*
X145057921Y-96727330D01*
X145070218Y-96747847D01*
X145080446Y-96769471D01*
X145088504Y-96791993D01*
X145094316Y-96815197D01*
X145097826Y-96838858D01*
X145099000Y-96862750D01*
X145099000Y-97350250D01*
X145097826Y-97374142D01*
X145094316Y-97397803D01*
X145088504Y-97421007D01*
X145080446Y-97443529D01*
X145070218Y-97465153D01*
X145057921Y-97485670D01*
X145043671Y-97504883D01*
X145027607Y-97522607D01*
X145009883Y-97538671D01*
X144990670Y-97552921D01*
X144970153Y-97565218D01*
X144948529Y-97575446D01*
X144926007Y-97583504D01*
X144902803Y-97589316D01*
X144879142Y-97592826D01*
X144855250Y-97594000D01*
X143942750Y-97594000D01*
X143918858Y-97592826D01*
X143895197Y-97589316D01*
X143871993Y-97583504D01*
X143849471Y-97575446D01*
X143827847Y-97565218D01*
X143807330Y-97552921D01*
X143788117Y-97538671D01*
X143770393Y-97522607D01*
X143754329Y-97504883D01*
X143740079Y-97485670D01*
X143727782Y-97465153D01*
X143717554Y-97443529D01*
X143709496Y-97421007D01*
X143703684Y-97397803D01*
X143700174Y-97374142D01*
X143699000Y-97350250D01*
X143699000Y-96862750D01*
X143700174Y-96838858D01*
X143703684Y-96815197D01*
X143709496Y-96791993D01*
X143717554Y-96769471D01*
X143727782Y-96747847D01*
X143740079Y-96727330D01*
X143754329Y-96708117D01*
X143770393Y-96690393D01*
X143788117Y-96674329D01*
X143807330Y-96660079D01*
X143827847Y-96647782D01*
X143849471Y-96637554D01*
X143871993Y-96629496D01*
X143895197Y-96623684D01*
X143918858Y-96620174D01*
X143942750Y-96619000D01*
X144855250Y-96619000D01*
X144879142Y-96620174D01*
X144879142Y-96620174D01*
G37*
D15*
X144399000Y-97106500D03*
G04 #@! TD*
D10*
G04 #@! TO.C,J2*
X115824000Y-100584000D03*
D11*
X118364000Y-100584000D03*
X115824000Y-98044000D03*
X118364000Y-98044000D03*
X115824000Y-95504000D03*
X118364000Y-95504000D03*
G04 #@! TD*
D14*
G04 #@! TO.C,D13*
G36*
X116423504Y-50735204D02*
X116447773Y-50738804D01*
X116471571Y-50744765D01*
X116494671Y-50753030D01*
X116516849Y-50763520D01*
X116537893Y-50776133D01*
X116557598Y-50790747D01*
X116575777Y-50807223D01*
X116592253Y-50825402D01*
X116606867Y-50845107D01*
X116619480Y-50866151D01*
X116629970Y-50888329D01*
X116638235Y-50911429D01*
X116644196Y-50935227D01*
X116647796Y-50959496D01*
X116649000Y-50984000D01*
X116649000Y-52084000D01*
X116647796Y-52108504D01*
X116644196Y-52132773D01*
X116638235Y-52156571D01*
X116629970Y-52179671D01*
X116619480Y-52201849D01*
X116606867Y-52222893D01*
X116592253Y-52242598D01*
X116575777Y-52260777D01*
X116557598Y-52277253D01*
X116537893Y-52291867D01*
X116516849Y-52304480D01*
X116494671Y-52314970D01*
X116471571Y-52323235D01*
X116447773Y-52329196D01*
X116423504Y-52332796D01*
X116399000Y-52334000D01*
X115249000Y-52334000D01*
X115224496Y-52332796D01*
X115200227Y-52329196D01*
X115176429Y-52323235D01*
X115153329Y-52314970D01*
X115131151Y-52304480D01*
X115110107Y-52291867D01*
X115090402Y-52277253D01*
X115072223Y-52260777D01*
X115055747Y-52242598D01*
X115041133Y-52222893D01*
X115028520Y-52201849D01*
X115018030Y-52179671D01*
X115009765Y-52156571D01*
X115003804Y-52132773D01*
X115000204Y-52108504D01*
X114999000Y-52084000D01*
X114999000Y-50984000D01*
X115000204Y-50959496D01*
X115003804Y-50935227D01*
X115009765Y-50911429D01*
X115018030Y-50888329D01*
X115028520Y-50866151D01*
X115041133Y-50845107D01*
X115055747Y-50825402D01*
X115072223Y-50807223D01*
X115090402Y-50790747D01*
X115110107Y-50776133D01*
X115131151Y-50763520D01*
X115153329Y-50753030D01*
X115176429Y-50744765D01*
X115200227Y-50738804D01*
X115224496Y-50735204D01*
X115249000Y-50734000D01*
X116399000Y-50734000D01*
X116423504Y-50735204D01*
X116423504Y-50735204D01*
G37*
D16*
X115824000Y-51534000D03*
D14*
G36*
X116423504Y-53585204D02*
X116447773Y-53588804D01*
X116471571Y-53594765D01*
X116494671Y-53603030D01*
X116516849Y-53613520D01*
X116537893Y-53626133D01*
X116557598Y-53640747D01*
X116575777Y-53657223D01*
X116592253Y-53675402D01*
X116606867Y-53695107D01*
X116619480Y-53716151D01*
X116629970Y-53738329D01*
X116638235Y-53761429D01*
X116644196Y-53785227D01*
X116647796Y-53809496D01*
X116649000Y-53834000D01*
X116649000Y-54934000D01*
X116647796Y-54958504D01*
X116644196Y-54982773D01*
X116638235Y-55006571D01*
X116629970Y-55029671D01*
X116619480Y-55051849D01*
X116606867Y-55072893D01*
X116592253Y-55092598D01*
X116575777Y-55110777D01*
X116557598Y-55127253D01*
X116537893Y-55141867D01*
X116516849Y-55154480D01*
X116494671Y-55164970D01*
X116471571Y-55173235D01*
X116447773Y-55179196D01*
X116423504Y-55182796D01*
X116399000Y-55184000D01*
X115249000Y-55184000D01*
X115224496Y-55182796D01*
X115200227Y-55179196D01*
X115176429Y-55173235D01*
X115153329Y-55164970D01*
X115131151Y-55154480D01*
X115110107Y-55141867D01*
X115090402Y-55127253D01*
X115072223Y-55110777D01*
X115055747Y-55092598D01*
X115041133Y-55072893D01*
X115028520Y-55051849D01*
X115018030Y-55029671D01*
X115009765Y-55006571D01*
X115003804Y-54982773D01*
X115000204Y-54958504D01*
X114999000Y-54934000D01*
X114999000Y-53834000D01*
X115000204Y-53809496D01*
X115003804Y-53785227D01*
X115009765Y-53761429D01*
X115018030Y-53738329D01*
X115028520Y-53716151D01*
X115041133Y-53695107D01*
X115055747Y-53675402D01*
X115072223Y-53657223D01*
X115090402Y-53640747D01*
X115110107Y-53626133D01*
X115131151Y-53613520D01*
X115153329Y-53603030D01*
X115176429Y-53594765D01*
X115200227Y-53588804D01*
X115224496Y-53585204D01*
X115249000Y-53584000D01*
X116399000Y-53584000D01*
X116423504Y-53585204D01*
X116423504Y-53585204D01*
G37*
D16*
X115824000Y-54384000D03*
G04 #@! TD*
D17*
G04 #@! TO.C,D11*
X128524000Y-111633000D03*
D18*
X125984000Y-111633000D03*
G04 #@! TD*
G04 #@! TO.C,D12*
X125984000Y-98044000D03*
D17*
X128524000Y-98044000D03*
G04 #@! TD*
G04 #@! TO.C,D10*
X128524000Y-125095000D03*
D18*
X125984000Y-125095000D03*
G04 #@! TD*
D19*
G04 #@! TO.C,SW1*
X137414000Y-62104000D03*
X137414000Y-57404000D03*
X137414000Y-52704000D03*
G04 #@! TD*
G04 #@! TO.C,SW2*
X137414000Y-66294000D03*
X137414000Y-70994000D03*
X137414000Y-75694000D03*
G04 #@! TD*
D14*
G04 #@! TO.C,R27*
G36*
X126584142Y-66865174D02*
X126607803Y-66868684D01*
X126631007Y-66874496D01*
X126653529Y-66882554D01*
X126675153Y-66892782D01*
X126695670Y-66905079D01*
X126714883Y-66919329D01*
X126732607Y-66935393D01*
X126748671Y-66953117D01*
X126762921Y-66972330D01*
X126775218Y-66992847D01*
X126785446Y-67014471D01*
X126793504Y-67036993D01*
X126799316Y-67060197D01*
X126802826Y-67083858D01*
X126804000Y-67107750D01*
X126804000Y-68020250D01*
X126802826Y-68044142D01*
X126799316Y-68067803D01*
X126793504Y-68091007D01*
X126785446Y-68113529D01*
X126775218Y-68135153D01*
X126762921Y-68155670D01*
X126748671Y-68174883D01*
X126732607Y-68192607D01*
X126714883Y-68208671D01*
X126695670Y-68222921D01*
X126675153Y-68235218D01*
X126653529Y-68245446D01*
X126631007Y-68253504D01*
X126607803Y-68259316D01*
X126584142Y-68262826D01*
X126560250Y-68264000D01*
X126072750Y-68264000D01*
X126048858Y-68262826D01*
X126025197Y-68259316D01*
X126001993Y-68253504D01*
X125979471Y-68245446D01*
X125957847Y-68235218D01*
X125937330Y-68222921D01*
X125918117Y-68208671D01*
X125900393Y-68192607D01*
X125884329Y-68174883D01*
X125870079Y-68155670D01*
X125857782Y-68135153D01*
X125847554Y-68113529D01*
X125839496Y-68091007D01*
X125833684Y-68067803D01*
X125830174Y-68044142D01*
X125829000Y-68020250D01*
X125829000Y-67107750D01*
X125830174Y-67083858D01*
X125833684Y-67060197D01*
X125839496Y-67036993D01*
X125847554Y-67014471D01*
X125857782Y-66992847D01*
X125870079Y-66972330D01*
X125884329Y-66953117D01*
X125900393Y-66935393D01*
X125918117Y-66919329D01*
X125937330Y-66905079D01*
X125957847Y-66892782D01*
X125979471Y-66882554D01*
X126001993Y-66874496D01*
X126025197Y-66868684D01*
X126048858Y-66865174D01*
X126072750Y-66864000D01*
X126560250Y-66864000D01*
X126584142Y-66865174D01*
X126584142Y-66865174D01*
G37*
D15*
X126316500Y-67564000D03*
D14*
G36*
X128459142Y-66865174D02*
X128482803Y-66868684D01*
X128506007Y-66874496D01*
X128528529Y-66882554D01*
X128550153Y-66892782D01*
X128570670Y-66905079D01*
X128589883Y-66919329D01*
X128607607Y-66935393D01*
X128623671Y-66953117D01*
X128637921Y-66972330D01*
X128650218Y-66992847D01*
X128660446Y-67014471D01*
X128668504Y-67036993D01*
X128674316Y-67060197D01*
X128677826Y-67083858D01*
X128679000Y-67107750D01*
X128679000Y-68020250D01*
X128677826Y-68044142D01*
X128674316Y-68067803D01*
X128668504Y-68091007D01*
X128660446Y-68113529D01*
X128650218Y-68135153D01*
X128637921Y-68155670D01*
X128623671Y-68174883D01*
X128607607Y-68192607D01*
X128589883Y-68208671D01*
X128570670Y-68222921D01*
X128550153Y-68235218D01*
X128528529Y-68245446D01*
X128506007Y-68253504D01*
X128482803Y-68259316D01*
X128459142Y-68262826D01*
X128435250Y-68264000D01*
X127947750Y-68264000D01*
X127923858Y-68262826D01*
X127900197Y-68259316D01*
X127876993Y-68253504D01*
X127854471Y-68245446D01*
X127832847Y-68235218D01*
X127812330Y-68222921D01*
X127793117Y-68208671D01*
X127775393Y-68192607D01*
X127759329Y-68174883D01*
X127745079Y-68155670D01*
X127732782Y-68135153D01*
X127722554Y-68113529D01*
X127714496Y-68091007D01*
X127708684Y-68067803D01*
X127705174Y-68044142D01*
X127704000Y-68020250D01*
X127704000Y-67107750D01*
X127705174Y-67083858D01*
X127708684Y-67060197D01*
X127714496Y-67036993D01*
X127722554Y-67014471D01*
X127732782Y-66992847D01*
X127745079Y-66972330D01*
X127759329Y-66953117D01*
X127775393Y-66935393D01*
X127793117Y-66919329D01*
X127812330Y-66905079D01*
X127832847Y-66892782D01*
X127854471Y-66882554D01*
X127876993Y-66874496D01*
X127900197Y-66868684D01*
X127923858Y-66865174D01*
X127947750Y-66864000D01*
X128435250Y-66864000D01*
X128459142Y-66865174D01*
X128459142Y-66865174D01*
G37*
D15*
X128191500Y-67564000D03*
G04 #@! TD*
D14*
G04 #@! TO.C,R28*
G36*
X116304142Y-59790174D02*
X116327803Y-59793684D01*
X116351007Y-59799496D01*
X116373529Y-59807554D01*
X116395153Y-59817782D01*
X116415670Y-59830079D01*
X116434883Y-59844329D01*
X116452607Y-59860393D01*
X116468671Y-59878117D01*
X116482921Y-59897330D01*
X116495218Y-59917847D01*
X116505446Y-59939471D01*
X116513504Y-59961993D01*
X116519316Y-59985197D01*
X116522826Y-60008858D01*
X116524000Y-60032750D01*
X116524000Y-60520250D01*
X116522826Y-60544142D01*
X116519316Y-60567803D01*
X116513504Y-60591007D01*
X116505446Y-60613529D01*
X116495218Y-60635153D01*
X116482921Y-60655670D01*
X116468671Y-60674883D01*
X116452607Y-60692607D01*
X116434883Y-60708671D01*
X116415670Y-60722921D01*
X116395153Y-60735218D01*
X116373529Y-60745446D01*
X116351007Y-60753504D01*
X116327803Y-60759316D01*
X116304142Y-60762826D01*
X116280250Y-60764000D01*
X115367750Y-60764000D01*
X115343858Y-60762826D01*
X115320197Y-60759316D01*
X115296993Y-60753504D01*
X115274471Y-60745446D01*
X115252847Y-60735218D01*
X115232330Y-60722921D01*
X115213117Y-60708671D01*
X115195393Y-60692607D01*
X115179329Y-60674883D01*
X115165079Y-60655670D01*
X115152782Y-60635153D01*
X115142554Y-60613529D01*
X115134496Y-60591007D01*
X115128684Y-60567803D01*
X115125174Y-60544142D01*
X115124000Y-60520250D01*
X115124000Y-60032750D01*
X115125174Y-60008858D01*
X115128684Y-59985197D01*
X115134496Y-59961993D01*
X115142554Y-59939471D01*
X115152782Y-59917847D01*
X115165079Y-59897330D01*
X115179329Y-59878117D01*
X115195393Y-59860393D01*
X115213117Y-59844329D01*
X115232330Y-59830079D01*
X115252847Y-59817782D01*
X115274471Y-59807554D01*
X115296993Y-59799496D01*
X115320197Y-59793684D01*
X115343858Y-59790174D01*
X115367750Y-59789000D01*
X116280250Y-59789000D01*
X116304142Y-59790174D01*
X116304142Y-59790174D01*
G37*
D15*
X115824000Y-60276500D03*
D14*
G36*
X116304142Y-61665174D02*
X116327803Y-61668684D01*
X116351007Y-61674496D01*
X116373529Y-61682554D01*
X116395153Y-61692782D01*
X116415670Y-61705079D01*
X116434883Y-61719329D01*
X116452607Y-61735393D01*
X116468671Y-61753117D01*
X116482921Y-61772330D01*
X116495218Y-61792847D01*
X116505446Y-61814471D01*
X116513504Y-61836993D01*
X116519316Y-61860197D01*
X116522826Y-61883858D01*
X116524000Y-61907750D01*
X116524000Y-62395250D01*
X116522826Y-62419142D01*
X116519316Y-62442803D01*
X116513504Y-62466007D01*
X116505446Y-62488529D01*
X116495218Y-62510153D01*
X116482921Y-62530670D01*
X116468671Y-62549883D01*
X116452607Y-62567607D01*
X116434883Y-62583671D01*
X116415670Y-62597921D01*
X116395153Y-62610218D01*
X116373529Y-62620446D01*
X116351007Y-62628504D01*
X116327803Y-62634316D01*
X116304142Y-62637826D01*
X116280250Y-62639000D01*
X115367750Y-62639000D01*
X115343858Y-62637826D01*
X115320197Y-62634316D01*
X115296993Y-62628504D01*
X115274471Y-62620446D01*
X115252847Y-62610218D01*
X115232330Y-62597921D01*
X115213117Y-62583671D01*
X115195393Y-62567607D01*
X115179329Y-62549883D01*
X115165079Y-62530670D01*
X115152782Y-62510153D01*
X115142554Y-62488529D01*
X115134496Y-62466007D01*
X115128684Y-62442803D01*
X115125174Y-62419142D01*
X115124000Y-62395250D01*
X115124000Y-61907750D01*
X115125174Y-61883858D01*
X115128684Y-61860197D01*
X115134496Y-61836993D01*
X115142554Y-61814471D01*
X115152782Y-61792847D01*
X115165079Y-61772330D01*
X115179329Y-61753117D01*
X115195393Y-61735393D01*
X115213117Y-61719329D01*
X115232330Y-61705079D01*
X115252847Y-61692782D01*
X115274471Y-61682554D01*
X115296993Y-61674496D01*
X115320197Y-61668684D01*
X115343858Y-61665174D01*
X115367750Y-61664000D01*
X116280250Y-61664000D01*
X116304142Y-61665174D01*
X116304142Y-61665174D01*
G37*
D15*
X115824000Y-62151500D03*
G04 #@! TD*
D14*
G04 #@! TO.C,R26*
G36*
X126464142Y-102305174D02*
X126487803Y-102308684D01*
X126511007Y-102314496D01*
X126533529Y-102322554D01*
X126555153Y-102332782D01*
X126575670Y-102345079D01*
X126594883Y-102359329D01*
X126612607Y-102375393D01*
X126628671Y-102393117D01*
X126642921Y-102412330D01*
X126655218Y-102432847D01*
X126665446Y-102454471D01*
X126673504Y-102476993D01*
X126679316Y-102500197D01*
X126682826Y-102523858D01*
X126684000Y-102547750D01*
X126684000Y-103035250D01*
X126682826Y-103059142D01*
X126679316Y-103082803D01*
X126673504Y-103106007D01*
X126665446Y-103128529D01*
X126655218Y-103150153D01*
X126642921Y-103170670D01*
X126628671Y-103189883D01*
X126612607Y-103207607D01*
X126594883Y-103223671D01*
X126575670Y-103237921D01*
X126555153Y-103250218D01*
X126533529Y-103260446D01*
X126511007Y-103268504D01*
X126487803Y-103274316D01*
X126464142Y-103277826D01*
X126440250Y-103279000D01*
X125527750Y-103279000D01*
X125503858Y-103277826D01*
X125480197Y-103274316D01*
X125456993Y-103268504D01*
X125434471Y-103260446D01*
X125412847Y-103250218D01*
X125392330Y-103237921D01*
X125373117Y-103223671D01*
X125355393Y-103207607D01*
X125339329Y-103189883D01*
X125325079Y-103170670D01*
X125312782Y-103150153D01*
X125302554Y-103128529D01*
X125294496Y-103106007D01*
X125288684Y-103082803D01*
X125285174Y-103059142D01*
X125284000Y-103035250D01*
X125284000Y-102547750D01*
X125285174Y-102523858D01*
X125288684Y-102500197D01*
X125294496Y-102476993D01*
X125302554Y-102454471D01*
X125312782Y-102432847D01*
X125325079Y-102412330D01*
X125339329Y-102393117D01*
X125355393Y-102375393D01*
X125373117Y-102359329D01*
X125392330Y-102345079D01*
X125412847Y-102332782D01*
X125434471Y-102322554D01*
X125456993Y-102314496D01*
X125480197Y-102308684D01*
X125503858Y-102305174D01*
X125527750Y-102304000D01*
X126440250Y-102304000D01*
X126464142Y-102305174D01*
X126464142Y-102305174D01*
G37*
D15*
X125984000Y-102791500D03*
D14*
G36*
X126464142Y-100430174D02*
X126487803Y-100433684D01*
X126511007Y-100439496D01*
X126533529Y-100447554D01*
X126555153Y-100457782D01*
X126575670Y-100470079D01*
X126594883Y-100484329D01*
X126612607Y-100500393D01*
X126628671Y-100518117D01*
X126642921Y-100537330D01*
X126655218Y-100557847D01*
X126665446Y-100579471D01*
X126673504Y-100601993D01*
X126679316Y-100625197D01*
X126682826Y-100648858D01*
X126684000Y-100672750D01*
X126684000Y-101160250D01*
X126682826Y-101184142D01*
X126679316Y-101207803D01*
X126673504Y-101231007D01*
X126665446Y-101253529D01*
X126655218Y-101275153D01*
X126642921Y-101295670D01*
X126628671Y-101314883D01*
X126612607Y-101332607D01*
X126594883Y-101348671D01*
X126575670Y-101362921D01*
X126555153Y-101375218D01*
X126533529Y-101385446D01*
X126511007Y-101393504D01*
X126487803Y-101399316D01*
X126464142Y-101402826D01*
X126440250Y-101404000D01*
X125527750Y-101404000D01*
X125503858Y-101402826D01*
X125480197Y-101399316D01*
X125456993Y-101393504D01*
X125434471Y-101385446D01*
X125412847Y-101375218D01*
X125392330Y-101362921D01*
X125373117Y-101348671D01*
X125355393Y-101332607D01*
X125339329Y-101314883D01*
X125325079Y-101295670D01*
X125312782Y-101275153D01*
X125302554Y-101253529D01*
X125294496Y-101231007D01*
X125288684Y-101207803D01*
X125285174Y-101184142D01*
X125284000Y-101160250D01*
X125284000Y-100672750D01*
X125285174Y-100648858D01*
X125288684Y-100625197D01*
X125294496Y-100601993D01*
X125302554Y-100579471D01*
X125312782Y-100557847D01*
X125325079Y-100537330D01*
X125339329Y-100518117D01*
X125355393Y-100500393D01*
X125373117Y-100484329D01*
X125392330Y-100470079D01*
X125412847Y-100457782D01*
X125434471Y-100447554D01*
X125456993Y-100439496D01*
X125480197Y-100433684D01*
X125503858Y-100430174D01*
X125527750Y-100429000D01*
X126440250Y-100429000D01*
X126464142Y-100430174D01*
X126464142Y-100430174D01*
G37*
D15*
X125984000Y-100916500D03*
G04 #@! TD*
D14*
G04 #@! TO.C,R25*
G36*
X126464142Y-108020174D02*
X126487803Y-108023684D01*
X126511007Y-108029496D01*
X126533529Y-108037554D01*
X126555153Y-108047782D01*
X126575670Y-108060079D01*
X126594883Y-108074329D01*
X126612607Y-108090393D01*
X126628671Y-108108117D01*
X126642921Y-108127330D01*
X126655218Y-108147847D01*
X126665446Y-108169471D01*
X126673504Y-108191993D01*
X126679316Y-108215197D01*
X126682826Y-108238858D01*
X126684000Y-108262750D01*
X126684000Y-108750250D01*
X126682826Y-108774142D01*
X126679316Y-108797803D01*
X126673504Y-108821007D01*
X126665446Y-108843529D01*
X126655218Y-108865153D01*
X126642921Y-108885670D01*
X126628671Y-108904883D01*
X126612607Y-108922607D01*
X126594883Y-108938671D01*
X126575670Y-108952921D01*
X126555153Y-108965218D01*
X126533529Y-108975446D01*
X126511007Y-108983504D01*
X126487803Y-108989316D01*
X126464142Y-108992826D01*
X126440250Y-108994000D01*
X125527750Y-108994000D01*
X125503858Y-108992826D01*
X125480197Y-108989316D01*
X125456993Y-108983504D01*
X125434471Y-108975446D01*
X125412847Y-108965218D01*
X125392330Y-108952921D01*
X125373117Y-108938671D01*
X125355393Y-108922607D01*
X125339329Y-108904883D01*
X125325079Y-108885670D01*
X125312782Y-108865153D01*
X125302554Y-108843529D01*
X125294496Y-108821007D01*
X125288684Y-108797803D01*
X125285174Y-108774142D01*
X125284000Y-108750250D01*
X125284000Y-108262750D01*
X125285174Y-108238858D01*
X125288684Y-108215197D01*
X125294496Y-108191993D01*
X125302554Y-108169471D01*
X125312782Y-108147847D01*
X125325079Y-108127330D01*
X125339329Y-108108117D01*
X125355393Y-108090393D01*
X125373117Y-108074329D01*
X125392330Y-108060079D01*
X125412847Y-108047782D01*
X125434471Y-108037554D01*
X125456993Y-108029496D01*
X125480197Y-108023684D01*
X125503858Y-108020174D01*
X125527750Y-108019000D01*
X126440250Y-108019000D01*
X126464142Y-108020174D01*
X126464142Y-108020174D01*
G37*
D15*
X125984000Y-108506500D03*
D14*
G36*
X126464142Y-106145174D02*
X126487803Y-106148684D01*
X126511007Y-106154496D01*
X126533529Y-106162554D01*
X126555153Y-106172782D01*
X126575670Y-106185079D01*
X126594883Y-106199329D01*
X126612607Y-106215393D01*
X126628671Y-106233117D01*
X126642921Y-106252330D01*
X126655218Y-106272847D01*
X126665446Y-106294471D01*
X126673504Y-106316993D01*
X126679316Y-106340197D01*
X126682826Y-106363858D01*
X126684000Y-106387750D01*
X126684000Y-106875250D01*
X126682826Y-106899142D01*
X126679316Y-106922803D01*
X126673504Y-106946007D01*
X126665446Y-106968529D01*
X126655218Y-106990153D01*
X126642921Y-107010670D01*
X126628671Y-107029883D01*
X126612607Y-107047607D01*
X126594883Y-107063671D01*
X126575670Y-107077921D01*
X126555153Y-107090218D01*
X126533529Y-107100446D01*
X126511007Y-107108504D01*
X126487803Y-107114316D01*
X126464142Y-107117826D01*
X126440250Y-107119000D01*
X125527750Y-107119000D01*
X125503858Y-107117826D01*
X125480197Y-107114316D01*
X125456993Y-107108504D01*
X125434471Y-107100446D01*
X125412847Y-107090218D01*
X125392330Y-107077921D01*
X125373117Y-107063671D01*
X125355393Y-107047607D01*
X125339329Y-107029883D01*
X125325079Y-107010670D01*
X125312782Y-106990153D01*
X125302554Y-106968529D01*
X125294496Y-106946007D01*
X125288684Y-106922803D01*
X125285174Y-106899142D01*
X125284000Y-106875250D01*
X125284000Y-106387750D01*
X125285174Y-106363858D01*
X125288684Y-106340197D01*
X125294496Y-106316993D01*
X125302554Y-106294471D01*
X125312782Y-106272847D01*
X125325079Y-106252330D01*
X125339329Y-106233117D01*
X125355393Y-106215393D01*
X125373117Y-106199329D01*
X125392330Y-106185079D01*
X125412847Y-106172782D01*
X125434471Y-106162554D01*
X125456993Y-106154496D01*
X125480197Y-106148684D01*
X125503858Y-106145174D01*
X125527750Y-106144000D01*
X126440250Y-106144000D01*
X126464142Y-106145174D01*
X126464142Y-106145174D01*
G37*
D15*
X125984000Y-106631500D03*
G04 #@! TD*
D14*
G04 #@! TO.C,R24*
G36*
X126464142Y-119782674D02*
X126487803Y-119786184D01*
X126511007Y-119791996D01*
X126533529Y-119800054D01*
X126555153Y-119810282D01*
X126575670Y-119822579D01*
X126594883Y-119836829D01*
X126612607Y-119852893D01*
X126628671Y-119870617D01*
X126642921Y-119889830D01*
X126655218Y-119910347D01*
X126665446Y-119931971D01*
X126673504Y-119954493D01*
X126679316Y-119977697D01*
X126682826Y-120001358D01*
X126684000Y-120025250D01*
X126684000Y-120512750D01*
X126682826Y-120536642D01*
X126679316Y-120560303D01*
X126673504Y-120583507D01*
X126665446Y-120606029D01*
X126655218Y-120627653D01*
X126642921Y-120648170D01*
X126628671Y-120667383D01*
X126612607Y-120685107D01*
X126594883Y-120701171D01*
X126575670Y-120715421D01*
X126555153Y-120727718D01*
X126533529Y-120737946D01*
X126511007Y-120746004D01*
X126487803Y-120751816D01*
X126464142Y-120755326D01*
X126440250Y-120756500D01*
X125527750Y-120756500D01*
X125503858Y-120755326D01*
X125480197Y-120751816D01*
X125456993Y-120746004D01*
X125434471Y-120737946D01*
X125412847Y-120727718D01*
X125392330Y-120715421D01*
X125373117Y-120701171D01*
X125355393Y-120685107D01*
X125339329Y-120667383D01*
X125325079Y-120648170D01*
X125312782Y-120627653D01*
X125302554Y-120606029D01*
X125294496Y-120583507D01*
X125288684Y-120560303D01*
X125285174Y-120536642D01*
X125284000Y-120512750D01*
X125284000Y-120025250D01*
X125285174Y-120001358D01*
X125288684Y-119977697D01*
X125294496Y-119954493D01*
X125302554Y-119931971D01*
X125312782Y-119910347D01*
X125325079Y-119889830D01*
X125339329Y-119870617D01*
X125355393Y-119852893D01*
X125373117Y-119836829D01*
X125392330Y-119822579D01*
X125412847Y-119810282D01*
X125434471Y-119800054D01*
X125456993Y-119791996D01*
X125480197Y-119786184D01*
X125503858Y-119782674D01*
X125527750Y-119781500D01*
X126440250Y-119781500D01*
X126464142Y-119782674D01*
X126464142Y-119782674D01*
G37*
D15*
X125984000Y-120269000D03*
D14*
G36*
X126464142Y-121657674D02*
X126487803Y-121661184D01*
X126511007Y-121666996D01*
X126533529Y-121675054D01*
X126555153Y-121685282D01*
X126575670Y-121697579D01*
X126594883Y-121711829D01*
X126612607Y-121727893D01*
X126628671Y-121745617D01*
X126642921Y-121764830D01*
X126655218Y-121785347D01*
X126665446Y-121806971D01*
X126673504Y-121829493D01*
X126679316Y-121852697D01*
X126682826Y-121876358D01*
X126684000Y-121900250D01*
X126684000Y-122387750D01*
X126682826Y-122411642D01*
X126679316Y-122435303D01*
X126673504Y-122458507D01*
X126665446Y-122481029D01*
X126655218Y-122502653D01*
X126642921Y-122523170D01*
X126628671Y-122542383D01*
X126612607Y-122560107D01*
X126594883Y-122576171D01*
X126575670Y-122590421D01*
X126555153Y-122602718D01*
X126533529Y-122612946D01*
X126511007Y-122621004D01*
X126487803Y-122626816D01*
X126464142Y-122630326D01*
X126440250Y-122631500D01*
X125527750Y-122631500D01*
X125503858Y-122630326D01*
X125480197Y-122626816D01*
X125456993Y-122621004D01*
X125434471Y-122612946D01*
X125412847Y-122602718D01*
X125392330Y-122590421D01*
X125373117Y-122576171D01*
X125355393Y-122560107D01*
X125339329Y-122542383D01*
X125325079Y-122523170D01*
X125312782Y-122502653D01*
X125302554Y-122481029D01*
X125294496Y-122458507D01*
X125288684Y-122435303D01*
X125285174Y-122411642D01*
X125284000Y-122387750D01*
X125284000Y-121900250D01*
X125285174Y-121876358D01*
X125288684Y-121852697D01*
X125294496Y-121829493D01*
X125302554Y-121806971D01*
X125312782Y-121785347D01*
X125325079Y-121764830D01*
X125339329Y-121745617D01*
X125355393Y-121727893D01*
X125373117Y-121711829D01*
X125392330Y-121697579D01*
X125412847Y-121685282D01*
X125434471Y-121675054D01*
X125456993Y-121666996D01*
X125480197Y-121661184D01*
X125503858Y-121657674D01*
X125527750Y-121656500D01*
X126440250Y-121656500D01*
X126464142Y-121657674D01*
X126464142Y-121657674D01*
G37*
D15*
X125984000Y-122144000D03*
G04 #@! TD*
D14*
G04 #@! TO.C,R23*
G36*
X112494142Y-61665174D02*
X112517803Y-61668684D01*
X112541007Y-61674496D01*
X112563529Y-61682554D01*
X112585153Y-61692782D01*
X112605670Y-61705079D01*
X112624883Y-61719329D01*
X112642607Y-61735393D01*
X112658671Y-61753117D01*
X112672921Y-61772330D01*
X112685218Y-61792847D01*
X112695446Y-61814471D01*
X112703504Y-61836993D01*
X112709316Y-61860197D01*
X112712826Y-61883858D01*
X112714000Y-61907750D01*
X112714000Y-62395250D01*
X112712826Y-62419142D01*
X112709316Y-62442803D01*
X112703504Y-62466007D01*
X112695446Y-62488529D01*
X112685218Y-62510153D01*
X112672921Y-62530670D01*
X112658671Y-62549883D01*
X112642607Y-62567607D01*
X112624883Y-62583671D01*
X112605670Y-62597921D01*
X112585153Y-62610218D01*
X112563529Y-62620446D01*
X112541007Y-62628504D01*
X112517803Y-62634316D01*
X112494142Y-62637826D01*
X112470250Y-62639000D01*
X111557750Y-62639000D01*
X111533858Y-62637826D01*
X111510197Y-62634316D01*
X111486993Y-62628504D01*
X111464471Y-62620446D01*
X111442847Y-62610218D01*
X111422330Y-62597921D01*
X111403117Y-62583671D01*
X111385393Y-62567607D01*
X111369329Y-62549883D01*
X111355079Y-62530670D01*
X111342782Y-62510153D01*
X111332554Y-62488529D01*
X111324496Y-62466007D01*
X111318684Y-62442803D01*
X111315174Y-62419142D01*
X111314000Y-62395250D01*
X111314000Y-61907750D01*
X111315174Y-61883858D01*
X111318684Y-61860197D01*
X111324496Y-61836993D01*
X111332554Y-61814471D01*
X111342782Y-61792847D01*
X111355079Y-61772330D01*
X111369329Y-61753117D01*
X111385393Y-61735393D01*
X111403117Y-61719329D01*
X111422330Y-61705079D01*
X111442847Y-61692782D01*
X111464471Y-61682554D01*
X111486993Y-61674496D01*
X111510197Y-61668684D01*
X111533858Y-61665174D01*
X111557750Y-61664000D01*
X112470250Y-61664000D01*
X112494142Y-61665174D01*
X112494142Y-61665174D01*
G37*
D15*
X112014000Y-62151500D03*
D14*
G36*
X112494142Y-59790174D02*
X112517803Y-59793684D01*
X112541007Y-59799496D01*
X112563529Y-59807554D01*
X112585153Y-59817782D01*
X112605670Y-59830079D01*
X112624883Y-59844329D01*
X112642607Y-59860393D01*
X112658671Y-59878117D01*
X112672921Y-59897330D01*
X112685218Y-59917847D01*
X112695446Y-59939471D01*
X112703504Y-59961993D01*
X112709316Y-59985197D01*
X112712826Y-60008858D01*
X112714000Y-60032750D01*
X112714000Y-60520250D01*
X112712826Y-60544142D01*
X112709316Y-60567803D01*
X112703504Y-60591007D01*
X112695446Y-60613529D01*
X112685218Y-60635153D01*
X112672921Y-60655670D01*
X112658671Y-60674883D01*
X112642607Y-60692607D01*
X112624883Y-60708671D01*
X112605670Y-60722921D01*
X112585153Y-60735218D01*
X112563529Y-60745446D01*
X112541007Y-60753504D01*
X112517803Y-60759316D01*
X112494142Y-60762826D01*
X112470250Y-60764000D01*
X111557750Y-60764000D01*
X111533858Y-60762826D01*
X111510197Y-60759316D01*
X111486993Y-60753504D01*
X111464471Y-60745446D01*
X111442847Y-60735218D01*
X111422330Y-60722921D01*
X111403117Y-60708671D01*
X111385393Y-60692607D01*
X111369329Y-60674883D01*
X111355079Y-60655670D01*
X111342782Y-60635153D01*
X111332554Y-60613529D01*
X111324496Y-60591007D01*
X111318684Y-60567803D01*
X111315174Y-60544142D01*
X111314000Y-60520250D01*
X111314000Y-60032750D01*
X111315174Y-60008858D01*
X111318684Y-59985197D01*
X111324496Y-59961993D01*
X111332554Y-59939471D01*
X111342782Y-59917847D01*
X111355079Y-59897330D01*
X111369329Y-59878117D01*
X111385393Y-59860393D01*
X111403117Y-59844329D01*
X111422330Y-59830079D01*
X111442847Y-59817782D01*
X111464471Y-59807554D01*
X111486993Y-59799496D01*
X111510197Y-59793684D01*
X111533858Y-59790174D01*
X111557750Y-59789000D01*
X112470250Y-59789000D01*
X112494142Y-59790174D01*
X112494142Y-59790174D01*
G37*
D15*
X112014000Y-60276500D03*
G04 #@! TD*
D14*
G04 #@! TO.C,R22*
G36*
X139394892Y-124955952D02*
X139418553Y-124959462D01*
X139441757Y-124965274D01*
X139464279Y-124973332D01*
X139485903Y-124983560D01*
X139506420Y-124995857D01*
X139525633Y-125010107D01*
X139543357Y-125026171D01*
X139559421Y-125043895D01*
X139573671Y-125063108D01*
X139585968Y-125083625D01*
X139596196Y-125105249D01*
X139604254Y-125127771D01*
X139610066Y-125150975D01*
X139613576Y-125174636D01*
X139614750Y-125198528D01*
X139614750Y-125686028D01*
X139613576Y-125709920D01*
X139610066Y-125733581D01*
X139604254Y-125756785D01*
X139596196Y-125779307D01*
X139585968Y-125800931D01*
X139573671Y-125821448D01*
X139559421Y-125840661D01*
X139543357Y-125858385D01*
X139525633Y-125874449D01*
X139506420Y-125888699D01*
X139485903Y-125900996D01*
X139464279Y-125911224D01*
X139441757Y-125919282D01*
X139418553Y-125925094D01*
X139394892Y-125928604D01*
X139371000Y-125929778D01*
X138458500Y-125929778D01*
X138434608Y-125928604D01*
X138410947Y-125925094D01*
X138387743Y-125919282D01*
X138365221Y-125911224D01*
X138343597Y-125900996D01*
X138323080Y-125888699D01*
X138303867Y-125874449D01*
X138286143Y-125858385D01*
X138270079Y-125840661D01*
X138255829Y-125821448D01*
X138243532Y-125800931D01*
X138233304Y-125779307D01*
X138225246Y-125756785D01*
X138219434Y-125733581D01*
X138215924Y-125709920D01*
X138214750Y-125686028D01*
X138214750Y-125198528D01*
X138215924Y-125174636D01*
X138219434Y-125150975D01*
X138225246Y-125127771D01*
X138233304Y-125105249D01*
X138243532Y-125083625D01*
X138255829Y-125063108D01*
X138270079Y-125043895D01*
X138286143Y-125026171D01*
X138303867Y-125010107D01*
X138323080Y-124995857D01*
X138343597Y-124983560D01*
X138365221Y-124973332D01*
X138387743Y-124965274D01*
X138410947Y-124959462D01*
X138434608Y-124955952D01*
X138458500Y-124954778D01*
X139371000Y-124954778D01*
X139394892Y-124955952D01*
X139394892Y-124955952D01*
G37*
D15*
X138914750Y-125442278D03*
D14*
G36*
X139394892Y-123080952D02*
X139418553Y-123084462D01*
X139441757Y-123090274D01*
X139464279Y-123098332D01*
X139485903Y-123108560D01*
X139506420Y-123120857D01*
X139525633Y-123135107D01*
X139543357Y-123151171D01*
X139559421Y-123168895D01*
X139573671Y-123188108D01*
X139585968Y-123208625D01*
X139596196Y-123230249D01*
X139604254Y-123252771D01*
X139610066Y-123275975D01*
X139613576Y-123299636D01*
X139614750Y-123323528D01*
X139614750Y-123811028D01*
X139613576Y-123834920D01*
X139610066Y-123858581D01*
X139604254Y-123881785D01*
X139596196Y-123904307D01*
X139585968Y-123925931D01*
X139573671Y-123946448D01*
X139559421Y-123965661D01*
X139543357Y-123983385D01*
X139525633Y-123999449D01*
X139506420Y-124013699D01*
X139485903Y-124025996D01*
X139464279Y-124036224D01*
X139441757Y-124044282D01*
X139418553Y-124050094D01*
X139394892Y-124053604D01*
X139371000Y-124054778D01*
X138458500Y-124054778D01*
X138434608Y-124053604D01*
X138410947Y-124050094D01*
X138387743Y-124044282D01*
X138365221Y-124036224D01*
X138343597Y-124025996D01*
X138323080Y-124013699D01*
X138303867Y-123999449D01*
X138286143Y-123983385D01*
X138270079Y-123965661D01*
X138255829Y-123946448D01*
X138243532Y-123925931D01*
X138233304Y-123904307D01*
X138225246Y-123881785D01*
X138219434Y-123858581D01*
X138215924Y-123834920D01*
X138214750Y-123811028D01*
X138214750Y-123323528D01*
X138215924Y-123299636D01*
X138219434Y-123275975D01*
X138225246Y-123252771D01*
X138233304Y-123230249D01*
X138243532Y-123208625D01*
X138255829Y-123188108D01*
X138270079Y-123168895D01*
X138286143Y-123151171D01*
X138303867Y-123135107D01*
X138323080Y-123120857D01*
X138343597Y-123108560D01*
X138365221Y-123098332D01*
X138387743Y-123090274D01*
X138410947Y-123084462D01*
X138434608Y-123080952D01*
X138458500Y-123079778D01*
X139371000Y-123079778D01*
X139394892Y-123080952D01*
X139394892Y-123080952D01*
G37*
D15*
X138914750Y-123567278D03*
G04 #@! TD*
D14*
G04 #@! TO.C,R21*
G36*
X136854892Y-124955952D02*
X136878553Y-124959462D01*
X136901757Y-124965274D01*
X136924279Y-124973332D01*
X136945903Y-124983560D01*
X136966420Y-124995857D01*
X136985633Y-125010107D01*
X137003357Y-125026171D01*
X137019421Y-125043895D01*
X137033671Y-125063108D01*
X137045968Y-125083625D01*
X137056196Y-125105249D01*
X137064254Y-125127771D01*
X137070066Y-125150975D01*
X137073576Y-125174636D01*
X137074750Y-125198528D01*
X137074750Y-125686028D01*
X137073576Y-125709920D01*
X137070066Y-125733581D01*
X137064254Y-125756785D01*
X137056196Y-125779307D01*
X137045968Y-125800931D01*
X137033671Y-125821448D01*
X137019421Y-125840661D01*
X137003357Y-125858385D01*
X136985633Y-125874449D01*
X136966420Y-125888699D01*
X136945903Y-125900996D01*
X136924279Y-125911224D01*
X136901757Y-125919282D01*
X136878553Y-125925094D01*
X136854892Y-125928604D01*
X136831000Y-125929778D01*
X135918500Y-125929778D01*
X135894608Y-125928604D01*
X135870947Y-125925094D01*
X135847743Y-125919282D01*
X135825221Y-125911224D01*
X135803597Y-125900996D01*
X135783080Y-125888699D01*
X135763867Y-125874449D01*
X135746143Y-125858385D01*
X135730079Y-125840661D01*
X135715829Y-125821448D01*
X135703532Y-125800931D01*
X135693304Y-125779307D01*
X135685246Y-125756785D01*
X135679434Y-125733581D01*
X135675924Y-125709920D01*
X135674750Y-125686028D01*
X135674750Y-125198528D01*
X135675924Y-125174636D01*
X135679434Y-125150975D01*
X135685246Y-125127771D01*
X135693304Y-125105249D01*
X135703532Y-125083625D01*
X135715829Y-125063108D01*
X135730079Y-125043895D01*
X135746143Y-125026171D01*
X135763867Y-125010107D01*
X135783080Y-124995857D01*
X135803597Y-124983560D01*
X135825221Y-124973332D01*
X135847743Y-124965274D01*
X135870947Y-124959462D01*
X135894608Y-124955952D01*
X135918500Y-124954778D01*
X136831000Y-124954778D01*
X136854892Y-124955952D01*
X136854892Y-124955952D01*
G37*
D15*
X136374750Y-125442278D03*
D14*
G36*
X136854892Y-123080952D02*
X136878553Y-123084462D01*
X136901757Y-123090274D01*
X136924279Y-123098332D01*
X136945903Y-123108560D01*
X136966420Y-123120857D01*
X136985633Y-123135107D01*
X137003357Y-123151171D01*
X137019421Y-123168895D01*
X137033671Y-123188108D01*
X137045968Y-123208625D01*
X137056196Y-123230249D01*
X137064254Y-123252771D01*
X137070066Y-123275975D01*
X137073576Y-123299636D01*
X137074750Y-123323528D01*
X137074750Y-123811028D01*
X137073576Y-123834920D01*
X137070066Y-123858581D01*
X137064254Y-123881785D01*
X137056196Y-123904307D01*
X137045968Y-123925931D01*
X137033671Y-123946448D01*
X137019421Y-123965661D01*
X137003357Y-123983385D01*
X136985633Y-123999449D01*
X136966420Y-124013699D01*
X136945903Y-124025996D01*
X136924279Y-124036224D01*
X136901757Y-124044282D01*
X136878553Y-124050094D01*
X136854892Y-124053604D01*
X136831000Y-124054778D01*
X135918500Y-124054778D01*
X135894608Y-124053604D01*
X135870947Y-124050094D01*
X135847743Y-124044282D01*
X135825221Y-124036224D01*
X135803597Y-124025996D01*
X135783080Y-124013699D01*
X135763867Y-123999449D01*
X135746143Y-123983385D01*
X135730079Y-123965661D01*
X135715829Y-123946448D01*
X135703532Y-123925931D01*
X135693304Y-123904307D01*
X135685246Y-123881785D01*
X135679434Y-123858581D01*
X135675924Y-123834920D01*
X135674750Y-123811028D01*
X135674750Y-123323528D01*
X135675924Y-123299636D01*
X135679434Y-123275975D01*
X135685246Y-123252771D01*
X135693304Y-123230249D01*
X135703532Y-123208625D01*
X135715829Y-123188108D01*
X135730079Y-123168895D01*
X135746143Y-123151171D01*
X135763867Y-123135107D01*
X135783080Y-123120857D01*
X135803597Y-123108560D01*
X135825221Y-123098332D01*
X135847743Y-123090274D01*
X135870947Y-123084462D01*
X135894608Y-123080952D01*
X135918500Y-123079778D01*
X136831000Y-123079778D01*
X136854892Y-123080952D01*
X136854892Y-123080952D01*
G37*
D15*
X136374750Y-123567278D03*
G04 #@! TD*
D14*
G04 #@! TO.C,R20*
G36*
X119154142Y-129877174D02*
X119177803Y-129880684D01*
X119201007Y-129886496D01*
X119223529Y-129894554D01*
X119245153Y-129904782D01*
X119265670Y-129917079D01*
X119284883Y-129931329D01*
X119302607Y-129947393D01*
X119318671Y-129965117D01*
X119332921Y-129984330D01*
X119345218Y-130004847D01*
X119355446Y-130026471D01*
X119363504Y-130048993D01*
X119369316Y-130072197D01*
X119372826Y-130095858D01*
X119374000Y-130119750D01*
X119374000Y-130607250D01*
X119372826Y-130631142D01*
X119369316Y-130654803D01*
X119363504Y-130678007D01*
X119355446Y-130700529D01*
X119345218Y-130722153D01*
X119332921Y-130742670D01*
X119318671Y-130761883D01*
X119302607Y-130779607D01*
X119284883Y-130795671D01*
X119265670Y-130809921D01*
X119245153Y-130822218D01*
X119223529Y-130832446D01*
X119201007Y-130840504D01*
X119177803Y-130846316D01*
X119154142Y-130849826D01*
X119130250Y-130851000D01*
X118217750Y-130851000D01*
X118193858Y-130849826D01*
X118170197Y-130846316D01*
X118146993Y-130840504D01*
X118124471Y-130832446D01*
X118102847Y-130822218D01*
X118082330Y-130809921D01*
X118063117Y-130795671D01*
X118045393Y-130779607D01*
X118029329Y-130761883D01*
X118015079Y-130742670D01*
X118002782Y-130722153D01*
X117992554Y-130700529D01*
X117984496Y-130678007D01*
X117978684Y-130654803D01*
X117975174Y-130631142D01*
X117974000Y-130607250D01*
X117974000Y-130119750D01*
X117975174Y-130095858D01*
X117978684Y-130072197D01*
X117984496Y-130048993D01*
X117992554Y-130026471D01*
X118002782Y-130004847D01*
X118015079Y-129984330D01*
X118029329Y-129965117D01*
X118045393Y-129947393D01*
X118063117Y-129931329D01*
X118082330Y-129917079D01*
X118102847Y-129904782D01*
X118124471Y-129894554D01*
X118146993Y-129886496D01*
X118170197Y-129880684D01*
X118193858Y-129877174D01*
X118217750Y-129876000D01*
X119130250Y-129876000D01*
X119154142Y-129877174D01*
X119154142Y-129877174D01*
G37*
D15*
X118674000Y-130363500D03*
D14*
G36*
X119154142Y-128002174D02*
X119177803Y-128005684D01*
X119201007Y-128011496D01*
X119223529Y-128019554D01*
X119245153Y-128029782D01*
X119265670Y-128042079D01*
X119284883Y-128056329D01*
X119302607Y-128072393D01*
X119318671Y-128090117D01*
X119332921Y-128109330D01*
X119345218Y-128129847D01*
X119355446Y-128151471D01*
X119363504Y-128173993D01*
X119369316Y-128197197D01*
X119372826Y-128220858D01*
X119374000Y-128244750D01*
X119374000Y-128732250D01*
X119372826Y-128756142D01*
X119369316Y-128779803D01*
X119363504Y-128803007D01*
X119355446Y-128825529D01*
X119345218Y-128847153D01*
X119332921Y-128867670D01*
X119318671Y-128886883D01*
X119302607Y-128904607D01*
X119284883Y-128920671D01*
X119265670Y-128934921D01*
X119245153Y-128947218D01*
X119223529Y-128957446D01*
X119201007Y-128965504D01*
X119177803Y-128971316D01*
X119154142Y-128974826D01*
X119130250Y-128976000D01*
X118217750Y-128976000D01*
X118193858Y-128974826D01*
X118170197Y-128971316D01*
X118146993Y-128965504D01*
X118124471Y-128957446D01*
X118102847Y-128947218D01*
X118082330Y-128934921D01*
X118063117Y-128920671D01*
X118045393Y-128904607D01*
X118029329Y-128886883D01*
X118015079Y-128867670D01*
X118002782Y-128847153D01*
X117992554Y-128825529D01*
X117984496Y-128803007D01*
X117978684Y-128779803D01*
X117975174Y-128756142D01*
X117974000Y-128732250D01*
X117974000Y-128244750D01*
X117975174Y-128220858D01*
X117978684Y-128197197D01*
X117984496Y-128173993D01*
X117992554Y-128151471D01*
X118002782Y-128129847D01*
X118015079Y-128109330D01*
X118029329Y-128090117D01*
X118045393Y-128072393D01*
X118063117Y-128056329D01*
X118082330Y-128042079D01*
X118102847Y-128029782D01*
X118124471Y-128019554D01*
X118146993Y-128011496D01*
X118170197Y-128005684D01*
X118193858Y-128002174D01*
X118217750Y-128001000D01*
X119130250Y-128001000D01*
X119154142Y-128002174D01*
X119154142Y-128002174D01*
G37*
D15*
X118674000Y-128488500D03*
G04 #@! TD*
D14*
G04 #@! TO.C,R19*
G36*
X119193142Y-134381174D02*
X119216803Y-134384684D01*
X119240007Y-134390496D01*
X119262529Y-134398554D01*
X119284153Y-134408782D01*
X119304670Y-134421079D01*
X119323883Y-134435329D01*
X119341607Y-134451393D01*
X119357671Y-134469117D01*
X119371921Y-134488330D01*
X119384218Y-134508847D01*
X119394446Y-134530471D01*
X119402504Y-134552993D01*
X119408316Y-134576197D01*
X119411826Y-134599858D01*
X119413000Y-134623750D01*
X119413000Y-135111250D01*
X119411826Y-135135142D01*
X119408316Y-135158803D01*
X119402504Y-135182007D01*
X119394446Y-135204529D01*
X119384218Y-135226153D01*
X119371921Y-135246670D01*
X119357671Y-135265883D01*
X119341607Y-135283607D01*
X119323883Y-135299671D01*
X119304670Y-135313921D01*
X119284153Y-135326218D01*
X119262529Y-135336446D01*
X119240007Y-135344504D01*
X119216803Y-135350316D01*
X119193142Y-135353826D01*
X119169250Y-135355000D01*
X118256750Y-135355000D01*
X118232858Y-135353826D01*
X118209197Y-135350316D01*
X118185993Y-135344504D01*
X118163471Y-135336446D01*
X118141847Y-135326218D01*
X118121330Y-135313921D01*
X118102117Y-135299671D01*
X118084393Y-135283607D01*
X118068329Y-135265883D01*
X118054079Y-135246670D01*
X118041782Y-135226153D01*
X118031554Y-135204529D01*
X118023496Y-135182007D01*
X118017684Y-135158803D01*
X118014174Y-135135142D01*
X118013000Y-135111250D01*
X118013000Y-134623750D01*
X118014174Y-134599858D01*
X118017684Y-134576197D01*
X118023496Y-134552993D01*
X118031554Y-134530471D01*
X118041782Y-134508847D01*
X118054079Y-134488330D01*
X118068329Y-134469117D01*
X118084393Y-134451393D01*
X118102117Y-134435329D01*
X118121330Y-134421079D01*
X118141847Y-134408782D01*
X118163471Y-134398554D01*
X118185993Y-134390496D01*
X118209197Y-134384684D01*
X118232858Y-134381174D01*
X118256750Y-134380000D01*
X119169250Y-134380000D01*
X119193142Y-134381174D01*
X119193142Y-134381174D01*
G37*
D15*
X118713000Y-134867500D03*
D14*
G36*
X119193142Y-132506174D02*
X119216803Y-132509684D01*
X119240007Y-132515496D01*
X119262529Y-132523554D01*
X119284153Y-132533782D01*
X119304670Y-132546079D01*
X119323883Y-132560329D01*
X119341607Y-132576393D01*
X119357671Y-132594117D01*
X119371921Y-132613330D01*
X119384218Y-132633847D01*
X119394446Y-132655471D01*
X119402504Y-132677993D01*
X119408316Y-132701197D01*
X119411826Y-132724858D01*
X119413000Y-132748750D01*
X119413000Y-133236250D01*
X119411826Y-133260142D01*
X119408316Y-133283803D01*
X119402504Y-133307007D01*
X119394446Y-133329529D01*
X119384218Y-133351153D01*
X119371921Y-133371670D01*
X119357671Y-133390883D01*
X119341607Y-133408607D01*
X119323883Y-133424671D01*
X119304670Y-133438921D01*
X119284153Y-133451218D01*
X119262529Y-133461446D01*
X119240007Y-133469504D01*
X119216803Y-133475316D01*
X119193142Y-133478826D01*
X119169250Y-133480000D01*
X118256750Y-133480000D01*
X118232858Y-133478826D01*
X118209197Y-133475316D01*
X118185993Y-133469504D01*
X118163471Y-133461446D01*
X118141847Y-133451218D01*
X118121330Y-133438921D01*
X118102117Y-133424671D01*
X118084393Y-133408607D01*
X118068329Y-133390883D01*
X118054079Y-133371670D01*
X118041782Y-133351153D01*
X118031554Y-133329529D01*
X118023496Y-133307007D01*
X118017684Y-133283803D01*
X118014174Y-133260142D01*
X118013000Y-133236250D01*
X118013000Y-132748750D01*
X118014174Y-132724858D01*
X118017684Y-132701197D01*
X118023496Y-132677993D01*
X118031554Y-132655471D01*
X118041782Y-132633847D01*
X118054079Y-132613330D01*
X118068329Y-132594117D01*
X118084393Y-132576393D01*
X118102117Y-132560329D01*
X118121330Y-132546079D01*
X118141847Y-132533782D01*
X118163471Y-132523554D01*
X118185993Y-132515496D01*
X118209197Y-132509684D01*
X118232858Y-132506174D01*
X118256750Y-132505000D01*
X119169250Y-132505000D01*
X119193142Y-132506174D01*
X119193142Y-132506174D01*
G37*
D15*
X118713000Y-132992500D03*
G04 #@! TD*
D14*
G04 #@! TO.C,R18*
G36*
X116018142Y-134381174D02*
X116041803Y-134384684D01*
X116065007Y-134390496D01*
X116087529Y-134398554D01*
X116109153Y-134408782D01*
X116129670Y-134421079D01*
X116148883Y-134435329D01*
X116166607Y-134451393D01*
X116182671Y-134469117D01*
X116196921Y-134488330D01*
X116209218Y-134508847D01*
X116219446Y-134530471D01*
X116227504Y-134552993D01*
X116233316Y-134576197D01*
X116236826Y-134599858D01*
X116238000Y-134623750D01*
X116238000Y-135111250D01*
X116236826Y-135135142D01*
X116233316Y-135158803D01*
X116227504Y-135182007D01*
X116219446Y-135204529D01*
X116209218Y-135226153D01*
X116196921Y-135246670D01*
X116182671Y-135265883D01*
X116166607Y-135283607D01*
X116148883Y-135299671D01*
X116129670Y-135313921D01*
X116109153Y-135326218D01*
X116087529Y-135336446D01*
X116065007Y-135344504D01*
X116041803Y-135350316D01*
X116018142Y-135353826D01*
X115994250Y-135355000D01*
X115081750Y-135355000D01*
X115057858Y-135353826D01*
X115034197Y-135350316D01*
X115010993Y-135344504D01*
X114988471Y-135336446D01*
X114966847Y-135326218D01*
X114946330Y-135313921D01*
X114927117Y-135299671D01*
X114909393Y-135283607D01*
X114893329Y-135265883D01*
X114879079Y-135246670D01*
X114866782Y-135226153D01*
X114856554Y-135204529D01*
X114848496Y-135182007D01*
X114842684Y-135158803D01*
X114839174Y-135135142D01*
X114838000Y-135111250D01*
X114838000Y-134623750D01*
X114839174Y-134599858D01*
X114842684Y-134576197D01*
X114848496Y-134552993D01*
X114856554Y-134530471D01*
X114866782Y-134508847D01*
X114879079Y-134488330D01*
X114893329Y-134469117D01*
X114909393Y-134451393D01*
X114927117Y-134435329D01*
X114946330Y-134421079D01*
X114966847Y-134408782D01*
X114988471Y-134398554D01*
X115010993Y-134390496D01*
X115034197Y-134384684D01*
X115057858Y-134381174D01*
X115081750Y-134380000D01*
X115994250Y-134380000D01*
X116018142Y-134381174D01*
X116018142Y-134381174D01*
G37*
D15*
X115538000Y-134867500D03*
D14*
G36*
X116018142Y-132506174D02*
X116041803Y-132509684D01*
X116065007Y-132515496D01*
X116087529Y-132523554D01*
X116109153Y-132533782D01*
X116129670Y-132546079D01*
X116148883Y-132560329D01*
X116166607Y-132576393D01*
X116182671Y-132594117D01*
X116196921Y-132613330D01*
X116209218Y-132633847D01*
X116219446Y-132655471D01*
X116227504Y-132677993D01*
X116233316Y-132701197D01*
X116236826Y-132724858D01*
X116238000Y-132748750D01*
X116238000Y-133236250D01*
X116236826Y-133260142D01*
X116233316Y-133283803D01*
X116227504Y-133307007D01*
X116219446Y-133329529D01*
X116209218Y-133351153D01*
X116196921Y-133371670D01*
X116182671Y-133390883D01*
X116166607Y-133408607D01*
X116148883Y-133424671D01*
X116129670Y-133438921D01*
X116109153Y-133451218D01*
X116087529Y-133461446D01*
X116065007Y-133469504D01*
X116041803Y-133475316D01*
X116018142Y-133478826D01*
X115994250Y-133480000D01*
X115081750Y-133480000D01*
X115057858Y-133478826D01*
X115034197Y-133475316D01*
X115010993Y-133469504D01*
X114988471Y-133461446D01*
X114966847Y-133451218D01*
X114946330Y-133438921D01*
X114927117Y-133424671D01*
X114909393Y-133408607D01*
X114893329Y-133390883D01*
X114879079Y-133371670D01*
X114866782Y-133351153D01*
X114856554Y-133329529D01*
X114848496Y-133307007D01*
X114842684Y-133283803D01*
X114839174Y-133260142D01*
X114838000Y-133236250D01*
X114838000Y-132748750D01*
X114839174Y-132724858D01*
X114842684Y-132701197D01*
X114848496Y-132677993D01*
X114856554Y-132655471D01*
X114866782Y-132633847D01*
X114879079Y-132613330D01*
X114893329Y-132594117D01*
X114909393Y-132576393D01*
X114927117Y-132560329D01*
X114946330Y-132546079D01*
X114966847Y-132533782D01*
X114988471Y-132523554D01*
X115010993Y-132515496D01*
X115034197Y-132509684D01*
X115057858Y-132506174D01*
X115081750Y-132505000D01*
X115994250Y-132505000D01*
X116018142Y-132506174D01*
X116018142Y-132506174D01*
G37*
D15*
X115538000Y-132992500D03*
G04 #@! TD*
D14*
G04 #@! TO.C,R17*
G36*
X141894142Y-136860174D02*
X141917803Y-136863684D01*
X141941007Y-136869496D01*
X141963529Y-136877554D01*
X141985153Y-136887782D01*
X142005670Y-136900079D01*
X142024883Y-136914329D01*
X142042607Y-136930393D01*
X142058671Y-136948117D01*
X142072921Y-136967330D01*
X142085218Y-136987847D01*
X142095446Y-137009471D01*
X142103504Y-137031993D01*
X142109316Y-137055197D01*
X142112826Y-137078858D01*
X142114000Y-137102750D01*
X142114000Y-137590250D01*
X142112826Y-137614142D01*
X142109316Y-137637803D01*
X142103504Y-137661007D01*
X142095446Y-137683529D01*
X142085218Y-137705153D01*
X142072921Y-137725670D01*
X142058671Y-137744883D01*
X142042607Y-137762607D01*
X142024883Y-137778671D01*
X142005670Y-137792921D01*
X141985153Y-137805218D01*
X141963529Y-137815446D01*
X141941007Y-137823504D01*
X141917803Y-137829316D01*
X141894142Y-137832826D01*
X141870250Y-137834000D01*
X140957750Y-137834000D01*
X140933858Y-137832826D01*
X140910197Y-137829316D01*
X140886993Y-137823504D01*
X140864471Y-137815446D01*
X140842847Y-137805218D01*
X140822330Y-137792921D01*
X140803117Y-137778671D01*
X140785393Y-137762607D01*
X140769329Y-137744883D01*
X140755079Y-137725670D01*
X140742782Y-137705153D01*
X140732554Y-137683529D01*
X140724496Y-137661007D01*
X140718684Y-137637803D01*
X140715174Y-137614142D01*
X140714000Y-137590250D01*
X140714000Y-137102750D01*
X140715174Y-137078858D01*
X140718684Y-137055197D01*
X140724496Y-137031993D01*
X140732554Y-137009471D01*
X140742782Y-136987847D01*
X140755079Y-136967330D01*
X140769329Y-136948117D01*
X140785393Y-136930393D01*
X140803117Y-136914329D01*
X140822330Y-136900079D01*
X140842847Y-136887782D01*
X140864471Y-136877554D01*
X140886993Y-136869496D01*
X140910197Y-136863684D01*
X140933858Y-136860174D01*
X140957750Y-136859000D01*
X141870250Y-136859000D01*
X141894142Y-136860174D01*
X141894142Y-136860174D01*
G37*
D15*
X141414000Y-137346500D03*
D14*
G36*
X141894142Y-138735174D02*
X141917803Y-138738684D01*
X141941007Y-138744496D01*
X141963529Y-138752554D01*
X141985153Y-138762782D01*
X142005670Y-138775079D01*
X142024883Y-138789329D01*
X142042607Y-138805393D01*
X142058671Y-138823117D01*
X142072921Y-138842330D01*
X142085218Y-138862847D01*
X142095446Y-138884471D01*
X142103504Y-138906993D01*
X142109316Y-138930197D01*
X142112826Y-138953858D01*
X142114000Y-138977750D01*
X142114000Y-139465250D01*
X142112826Y-139489142D01*
X142109316Y-139512803D01*
X142103504Y-139536007D01*
X142095446Y-139558529D01*
X142085218Y-139580153D01*
X142072921Y-139600670D01*
X142058671Y-139619883D01*
X142042607Y-139637607D01*
X142024883Y-139653671D01*
X142005670Y-139667921D01*
X141985153Y-139680218D01*
X141963529Y-139690446D01*
X141941007Y-139698504D01*
X141917803Y-139704316D01*
X141894142Y-139707826D01*
X141870250Y-139709000D01*
X140957750Y-139709000D01*
X140933858Y-139707826D01*
X140910197Y-139704316D01*
X140886993Y-139698504D01*
X140864471Y-139690446D01*
X140842847Y-139680218D01*
X140822330Y-139667921D01*
X140803117Y-139653671D01*
X140785393Y-139637607D01*
X140769329Y-139619883D01*
X140755079Y-139600670D01*
X140742782Y-139580153D01*
X140732554Y-139558529D01*
X140724496Y-139536007D01*
X140718684Y-139512803D01*
X140715174Y-139489142D01*
X140714000Y-139465250D01*
X140714000Y-138977750D01*
X140715174Y-138953858D01*
X140718684Y-138930197D01*
X140724496Y-138906993D01*
X140732554Y-138884471D01*
X140742782Y-138862847D01*
X140755079Y-138842330D01*
X140769329Y-138823117D01*
X140785393Y-138805393D01*
X140803117Y-138789329D01*
X140822330Y-138775079D01*
X140842847Y-138762782D01*
X140864471Y-138752554D01*
X140886993Y-138744496D01*
X140910197Y-138738684D01*
X140933858Y-138735174D01*
X140957750Y-138734000D01*
X141870250Y-138734000D01*
X141894142Y-138735174D01*
X141894142Y-138735174D01*
G37*
D15*
X141414000Y-139221500D03*
G04 #@! TD*
D14*
G04 #@! TO.C,R16*
G36*
X139354142Y-136860174D02*
X139377803Y-136863684D01*
X139401007Y-136869496D01*
X139423529Y-136877554D01*
X139445153Y-136887782D01*
X139465670Y-136900079D01*
X139484883Y-136914329D01*
X139502607Y-136930393D01*
X139518671Y-136948117D01*
X139532921Y-136967330D01*
X139545218Y-136987847D01*
X139555446Y-137009471D01*
X139563504Y-137031993D01*
X139569316Y-137055197D01*
X139572826Y-137078858D01*
X139574000Y-137102750D01*
X139574000Y-137590250D01*
X139572826Y-137614142D01*
X139569316Y-137637803D01*
X139563504Y-137661007D01*
X139555446Y-137683529D01*
X139545218Y-137705153D01*
X139532921Y-137725670D01*
X139518671Y-137744883D01*
X139502607Y-137762607D01*
X139484883Y-137778671D01*
X139465670Y-137792921D01*
X139445153Y-137805218D01*
X139423529Y-137815446D01*
X139401007Y-137823504D01*
X139377803Y-137829316D01*
X139354142Y-137832826D01*
X139330250Y-137834000D01*
X138417750Y-137834000D01*
X138393858Y-137832826D01*
X138370197Y-137829316D01*
X138346993Y-137823504D01*
X138324471Y-137815446D01*
X138302847Y-137805218D01*
X138282330Y-137792921D01*
X138263117Y-137778671D01*
X138245393Y-137762607D01*
X138229329Y-137744883D01*
X138215079Y-137725670D01*
X138202782Y-137705153D01*
X138192554Y-137683529D01*
X138184496Y-137661007D01*
X138178684Y-137637803D01*
X138175174Y-137614142D01*
X138174000Y-137590250D01*
X138174000Y-137102750D01*
X138175174Y-137078858D01*
X138178684Y-137055197D01*
X138184496Y-137031993D01*
X138192554Y-137009471D01*
X138202782Y-136987847D01*
X138215079Y-136967330D01*
X138229329Y-136948117D01*
X138245393Y-136930393D01*
X138263117Y-136914329D01*
X138282330Y-136900079D01*
X138302847Y-136887782D01*
X138324471Y-136877554D01*
X138346993Y-136869496D01*
X138370197Y-136863684D01*
X138393858Y-136860174D01*
X138417750Y-136859000D01*
X139330250Y-136859000D01*
X139354142Y-136860174D01*
X139354142Y-136860174D01*
G37*
D15*
X138874000Y-137346500D03*
D14*
G36*
X139354142Y-138735174D02*
X139377803Y-138738684D01*
X139401007Y-138744496D01*
X139423529Y-138752554D01*
X139445153Y-138762782D01*
X139465670Y-138775079D01*
X139484883Y-138789329D01*
X139502607Y-138805393D01*
X139518671Y-138823117D01*
X139532921Y-138842330D01*
X139545218Y-138862847D01*
X139555446Y-138884471D01*
X139563504Y-138906993D01*
X139569316Y-138930197D01*
X139572826Y-138953858D01*
X139574000Y-138977750D01*
X139574000Y-139465250D01*
X139572826Y-139489142D01*
X139569316Y-139512803D01*
X139563504Y-139536007D01*
X139555446Y-139558529D01*
X139545218Y-139580153D01*
X139532921Y-139600670D01*
X139518671Y-139619883D01*
X139502607Y-139637607D01*
X139484883Y-139653671D01*
X139465670Y-139667921D01*
X139445153Y-139680218D01*
X139423529Y-139690446D01*
X139401007Y-139698504D01*
X139377803Y-139704316D01*
X139354142Y-139707826D01*
X139330250Y-139709000D01*
X138417750Y-139709000D01*
X138393858Y-139707826D01*
X138370197Y-139704316D01*
X138346993Y-139698504D01*
X138324471Y-139690446D01*
X138302847Y-139680218D01*
X138282330Y-139667921D01*
X138263117Y-139653671D01*
X138245393Y-139637607D01*
X138229329Y-139619883D01*
X138215079Y-139600670D01*
X138202782Y-139580153D01*
X138192554Y-139558529D01*
X138184496Y-139536007D01*
X138178684Y-139512803D01*
X138175174Y-139489142D01*
X138174000Y-139465250D01*
X138174000Y-138977750D01*
X138175174Y-138953858D01*
X138178684Y-138930197D01*
X138184496Y-138906993D01*
X138192554Y-138884471D01*
X138202782Y-138862847D01*
X138215079Y-138842330D01*
X138229329Y-138823117D01*
X138245393Y-138805393D01*
X138263117Y-138789329D01*
X138282330Y-138775079D01*
X138302847Y-138762782D01*
X138324471Y-138752554D01*
X138346993Y-138744496D01*
X138370197Y-138738684D01*
X138393858Y-138735174D01*
X138417750Y-138734000D01*
X139330250Y-138734000D01*
X139354142Y-138735174D01*
X139354142Y-138735174D01*
G37*
D15*
X138874000Y-139221500D03*
G04 #@! TD*
D14*
G04 #@! TO.C,R15*
G36*
X130584142Y-128002174D02*
X130607803Y-128005684D01*
X130631007Y-128011496D01*
X130653529Y-128019554D01*
X130675153Y-128029782D01*
X130695670Y-128042079D01*
X130714883Y-128056329D01*
X130732607Y-128072393D01*
X130748671Y-128090117D01*
X130762921Y-128109330D01*
X130775218Y-128129847D01*
X130785446Y-128151471D01*
X130793504Y-128173993D01*
X130799316Y-128197197D01*
X130802826Y-128220858D01*
X130804000Y-128244750D01*
X130804000Y-128732250D01*
X130802826Y-128756142D01*
X130799316Y-128779803D01*
X130793504Y-128803007D01*
X130785446Y-128825529D01*
X130775218Y-128847153D01*
X130762921Y-128867670D01*
X130748671Y-128886883D01*
X130732607Y-128904607D01*
X130714883Y-128920671D01*
X130695670Y-128934921D01*
X130675153Y-128947218D01*
X130653529Y-128957446D01*
X130631007Y-128965504D01*
X130607803Y-128971316D01*
X130584142Y-128974826D01*
X130560250Y-128976000D01*
X129647750Y-128976000D01*
X129623858Y-128974826D01*
X129600197Y-128971316D01*
X129576993Y-128965504D01*
X129554471Y-128957446D01*
X129532847Y-128947218D01*
X129512330Y-128934921D01*
X129493117Y-128920671D01*
X129475393Y-128904607D01*
X129459329Y-128886883D01*
X129445079Y-128867670D01*
X129432782Y-128847153D01*
X129422554Y-128825529D01*
X129414496Y-128803007D01*
X129408684Y-128779803D01*
X129405174Y-128756142D01*
X129404000Y-128732250D01*
X129404000Y-128244750D01*
X129405174Y-128220858D01*
X129408684Y-128197197D01*
X129414496Y-128173993D01*
X129422554Y-128151471D01*
X129432782Y-128129847D01*
X129445079Y-128109330D01*
X129459329Y-128090117D01*
X129475393Y-128072393D01*
X129493117Y-128056329D01*
X129512330Y-128042079D01*
X129532847Y-128029782D01*
X129554471Y-128019554D01*
X129576993Y-128011496D01*
X129600197Y-128005684D01*
X129623858Y-128002174D01*
X129647750Y-128001000D01*
X130560250Y-128001000D01*
X130584142Y-128002174D01*
X130584142Y-128002174D01*
G37*
D15*
X130104000Y-128488500D03*
D14*
G36*
X130584142Y-129877174D02*
X130607803Y-129880684D01*
X130631007Y-129886496D01*
X130653529Y-129894554D01*
X130675153Y-129904782D01*
X130695670Y-129917079D01*
X130714883Y-129931329D01*
X130732607Y-129947393D01*
X130748671Y-129965117D01*
X130762921Y-129984330D01*
X130775218Y-130004847D01*
X130785446Y-130026471D01*
X130793504Y-130048993D01*
X130799316Y-130072197D01*
X130802826Y-130095858D01*
X130804000Y-130119750D01*
X130804000Y-130607250D01*
X130802826Y-130631142D01*
X130799316Y-130654803D01*
X130793504Y-130678007D01*
X130785446Y-130700529D01*
X130775218Y-130722153D01*
X130762921Y-130742670D01*
X130748671Y-130761883D01*
X130732607Y-130779607D01*
X130714883Y-130795671D01*
X130695670Y-130809921D01*
X130675153Y-130822218D01*
X130653529Y-130832446D01*
X130631007Y-130840504D01*
X130607803Y-130846316D01*
X130584142Y-130849826D01*
X130560250Y-130851000D01*
X129647750Y-130851000D01*
X129623858Y-130849826D01*
X129600197Y-130846316D01*
X129576993Y-130840504D01*
X129554471Y-130832446D01*
X129532847Y-130822218D01*
X129512330Y-130809921D01*
X129493117Y-130795671D01*
X129475393Y-130779607D01*
X129459329Y-130761883D01*
X129445079Y-130742670D01*
X129432782Y-130722153D01*
X129422554Y-130700529D01*
X129414496Y-130678007D01*
X129408684Y-130654803D01*
X129405174Y-130631142D01*
X129404000Y-130607250D01*
X129404000Y-130119750D01*
X129405174Y-130095858D01*
X129408684Y-130072197D01*
X129414496Y-130048993D01*
X129422554Y-130026471D01*
X129432782Y-130004847D01*
X129445079Y-129984330D01*
X129459329Y-129965117D01*
X129475393Y-129947393D01*
X129493117Y-129931329D01*
X129512330Y-129917079D01*
X129532847Y-129904782D01*
X129554471Y-129894554D01*
X129576993Y-129886496D01*
X129600197Y-129880684D01*
X129623858Y-129877174D01*
X129647750Y-129876000D01*
X130560250Y-129876000D01*
X130584142Y-129877174D01*
X130584142Y-129877174D01*
G37*
D15*
X130104000Y-130363500D03*
G04 #@! TD*
D14*
G04 #@! TO.C,R14*
G36*
X133104142Y-136875174D02*
X133127803Y-136878684D01*
X133151007Y-136884496D01*
X133173529Y-136892554D01*
X133195153Y-136902782D01*
X133215670Y-136915079D01*
X133234883Y-136929329D01*
X133252607Y-136945393D01*
X133268671Y-136963117D01*
X133282921Y-136982330D01*
X133295218Y-137002847D01*
X133305446Y-137024471D01*
X133313504Y-137046993D01*
X133319316Y-137070197D01*
X133322826Y-137093858D01*
X133324000Y-137117750D01*
X133324000Y-137605250D01*
X133322826Y-137629142D01*
X133319316Y-137652803D01*
X133313504Y-137676007D01*
X133305446Y-137698529D01*
X133295218Y-137720153D01*
X133282921Y-137740670D01*
X133268671Y-137759883D01*
X133252607Y-137777607D01*
X133234883Y-137793671D01*
X133215670Y-137807921D01*
X133195153Y-137820218D01*
X133173529Y-137830446D01*
X133151007Y-137838504D01*
X133127803Y-137844316D01*
X133104142Y-137847826D01*
X133080250Y-137849000D01*
X132167750Y-137849000D01*
X132143858Y-137847826D01*
X132120197Y-137844316D01*
X132096993Y-137838504D01*
X132074471Y-137830446D01*
X132052847Y-137820218D01*
X132032330Y-137807921D01*
X132013117Y-137793671D01*
X131995393Y-137777607D01*
X131979329Y-137759883D01*
X131965079Y-137740670D01*
X131952782Y-137720153D01*
X131942554Y-137698529D01*
X131934496Y-137676007D01*
X131928684Y-137652803D01*
X131925174Y-137629142D01*
X131924000Y-137605250D01*
X131924000Y-137117750D01*
X131925174Y-137093858D01*
X131928684Y-137070197D01*
X131934496Y-137046993D01*
X131942554Y-137024471D01*
X131952782Y-137002847D01*
X131965079Y-136982330D01*
X131979329Y-136963117D01*
X131995393Y-136945393D01*
X132013117Y-136929329D01*
X132032330Y-136915079D01*
X132052847Y-136902782D01*
X132074471Y-136892554D01*
X132096993Y-136884496D01*
X132120197Y-136878684D01*
X132143858Y-136875174D01*
X132167750Y-136874000D01*
X133080250Y-136874000D01*
X133104142Y-136875174D01*
X133104142Y-136875174D01*
G37*
D15*
X132624000Y-137361500D03*
D14*
G36*
X133104142Y-138750174D02*
X133127803Y-138753684D01*
X133151007Y-138759496D01*
X133173529Y-138767554D01*
X133195153Y-138777782D01*
X133215670Y-138790079D01*
X133234883Y-138804329D01*
X133252607Y-138820393D01*
X133268671Y-138838117D01*
X133282921Y-138857330D01*
X133295218Y-138877847D01*
X133305446Y-138899471D01*
X133313504Y-138921993D01*
X133319316Y-138945197D01*
X133322826Y-138968858D01*
X133324000Y-138992750D01*
X133324000Y-139480250D01*
X133322826Y-139504142D01*
X133319316Y-139527803D01*
X133313504Y-139551007D01*
X133305446Y-139573529D01*
X133295218Y-139595153D01*
X133282921Y-139615670D01*
X133268671Y-139634883D01*
X133252607Y-139652607D01*
X133234883Y-139668671D01*
X133215670Y-139682921D01*
X133195153Y-139695218D01*
X133173529Y-139705446D01*
X133151007Y-139713504D01*
X133127803Y-139719316D01*
X133104142Y-139722826D01*
X133080250Y-139724000D01*
X132167750Y-139724000D01*
X132143858Y-139722826D01*
X132120197Y-139719316D01*
X132096993Y-139713504D01*
X132074471Y-139705446D01*
X132052847Y-139695218D01*
X132032330Y-139682921D01*
X132013117Y-139668671D01*
X131995393Y-139652607D01*
X131979329Y-139634883D01*
X131965079Y-139615670D01*
X131952782Y-139595153D01*
X131942554Y-139573529D01*
X131934496Y-139551007D01*
X131928684Y-139527803D01*
X131925174Y-139504142D01*
X131924000Y-139480250D01*
X131924000Y-138992750D01*
X131925174Y-138968858D01*
X131928684Y-138945197D01*
X131934496Y-138921993D01*
X131942554Y-138899471D01*
X131952782Y-138877847D01*
X131965079Y-138857330D01*
X131979329Y-138838117D01*
X131995393Y-138820393D01*
X132013117Y-138804329D01*
X132032330Y-138790079D01*
X132052847Y-138777782D01*
X132074471Y-138767554D01*
X132096993Y-138759496D01*
X132120197Y-138753684D01*
X132143858Y-138750174D01*
X132167750Y-138749000D01*
X133080250Y-138749000D01*
X133104142Y-138750174D01*
X133104142Y-138750174D01*
G37*
D15*
X132624000Y-139236500D03*
G04 #@! TD*
D14*
G04 #@! TO.C,R13*
G36*
X136279142Y-136875174D02*
X136302803Y-136878684D01*
X136326007Y-136884496D01*
X136348529Y-136892554D01*
X136370153Y-136902782D01*
X136390670Y-136915079D01*
X136409883Y-136929329D01*
X136427607Y-136945393D01*
X136443671Y-136963117D01*
X136457921Y-136982330D01*
X136470218Y-137002847D01*
X136480446Y-137024471D01*
X136488504Y-137046993D01*
X136494316Y-137070197D01*
X136497826Y-137093858D01*
X136499000Y-137117750D01*
X136499000Y-137605250D01*
X136497826Y-137629142D01*
X136494316Y-137652803D01*
X136488504Y-137676007D01*
X136480446Y-137698529D01*
X136470218Y-137720153D01*
X136457921Y-137740670D01*
X136443671Y-137759883D01*
X136427607Y-137777607D01*
X136409883Y-137793671D01*
X136390670Y-137807921D01*
X136370153Y-137820218D01*
X136348529Y-137830446D01*
X136326007Y-137838504D01*
X136302803Y-137844316D01*
X136279142Y-137847826D01*
X136255250Y-137849000D01*
X135342750Y-137849000D01*
X135318858Y-137847826D01*
X135295197Y-137844316D01*
X135271993Y-137838504D01*
X135249471Y-137830446D01*
X135227847Y-137820218D01*
X135207330Y-137807921D01*
X135188117Y-137793671D01*
X135170393Y-137777607D01*
X135154329Y-137759883D01*
X135140079Y-137740670D01*
X135127782Y-137720153D01*
X135117554Y-137698529D01*
X135109496Y-137676007D01*
X135103684Y-137652803D01*
X135100174Y-137629142D01*
X135099000Y-137605250D01*
X135099000Y-137117750D01*
X135100174Y-137093858D01*
X135103684Y-137070197D01*
X135109496Y-137046993D01*
X135117554Y-137024471D01*
X135127782Y-137002847D01*
X135140079Y-136982330D01*
X135154329Y-136963117D01*
X135170393Y-136945393D01*
X135188117Y-136929329D01*
X135207330Y-136915079D01*
X135227847Y-136902782D01*
X135249471Y-136892554D01*
X135271993Y-136884496D01*
X135295197Y-136878684D01*
X135318858Y-136875174D01*
X135342750Y-136874000D01*
X136255250Y-136874000D01*
X136279142Y-136875174D01*
X136279142Y-136875174D01*
G37*
D15*
X135799000Y-137361500D03*
D14*
G36*
X136279142Y-138750174D02*
X136302803Y-138753684D01*
X136326007Y-138759496D01*
X136348529Y-138767554D01*
X136370153Y-138777782D01*
X136390670Y-138790079D01*
X136409883Y-138804329D01*
X136427607Y-138820393D01*
X136443671Y-138838117D01*
X136457921Y-138857330D01*
X136470218Y-138877847D01*
X136480446Y-138899471D01*
X136488504Y-138921993D01*
X136494316Y-138945197D01*
X136497826Y-138968858D01*
X136499000Y-138992750D01*
X136499000Y-139480250D01*
X136497826Y-139504142D01*
X136494316Y-139527803D01*
X136488504Y-139551007D01*
X136480446Y-139573529D01*
X136470218Y-139595153D01*
X136457921Y-139615670D01*
X136443671Y-139634883D01*
X136427607Y-139652607D01*
X136409883Y-139668671D01*
X136390670Y-139682921D01*
X136370153Y-139695218D01*
X136348529Y-139705446D01*
X136326007Y-139713504D01*
X136302803Y-139719316D01*
X136279142Y-139722826D01*
X136255250Y-139724000D01*
X135342750Y-139724000D01*
X135318858Y-139722826D01*
X135295197Y-139719316D01*
X135271993Y-139713504D01*
X135249471Y-139705446D01*
X135227847Y-139695218D01*
X135207330Y-139682921D01*
X135188117Y-139668671D01*
X135170393Y-139652607D01*
X135154329Y-139634883D01*
X135140079Y-139615670D01*
X135127782Y-139595153D01*
X135117554Y-139573529D01*
X135109496Y-139551007D01*
X135103684Y-139527803D01*
X135100174Y-139504142D01*
X135099000Y-139480250D01*
X135099000Y-138992750D01*
X135100174Y-138968858D01*
X135103684Y-138945197D01*
X135109496Y-138921993D01*
X135117554Y-138899471D01*
X135127782Y-138877847D01*
X135140079Y-138857330D01*
X135154329Y-138838117D01*
X135170393Y-138820393D01*
X135188117Y-138804329D01*
X135207330Y-138790079D01*
X135227847Y-138777782D01*
X135249471Y-138767554D01*
X135271993Y-138759496D01*
X135295197Y-138753684D01*
X135318858Y-138750174D01*
X135342750Y-138749000D01*
X136255250Y-138749000D01*
X136279142Y-138750174D01*
X136279142Y-138750174D01*
G37*
D15*
X135799000Y-139236500D03*
G04 #@! TD*
D14*
G04 #@! TO.C,R11*
G36*
X125543142Y-134381174D02*
X125566803Y-134384684D01*
X125590007Y-134390496D01*
X125612529Y-134398554D01*
X125634153Y-134408782D01*
X125654670Y-134421079D01*
X125673883Y-134435329D01*
X125691607Y-134451393D01*
X125707671Y-134469117D01*
X125721921Y-134488330D01*
X125734218Y-134508847D01*
X125744446Y-134530471D01*
X125752504Y-134552993D01*
X125758316Y-134576197D01*
X125761826Y-134599858D01*
X125763000Y-134623750D01*
X125763000Y-135111250D01*
X125761826Y-135135142D01*
X125758316Y-135158803D01*
X125752504Y-135182007D01*
X125744446Y-135204529D01*
X125734218Y-135226153D01*
X125721921Y-135246670D01*
X125707671Y-135265883D01*
X125691607Y-135283607D01*
X125673883Y-135299671D01*
X125654670Y-135313921D01*
X125634153Y-135326218D01*
X125612529Y-135336446D01*
X125590007Y-135344504D01*
X125566803Y-135350316D01*
X125543142Y-135353826D01*
X125519250Y-135355000D01*
X124606750Y-135355000D01*
X124582858Y-135353826D01*
X124559197Y-135350316D01*
X124535993Y-135344504D01*
X124513471Y-135336446D01*
X124491847Y-135326218D01*
X124471330Y-135313921D01*
X124452117Y-135299671D01*
X124434393Y-135283607D01*
X124418329Y-135265883D01*
X124404079Y-135246670D01*
X124391782Y-135226153D01*
X124381554Y-135204529D01*
X124373496Y-135182007D01*
X124367684Y-135158803D01*
X124364174Y-135135142D01*
X124363000Y-135111250D01*
X124363000Y-134623750D01*
X124364174Y-134599858D01*
X124367684Y-134576197D01*
X124373496Y-134552993D01*
X124381554Y-134530471D01*
X124391782Y-134508847D01*
X124404079Y-134488330D01*
X124418329Y-134469117D01*
X124434393Y-134451393D01*
X124452117Y-134435329D01*
X124471330Y-134421079D01*
X124491847Y-134408782D01*
X124513471Y-134398554D01*
X124535993Y-134390496D01*
X124559197Y-134384684D01*
X124582858Y-134381174D01*
X124606750Y-134380000D01*
X125519250Y-134380000D01*
X125543142Y-134381174D01*
X125543142Y-134381174D01*
G37*
D15*
X125063000Y-134867500D03*
D14*
G36*
X125543142Y-132506174D02*
X125566803Y-132509684D01*
X125590007Y-132515496D01*
X125612529Y-132523554D01*
X125634153Y-132533782D01*
X125654670Y-132546079D01*
X125673883Y-132560329D01*
X125691607Y-132576393D01*
X125707671Y-132594117D01*
X125721921Y-132613330D01*
X125734218Y-132633847D01*
X125744446Y-132655471D01*
X125752504Y-132677993D01*
X125758316Y-132701197D01*
X125761826Y-132724858D01*
X125763000Y-132748750D01*
X125763000Y-133236250D01*
X125761826Y-133260142D01*
X125758316Y-133283803D01*
X125752504Y-133307007D01*
X125744446Y-133329529D01*
X125734218Y-133351153D01*
X125721921Y-133371670D01*
X125707671Y-133390883D01*
X125691607Y-133408607D01*
X125673883Y-133424671D01*
X125654670Y-133438921D01*
X125634153Y-133451218D01*
X125612529Y-133461446D01*
X125590007Y-133469504D01*
X125566803Y-133475316D01*
X125543142Y-133478826D01*
X125519250Y-133480000D01*
X124606750Y-133480000D01*
X124582858Y-133478826D01*
X124559197Y-133475316D01*
X124535993Y-133469504D01*
X124513471Y-133461446D01*
X124491847Y-133451218D01*
X124471330Y-133438921D01*
X124452117Y-133424671D01*
X124434393Y-133408607D01*
X124418329Y-133390883D01*
X124404079Y-133371670D01*
X124391782Y-133351153D01*
X124381554Y-133329529D01*
X124373496Y-133307007D01*
X124367684Y-133283803D01*
X124364174Y-133260142D01*
X124363000Y-133236250D01*
X124363000Y-132748750D01*
X124364174Y-132724858D01*
X124367684Y-132701197D01*
X124373496Y-132677993D01*
X124381554Y-132655471D01*
X124391782Y-132633847D01*
X124404079Y-132613330D01*
X124418329Y-132594117D01*
X124434393Y-132576393D01*
X124452117Y-132560329D01*
X124471330Y-132546079D01*
X124491847Y-132533782D01*
X124513471Y-132523554D01*
X124535993Y-132515496D01*
X124559197Y-132509684D01*
X124582858Y-132506174D01*
X124606750Y-132505000D01*
X125519250Y-132505000D01*
X125543142Y-132506174D01*
X125543142Y-132506174D01*
G37*
D15*
X125063000Y-132992500D03*
G04 #@! TD*
D14*
G04 #@! TO.C,R10*
G36*
X113764142Y-109925174D02*
X113787803Y-109928684D01*
X113811007Y-109934496D01*
X113833529Y-109942554D01*
X113855153Y-109952782D01*
X113875670Y-109965079D01*
X113894883Y-109979329D01*
X113912607Y-109995393D01*
X113928671Y-110013117D01*
X113942921Y-110032330D01*
X113955218Y-110052847D01*
X113965446Y-110074471D01*
X113973504Y-110096993D01*
X113979316Y-110120197D01*
X113982826Y-110143858D01*
X113984000Y-110167750D01*
X113984000Y-110655250D01*
X113982826Y-110679142D01*
X113979316Y-110702803D01*
X113973504Y-110726007D01*
X113965446Y-110748529D01*
X113955218Y-110770153D01*
X113942921Y-110790670D01*
X113928671Y-110809883D01*
X113912607Y-110827607D01*
X113894883Y-110843671D01*
X113875670Y-110857921D01*
X113855153Y-110870218D01*
X113833529Y-110880446D01*
X113811007Y-110888504D01*
X113787803Y-110894316D01*
X113764142Y-110897826D01*
X113740250Y-110899000D01*
X112827750Y-110899000D01*
X112803858Y-110897826D01*
X112780197Y-110894316D01*
X112756993Y-110888504D01*
X112734471Y-110880446D01*
X112712847Y-110870218D01*
X112692330Y-110857921D01*
X112673117Y-110843671D01*
X112655393Y-110827607D01*
X112639329Y-110809883D01*
X112625079Y-110790670D01*
X112612782Y-110770153D01*
X112602554Y-110748529D01*
X112594496Y-110726007D01*
X112588684Y-110702803D01*
X112585174Y-110679142D01*
X112584000Y-110655250D01*
X112584000Y-110167750D01*
X112585174Y-110143858D01*
X112588684Y-110120197D01*
X112594496Y-110096993D01*
X112602554Y-110074471D01*
X112612782Y-110052847D01*
X112625079Y-110032330D01*
X112639329Y-110013117D01*
X112655393Y-109995393D01*
X112673117Y-109979329D01*
X112692330Y-109965079D01*
X112712847Y-109952782D01*
X112734471Y-109942554D01*
X112756993Y-109934496D01*
X112780197Y-109928684D01*
X112803858Y-109925174D01*
X112827750Y-109924000D01*
X113740250Y-109924000D01*
X113764142Y-109925174D01*
X113764142Y-109925174D01*
G37*
D15*
X113284000Y-110411500D03*
D14*
G36*
X113764142Y-108050174D02*
X113787803Y-108053684D01*
X113811007Y-108059496D01*
X113833529Y-108067554D01*
X113855153Y-108077782D01*
X113875670Y-108090079D01*
X113894883Y-108104329D01*
X113912607Y-108120393D01*
X113928671Y-108138117D01*
X113942921Y-108157330D01*
X113955218Y-108177847D01*
X113965446Y-108199471D01*
X113973504Y-108221993D01*
X113979316Y-108245197D01*
X113982826Y-108268858D01*
X113984000Y-108292750D01*
X113984000Y-108780250D01*
X113982826Y-108804142D01*
X113979316Y-108827803D01*
X113973504Y-108851007D01*
X113965446Y-108873529D01*
X113955218Y-108895153D01*
X113942921Y-108915670D01*
X113928671Y-108934883D01*
X113912607Y-108952607D01*
X113894883Y-108968671D01*
X113875670Y-108982921D01*
X113855153Y-108995218D01*
X113833529Y-109005446D01*
X113811007Y-109013504D01*
X113787803Y-109019316D01*
X113764142Y-109022826D01*
X113740250Y-109024000D01*
X112827750Y-109024000D01*
X112803858Y-109022826D01*
X112780197Y-109019316D01*
X112756993Y-109013504D01*
X112734471Y-109005446D01*
X112712847Y-108995218D01*
X112692330Y-108982921D01*
X112673117Y-108968671D01*
X112655393Y-108952607D01*
X112639329Y-108934883D01*
X112625079Y-108915670D01*
X112612782Y-108895153D01*
X112602554Y-108873529D01*
X112594496Y-108851007D01*
X112588684Y-108827803D01*
X112585174Y-108804142D01*
X112584000Y-108780250D01*
X112584000Y-108292750D01*
X112585174Y-108268858D01*
X112588684Y-108245197D01*
X112594496Y-108221993D01*
X112602554Y-108199471D01*
X112612782Y-108177847D01*
X112625079Y-108157330D01*
X112639329Y-108138117D01*
X112655393Y-108120393D01*
X112673117Y-108104329D01*
X112692330Y-108090079D01*
X112712847Y-108077782D01*
X112734471Y-108067554D01*
X112756993Y-108059496D01*
X112780197Y-108053684D01*
X112803858Y-108050174D01*
X112827750Y-108049000D01*
X113740250Y-108049000D01*
X113764142Y-108050174D01*
X113764142Y-108050174D01*
G37*
D15*
X113284000Y-108536500D03*
G04 #@! TD*
D14*
G04 #@! TO.C,R9*
G36*
X116304142Y-108050174D02*
X116327803Y-108053684D01*
X116351007Y-108059496D01*
X116373529Y-108067554D01*
X116395153Y-108077782D01*
X116415670Y-108090079D01*
X116434883Y-108104329D01*
X116452607Y-108120393D01*
X116468671Y-108138117D01*
X116482921Y-108157330D01*
X116495218Y-108177847D01*
X116505446Y-108199471D01*
X116513504Y-108221993D01*
X116519316Y-108245197D01*
X116522826Y-108268858D01*
X116524000Y-108292750D01*
X116524000Y-108780250D01*
X116522826Y-108804142D01*
X116519316Y-108827803D01*
X116513504Y-108851007D01*
X116505446Y-108873529D01*
X116495218Y-108895153D01*
X116482921Y-108915670D01*
X116468671Y-108934883D01*
X116452607Y-108952607D01*
X116434883Y-108968671D01*
X116415670Y-108982921D01*
X116395153Y-108995218D01*
X116373529Y-109005446D01*
X116351007Y-109013504D01*
X116327803Y-109019316D01*
X116304142Y-109022826D01*
X116280250Y-109024000D01*
X115367750Y-109024000D01*
X115343858Y-109022826D01*
X115320197Y-109019316D01*
X115296993Y-109013504D01*
X115274471Y-109005446D01*
X115252847Y-108995218D01*
X115232330Y-108982921D01*
X115213117Y-108968671D01*
X115195393Y-108952607D01*
X115179329Y-108934883D01*
X115165079Y-108915670D01*
X115152782Y-108895153D01*
X115142554Y-108873529D01*
X115134496Y-108851007D01*
X115128684Y-108827803D01*
X115125174Y-108804142D01*
X115124000Y-108780250D01*
X115124000Y-108292750D01*
X115125174Y-108268858D01*
X115128684Y-108245197D01*
X115134496Y-108221993D01*
X115142554Y-108199471D01*
X115152782Y-108177847D01*
X115165079Y-108157330D01*
X115179329Y-108138117D01*
X115195393Y-108120393D01*
X115213117Y-108104329D01*
X115232330Y-108090079D01*
X115252847Y-108077782D01*
X115274471Y-108067554D01*
X115296993Y-108059496D01*
X115320197Y-108053684D01*
X115343858Y-108050174D01*
X115367750Y-108049000D01*
X116280250Y-108049000D01*
X116304142Y-108050174D01*
X116304142Y-108050174D01*
G37*
D15*
X115824000Y-108536500D03*
D14*
G36*
X116304142Y-109925174D02*
X116327803Y-109928684D01*
X116351007Y-109934496D01*
X116373529Y-109942554D01*
X116395153Y-109952782D01*
X116415670Y-109965079D01*
X116434883Y-109979329D01*
X116452607Y-109995393D01*
X116468671Y-110013117D01*
X116482921Y-110032330D01*
X116495218Y-110052847D01*
X116505446Y-110074471D01*
X116513504Y-110096993D01*
X116519316Y-110120197D01*
X116522826Y-110143858D01*
X116524000Y-110167750D01*
X116524000Y-110655250D01*
X116522826Y-110679142D01*
X116519316Y-110702803D01*
X116513504Y-110726007D01*
X116505446Y-110748529D01*
X116495218Y-110770153D01*
X116482921Y-110790670D01*
X116468671Y-110809883D01*
X116452607Y-110827607D01*
X116434883Y-110843671D01*
X116415670Y-110857921D01*
X116395153Y-110870218D01*
X116373529Y-110880446D01*
X116351007Y-110888504D01*
X116327803Y-110894316D01*
X116304142Y-110897826D01*
X116280250Y-110899000D01*
X115367750Y-110899000D01*
X115343858Y-110897826D01*
X115320197Y-110894316D01*
X115296993Y-110888504D01*
X115274471Y-110880446D01*
X115252847Y-110870218D01*
X115232330Y-110857921D01*
X115213117Y-110843671D01*
X115195393Y-110827607D01*
X115179329Y-110809883D01*
X115165079Y-110790670D01*
X115152782Y-110770153D01*
X115142554Y-110748529D01*
X115134496Y-110726007D01*
X115128684Y-110702803D01*
X115125174Y-110679142D01*
X115124000Y-110655250D01*
X115124000Y-110167750D01*
X115125174Y-110143858D01*
X115128684Y-110120197D01*
X115134496Y-110096993D01*
X115142554Y-110074471D01*
X115152782Y-110052847D01*
X115165079Y-110032330D01*
X115179329Y-110013117D01*
X115195393Y-109995393D01*
X115213117Y-109979329D01*
X115232330Y-109965079D01*
X115252847Y-109952782D01*
X115274471Y-109942554D01*
X115296993Y-109934496D01*
X115320197Y-109928684D01*
X115343858Y-109925174D01*
X115367750Y-109924000D01*
X116280250Y-109924000D01*
X116304142Y-109925174D01*
X116304142Y-109925174D01*
G37*
D15*
X115824000Y-110411500D03*
G04 #@! TD*
D14*
G04 #@! TO.C,R8*
G36*
X118844142Y-109925174D02*
X118867803Y-109928684D01*
X118891007Y-109934496D01*
X118913529Y-109942554D01*
X118935153Y-109952782D01*
X118955670Y-109965079D01*
X118974883Y-109979329D01*
X118992607Y-109995393D01*
X119008671Y-110013117D01*
X119022921Y-110032330D01*
X119035218Y-110052847D01*
X119045446Y-110074471D01*
X119053504Y-110096993D01*
X119059316Y-110120197D01*
X119062826Y-110143858D01*
X119064000Y-110167750D01*
X119064000Y-110655250D01*
X119062826Y-110679142D01*
X119059316Y-110702803D01*
X119053504Y-110726007D01*
X119045446Y-110748529D01*
X119035218Y-110770153D01*
X119022921Y-110790670D01*
X119008671Y-110809883D01*
X118992607Y-110827607D01*
X118974883Y-110843671D01*
X118955670Y-110857921D01*
X118935153Y-110870218D01*
X118913529Y-110880446D01*
X118891007Y-110888504D01*
X118867803Y-110894316D01*
X118844142Y-110897826D01*
X118820250Y-110899000D01*
X117907750Y-110899000D01*
X117883858Y-110897826D01*
X117860197Y-110894316D01*
X117836993Y-110888504D01*
X117814471Y-110880446D01*
X117792847Y-110870218D01*
X117772330Y-110857921D01*
X117753117Y-110843671D01*
X117735393Y-110827607D01*
X117719329Y-110809883D01*
X117705079Y-110790670D01*
X117692782Y-110770153D01*
X117682554Y-110748529D01*
X117674496Y-110726007D01*
X117668684Y-110702803D01*
X117665174Y-110679142D01*
X117664000Y-110655250D01*
X117664000Y-110167750D01*
X117665174Y-110143858D01*
X117668684Y-110120197D01*
X117674496Y-110096993D01*
X117682554Y-110074471D01*
X117692782Y-110052847D01*
X117705079Y-110032330D01*
X117719329Y-110013117D01*
X117735393Y-109995393D01*
X117753117Y-109979329D01*
X117772330Y-109965079D01*
X117792847Y-109952782D01*
X117814471Y-109942554D01*
X117836993Y-109934496D01*
X117860197Y-109928684D01*
X117883858Y-109925174D01*
X117907750Y-109924000D01*
X118820250Y-109924000D01*
X118844142Y-109925174D01*
X118844142Y-109925174D01*
G37*
D15*
X118364000Y-110411500D03*
D14*
G36*
X118844142Y-108050174D02*
X118867803Y-108053684D01*
X118891007Y-108059496D01*
X118913529Y-108067554D01*
X118935153Y-108077782D01*
X118955670Y-108090079D01*
X118974883Y-108104329D01*
X118992607Y-108120393D01*
X119008671Y-108138117D01*
X119022921Y-108157330D01*
X119035218Y-108177847D01*
X119045446Y-108199471D01*
X119053504Y-108221993D01*
X119059316Y-108245197D01*
X119062826Y-108268858D01*
X119064000Y-108292750D01*
X119064000Y-108780250D01*
X119062826Y-108804142D01*
X119059316Y-108827803D01*
X119053504Y-108851007D01*
X119045446Y-108873529D01*
X119035218Y-108895153D01*
X119022921Y-108915670D01*
X119008671Y-108934883D01*
X118992607Y-108952607D01*
X118974883Y-108968671D01*
X118955670Y-108982921D01*
X118935153Y-108995218D01*
X118913529Y-109005446D01*
X118891007Y-109013504D01*
X118867803Y-109019316D01*
X118844142Y-109022826D01*
X118820250Y-109024000D01*
X117907750Y-109024000D01*
X117883858Y-109022826D01*
X117860197Y-109019316D01*
X117836993Y-109013504D01*
X117814471Y-109005446D01*
X117792847Y-108995218D01*
X117772330Y-108982921D01*
X117753117Y-108968671D01*
X117735393Y-108952607D01*
X117719329Y-108934883D01*
X117705079Y-108915670D01*
X117692782Y-108895153D01*
X117682554Y-108873529D01*
X117674496Y-108851007D01*
X117668684Y-108827803D01*
X117665174Y-108804142D01*
X117664000Y-108780250D01*
X117664000Y-108292750D01*
X117665174Y-108268858D01*
X117668684Y-108245197D01*
X117674496Y-108221993D01*
X117682554Y-108199471D01*
X117692782Y-108177847D01*
X117705079Y-108157330D01*
X117719329Y-108138117D01*
X117735393Y-108120393D01*
X117753117Y-108104329D01*
X117772330Y-108090079D01*
X117792847Y-108077782D01*
X117814471Y-108067554D01*
X117836993Y-108059496D01*
X117860197Y-108053684D01*
X117883858Y-108050174D01*
X117907750Y-108049000D01*
X118820250Y-108049000D01*
X118844142Y-108050174D01*
X118844142Y-108050174D01*
G37*
D15*
X118364000Y-108536500D03*
G04 #@! TD*
D14*
G04 #@! TO.C,R7*
G36*
X121384142Y-108050174D02*
X121407803Y-108053684D01*
X121431007Y-108059496D01*
X121453529Y-108067554D01*
X121475153Y-108077782D01*
X121495670Y-108090079D01*
X121514883Y-108104329D01*
X121532607Y-108120393D01*
X121548671Y-108138117D01*
X121562921Y-108157330D01*
X121575218Y-108177847D01*
X121585446Y-108199471D01*
X121593504Y-108221993D01*
X121599316Y-108245197D01*
X121602826Y-108268858D01*
X121604000Y-108292750D01*
X121604000Y-108780250D01*
X121602826Y-108804142D01*
X121599316Y-108827803D01*
X121593504Y-108851007D01*
X121585446Y-108873529D01*
X121575218Y-108895153D01*
X121562921Y-108915670D01*
X121548671Y-108934883D01*
X121532607Y-108952607D01*
X121514883Y-108968671D01*
X121495670Y-108982921D01*
X121475153Y-108995218D01*
X121453529Y-109005446D01*
X121431007Y-109013504D01*
X121407803Y-109019316D01*
X121384142Y-109022826D01*
X121360250Y-109024000D01*
X120447750Y-109024000D01*
X120423858Y-109022826D01*
X120400197Y-109019316D01*
X120376993Y-109013504D01*
X120354471Y-109005446D01*
X120332847Y-108995218D01*
X120312330Y-108982921D01*
X120293117Y-108968671D01*
X120275393Y-108952607D01*
X120259329Y-108934883D01*
X120245079Y-108915670D01*
X120232782Y-108895153D01*
X120222554Y-108873529D01*
X120214496Y-108851007D01*
X120208684Y-108827803D01*
X120205174Y-108804142D01*
X120204000Y-108780250D01*
X120204000Y-108292750D01*
X120205174Y-108268858D01*
X120208684Y-108245197D01*
X120214496Y-108221993D01*
X120222554Y-108199471D01*
X120232782Y-108177847D01*
X120245079Y-108157330D01*
X120259329Y-108138117D01*
X120275393Y-108120393D01*
X120293117Y-108104329D01*
X120312330Y-108090079D01*
X120332847Y-108077782D01*
X120354471Y-108067554D01*
X120376993Y-108059496D01*
X120400197Y-108053684D01*
X120423858Y-108050174D01*
X120447750Y-108049000D01*
X121360250Y-108049000D01*
X121384142Y-108050174D01*
X121384142Y-108050174D01*
G37*
D15*
X120904000Y-108536500D03*
D14*
G36*
X121384142Y-109925174D02*
X121407803Y-109928684D01*
X121431007Y-109934496D01*
X121453529Y-109942554D01*
X121475153Y-109952782D01*
X121495670Y-109965079D01*
X121514883Y-109979329D01*
X121532607Y-109995393D01*
X121548671Y-110013117D01*
X121562921Y-110032330D01*
X121575218Y-110052847D01*
X121585446Y-110074471D01*
X121593504Y-110096993D01*
X121599316Y-110120197D01*
X121602826Y-110143858D01*
X121604000Y-110167750D01*
X121604000Y-110655250D01*
X121602826Y-110679142D01*
X121599316Y-110702803D01*
X121593504Y-110726007D01*
X121585446Y-110748529D01*
X121575218Y-110770153D01*
X121562921Y-110790670D01*
X121548671Y-110809883D01*
X121532607Y-110827607D01*
X121514883Y-110843671D01*
X121495670Y-110857921D01*
X121475153Y-110870218D01*
X121453529Y-110880446D01*
X121431007Y-110888504D01*
X121407803Y-110894316D01*
X121384142Y-110897826D01*
X121360250Y-110899000D01*
X120447750Y-110899000D01*
X120423858Y-110897826D01*
X120400197Y-110894316D01*
X120376993Y-110888504D01*
X120354471Y-110880446D01*
X120332847Y-110870218D01*
X120312330Y-110857921D01*
X120293117Y-110843671D01*
X120275393Y-110827607D01*
X120259329Y-110809883D01*
X120245079Y-110790670D01*
X120232782Y-110770153D01*
X120222554Y-110748529D01*
X120214496Y-110726007D01*
X120208684Y-110702803D01*
X120205174Y-110679142D01*
X120204000Y-110655250D01*
X120204000Y-110167750D01*
X120205174Y-110143858D01*
X120208684Y-110120197D01*
X120214496Y-110096993D01*
X120222554Y-110074471D01*
X120232782Y-110052847D01*
X120245079Y-110032330D01*
X120259329Y-110013117D01*
X120275393Y-109995393D01*
X120293117Y-109979329D01*
X120312330Y-109965079D01*
X120332847Y-109952782D01*
X120354471Y-109942554D01*
X120376993Y-109934496D01*
X120400197Y-109928684D01*
X120423858Y-109925174D01*
X120447750Y-109924000D01*
X121360250Y-109924000D01*
X121384142Y-109925174D01*
X121384142Y-109925174D01*
G37*
D15*
X120904000Y-110411500D03*
G04 #@! TD*
D14*
G04 #@! TO.C,R6*
G36*
X134719142Y-79475174D02*
X134742803Y-79478684D01*
X134766007Y-79484496D01*
X134788529Y-79492554D01*
X134810153Y-79502782D01*
X134830670Y-79515079D01*
X134849883Y-79529329D01*
X134867607Y-79545393D01*
X134883671Y-79563117D01*
X134897921Y-79582330D01*
X134910218Y-79602847D01*
X134920446Y-79624471D01*
X134928504Y-79646993D01*
X134934316Y-79670197D01*
X134937826Y-79693858D01*
X134939000Y-79717750D01*
X134939000Y-80205250D01*
X134937826Y-80229142D01*
X134934316Y-80252803D01*
X134928504Y-80276007D01*
X134920446Y-80298529D01*
X134910218Y-80320153D01*
X134897921Y-80340670D01*
X134883671Y-80359883D01*
X134867607Y-80377607D01*
X134849883Y-80393671D01*
X134830670Y-80407921D01*
X134810153Y-80420218D01*
X134788529Y-80430446D01*
X134766007Y-80438504D01*
X134742803Y-80444316D01*
X134719142Y-80447826D01*
X134695250Y-80449000D01*
X133782750Y-80449000D01*
X133758858Y-80447826D01*
X133735197Y-80444316D01*
X133711993Y-80438504D01*
X133689471Y-80430446D01*
X133667847Y-80420218D01*
X133647330Y-80407921D01*
X133628117Y-80393671D01*
X133610393Y-80377607D01*
X133594329Y-80359883D01*
X133580079Y-80340670D01*
X133567782Y-80320153D01*
X133557554Y-80298529D01*
X133549496Y-80276007D01*
X133543684Y-80252803D01*
X133540174Y-80229142D01*
X133539000Y-80205250D01*
X133539000Y-79717750D01*
X133540174Y-79693858D01*
X133543684Y-79670197D01*
X133549496Y-79646993D01*
X133557554Y-79624471D01*
X133567782Y-79602847D01*
X133580079Y-79582330D01*
X133594329Y-79563117D01*
X133610393Y-79545393D01*
X133628117Y-79529329D01*
X133647330Y-79515079D01*
X133667847Y-79502782D01*
X133689471Y-79492554D01*
X133711993Y-79484496D01*
X133735197Y-79478684D01*
X133758858Y-79475174D01*
X133782750Y-79474000D01*
X134695250Y-79474000D01*
X134719142Y-79475174D01*
X134719142Y-79475174D01*
G37*
D15*
X134239000Y-79961500D03*
D14*
G36*
X134719142Y-81350174D02*
X134742803Y-81353684D01*
X134766007Y-81359496D01*
X134788529Y-81367554D01*
X134810153Y-81377782D01*
X134830670Y-81390079D01*
X134849883Y-81404329D01*
X134867607Y-81420393D01*
X134883671Y-81438117D01*
X134897921Y-81457330D01*
X134910218Y-81477847D01*
X134920446Y-81499471D01*
X134928504Y-81521993D01*
X134934316Y-81545197D01*
X134937826Y-81568858D01*
X134939000Y-81592750D01*
X134939000Y-82080250D01*
X134937826Y-82104142D01*
X134934316Y-82127803D01*
X134928504Y-82151007D01*
X134920446Y-82173529D01*
X134910218Y-82195153D01*
X134897921Y-82215670D01*
X134883671Y-82234883D01*
X134867607Y-82252607D01*
X134849883Y-82268671D01*
X134830670Y-82282921D01*
X134810153Y-82295218D01*
X134788529Y-82305446D01*
X134766007Y-82313504D01*
X134742803Y-82319316D01*
X134719142Y-82322826D01*
X134695250Y-82324000D01*
X133782750Y-82324000D01*
X133758858Y-82322826D01*
X133735197Y-82319316D01*
X133711993Y-82313504D01*
X133689471Y-82305446D01*
X133667847Y-82295218D01*
X133647330Y-82282921D01*
X133628117Y-82268671D01*
X133610393Y-82252607D01*
X133594329Y-82234883D01*
X133580079Y-82215670D01*
X133567782Y-82195153D01*
X133557554Y-82173529D01*
X133549496Y-82151007D01*
X133543684Y-82127803D01*
X133540174Y-82104142D01*
X133539000Y-82080250D01*
X133539000Y-81592750D01*
X133540174Y-81568858D01*
X133543684Y-81545197D01*
X133549496Y-81521993D01*
X133557554Y-81499471D01*
X133567782Y-81477847D01*
X133580079Y-81457330D01*
X133594329Y-81438117D01*
X133610393Y-81420393D01*
X133628117Y-81404329D01*
X133647330Y-81390079D01*
X133667847Y-81377782D01*
X133689471Y-81367554D01*
X133711993Y-81359496D01*
X133735197Y-81353684D01*
X133758858Y-81350174D01*
X133782750Y-81349000D01*
X134695250Y-81349000D01*
X134719142Y-81350174D01*
X134719142Y-81350174D01*
G37*
D15*
X134239000Y-81836500D03*
G04 #@! TD*
D14*
G04 #@! TO.C,R5*
G36*
X134719142Y-108655174D02*
X134742803Y-108658684D01*
X134766007Y-108664496D01*
X134788529Y-108672554D01*
X134810153Y-108682782D01*
X134830670Y-108695079D01*
X134849883Y-108709329D01*
X134867607Y-108725393D01*
X134883671Y-108743117D01*
X134897921Y-108762330D01*
X134910218Y-108782847D01*
X134920446Y-108804471D01*
X134928504Y-108826993D01*
X134934316Y-108850197D01*
X134937826Y-108873858D01*
X134939000Y-108897750D01*
X134939000Y-109385250D01*
X134937826Y-109409142D01*
X134934316Y-109432803D01*
X134928504Y-109456007D01*
X134920446Y-109478529D01*
X134910218Y-109500153D01*
X134897921Y-109520670D01*
X134883671Y-109539883D01*
X134867607Y-109557607D01*
X134849883Y-109573671D01*
X134830670Y-109587921D01*
X134810153Y-109600218D01*
X134788529Y-109610446D01*
X134766007Y-109618504D01*
X134742803Y-109624316D01*
X134719142Y-109627826D01*
X134695250Y-109629000D01*
X133782750Y-109629000D01*
X133758858Y-109627826D01*
X133735197Y-109624316D01*
X133711993Y-109618504D01*
X133689471Y-109610446D01*
X133667847Y-109600218D01*
X133647330Y-109587921D01*
X133628117Y-109573671D01*
X133610393Y-109557607D01*
X133594329Y-109539883D01*
X133580079Y-109520670D01*
X133567782Y-109500153D01*
X133557554Y-109478529D01*
X133549496Y-109456007D01*
X133543684Y-109432803D01*
X133540174Y-109409142D01*
X133539000Y-109385250D01*
X133539000Y-108897750D01*
X133540174Y-108873858D01*
X133543684Y-108850197D01*
X133549496Y-108826993D01*
X133557554Y-108804471D01*
X133567782Y-108782847D01*
X133580079Y-108762330D01*
X133594329Y-108743117D01*
X133610393Y-108725393D01*
X133628117Y-108709329D01*
X133647330Y-108695079D01*
X133667847Y-108682782D01*
X133689471Y-108672554D01*
X133711993Y-108664496D01*
X133735197Y-108658684D01*
X133758858Y-108655174D01*
X133782750Y-108654000D01*
X134695250Y-108654000D01*
X134719142Y-108655174D01*
X134719142Y-108655174D01*
G37*
D15*
X134239000Y-109141500D03*
D14*
G36*
X134719142Y-106780174D02*
X134742803Y-106783684D01*
X134766007Y-106789496D01*
X134788529Y-106797554D01*
X134810153Y-106807782D01*
X134830670Y-106820079D01*
X134849883Y-106834329D01*
X134867607Y-106850393D01*
X134883671Y-106868117D01*
X134897921Y-106887330D01*
X134910218Y-106907847D01*
X134920446Y-106929471D01*
X134928504Y-106951993D01*
X134934316Y-106975197D01*
X134937826Y-106998858D01*
X134939000Y-107022750D01*
X134939000Y-107510250D01*
X134937826Y-107534142D01*
X134934316Y-107557803D01*
X134928504Y-107581007D01*
X134920446Y-107603529D01*
X134910218Y-107625153D01*
X134897921Y-107645670D01*
X134883671Y-107664883D01*
X134867607Y-107682607D01*
X134849883Y-107698671D01*
X134830670Y-107712921D01*
X134810153Y-107725218D01*
X134788529Y-107735446D01*
X134766007Y-107743504D01*
X134742803Y-107749316D01*
X134719142Y-107752826D01*
X134695250Y-107754000D01*
X133782750Y-107754000D01*
X133758858Y-107752826D01*
X133735197Y-107749316D01*
X133711993Y-107743504D01*
X133689471Y-107735446D01*
X133667847Y-107725218D01*
X133647330Y-107712921D01*
X133628117Y-107698671D01*
X133610393Y-107682607D01*
X133594329Y-107664883D01*
X133580079Y-107645670D01*
X133567782Y-107625153D01*
X133557554Y-107603529D01*
X133549496Y-107581007D01*
X133543684Y-107557803D01*
X133540174Y-107534142D01*
X133539000Y-107510250D01*
X133539000Y-107022750D01*
X133540174Y-106998858D01*
X133543684Y-106975197D01*
X133549496Y-106951993D01*
X133557554Y-106929471D01*
X133567782Y-106907847D01*
X133580079Y-106887330D01*
X133594329Y-106868117D01*
X133610393Y-106850393D01*
X133628117Y-106834329D01*
X133647330Y-106820079D01*
X133667847Y-106807782D01*
X133689471Y-106797554D01*
X133711993Y-106789496D01*
X133735197Y-106783684D01*
X133758858Y-106780174D01*
X133782750Y-106779000D01*
X134695250Y-106779000D01*
X134719142Y-106780174D01*
X134719142Y-106780174D01*
G37*
D15*
X134239000Y-107266500D03*
G04 #@! TD*
D14*
G04 #@! TO.C,R4*
G36*
X134719142Y-93445174D02*
X134742803Y-93448684D01*
X134766007Y-93454496D01*
X134788529Y-93462554D01*
X134810153Y-93472782D01*
X134830670Y-93485079D01*
X134849883Y-93499329D01*
X134867607Y-93515393D01*
X134883671Y-93533117D01*
X134897921Y-93552330D01*
X134910218Y-93572847D01*
X134920446Y-93594471D01*
X134928504Y-93616993D01*
X134934316Y-93640197D01*
X134937826Y-93663858D01*
X134939000Y-93687750D01*
X134939000Y-94175250D01*
X134937826Y-94199142D01*
X134934316Y-94222803D01*
X134928504Y-94246007D01*
X134920446Y-94268529D01*
X134910218Y-94290153D01*
X134897921Y-94310670D01*
X134883671Y-94329883D01*
X134867607Y-94347607D01*
X134849883Y-94363671D01*
X134830670Y-94377921D01*
X134810153Y-94390218D01*
X134788529Y-94400446D01*
X134766007Y-94408504D01*
X134742803Y-94414316D01*
X134719142Y-94417826D01*
X134695250Y-94419000D01*
X133782750Y-94419000D01*
X133758858Y-94417826D01*
X133735197Y-94414316D01*
X133711993Y-94408504D01*
X133689471Y-94400446D01*
X133667847Y-94390218D01*
X133647330Y-94377921D01*
X133628117Y-94363671D01*
X133610393Y-94347607D01*
X133594329Y-94329883D01*
X133580079Y-94310670D01*
X133567782Y-94290153D01*
X133557554Y-94268529D01*
X133549496Y-94246007D01*
X133543684Y-94222803D01*
X133540174Y-94199142D01*
X133539000Y-94175250D01*
X133539000Y-93687750D01*
X133540174Y-93663858D01*
X133543684Y-93640197D01*
X133549496Y-93616993D01*
X133557554Y-93594471D01*
X133567782Y-93572847D01*
X133580079Y-93552330D01*
X133594329Y-93533117D01*
X133610393Y-93515393D01*
X133628117Y-93499329D01*
X133647330Y-93485079D01*
X133667847Y-93472782D01*
X133689471Y-93462554D01*
X133711993Y-93454496D01*
X133735197Y-93448684D01*
X133758858Y-93445174D01*
X133782750Y-93444000D01*
X134695250Y-93444000D01*
X134719142Y-93445174D01*
X134719142Y-93445174D01*
G37*
D15*
X134239000Y-93931500D03*
D14*
G36*
X134719142Y-95320174D02*
X134742803Y-95323684D01*
X134766007Y-95329496D01*
X134788529Y-95337554D01*
X134810153Y-95347782D01*
X134830670Y-95360079D01*
X134849883Y-95374329D01*
X134867607Y-95390393D01*
X134883671Y-95408117D01*
X134897921Y-95427330D01*
X134910218Y-95447847D01*
X134920446Y-95469471D01*
X134928504Y-95491993D01*
X134934316Y-95515197D01*
X134937826Y-95538858D01*
X134939000Y-95562750D01*
X134939000Y-96050250D01*
X134937826Y-96074142D01*
X134934316Y-96097803D01*
X134928504Y-96121007D01*
X134920446Y-96143529D01*
X134910218Y-96165153D01*
X134897921Y-96185670D01*
X134883671Y-96204883D01*
X134867607Y-96222607D01*
X134849883Y-96238671D01*
X134830670Y-96252921D01*
X134810153Y-96265218D01*
X134788529Y-96275446D01*
X134766007Y-96283504D01*
X134742803Y-96289316D01*
X134719142Y-96292826D01*
X134695250Y-96294000D01*
X133782750Y-96294000D01*
X133758858Y-96292826D01*
X133735197Y-96289316D01*
X133711993Y-96283504D01*
X133689471Y-96275446D01*
X133667847Y-96265218D01*
X133647330Y-96252921D01*
X133628117Y-96238671D01*
X133610393Y-96222607D01*
X133594329Y-96204883D01*
X133580079Y-96185670D01*
X133567782Y-96165153D01*
X133557554Y-96143529D01*
X133549496Y-96121007D01*
X133543684Y-96097803D01*
X133540174Y-96074142D01*
X133539000Y-96050250D01*
X133539000Y-95562750D01*
X133540174Y-95538858D01*
X133543684Y-95515197D01*
X133549496Y-95491993D01*
X133557554Y-95469471D01*
X133567782Y-95447847D01*
X133580079Y-95427330D01*
X133594329Y-95408117D01*
X133610393Y-95390393D01*
X133628117Y-95374329D01*
X133647330Y-95360079D01*
X133667847Y-95347782D01*
X133689471Y-95337554D01*
X133711993Y-95329496D01*
X133735197Y-95323684D01*
X133758858Y-95320174D01*
X133782750Y-95319000D01*
X134695250Y-95319000D01*
X134719142Y-95320174D01*
X134719142Y-95320174D01*
G37*
D15*
X134239000Y-95806500D03*
G04 #@! TD*
D14*
G04 #@! TO.C,R3*
G36*
X141069142Y-79475174D02*
X141092803Y-79478684D01*
X141116007Y-79484496D01*
X141138529Y-79492554D01*
X141160153Y-79502782D01*
X141180670Y-79515079D01*
X141199883Y-79529329D01*
X141217607Y-79545393D01*
X141233671Y-79563117D01*
X141247921Y-79582330D01*
X141260218Y-79602847D01*
X141270446Y-79624471D01*
X141278504Y-79646993D01*
X141284316Y-79670197D01*
X141287826Y-79693858D01*
X141289000Y-79717750D01*
X141289000Y-80205250D01*
X141287826Y-80229142D01*
X141284316Y-80252803D01*
X141278504Y-80276007D01*
X141270446Y-80298529D01*
X141260218Y-80320153D01*
X141247921Y-80340670D01*
X141233671Y-80359883D01*
X141217607Y-80377607D01*
X141199883Y-80393671D01*
X141180670Y-80407921D01*
X141160153Y-80420218D01*
X141138529Y-80430446D01*
X141116007Y-80438504D01*
X141092803Y-80444316D01*
X141069142Y-80447826D01*
X141045250Y-80449000D01*
X140132750Y-80449000D01*
X140108858Y-80447826D01*
X140085197Y-80444316D01*
X140061993Y-80438504D01*
X140039471Y-80430446D01*
X140017847Y-80420218D01*
X139997330Y-80407921D01*
X139978117Y-80393671D01*
X139960393Y-80377607D01*
X139944329Y-80359883D01*
X139930079Y-80340670D01*
X139917782Y-80320153D01*
X139907554Y-80298529D01*
X139899496Y-80276007D01*
X139893684Y-80252803D01*
X139890174Y-80229142D01*
X139889000Y-80205250D01*
X139889000Y-79717750D01*
X139890174Y-79693858D01*
X139893684Y-79670197D01*
X139899496Y-79646993D01*
X139907554Y-79624471D01*
X139917782Y-79602847D01*
X139930079Y-79582330D01*
X139944329Y-79563117D01*
X139960393Y-79545393D01*
X139978117Y-79529329D01*
X139997330Y-79515079D01*
X140017847Y-79502782D01*
X140039471Y-79492554D01*
X140061993Y-79484496D01*
X140085197Y-79478684D01*
X140108858Y-79475174D01*
X140132750Y-79474000D01*
X141045250Y-79474000D01*
X141069142Y-79475174D01*
X141069142Y-79475174D01*
G37*
D15*
X140589000Y-79961500D03*
D14*
G36*
X141069142Y-81350174D02*
X141092803Y-81353684D01*
X141116007Y-81359496D01*
X141138529Y-81367554D01*
X141160153Y-81377782D01*
X141180670Y-81390079D01*
X141199883Y-81404329D01*
X141217607Y-81420393D01*
X141233671Y-81438117D01*
X141247921Y-81457330D01*
X141260218Y-81477847D01*
X141270446Y-81499471D01*
X141278504Y-81521993D01*
X141284316Y-81545197D01*
X141287826Y-81568858D01*
X141289000Y-81592750D01*
X141289000Y-82080250D01*
X141287826Y-82104142D01*
X141284316Y-82127803D01*
X141278504Y-82151007D01*
X141270446Y-82173529D01*
X141260218Y-82195153D01*
X141247921Y-82215670D01*
X141233671Y-82234883D01*
X141217607Y-82252607D01*
X141199883Y-82268671D01*
X141180670Y-82282921D01*
X141160153Y-82295218D01*
X141138529Y-82305446D01*
X141116007Y-82313504D01*
X141092803Y-82319316D01*
X141069142Y-82322826D01*
X141045250Y-82324000D01*
X140132750Y-82324000D01*
X140108858Y-82322826D01*
X140085197Y-82319316D01*
X140061993Y-82313504D01*
X140039471Y-82305446D01*
X140017847Y-82295218D01*
X139997330Y-82282921D01*
X139978117Y-82268671D01*
X139960393Y-82252607D01*
X139944329Y-82234883D01*
X139930079Y-82215670D01*
X139917782Y-82195153D01*
X139907554Y-82173529D01*
X139899496Y-82151007D01*
X139893684Y-82127803D01*
X139890174Y-82104142D01*
X139889000Y-82080250D01*
X139889000Y-81592750D01*
X139890174Y-81568858D01*
X139893684Y-81545197D01*
X139899496Y-81521993D01*
X139907554Y-81499471D01*
X139917782Y-81477847D01*
X139930079Y-81457330D01*
X139944329Y-81438117D01*
X139960393Y-81420393D01*
X139978117Y-81404329D01*
X139997330Y-81390079D01*
X140017847Y-81377782D01*
X140039471Y-81367554D01*
X140061993Y-81359496D01*
X140085197Y-81353684D01*
X140108858Y-81350174D01*
X140132750Y-81349000D01*
X141045250Y-81349000D01*
X141069142Y-81350174D01*
X141069142Y-81350174D01*
G37*
D15*
X140589000Y-81836500D03*
G04 #@! TD*
D14*
G04 #@! TO.C,R2*
G36*
X141069142Y-108655174D02*
X141092803Y-108658684D01*
X141116007Y-108664496D01*
X141138529Y-108672554D01*
X141160153Y-108682782D01*
X141180670Y-108695079D01*
X141199883Y-108709329D01*
X141217607Y-108725393D01*
X141233671Y-108743117D01*
X141247921Y-108762330D01*
X141260218Y-108782847D01*
X141270446Y-108804471D01*
X141278504Y-108826993D01*
X141284316Y-108850197D01*
X141287826Y-108873858D01*
X141289000Y-108897750D01*
X141289000Y-109385250D01*
X141287826Y-109409142D01*
X141284316Y-109432803D01*
X141278504Y-109456007D01*
X141270446Y-109478529D01*
X141260218Y-109500153D01*
X141247921Y-109520670D01*
X141233671Y-109539883D01*
X141217607Y-109557607D01*
X141199883Y-109573671D01*
X141180670Y-109587921D01*
X141160153Y-109600218D01*
X141138529Y-109610446D01*
X141116007Y-109618504D01*
X141092803Y-109624316D01*
X141069142Y-109627826D01*
X141045250Y-109629000D01*
X140132750Y-109629000D01*
X140108858Y-109627826D01*
X140085197Y-109624316D01*
X140061993Y-109618504D01*
X140039471Y-109610446D01*
X140017847Y-109600218D01*
X139997330Y-109587921D01*
X139978117Y-109573671D01*
X139960393Y-109557607D01*
X139944329Y-109539883D01*
X139930079Y-109520670D01*
X139917782Y-109500153D01*
X139907554Y-109478529D01*
X139899496Y-109456007D01*
X139893684Y-109432803D01*
X139890174Y-109409142D01*
X139889000Y-109385250D01*
X139889000Y-108897750D01*
X139890174Y-108873858D01*
X139893684Y-108850197D01*
X139899496Y-108826993D01*
X139907554Y-108804471D01*
X139917782Y-108782847D01*
X139930079Y-108762330D01*
X139944329Y-108743117D01*
X139960393Y-108725393D01*
X139978117Y-108709329D01*
X139997330Y-108695079D01*
X140017847Y-108682782D01*
X140039471Y-108672554D01*
X140061993Y-108664496D01*
X140085197Y-108658684D01*
X140108858Y-108655174D01*
X140132750Y-108654000D01*
X141045250Y-108654000D01*
X141069142Y-108655174D01*
X141069142Y-108655174D01*
G37*
D15*
X140589000Y-109141500D03*
D14*
G36*
X141069142Y-106780174D02*
X141092803Y-106783684D01*
X141116007Y-106789496D01*
X141138529Y-106797554D01*
X141160153Y-106807782D01*
X141180670Y-106820079D01*
X141199883Y-106834329D01*
X141217607Y-106850393D01*
X141233671Y-106868117D01*
X141247921Y-106887330D01*
X141260218Y-106907847D01*
X141270446Y-106929471D01*
X141278504Y-106951993D01*
X141284316Y-106975197D01*
X141287826Y-106998858D01*
X141289000Y-107022750D01*
X141289000Y-107510250D01*
X141287826Y-107534142D01*
X141284316Y-107557803D01*
X141278504Y-107581007D01*
X141270446Y-107603529D01*
X141260218Y-107625153D01*
X141247921Y-107645670D01*
X141233671Y-107664883D01*
X141217607Y-107682607D01*
X141199883Y-107698671D01*
X141180670Y-107712921D01*
X141160153Y-107725218D01*
X141138529Y-107735446D01*
X141116007Y-107743504D01*
X141092803Y-107749316D01*
X141069142Y-107752826D01*
X141045250Y-107754000D01*
X140132750Y-107754000D01*
X140108858Y-107752826D01*
X140085197Y-107749316D01*
X140061993Y-107743504D01*
X140039471Y-107735446D01*
X140017847Y-107725218D01*
X139997330Y-107712921D01*
X139978117Y-107698671D01*
X139960393Y-107682607D01*
X139944329Y-107664883D01*
X139930079Y-107645670D01*
X139917782Y-107625153D01*
X139907554Y-107603529D01*
X139899496Y-107581007D01*
X139893684Y-107557803D01*
X139890174Y-107534142D01*
X139889000Y-107510250D01*
X139889000Y-107022750D01*
X139890174Y-106998858D01*
X139893684Y-106975197D01*
X139899496Y-106951993D01*
X139907554Y-106929471D01*
X139917782Y-106907847D01*
X139930079Y-106887330D01*
X139944329Y-106868117D01*
X139960393Y-106850393D01*
X139978117Y-106834329D01*
X139997330Y-106820079D01*
X140017847Y-106807782D01*
X140039471Y-106797554D01*
X140061993Y-106789496D01*
X140085197Y-106783684D01*
X140108858Y-106780174D01*
X140132750Y-106779000D01*
X141045250Y-106779000D01*
X141069142Y-106780174D01*
X141069142Y-106780174D01*
G37*
D15*
X140589000Y-107266500D03*
G04 #@! TD*
D14*
G04 #@! TO.C,R1*
G36*
X141069142Y-93445174D02*
X141092803Y-93448684D01*
X141116007Y-93454496D01*
X141138529Y-93462554D01*
X141160153Y-93472782D01*
X141180670Y-93485079D01*
X141199883Y-93499329D01*
X141217607Y-93515393D01*
X141233671Y-93533117D01*
X141247921Y-93552330D01*
X141260218Y-93572847D01*
X141270446Y-93594471D01*
X141278504Y-93616993D01*
X141284316Y-93640197D01*
X141287826Y-93663858D01*
X141289000Y-93687750D01*
X141289000Y-94175250D01*
X141287826Y-94199142D01*
X141284316Y-94222803D01*
X141278504Y-94246007D01*
X141270446Y-94268529D01*
X141260218Y-94290153D01*
X141247921Y-94310670D01*
X141233671Y-94329883D01*
X141217607Y-94347607D01*
X141199883Y-94363671D01*
X141180670Y-94377921D01*
X141160153Y-94390218D01*
X141138529Y-94400446D01*
X141116007Y-94408504D01*
X141092803Y-94414316D01*
X141069142Y-94417826D01*
X141045250Y-94419000D01*
X140132750Y-94419000D01*
X140108858Y-94417826D01*
X140085197Y-94414316D01*
X140061993Y-94408504D01*
X140039471Y-94400446D01*
X140017847Y-94390218D01*
X139997330Y-94377921D01*
X139978117Y-94363671D01*
X139960393Y-94347607D01*
X139944329Y-94329883D01*
X139930079Y-94310670D01*
X139917782Y-94290153D01*
X139907554Y-94268529D01*
X139899496Y-94246007D01*
X139893684Y-94222803D01*
X139890174Y-94199142D01*
X139889000Y-94175250D01*
X139889000Y-93687750D01*
X139890174Y-93663858D01*
X139893684Y-93640197D01*
X139899496Y-93616993D01*
X139907554Y-93594471D01*
X139917782Y-93572847D01*
X139930079Y-93552330D01*
X139944329Y-93533117D01*
X139960393Y-93515393D01*
X139978117Y-93499329D01*
X139997330Y-93485079D01*
X140017847Y-93472782D01*
X140039471Y-93462554D01*
X140061993Y-93454496D01*
X140085197Y-93448684D01*
X140108858Y-93445174D01*
X140132750Y-93444000D01*
X141045250Y-93444000D01*
X141069142Y-93445174D01*
X141069142Y-93445174D01*
G37*
D15*
X140589000Y-93931500D03*
D14*
G36*
X141069142Y-95320174D02*
X141092803Y-95323684D01*
X141116007Y-95329496D01*
X141138529Y-95337554D01*
X141160153Y-95347782D01*
X141180670Y-95360079D01*
X141199883Y-95374329D01*
X141217607Y-95390393D01*
X141233671Y-95408117D01*
X141247921Y-95427330D01*
X141260218Y-95447847D01*
X141270446Y-95469471D01*
X141278504Y-95491993D01*
X141284316Y-95515197D01*
X141287826Y-95538858D01*
X141289000Y-95562750D01*
X141289000Y-96050250D01*
X141287826Y-96074142D01*
X141284316Y-96097803D01*
X141278504Y-96121007D01*
X141270446Y-96143529D01*
X141260218Y-96165153D01*
X141247921Y-96185670D01*
X141233671Y-96204883D01*
X141217607Y-96222607D01*
X141199883Y-96238671D01*
X141180670Y-96252921D01*
X141160153Y-96265218D01*
X141138529Y-96275446D01*
X141116007Y-96283504D01*
X141092803Y-96289316D01*
X141069142Y-96292826D01*
X141045250Y-96294000D01*
X140132750Y-96294000D01*
X140108858Y-96292826D01*
X140085197Y-96289316D01*
X140061993Y-96283504D01*
X140039471Y-96275446D01*
X140017847Y-96265218D01*
X139997330Y-96252921D01*
X139978117Y-96238671D01*
X139960393Y-96222607D01*
X139944329Y-96204883D01*
X139930079Y-96185670D01*
X139917782Y-96165153D01*
X139907554Y-96143529D01*
X139899496Y-96121007D01*
X139893684Y-96097803D01*
X139890174Y-96074142D01*
X139889000Y-96050250D01*
X139889000Y-95562750D01*
X139890174Y-95538858D01*
X139893684Y-95515197D01*
X139899496Y-95491993D01*
X139907554Y-95469471D01*
X139917782Y-95447847D01*
X139930079Y-95427330D01*
X139944329Y-95408117D01*
X139960393Y-95390393D01*
X139978117Y-95374329D01*
X139997330Y-95360079D01*
X140017847Y-95347782D01*
X140039471Y-95337554D01*
X140061993Y-95329496D01*
X140085197Y-95323684D01*
X140108858Y-95320174D01*
X140132750Y-95319000D01*
X141045250Y-95319000D01*
X141069142Y-95320174D01*
X141069142Y-95320174D01*
G37*
D15*
X140589000Y-95806500D03*
G04 #@! TD*
D14*
G04 #@! TO.C,R12*
G36*
X126754142Y-136875174D02*
X126777803Y-136878684D01*
X126801007Y-136884496D01*
X126823529Y-136892554D01*
X126845153Y-136902782D01*
X126865670Y-136915079D01*
X126884883Y-136929329D01*
X126902607Y-136945393D01*
X126918671Y-136963117D01*
X126932921Y-136982330D01*
X126945218Y-137002847D01*
X126955446Y-137024471D01*
X126963504Y-137046993D01*
X126969316Y-137070197D01*
X126972826Y-137093858D01*
X126974000Y-137117750D01*
X126974000Y-137605250D01*
X126972826Y-137629142D01*
X126969316Y-137652803D01*
X126963504Y-137676007D01*
X126955446Y-137698529D01*
X126945218Y-137720153D01*
X126932921Y-137740670D01*
X126918671Y-137759883D01*
X126902607Y-137777607D01*
X126884883Y-137793671D01*
X126865670Y-137807921D01*
X126845153Y-137820218D01*
X126823529Y-137830446D01*
X126801007Y-137838504D01*
X126777803Y-137844316D01*
X126754142Y-137847826D01*
X126730250Y-137849000D01*
X125817750Y-137849000D01*
X125793858Y-137847826D01*
X125770197Y-137844316D01*
X125746993Y-137838504D01*
X125724471Y-137830446D01*
X125702847Y-137820218D01*
X125682330Y-137807921D01*
X125663117Y-137793671D01*
X125645393Y-137777607D01*
X125629329Y-137759883D01*
X125615079Y-137740670D01*
X125602782Y-137720153D01*
X125592554Y-137698529D01*
X125584496Y-137676007D01*
X125578684Y-137652803D01*
X125575174Y-137629142D01*
X125574000Y-137605250D01*
X125574000Y-137117750D01*
X125575174Y-137093858D01*
X125578684Y-137070197D01*
X125584496Y-137046993D01*
X125592554Y-137024471D01*
X125602782Y-137002847D01*
X125615079Y-136982330D01*
X125629329Y-136963117D01*
X125645393Y-136945393D01*
X125663117Y-136929329D01*
X125682330Y-136915079D01*
X125702847Y-136902782D01*
X125724471Y-136892554D01*
X125746993Y-136884496D01*
X125770197Y-136878684D01*
X125793858Y-136875174D01*
X125817750Y-136874000D01*
X126730250Y-136874000D01*
X126754142Y-136875174D01*
X126754142Y-136875174D01*
G37*
D15*
X126274000Y-137361500D03*
D14*
G36*
X126754142Y-138750174D02*
X126777803Y-138753684D01*
X126801007Y-138759496D01*
X126823529Y-138767554D01*
X126845153Y-138777782D01*
X126865670Y-138790079D01*
X126884883Y-138804329D01*
X126902607Y-138820393D01*
X126918671Y-138838117D01*
X126932921Y-138857330D01*
X126945218Y-138877847D01*
X126955446Y-138899471D01*
X126963504Y-138921993D01*
X126969316Y-138945197D01*
X126972826Y-138968858D01*
X126974000Y-138992750D01*
X126974000Y-139480250D01*
X126972826Y-139504142D01*
X126969316Y-139527803D01*
X126963504Y-139551007D01*
X126955446Y-139573529D01*
X126945218Y-139595153D01*
X126932921Y-139615670D01*
X126918671Y-139634883D01*
X126902607Y-139652607D01*
X126884883Y-139668671D01*
X126865670Y-139682921D01*
X126845153Y-139695218D01*
X126823529Y-139705446D01*
X126801007Y-139713504D01*
X126777803Y-139719316D01*
X126754142Y-139722826D01*
X126730250Y-139724000D01*
X125817750Y-139724000D01*
X125793858Y-139722826D01*
X125770197Y-139719316D01*
X125746993Y-139713504D01*
X125724471Y-139705446D01*
X125702847Y-139695218D01*
X125682330Y-139682921D01*
X125663117Y-139668671D01*
X125645393Y-139652607D01*
X125629329Y-139634883D01*
X125615079Y-139615670D01*
X125602782Y-139595153D01*
X125592554Y-139573529D01*
X125584496Y-139551007D01*
X125578684Y-139527803D01*
X125575174Y-139504142D01*
X125574000Y-139480250D01*
X125574000Y-138992750D01*
X125575174Y-138968858D01*
X125578684Y-138945197D01*
X125584496Y-138921993D01*
X125592554Y-138899471D01*
X125602782Y-138877847D01*
X125615079Y-138857330D01*
X125629329Y-138838117D01*
X125645393Y-138820393D01*
X125663117Y-138804329D01*
X125682330Y-138790079D01*
X125702847Y-138777782D01*
X125724471Y-138767554D01*
X125746993Y-138759496D01*
X125770197Y-138753684D01*
X125793858Y-138750174D01*
X125817750Y-138749000D01*
X126730250Y-138749000D01*
X126754142Y-138750174D01*
X126754142Y-138750174D01*
G37*
D15*
X126274000Y-139236500D03*
G04 #@! TD*
D20*
G04 #@! TO.C,C15*
X127254000Y-75162000D03*
X127254000Y-78762000D03*
G04 #@! TD*
D21*
G04 #@! TO.C,C12*
X141329000Y-59309000D03*
X144929000Y-59309000D03*
G04 #@! TD*
G04 #@! TO.C,C11*
X141329000Y-51054000D03*
X144929000Y-51054000D03*
G04 #@! TD*
D14*
G04 #@! TO.C,C7*
G36*
X122368142Y-134381174D02*
X122391803Y-134384684D01*
X122415007Y-134390496D01*
X122437529Y-134398554D01*
X122459153Y-134408782D01*
X122479670Y-134421079D01*
X122498883Y-134435329D01*
X122516607Y-134451393D01*
X122532671Y-134469117D01*
X122546921Y-134488330D01*
X122559218Y-134508847D01*
X122569446Y-134530471D01*
X122577504Y-134552993D01*
X122583316Y-134576197D01*
X122586826Y-134599858D01*
X122588000Y-134623750D01*
X122588000Y-135111250D01*
X122586826Y-135135142D01*
X122583316Y-135158803D01*
X122577504Y-135182007D01*
X122569446Y-135204529D01*
X122559218Y-135226153D01*
X122546921Y-135246670D01*
X122532671Y-135265883D01*
X122516607Y-135283607D01*
X122498883Y-135299671D01*
X122479670Y-135313921D01*
X122459153Y-135326218D01*
X122437529Y-135336446D01*
X122415007Y-135344504D01*
X122391803Y-135350316D01*
X122368142Y-135353826D01*
X122344250Y-135355000D01*
X121431750Y-135355000D01*
X121407858Y-135353826D01*
X121384197Y-135350316D01*
X121360993Y-135344504D01*
X121338471Y-135336446D01*
X121316847Y-135326218D01*
X121296330Y-135313921D01*
X121277117Y-135299671D01*
X121259393Y-135283607D01*
X121243329Y-135265883D01*
X121229079Y-135246670D01*
X121216782Y-135226153D01*
X121206554Y-135204529D01*
X121198496Y-135182007D01*
X121192684Y-135158803D01*
X121189174Y-135135142D01*
X121188000Y-135111250D01*
X121188000Y-134623750D01*
X121189174Y-134599858D01*
X121192684Y-134576197D01*
X121198496Y-134552993D01*
X121206554Y-134530471D01*
X121216782Y-134508847D01*
X121229079Y-134488330D01*
X121243329Y-134469117D01*
X121259393Y-134451393D01*
X121277117Y-134435329D01*
X121296330Y-134421079D01*
X121316847Y-134408782D01*
X121338471Y-134398554D01*
X121360993Y-134390496D01*
X121384197Y-134384684D01*
X121407858Y-134381174D01*
X121431750Y-134380000D01*
X122344250Y-134380000D01*
X122368142Y-134381174D01*
X122368142Y-134381174D01*
G37*
D15*
X121888000Y-134867500D03*
D14*
G36*
X122368142Y-132506174D02*
X122391803Y-132509684D01*
X122415007Y-132515496D01*
X122437529Y-132523554D01*
X122459153Y-132533782D01*
X122479670Y-132546079D01*
X122498883Y-132560329D01*
X122516607Y-132576393D01*
X122532671Y-132594117D01*
X122546921Y-132613330D01*
X122559218Y-132633847D01*
X122569446Y-132655471D01*
X122577504Y-132677993D01*
X122583316Y-132701197D01*
X122586826Y-132724858D01*
X122588000Y-132748750D01*
X122588000Y-133236250D01*
X122586826Y-133260142D01*
X122583316Y-133283803D01*
X122577504Y-133307007D01*
X122569446Y-133329529D01*
X122559218Y-133351153D01*
X122546921Y-133371670D01*
X122532671Y-133390883D01*
X122516607Y-133408607D01*
X122498883Y-133424671D01*
X122479670Y-133438921D01*
X122459153Y-133451218D01*
X122437529Y-133461446D01*
X122415007Y-133469504D01*
X122391803Y-133475316D01*
X122368142Y-133478826D01*
X122344250Y-133480000D01*
X121431750Y-133480000D01*
X121407858Y-133478826D01*
X121384197Y-133475316D01*
X121360993Y-133469504D01*
X121338471Y-133461446D01*
X121316847Y-133451218D01*
X121296330Y-133438921D01*
X121277117Y-133424671D01*
X121259393Y-133408607D01*
X121243329Y-133390883D01*
X121229079Y-133371670D01*
X121216782Y-133351153D01*
X121206554Y-133329529D01*
X121198496Y-133307007D01*
X121192684Y-133283803D01*
X121189174Y-133260142D01*
X121188000Y-133236250D01*
X121188000Y-132748750D01*
X121189174Y-132724858D01*
X121192684Y-132701197D01*
X121198496Y-132677993D01*
X121206554Y-132655471D01*
X121216782Y-132633847D01*
X121229079Y-132613330D01*
X121243329Y-132594117D01*
X121259393Y-132576393D01*
X121277117Y-132560329D01*
X121296330Y-132546079D01*
X121316847Y-132533782D01*
X121338471Y-132523554D01*
X121360993Y-132515496D01*
X121384197Y-132509684D01*
X121407858Y-132506174D01*
X121431750Y-132505000D01*
X122344250Y-132505000D01*
X122368142Y-132506174D01*
X122368142Y-132506174D01*
G37*
D15*
X121888000Y-132992500D03*
G04 #@! TD*
D14*
G04 #@! TO.C,C14*
G36*
X144207142Y-75247174D02*
X144230803Y-75250684D01*
X144254007Y-75256496D01*
X144276529Y-75264554D01*
X144298153Y-75274782D01*
X144318670Y-75287079D01*
X144337883Y-75301329D01*
X144355607Y-75317393D01*
X144371671Y-75335117D01*
X144385921Y-75354330D01*
X144398218Y-75374847D01*
X144408446Y-75396471D01*
X144416504Y-75418993D01*
X144422316Y-75442197D01*
X144425826Y-75465858D01*
X144427000Y-75489750D01*
X144427000Y-76402250D01*
X144425826Y-76426142D01*
X144422316Y-76449803D01*
X144416504Y-76473007D01*
X144408446Y-76495529D01*
X144398218Y-76517153D01*
X144385921Y-76537670D01*
X144371671Y-76556883D01*
X144355607Y-76574607D01*
X144337883Y-76590671D01*
X144318670Y-76604921D01*
X144298153Y-76617218D01*
X144276529Y-76627446D01*
X144254007Y-76635504D01*
X144230803Y-76641316D01*
X144207142Y-76644826D01*
X144183250Y-76646000D01*
X143695750Y-76646000D01*
X143671858Y-76644826D01*
X143648197Y-76641316D01*
X143624993Y-76635504D01*
X143602471Y-76627446D01*
X143580847Y-76617218D01*
X143560330Y-76604921D01*
X143541117Y-76590671D01*
X143523393Y-76574607D01*
X143507329Y-76556883D01*
X143493079Y-76537670D01*
X143480782Y-76517153D01*
X143470554Y-76495529D01*
X143462496Y-76473007D01*
X143456684Y-76449803D01*
X143453174Y-76426142D01*
X143452000Y-76402250D01*
X143452000Y-75489750D01*
X143453174Y-75465858D01*
X143456684Y-75442197D01*
X143462496Y-75418993D01*
X143470554Y-75396471D01*
X143480782Y-75374847D01*
X143493079Y-75354330D01*
X143507329Y-75335117D01*
X143523393Y-75317393D01*
X143541117Y-75301329D01*
X143560330Y-75287079D01*
X143580847Y-75274782D01*
X143602471Y-75264554D01*
X143624993Y-75256496D01*
X143648197Y-75250684D01*
X143671858Y-75247174D01*
X143695750Y-75246000D01*
X144183250Y-75246000D01*
X144207142Y-75247174D01*
X144207142Y-75247174D01*
G37*
D15*
X143939500Y-75946000D03*
D14*
G36*
X142332142Y-75247174D02*
X142355803Y-75250684D01*
X142379007Y-75256496D01*
X142401529Y-75264554D01*
X142423153Y-75274782D01*
X142443670Y-75287079D01*
X142462883Y-75301329D01*
X142480607Y-75317393D01*
X142496671Y-75335117D01*
X142510921Y-75354330D01*
X142523218Y-75374847D01*
X142533446Y-75396471D01*
X142541504Y-75418993D01*
X142547316Y-75442197D01*
X142550826Y-75465858D01*
X142552000Y-75489750D01*
X142552000Y-76402250D01*
X142550826Y-76426142D01*
X142547316Y-76449803D01*
X142541504Y-76473007D01*
X142533446Y-76495529D01*
X142523218Y-76517153D01*
X142510921Y-76537670D01*
X142496671Y-76556883D01*
X142480607Y-76574607D01*
X142462883Y-76590671D01*
X142443670Y-76604921D01*
X142423153Y-76617218D01*
X142401529Y-76627446D01*
X142379007Y-76635504D01*
X142355803Y-76641316D01*
X142332142Y-76644826D01*
X142308250Y-76646000D01*
X141820750Y-76646000D01*
X141796858Y-76644826D01*
X141773197Y-76641316D01*
X141749993Y-76635504D01*
X141727471Y-76627446D01*
X141705847Y-76617218D01*
X141685330Y-76604921D01*
X141666117Y-76590671D01*
X141648393Y-76574607D01*
X141632329Y-76556883D01*
X141618079Y-76537670D01*
X141605782Y-76517153D01*
X141595554Y-76495529D01*
X141587496Y-76473007D01*
X141581684Y-76449803D01*
X141578174Y-76426142D01*
X141577000Y-76402250D01*
X141577000Y-75489750D01*
X141578174Y-75465858D01*
X141581684Y-75442197D01*
X141587496Y-75418993D01*
X141595554Y-75396471D01*
X141605782Y-75374847D01*
X141618079Y-75354330D01*
X141632329Y-75335117D01*
X141648393Y-75317393D01*
X141666117Y-75301329D01*
X141685330Y-75287079D01*
X141705847Y-75274782D01*
X141727471Y-75264554D01*
X141749993Y-75256496D01*
X141773197Y-75250684D01*
X141796858Y-75247174D01*
X141820750Y-75246000D01*
X142308250Y-75246000D01*
X142332142Y-75247174D01*
X142332142Y-75247174D01*
G37*
D15*
X142064500Y-75946000D03*
G04 #@! TD*
D14*
G04 #@! TO.C,C13*
G36*
X143560642Y-55569174D02*
X143584303Y-55572684D01*
X143607507Y-55578496D01*
X143630029Y-55586554D01*
X143651653Y-55596782D01*
X143672170Y-55609079D01*
X143691383Y-55623329D01*
X143709107Y-55639393D01*
X143725171Y-55657117D01*
X143739421Y-55676330D01*
X143751718Y-55696847D01*
X143761946Y-55718471D01*
X143770004Y-55740993D01*
X143775816Y-55764197D01*
X143779326Y-55787858D01*
X143780500Y-55811750D01*
X143780500Y-56299250D01*
X143779326Y-56323142D01*
X143775816Y-56346803D01*
X143770004Y-56370007D01*
X143761946Y-56392529D01*
X143751718Y-56414153D01*
X143739421Y-56434670D01*
X143725171Y-56453883D01*
X143709107Y-56471607D01*
X143691383Y-56487671D01*
X143672170Y-56501921D01*
X143651653Y-56514218D01*
X143630029Y-56524446D01*
X143607507Y-56532504D01*
X143584303Y-56538316D01*
X143560642Y-56541826D01*
X143536750Y-56543000D01*
X142624250Y-56543000D01*
X142600358Y-56541826D01*
X142576697Y-56538316D01*
X142553493Y-56532504D01*
X142530971Y-56524446D01*
X142509347Y-56514218D01*
X142488830Y-56501921D01*
X142469617Y-56487671D01*
X142451893Y-56471607D01*
X142435829Y-56453883D01*
X142421579Y-56434670D01*
X142409282Y-56414153D01*
X142399054Y-56392529D01*
X142390996Y-56370007D01*
X142385184Y-56346803D01*
X142381674Y-56323142D01*
X142380500Y-56299250D01*
X142380500Y-55811750D01*
X142381674Y-55787858D01*
X142385184Y-55764197D01*
X142390996Y-55740993D01*
X142399054Y-55718471D01*
X142409282Y-55696847D01*
X142421579Y-55676330D01*
X142435829Y-55657117D01*
X142451893Y-55639393D01*
X142469617Y-55623329D01*
X142488830Y-55609079D01*
X142509347Y-55596782D01*
X142530971Y-55586554D01*
X142553493Y-55578496D01*
X142576697Y-55572684D01*
X142600358Y-55569174D01*
X142624250Y-55568000D01*
X143536750Y-55568000D01*
X143560642Y-55569174D01*
X143560642Y-55569174D01*
G37*
D15*
X143080500Y-56055500D03*
D14*
G36*
X143560642Y-53694174D02*
X143584303Y-53697684D01*
X143607507Y-53703496D01*
X143630029Y-53711554D01*
X143651653Y-53721782D01*
X143672170Y-53734079D01*
X143691383Y-53748329D01*
X143709107Y-53764393D01*
X143725171Y-53782117D01*
X143739421Y-53801330D01*
X143751718Y-53821847D01*
X143761946Y-53843471D01*
X143770004Y-53865993D01*
X143775816Y-53889197D01*
X143779326Y-53912858D01*
X143780500Y-53936750D01*
X143780500Y-54424250D01*
X143779326Y-54448142D01*
X143775816Y-54471803D01*
X143770004Y-54495007D01*
X143761946Y-54517529D01*
X143751718Y-54539153D01*
X143739421Y-54559670D01*
X143725171Y-54578883D01*
X143709107Y-54596607D01*
X143691383Y-54612671D01*
X143672170Y-54626921D01*
X143651653Y-54639218D01*
X143630029Y-54649446D01*
X143607507Y-54657504D01*
X143584303Y-54663316D01*
X143560642Y-54666826D01*
X143536750Y-54668000D01*
X142624250Y-54668000D01*
X142600358Y-54666826D01*
X142576697Y-54663316D01*
X142553493Y-54657504D01*
X142530971Y-54649446D01*
X142509347Y-54639218D01*
X142488830Y-54626921D01*
X142469617Y-54612671D01*
X142451893Y-54596607D01*
X142435829Y-54578883D01*
X142421579Y-54559670D01*
X142409282Y-54539153D01*
X142399054Y-54517529D01*
X142390996Y-54495007D01*
X142385184Y-54471803D01*
X142381674Y-54448142D01*
X142380500Y-54424250D01*
X142380500Y-53936750D01*
X142381674Y-53912858D01*
X142385184Y-53889197D01*
X142390996Y-53865993D01*
X142399054Y-53843471D01*
X142409282Y-53821847D01*
X142421579Y-53801330D01*
X142435829Y-53782117D01*
X142451893Y-53764393D01*
X142469617Y-53748329D01*
X142488830Y-53734079D01*
X142509347Y-53721782D01*
X142530971Y-53711554D01*
X142553493Y-53703496D01*
X142576697Y-53697684D01*
X142600358Y-53694174D01*
X142624250Y-53693000D01*
X143536750Y-53693000D01*
X143560642Y-53694174D01*
X143560642Y-53694174D01*
G37*
D15*
X143080500Y-54180500D03*
G04 #@! TD*
D14*
G04 #@! TO.C,C10*
G36*
X130020142Y-133801174D02*
X130043803Y-133804684D01*
X130067007Y-133810496D01*
X130089529Y-133818554D01*
X130111153Y-133828782D01*
X130131670Y-133841079D01*
X130150883Y-133855329D01*
X130168607Y-133871393D01*
X130184671Y-133889117D01*
X130198921Y-133908330D01*
X130211218Y-133928847D01*
X130221446Y-133950471D01*
X130229504Y-133972993D01*
X130235316Y-133996197D01*
X130238826Y-134019858D01*
X130240000Y-134043750D01*
X130240000Y-134531250D01*
X130238826Y-134555142D01*
X130235316Y-134578803D01*
X130229504Y-134602007D01*
X130221446Y-134624529D01*
X130211218Y-134646153D01*
X130198921Y-134666670D01*
X130184671Y-134685883D01*
X130168607Y-134703607D01*
X130150883Y-134719671D01*
X130131670Y-134733921D01*
X130111153Y-134746218D01*
X130089529Y-134756446D01*
X130067007Y-134764504D01*
X130043803Y-134770316D01*
X130020142Y-134773826D01*
X129996250Y-134775000D01*
X129083750Y-134775000D01*
X129059858Y-134773826D01*
X129036197Y-134770316D01*
X129012993Y-134764504D01*
X128990471Y-134756446D01*
X128968847Y-134746218D01*
X128948330Y-134733921D01*
X128929117Y-134719671D01*
X128911393Y-134703607D01*
X128895329Y-134685883D01*
X128881079Y-134666670D01*
X128868782Y-134646153D01*
X128858554Y-134624529D01*
X128850496Y-134602007D01*
X128844684Y-134578803D01*
X128841174Y-134555142D01*
X128840000Y-134531250D01*
X128840000Y-134043750D01*
X128841174Y-134019858D01*
X128844684Y-133996197D01*
X128850496Y-133972993D01*
X128858554Y-133950471D01*
X128868782Y-133928847D01*
X128881079Y-133908330D01*
X128895329Y-133889117D01*
X128911393Y-133871393D01*
X128929117Y-133855329D01*
X128948330Y-133841079D01*
X128968847Y-133828782D01*
X128990471Y-133818554D01*
X129012993Y-133810496D01*
X129036197Y-133804684D01*
X129059858Y-133801174D01*
X129083750Y-133800000D01*
X129996250Y-133800000D01*
X130020142Y-133801174D01*
X130020142Y-133801174D01*
G37*
D15*
X129540000Y-134287500D03*
D14*
G36*
X130020142Y-131926174D02*
X130043803Y-131929684D01*
X130067007Y-131935496D01*
X130089529Y-131943554D01*
X130111153Y-131953782D01*
X130131670Y-131966079D01*
X130150883Y-131980329D01*
X130168607Y-131996393D01*
X130184671Y-132014117D01*
X130198921Y-132033330D01*
X130211218Y-132053847D01*
X130221446Y-132075471D01*
X130229504Y-132097993D01*
X130235316Y-132121197D01*
X130238826Y-132144858D01*
X130240000Y-132168750D01*
X130240000Y-132656250D01*
X130238826Y-132680142D01*
X130235316Y-132703803D01*
X130229504Y-132727007D01*
X130221446Y-132749529D01*
X130211218Y-132771153D01*
X130198921Y-132791670D01*
X130184671Y-132810883D01*
X130168607Y-132828607D01*
X130150883Y-132844671D01*
X130131670Y-132858921D01*
X130111153Y-132871218D01*
X130089529Y-132881446D01*
X130067007Y-132889504D01*
X130043803Y-132895316D01*
X130020142Y-132898826D01*
X129996250Y-132900000D01*
X129083750Y-132900000D01*
X129059858Y-132898826D01*
X129036197Y-132895316D01*
X129012993Y-132889504D01*
X128990471Y-132881446D01*
X128968847Y-132871218D01*
X128948330Y-132858921D01*
X128929117Y-132844671D01*
X128911393Y-132828607D01*
X128895329Y-132810883D01*
X128881079Y-132791670D01*
X128868782Y-132771153D01*
X128858554Y-132749529D01*
X128850496Y-132727007D01*
X128844684Y-132703803D01*
X128841174Y-132680142D01*
X128840000Y-132656250D01*
X128840000Y-132168750D01*
X128841174Y-132144858D01*
X128844684Y-132121197D01*
X128850496Y-132097993D01*
X128858554Y-132075471D01*
X128868782Y-132053847D01*
X128881079Y-132033330D01*
X128895329Y-132014117D01*
X128911393Y-131996393D01*
X128929117Y-131980329D01*
X128948330Y-131966079D01*
X128968847Y-131953782D01*
X128990471Y-131943554D01*
X129012993Y-131935496D01*
X129036197Y-131929684D01*
X129059858Y-131926174D01*
X129083750Y-131925000D01*
X129996250Y-131925000D01*
X130020142Y-131926174D01*
X130020142Y-131926174D01*
G37*
D15*
X129540000Y-132412500D03*
G04 #@! TD*
D14*
G04 #@! TO.C,C9*
G36*
X123289142Y-122020174D02*
X123312803Y-122023684D01*
X123336007Y-122029496D01*
X123358529Y-122037554D01*
X123380153Y-122047782D01*
X123400670Y-122060079D01*
X123419883Y-122074329D01*
X123437607Y-122090393D01*
X123453671Y-122108117D01*
X123467921Y-122127330D01*
X123480218Y-122147847D01*
X123490446Y-122169471D01*
X123498504Y-122191993D01*
X123504316Y-122215197D01*
X123507826Y-122238858D01*
X123509000Y-122262750D01*
X123509000Y-122750250D01*
X123507826Y-122774142D01*
X123504316Y-122797803D01*
X123498504Y-122821007D01*
X123490446Y-122843529D01*
X123480218Y-122865153D01*
X123467921Y-122885670D01*
X123453671Y-122904883D01*
X123437607Y-122922607D01*
X123419883Y-122938671D01*
X123400670Y-122952921D01*
X123380153Y-122965218D01*
X123358529Y-122975446D01*
X123336007Y-122983504D01*
X123312803Y-122989316D01*
X123289142Y-122992826D01*
X123265250Y-122994000D01*
X122352750Y-122994000D01*
X122328858Y-122992826D01*
X122305197Y-122989316D01*
X122281993Y-122983504D01*
X122259471Y-122975446D01*
X122237847Y-122965218D01*
X122217330Y-122952921D01*
X122198117Y-122938671D01*
X122180393Y-122922607D01*
X122164329Y-122904883D01*
X122150079Y-122885670D01*
X122137782Y-122865153D01*
X122127554Y-122843529D01*
X122119496Y-122821007D01*
X122113684Y-122797803D01*
X122110174Y-122774142D01*
X122109000Y-122750250D01*
X122109000Y-122262750D01*
X122110174Y-122238858D01*
X122113684Y-122215197D01*
X122119496Y-122191993D01*
X122127554Y-122169471D01*
X122137782Y-122147847D01*
X122150079Y-122127330D01*
X122164329Y-122108117D01*
X122180393Y-122090393D01*
X122198117Y-122074329D01*
X122217330Y-122060079D01*
X122237847Y-122047782D01*
X122259471Y-122037554D01*
X122281993Y-122029496D01*
X122305197Y-122023684D01*
X122328858Y-122020174D01*
X122352750Y-122019000D01*
X123265250Y-122019000D01*
X123289142Y-122020174D01*
X123289142Y-122020174D01*
G37*
D15*
X122809000Y-122506500D03*
D14*
G36*
X123289142Y-123895174D02*
X123312803Y-123898684D01*
X123336007Y-123904496D01*
X123358529Y-123912554D01*
X123380153Y-123922782D01*
X123400670Y-123935079D01*
X123419883Y-123949329D01*
X123437607Y-123965393D01*
X123453671Y-123983117D01*
X123467921Y-124002330D01*
X123480218Y-124022847D01*
X123490446Y-124044471D01*
X123498504Y-124066993D01*
X123504316Y-124090197D01*
X123507826Y-124113858D01*
X123509000Y-124137750D01*
X123509000Y-124625250D01*
X123507826Y-124649142D01*
X123504316Y-124672803D01*
X123498504Y-124696007D01*
X123490446Y-124718529D01*
X123480218Y-124740153D01*
X123467921Y-124760670D01*
X123453671Y-124779883D01*
X123437607Y-124797607D01*
X123419883Y-124813671D01*
X123400670Y-124827921D01*
X123380153Y-124840218D01*
X123358529Y-124850446D01*
X123336007Y-124858504D01*
X123312803Y-124864316D01*
X123289142Y-124867826D01*
X123265250Y-124869000D01*
X122352750Y-124869000D01*
X122328858Y-124867826D01*
X122305197Y-124864316D01*
X122281993Y-124858504D01*
X122259471Y-124850446D01*
X122237847Y-124840218D01*
X122217330Y-124827921D01*
X122198117Y-124813671D01*
X122180393Y-124797607D01*
X122164329Y-124779883D01*
X122150079Y-124760670D01*
X122137782Y-124740153D01*
X122127554Y-124718529D01*
X122119496Y-124696007D01*
X122113684Y-124672803D01*
X122110174Y-124649142D01*
X122109000Y-124625250D01*
X122109000Y-124137750D01*
X122110174Y-124113858D01*
X122113684Y-124090197D01*
X122119496Y-124066993D01*
X122127554Y-124044471D01*
X122137782Y-124022847D01*
X122150079Y-124002330D01*
X122164329Y-123983117D01*
X122180393Y-123965393D01*
X122198117Y-123949329D01*
X122217330Y-123935079D01*
X122237847Y-123922782D01*
X122259471Y-123912554D01*
X122281993Y-123904496D01*
X122305197Y-123898684D01*
X122328858Y-123895174D01*
X122352750Y-123894000D01*
X123265250Y-123894000D01*
X123289142Y-123895174D01*
X123289142Y-123895174D01*
G37*
D15*
X122809000Y-124381500D03*
G04 #@! TD*
D14*
G04 #@! TO.C,C8*
G36*
X115979142Y-129877174D02*
X116002803Y-129880684D01*
X116026007Y-129886496D01*
X116048529Y-129894554D01*
X116070153Y-129904782D01*
X116090670Y-129917079D01*
X116109883Y-129931329D01*
X116127607Y-129947393D01*
X116143671Y-129965117D01*
X116157921Y-129984330D01*
X116170218Y-130004847D01*
X116180446Y-130026471D01*
X116188504Y-130048993D01*
X116194316Y-130072197D01*
X116197826Y-130095858D01*
X116199000Y-130119750D01*
X116199000Y-130607250D01*
X116197826Y-130631142D01*
X116194316Y-130654803D01*
X116188504Y-130678007D01*
X116180446Y-130700529D01*
X116170218Y-130722153D01*
X116157921Y-130742670D01*
X116143671Y-130761883D01*
X116127607Y-130779607D01*
X116109883Y-130795671D01*
X116090670Y-130809921D01*
X116070153Y-130822218D01*
X116048529Y-130832446D01*
X116026007Y-130840504D01*
X116002803Y-130846316D01*
X115979142Y-130849826D01*
X115955250Y-130851000D01*
X115042750Y-130851000D01*
X115018858Y-130849826D01*
X114995197Y-130846316D01*
X114971993Y-130840504D01*
X114949471Y-130832446D01*
X114927847Y-130822218D01*
X114907330Y-130809921D01*
X114888117Y-130795671D01*
X114870393Y-130779607D01*
X114854329Y-130761883D01*
X114840079Y-130742670D01*
X114827782Y-130722153D01*
X114817554Y-130700529D01*
X114809496Y-130678007D01*
X114803684Y-130654803D01*
X114800174Y-130631142D01*
X114799000Y-130607250D01*
X114799000Y-130119750D01*
X114800174Y-130095858D01*
X114803684Y-130072197D01*
X114809496Y-130048993D01*
X114817554Y-130026471D01*
X114827782Y-130004847D01*
X114840079Y-129984330D01*
X114854329Y-129965117D01*
X114870393Y-129947393D01*
X114888117Y-129931329D01*
X114907330Y-129917079D01*
X114927847Y-129904782D01*
X114949471Y-129894554D01*
X114971993Y-129886496D01*
X114995197Y-129880684D01*
X115018858Y-129877174D01*
X115042750Y-129876000D01*
X115955250Y-129876000D01*
X115979142Y-129877174D01*
X115979142Y-129877174D01*
G37*
D15*
X115499000Y-130363500D03*
D14*
G36*
X115979142Y-128002174D02*
X116002803Y-128005684D01*
X116026007Y-128011496D01*
X116048529Y-128019554D01*
X116070153Y-128029782D01*
X116090670Y-128042079D01*
X116109883Y-128056329D01*
X116127607Y-128072393D01*
X116143671Y-128090117D01*
X116157921Y-128109330D01*
X116170218Y-128129847D01*
X116180446Y-128151471D01*
X116188504Y-128173993D01*
X116194316Y-128197197D01*
X116197826Y-128220858D01*
X116199000Y-128244750D01*
X116199000Y-128732250D01*
X116197826Y-128756142D01*
X116194316Y-128779803D01*
X116188504Y-128803007D01*
X116180446Y-128825529D01*
X116170218Y-128847153D01*
X116157921Y-128867670D01*
X116143671Y-128886883D01*
X116127607Y-128904607D01*
X116109883Y-128920671D01*
X116090670Y-128934921D01*
X116070153Y-128947218D01*
X116048529Y-128957446D01*
X116026007Y-128965504D01*
X116002803Y-128971316D01*
X115979142Y-128974826D01*
X115955250Y-128976000D01*
X115042750Y-128976000D01*
X115018858Y-128974826D01*
X114995197Y-128971316D01*
X114971993Y-128965504D01*
X114949471Y-128957446D01*
X114927847Y-128947218D01*
X114907330Y-128934921D01*
X114888117Y-128920671D01*
X114870393Y-128904607D01*
X114854329Y-128886883D01*
X114840079Y-128867670D01*
X114827782Y-128847153D01*
X114817554Y-128825529D01*
X114809496Y-128803007D01*
X114803684Y-128779803D01*
X114800174Y-128756142D01*
X114799000Y-128732250D01*
X114799000Y-128244750D01*
X114800174Y-128220858D01*
X114803684Y-128197197D01*
X114809496Y-128173993D01*
X114817554Y-128151471D01*
X114827782Y-128129847D01*
X114840079Y-128109330D01*
X114854329Y-128090117D01*
X114870393Y-128072393D01*
X114888117Y-128056329D01*
X114907330Y-128042079D01*
X114927847Y-128029782D01*
X114949471Y-128019554D01*
X114971993Y-128011496D01*
X114995197Y-128005684D01*
X115018858Y-128002174D01*
X115042750Y-128001000D01*
X115955250Y-128001000D01*
X115979142Y-128002174D01*
X115979142Y-128002174D01*
G37*
D15*
X115499000Y-128488500D03*
G04 #@! TD*
D14*
G04 #@! TO.C,C5*
G36*
X129929142Y-138750174D02*
X129952803Y-138753684D01*
X129976007Y-138759496D01*
X129998529Y-138767554D01*
X130020153Y-138777782D01*
X130040670Y-138790079D01*
X130059883Y-138804329D01*
X130077607Y-138820393D01*
X130093671Y-138838117D01*
X130107921Y-138857330D01*
X130120218Y-138877847D01*
X130130446Y-138899471D01*
X130138504Y-138921993D01*
X130144316Y-138945197D01*
X130147826Y-138968858D01*
X130149000Y-138992750D01*
X130149000Y-139480250D01*
X130147826Y-139504142D01*
X130144316Y-139527803D01*
X130138504Y-139551007D01*
X130130446Y-139573529D01*
X130120218Y-139595153D01*
X130107921Y-139615670D01*
X130093671Y-139634883D01*
X130077607Y-139652607D01*
X130059883Y-139668671D01*
X130040670Y-139682921D01*
X130020153Y-139695218D01*
X129998529Y-139705446D01*
X129976007Y-139713504D01*
X129952803Y-139719316D01*
X129929142Y-139722826D01*
X129905250Y-139724000D01*
X128992750Y-139724000D01*
X128968858Y-139722826D01*
X128945197Y-139719316D01*
X128921993Y-139713504D01*
X128899471Y-139705446D01*
X128877847Y-139695218D01*
X128857330Y-139682921D01*
X128838117Y-139668671D01*
X128820393Y-139652607D01*
X128804329Y-139634883D01*
X128790079Y-139615670D01*
X128777782Y-139595153D01*
X128767554Y-139573529D01*
X128759496Y-139551007D01*
X128753684Y-139527803D01*
X128750174Y-139504142D01*
X128749000Y-139480250D01*
X128749000Y-138992750D01*
X128750174Y-138968858D01*
X128753684Y-138945197D01*
X128759496Y-138921993D01*
X128767554Y-138899471D01*
X128777782Y-138877847D01*
X128790079Y-138857330D01*
X128804329Y-138838117D01*
X128820393Y-138820393D01*
X128838117Y-138804329D01*
X128857330Y-138790079D01*
X128877847Y-138777782D01*
X128899471Y-138767554D01*
X128921993Y-138759496D01*
X128945197Y-138753684D01*
X128968858Y-138750174D01*
X128992750Y-138749000D01*
X129905250Y-138749000D01*
X129929142Y-138750174D01*
X129929142Y-138750174D01*
G37*
D15*
X129449000Y-139236500D03*
D14*
G36*
X129929142Y-136875174D02*
X129952803Y-136878684D01*
X129976007Y-136884496D01*
X129998529Y-136892554D01*
X130020153Y-136902782D01*
X130040670Y-136915079D01*
X130059883Y-136929329D01*
X130077607Y-136945393D01*
X130093671Y-136963117D01*
X130107921Y-136982330D01*
X130120218Y-137002847D01*
X130130446Y-137024471D01*
X130138504Y-137046993D01*
X130144316Y-137070197D01*
X130147826Y-137093858D01*
X130149000Y-137117750D01*
X130149000Y-137605250D01*
X130147826Y-137629142D01*
X130144316Y-137652803D01*
X130138504Y-137676007D01*
X130130446Y-137698529D01*
X130120218Y-137720153D01*
X130107921Y-137740670D01*
X130093671Y-137759883D01*
X130077607Y-137777607D01*
X130059883Y-137793671D01*
X130040670Y-137807921D01*
X130020153Y-137820218D01*
X129998529Y-137830446D01*
X129976007Y-137838504D01*
X129952803Y-137844316D01*
X129929142Y-137847826D01*
X129905250Y-137849000D01*
X128992750Y-137849000D01*
X128968858Y-137847826D01*
X128945197Y-137844316D01*
X128921993Y-137838504D01*
X128899471Y-137830446D01*
X128877847Y-137820218D01*
X128857330Y-137807921D01*
X128838117Y-137793671D01*
X128820393Y-137777607D01*
X128804329Y-137759883D01*
X128790079Y-137740670D01*
X128777782Y-137720153D01*
X128767554Y-137698529D01*
X128759496Y-137676007D01*
X128753684Y-137652803D01*
X128750174Y-137629142D01*
X128749000Y-137605250D01*
X128749000Y-137117750D01*
X128750174Y-137093858D01*
X128753684Y-137070197D01*
X128759496Y-137046993D01*
X128767554Y-137024471D01*
X128777782Y-137002847D01*
X128790079Y-136982330D01*
X128804329Y-136963117D01*
X128820393Y-136945393D01*
X128838117Y-136929329D01*
X128857330Y-136915079D01*
X128877847Y-136902782D01*
X128899471Y-136892554D01*
X128921993Y-136884496D01*
X128945197Y-136878684D01*
X128968858Y-136875174D01*
X128992750Y-136874000D01*
X129905250Y-136874000D01*
X129929142Y-136875174D01*
X129929142Y-136875174D01*
G37*
D15*
X129449000Y-137361500D03*
G04 #@! TD*
D14*
G04 #@! TO.C,C4*
G36*
X113764142Y-113130174D02*
X113787803Y-113133684D01*
X113811007Y-113139496D01*
X113833529Y-113147554D01*
X113855153Y-113157782D01*
X113875670Y-113170079D01*
X113894883Y-113184329D01*
X113912607Y-113200393D01*
X113928671Y-113218117D01*
X113942921Y-113237330D01*
X113955218Y-113257847D01*
X113965446Y-113279471D01*
X113973504Y-113301993D01*
X113979316Y-113325197D01*
X113982826Y-113348858D01*
X113984000Y-113372750D01*
X113984000Y-113860250D01*
X113982826Y-113884142D01*
X113979316Y-113907803D01*
X113973504Y-113931007D01*
X113965446Y-113953529D01*
X113955218Y-113975153D01*
X113942921Y-113995670D01*
X113928671Y-114014883D01*
X113912607Y-114032607D01*
X113894883Y-114048671D01*
X113875670Y-114062921D01*
X113855153Y-114075218D01*
X113833529Y-114085446D01*
X113811007Y-114093504D01*
X113787803Y-114099316D01*
X113764142Y-114102826D01*
X113740250Y-114104000D01*
X112827750Y-114104000D01*
X112803858Y-114102826D01*
X112780197Y-114099316D01*
X112756993Y-114093504D01*
X112734471Y-114085446D01*
X112712847Y-114075218D01*
X112692330Y-114062921D01*
X112673117Y-114048671D01*
X112655393Y-114032607D01*
X112639329Y-114014883D01*
X112625079Y-113995670D01*
X112612782Y-113975153D01*
X112602554Y-113953529D01*
X112594496Y-113931007D01*
X112588684Y-113907803D01*
X112585174Y-113884142D01*
X112584000Y-113860250D01*
X112584000Y-113372750D01*
X112585174Y-113348858D01*
X112588684Y-113325197D01*
X112594496Y-113301993D01*
X112602554Y-113279471D01*
X112612782Y-113257847D01*
X112625079Y-113237330D01*
X112639329Y-113218117D01*
X112655393Y-113200393D01*
X112673117Y-113184329D01*
X112692330Y-113170079D01*
X112712847Y-113157782D01*
X112734471Y-113147554D01*
X112756993Y-113139496D01*
X112780197Y-113133684D01*
X112803858Y-113130174D01*
X112827750Y-113129000D01*
X113740250Y-113129000D01*
X113764142Y-113130174D01*
X113764142Y-113130174D01*
G37*
D15*
X113284000Y-113616500D03*
D14*
G36*
X113764142Y-115005174D02*
X113787803Y-115008684D01*
X113811007Y-115014496D01*
X113833529Y-115022554D01*
X113855153Y-115032782D01*
X113875670Y-115045079D01*
X113894883Y-115059329D01*
X113912607Y-115075393D01*
X113928671Y-115093117D01*
X113942921Y-115112330D01*
X113955218Y-115132847D01*
X113965446Y-115154471D01*
X113973504Y-115176993D01*
X113979316Y-115200197D01*
X113982826Y-115223858D01*
X113984000Y-115247750D01*
X113984000Y-115735250D01*
X113982826Y-115759142D01*
X113979316Y-115782803D01*
X113973504Y-115806007D01*
X113965446Y-115828529D01*
X113955218Y-115850153D01*
X113942921Y-115870670D01*
X113928671Y-115889883D01*
X113912607Y-115907607D01*
X113894883Y-115923671D01*
X113875670Y-115937921D01*
X113855153Y-115950218D01*
X113833529Y-115960446D01*
X113811007Y-115968504D01*
X113787803Y-115974316D01*
X113764142Y-115977826D01*
X113740250Y-115979000D01*
X112827750Y-115979000D01*
X112803858Y-115977826D01*
X112780197Y-115974316D01*
X112756993Y-115968504D01*
X112734471Y-115960446D01*
X112712847Y-115950218D01*
X112692330Y-115937921D01*
X112673117Y-115923671D01*
X112655393Y-115907607D01*
X112639329Y-115889883D01*
X112625079Y-115870670D01*
X112612782Y-115850153D01*
X112602554Y-115828529D01*
X112594496Y-115806007D01*
X112588684Y-115782803D01*
X112585174Y-115759142D01*
X112584000Y-115735250D01*
X112584000Y-115247750D01*
X112585174Y-115223858D01*
X112588684Y-115200197D01*
X112594496Y-115176993D01*
X112602554Y-115154471D01*
X112612782Y-115132847D01*
X112625079Y-115112330D01*
X112639329Y-115093117D01*
X112655393Y-115075393D01*
X112673117Y-115059329D01*
X112692330Y-115045079D01*
X112712847Y-115032782D01*
X112734471Y-115022554D01*
X112756993Y-115014496D01*
X112780197Y-115008684D01*
X112803858Y-115005174D01*
X112827750Y-115004000D01*
X113740250Y-115004000D01*
X113764142Y-115005174D01*
X113764142Y-115005174D01*
G37*
D15*
X113284000Y-115491500D03*
G04 #@! TD*
D14*
G04 #@! TO.C,C3*
G36*
X116304142Y-115005174D02*
X116327803Y-115008684D01*
X116351007Y-115014496D01*
X116373529Y-115022554D01*
X116395153Y-115032782D01*
X116415670Y-115045079D01*
X116434883Y-115059329D01*
X116452607Y-115075393D01*
X116468671Y-115093117D01*
X116482921Y-115112330D01*
X116495218Y-115132847D01*
X116505446Y-115154471D01*
X116513504Y-115176993D01*
X116519316Y-115200197D01*
X116522826Y-115223858D01*
X116524000Y-115247750D01*
X116524000Y-115735250D01*
X116522826Y-115759142D01*
X116519316Y-115782803D01*
X116513504Y-115806007D01*
X116505446Y-115828529D01*
X116495218Y-115850153D01*
X116482921Y-115870670D01*
X116468671Y-115889883D01*
X116452607Y-115907607D01*
X116434883Y-115923671D01*
X116415670Y-115937921D01*
X116395153Y-115950218D01*
X116373529Y-115960446D01*
X116351007Y-115968504D01*
X116327803Y-115974316D01*
X116304142Y-115977826D01*
X116280250Y-115979000D01*
X115367750Y-115979000D01*
X115343858Y-115977826D01*
X115320197Y-115974316D01*
X115296993Y-115968504D01*
X115274471Y-115960446D01*
X115252847Y-115950218D01*
X115232330Y-115937921D01*
X115213117Y-115923671D01*
X115195393Y-115907607D01*
X115179329Y-115889883D01*
X115165079Y-115870670D01*
X115152782Y-115850153D01*
X115142554Y-115828529D01*
X115134496Y-115806007D01*
X115128684Y-115782803D01*
X115125174Y-115759142D01*
X115124000Y-115735250D01*
X115124000Y-115247750D01*
X115125174Y-115223858D01*
X115128684Y-115200197D01*
X115134496Y-115176993D01*
X115142554Y-115154471D01*
X115152782Y-115132847D01*
X115165079Y-115112330D01*
X115179329Y-115093117D01*
X115195393Y-115075393D01*
X115213117Y-115059329D01*
X115232330Y-115045079D01*
X115252847Y-115032782D01*
X115274471Y-115022554D01*
X115296993Y-115014496D01*
X115320197Y-115008684D01*
X115343858Y-115005174D01*
X115367750Y-115004000D01*
X116280250Y-115004000D01*
X116304142Y-115005174D01*
X116304142Y-115005174D01*
G37*
D15*
X115824000Y-115491500D03*
D14*
G36*
X116304142Y-113130174D02*
X116327803Y-113133684D01*
X116351007Y-113139496D01*
X116373529Y-113147554D01*
X116395153Y-113157782D01*
X116415670Y-113170079D01*
X116434883Y-113184329D01*
X116452607Y-113200393D01*
X116468671Y-113218117D01*
X116482921Y-113237330D01*
X116495218Y-113257847D01*
X116505446Y-113279471D01*
X116513504Y-113301993D01*
X116519316Y-113325197D01*
X116522826Y-113348858D01*
X116524000Y-113372750D01*
X116524000Y-113860250D01*
X116522826Y-113884142D01*
X116519316Y-113907803D01*
X116513504Y-113931007D01*
X116505446Y-113953529D01*
X116495218Y-113975153D01*
X116482921Y-113995670D01*
X116468671Y-114014883D01*
X116452607Y-114032607D01*
X116434883Y-114048671D01*
X116415670Y-114062921D01*
X116395153Y-114075218D01*
X116373529Y-114085446D01*
X116351007Y-114093504D01*
X116327803Y-114099316D01*
X116304142Y-114102826D01*
X116280250Y-114104000D01*
X115367750Y-114104000D01*
X115343858Y-114102826D01*
X115320197Y-114099316D01*
X115296993Y-114093504D01*
X115274471Y-114085446D01*
X115252847Y-114075218D01*
X115232330Y-114062921D01*
X115213117Y-114048671D01*
X115195393Y-114032607D01*
X115179329Y-114014883D01*
X115165079Y-113995670D01*
X115152782Y-113975153D01*
X115142554Y-113953529D01*
X115134496Y-113931007D01*
X115128684Y-113907803D01*
X115125174Y-113884142D01*
X115124000Y-113860250D01*
X115124000Y-113372750D01*
X115125174Y-113348858D01*
X115128684Y-113325197D01*
X115134496Y-113301993D01*
X115142554Y-113279471D01*
X115152782Y-113257847D01*
X115165079Y-113237330D01*
X115179329Y-113218117D01*
X115195393Y-113200393D01*
X115213117Y-113184329D01*
X115232330Y-113170079D01*
X115252847Y-113157782D01*
X115274471Y-113147554D01*
X115296993Y-113139496D01*
X115320197Y-113133684D01*
X115343858Y-113130174D01*
X115367750Y-113129000D01*
X116280250Y-113129000D01*
X116304142Y-113130174D01*
X116304142Y-113130174D01*
G37*
D15*
X115824000Y-113616500D03*
G04 #@! TD*
D14*
G04 #@! TO.C,C2*
G36*
X118844142Y-113130174D02*
X118867803Y-113133684D01*
X118891007Y-113139496D01*
X118913529Y-113147554D01*
X118935153Y-113157782D01*
X118955670Y-113170079D01*
X118974883Y-113184329D01*
X118992607Y-113200393D01*
X119008671Y-113218117D01*
X119022921Y-113237330D01*
X119035218Y-113257847D01*
X119045446Y-113279471D01*
X119053504Y-113301993D01*
X119059316Y-113325197D01*
X119062826Y-113348858D01*
X119064000Y-113372750D01*
X119064000Y-113860250D01*
X119062826Y-113884142D01*
X119059316Y-113907803D01*
X119053504Y-113931007D01*
X119045446Y-113953529D01*
X119035218Y-113975153D01*
X119022921Y-113995670D01*
X119008671Y-114014883D01*
X118992607Y-114032607D01*
X118974883Y-114048671D01*
X118955670Y-114062921D01*
X118935153Y-114075218D01*
X118913529Y-114085446D01*
X118891007Y-114093504D01*
X118867803Y-114099316D01*
X118844142Y-114102826D01*
X118820250Y-114104000D01*
X117907750Y-114104000D01*
X117883858Y-114102826D01*
X117860197Y-114099316D01*
X117836993Y-114093504D01*
X117814471Y-114085446D01*
X117792847Y-114075218D01*
X117772330Y-114062921D01*
X117753117Y-114048671D01*
X117735393Y-114032607D01*
X117719329Y-114014883D01*
X117705079Y-113995670D01*
X117692782Y-113975153D01*
X117682554Y-113953529D01*
X117674496Y-113931007D01*
X117668684Y-113907803D01*
X117665174Y-113884142D01*
X117664000Y-113860250D01*
X117664000Y-113372750D01*
X117665174Y-113348858D01*
X117668684Y-113325197D01*
X117674496Y-113301993D01*
X117682554Y-113279471D01*
X117692782Y-113257847D01*
X117705079Y-113237330D01*
X117719329Y-113218117D01*
X117735393Y-113200393D01*
X117753117Y-113184329D01*
X117772330Y-113170079D01*
X117792847Y-113157782D01*
X117814471Y-113147554D01*
X117836993Y-113139496D01*
X117860197Y-113133684D01*
X117883858Y-113130174D01*
X117907750Y-113129000D01*
X118820250Y-113129000D01*
X118844142Y-113130174D01*
X118844142Y-113130174D01*
G37*
D15*
X118364000Y-113616500D03*
D14*
G36*
X118844142Y-115005174D02*
X118867803Y-115008684D01*
X118891007Y-115014496D01*
X118913529Y-115022554D01*
X118935153Y-115032782D01*
X118955670Y-115045079D01*
X118974883Y-115059329D01*
X118992607Y-115075393D01*
X119008671Y-115093117D01*
X119022921Y-115112330D01*
X119035218Y-115132847D01*
X119045446Y-115154471D01*
X119053504Y-115176993D01*
X119059316Y-115200197D01*
X119062826Y-115223858D01*
X119064000Y-115247750D01*
X119064000Y-115735250D01*
X119062826Y-115759142D01*
X119059316Y-115782803D01*
X119053504Y-115806007D01*
X119045446Y-115828529D01*
X119035218Y-115850153D01*
X119022921Y-115870670D01*
X119008671Y-115889883D01*
X118992607Y-115907607D01*
X118974883Y-115923671D01*
X118955670Y-115937921D01*
X118935153Y-115950218D01*
X118913529Y-115960446D01*
X118891007Y-115968504D01*
X118867803Y-115974316D01*
X118844142Y-115977826D01*
X118820250Y-115979000D01*
X117907750Y-115979000D01*
X117883858Y-115977826D01*
X117860197Y-115974316D01*
X117836993Y-115968504D01*
X117814471Y-115960446D01*
X117792847Y-115950218D01*
X117772330Y-115937921D01*
X117753117Y-115923671D01*
X117735393Y-115907607D01*
X117719329Y-115889883D01*
X117705079Y-115870670D01*
X117692782Y-115850153D01*
X117682554Y-115828529D01*
X117674496Y-115806007D01*
X117668684Y-115782803D01*
X117665174Y-115759142D01*
X117664000Y-115735250D01*
X117664000Y-115247750D01*
X117665174Y-115223858D01*
X117668684Y-115200197D01*
X117674496Y-115176993D01*
X117682554Y-115154471D01*
X117692782Y-115132847D01*
X117705079Y-115112330D01*
X117719329Y-115093117D01*
X117735393Y-115075393D01*
X117753117Y-115059329D01*
X117772330Y-115045079D01*
X117792847Y-115032782D01*
X117814471Y-115022554D01*
X117836993Y-115014496D01*
X117860197Y-115008684D01*
X117883858Y-115005174D01*
X117907750Y-115004000D01*
X118820250Y-115004000D01*
X118844142Y-115005174D01*
X118844142Y-115005174D01*
G37*
D15*
X118364000Y-115491500D03*
G04 #@! TD*
D14*
G04 #@! TO.C,C1*
G36*
X121384142Y-115005174D02*
X121407803Y-115008684D01*
X121431007Y-115014496D01*
X121453529Y-115022554D01*
X121475153Y-115032782D01*
X121495670Y-115045079D01*
X121514883Y-115059329D01*
X121532607Y-115075393D01*
X121548671Y-115093117D01*
X121562921Y-115112330D01*
X121575218Y-115132847D01*
X121585446Y-115154471D01*
X121593504Y-115176993D01*
X121599316Y-115200197D01*
X121602826Y-115223858D01*
X121604000Y-115247750D01*
X121604000Y-115735250D01*
X121602826Y-115759142D01*
X121599316Y-115782803D01*
X121593504Y-115806007D01*
X121585446Y-115828529D01*
X121575218Y-115850153D01*
X121562921Y-115870670D01*
X121548671Y-115889883D01*
X121532607Y-115907607D01*
X121514883Y-115923671D01*
X121495670Y-115937921D01*
X121475153Y-115950218D01*
X121453529Y-115960446D01*
X121431007Y-115968504D01*
X121407803Y-115974316D01*
X121384142Y-115977826D01*
X121360250Y-115979000D01*
X120447750Y-115979000D01*
X120423858Y-115977826D01*
X120400197Y-115974316D01*
X120376993Y-115968504D01*
X120354471Y-115960446D01*
X120332847Y-115950218D01*
X120312330Y-115937921D01*
X120293117Y-115923671D01*
X120275393Y-115907607D01*
X120259329Y-115889883D01*
X120245079Y-115870670D01*
X120232782Y-115850153D01*
X120222554Y-115828529D01*
X120214496Y-115806007D01*
X120208684Y-115782803D01*
X120205174Y-115759142D01*
X120204000Y-115735250D01*
X120204000Y-115247750D01*
X120205174Y-115223858D01*
X120208684Y-115200197D01*
X120214496Y-115176993D01*
X120222554Y-115154471D01*
X120232782Y-115132847D01*
X120245079Y-115112330D01*
X120259329Y-115093117D01*
X120275393Y-115075393D01*
X120293117Y-115059329D01*
X120312330Y-115045079D01*
X120332847Y-115032782D01*
X120354471Y-115022554D01*
X120376993Y-115014496D01*
X120400197Y-115008684D01*
X120423858Y-115005174D01*
X120447750Y-115004000D01*
X121360250Y-115004000D01*
X121384142Y-115005174D01*
X121384142Y-115005174D01*
G37*
D15*
X120904000Y-115491500D03*
D14*
G36*
X121384142Y-113130174D02*
X121407803Y-113133684D01*
X121431007Y-113139496D01*
X121453529Y-113147554D01*
X121475153Y-113157782D01*
X121495670Y-113170079D01*
X121514883Y-113184329D01*
X121532607Y-113200393D01*
X121548671Y-113218117D01*
X121562921Y-113237330D01*
X121575218Y-113257847D01*
X121585446Y-113279471D01*
X121593504Y-113301993D01*
X121599316Y-113325197D01*
X121602826Y-113348858D01*
X121604000Y-113372750D01*
X121604000Y-113860250D01*
X121602826Y-113884142D01*
X121599316Y-113907803D01*
X121593504Y-113931007D01*
X121585446Y-113953529D01*
X121575218Y-113975153D01*
X121562921Y-113995670D01*
X121548671Y-114014883D01*
X121532607Y-114032607D01*
X121514883Y-114048671D01*
X121495670Y-114062921D01*
X121475153Y-114075218D01*
X121453529Y-114085446D01*
X121431007Y-114093504D01*
X121407803Y-114099316D01*
X121384142Y-114102826D01*
X121360250Y-114104000D01*
X120447750Y-114104000D01*
X120423858Y-114102826D01*
X120400197Y-114099316D01*
X120376993Y-114093504D01*
X120354471Y-114085446D01*
X120332847Y-114075218D01*
X120312330Y-114062921D01*
X120293117Y-114048671D01*
X120275393Y-114032607D01*
X120259329Y-114014883D01*
X120245079Y-113995670D01*
X120232782Y-113975153D01*
X120222554Y-113953529D01*
X120214496Y-113931007D01*
X120208684Y-113907803D01*
X120205174Y-113884142D01*
X120204000Y-113860250D01*
X120204000Y-113372750D01*
X120205174Y-113348858D01*
X120208684Y-113325197D01*
X120214496Y-113301993D01*
X120222554Y-113279471D01*
X120232782Y-113257847D01*
X120245079Y-113237330D01*
X120259329Y-113218117D01*
X120275393Y-113200393D01*
X120293117Y-113184329D01*
X120312330Y-113170079D01*
X120332847Y-113157782D01*
X120354471Y-113147554D01*
X120376993Y-113139496D01*
X120400197Y-113133684D01*
X120423858Y-113130174D01*
X120447750Y-113129000D01*
X121360250Y-113129000D01*
X121384142Y-113130174D01*
X121384142Y-113130174D01*
G37*
D15*
X120904000Y-113616500D03*
G04 #@! TD*
D14*
G04 #@! TO.C,C6*
G36*
X133759142Y-128002174D02*
X133782803Y-128005684D01*
X133806007Y-128011496D01*
X133828529Y-128019554D01*
X133850153Y-128029782D01*
X133870670Y-128042079D01*
X133889883Y-128056329D01*
X133907607Y-128072393D01*
X133923671Y-128090117D01*
X133937921Y-128109330D01*
X133950218Y-128129847D01*
X133960446Y-128151471D01*
X133968504Y-128173993D01*
X133974316Y-128197197D01*
X133977826Y-128220858D01*
X133979000Y-128244750D01*
X133979000Y-128732250D01*
X133977826Y-128756142D01*
X133974316Y-128779803D01*
X133968504Y-128803007D01*
X133960446Y-128825529D01*
X133950218Y-128847153D01*
X133937921Y-128867670D01*
X133923671Y-128886883D01*
X133907607Y-128904607D01*
X133889883Y-128920671D01*
X133870670Y-128934921D01*
X133850153Y-128947218D01*
X133828529Y-128957446D01*
X133806007Y-128965504D01*
X133782803Y-128971316D01*
X133759142Y-128974826D01*
X133735250Y-128976000D01*
X132822750Y-128976000D01*
X132798858Y-128974826D01*
X132775197Y-128971316D01*
X132751993Y-128965504D01*
X132729471Y-128957446D01*
X132707847Y-128947218D01*
X132687330Y-128934921D01*
X132668117Y-128920671D01*
X132650393Y-128904607D01*
X132634329Y-128886883D01*
X132620079Y-128867670D01*
X132607782Y-128847153D01*
X132597554Y-128825529D01*
X132589496Y-128803007D01*
X132583684Y-128779803D01*
X132580174Y-128756142D01*
X132579000Y-128732250D01*
X132579000Y-128244750D01*
X132580174Y-128220858D01*
X132583684Y-128197197D01*
X132589496Y-128173993D01*
X132597554Y-128151471D01*
X132607782Y-128129847D01*
X132620079Y-128109330D01*
X132634329Y-128090117D01*
X132650393Y-128072393D01*
X132668117Y-128056329D01*
X132687330Y-128042079D01*
X132707847Y-128029782D01*
X132729471Y-128019554D01*
X132751993Y-128011496D01*
X132775197Y-128005684D01*
X132798858Y-128002174D01*
X132822750Y-128001000D01*
X133735250Y-128001000D01*
X133759142Y-128002174D01*
X133759142Y-128002174D01*
G37*
D15*
X133279000Y-128488500D03*
D14*
G36*
X133759142Y-129877174D02*
X133782803Y-129880684D01*
X133806007Y-129886496D01*
X133828529Y-129894554D01*
X133850153Y-129904782D01*
X133870670Y-129917079D01*
X133889883Y-129931329D01*
X133907607Y-129947393D01*
X133923671Y-129965117D01*
X133937921Y-129984330D01*
X133950218Y-130004847D01*
X133960446Y-130026471D01*
X133968504Y-130048993D01*
X133974316Y-130072197D01*
X133977826Y-130095858D01*
X133979000Y-130119750D01*
X133979000Y-130607250D01*
X133977826Y-130631142D01*
X133974316Y-130654803D01*
X133968504Y-130678007D01*
X133960446Y-130700529D01*
X133950218Y-130722153D01*
X133937921Y-130742670D01*
X133923671Y-130761883D01*
X133907607Y-130779607D01*
X133889883Y-130795671D01*
X133870670Y-130809921D01*
X133850153Y-130822218D01*
X133828529Y-130832446D01*
X133806007Y-130840504D01*
X133782803Y-130846316D01*
X133759142Y-130849826D01*
X133735250Y-130851000D01*
X132822750Y-130851000D01*
X132798858Y-130849826D01*
X132775197Y-130846316D01*
X132751993Y-130840504D01*
X132729471Y-130832446D01*
X132707847Y-130822218D01*
X132687330Y-130809921D01*
X132668117Y-130795671D01*
X132650393Y-130779607D01*
X132634329Y-130761883D01*
X132620079Y-130742670D01*
X132607782Y-130722153D01*
X132597554Y-130700529D01*
X132589496Y-130678007D01*
X132583684Y-130654803D01*
X132580174Y-130631142D01*
X132579000Y-130607250D01*
X132579000Y-130119750D01*
X132580174Y-130095858D01*
X132583684Y-130072197D01*
X132589496Y-130048993D01*
X132597554Y-130026471D01*
X132607782Y-130004847D01*
X132620079Y-129984330D01*
X132634329Y-129965117D01*
X132650393Y-129947393D01*
X132668117Y-129931329D01*
X132687330Y-129917079D01*
X132707847Y-129904782D01*
X132729471Y-129894554D01*
X132751993Y-129886496D01*
X132775197Y-129880684D01*
X132798858Y-129877174D01*
X132822750Y-129876000D01*
X133735250Y-129876000D01*
X133759142Y-129877174D01*
X133759142Y-129877174D01*
G37*
D15*
X133279000Y-130363500D03*
G04 #@! TD*
D10*
G04 #@! TO.C,J1*
X125984000Y-60579000D03*
D11*
X128524000Y-60579000D03*
X125984000Y-58039000D03*
X128524000Y-58039000D03*
X125984000Y-55499000D03*
X128524000Y-55499000D03*
X125984000Y-52959000D03*
X128524000Y-52959000D03*
X125984000Y-50419000D03*
X128524000Y-50419000D03*
G04 #@! TD*
D22*
G04 #@! TO.C,D8*
X132334000Y-58419000D03*
D23*
X132334000Y-60794000D03*
G04 #@! TD*
G04 #@! TO.C,D7*
X132334000Y-52539000D03*
D22*
X132334000Y-50164000D03*
G04 #@! TD*
D24*
G04 #@! TO.C,D6*
X140589000Y-87629000D03*
X140589000Y-84329000D03*
G04 #@! TD*
G04 #@! TO.C,D5*
X137414000Y-85470000D03*
X137414000Y-82170000D03*
G04 #@! TD*
G04 #@! TO.C,D4*
X140589000Y-114934000D03*
X140589000Y-111634000D03*
G04 #@! TD*
G04 #@! TO.C,D3*
X134239000Y-114934000D03*
X134239000Y-111634000D03*
G04 #@! TD*
G04 #@! TO.C,D1*
X134239000Y-98299000D03*
X134239000Y-101599000D03*
G04 #@! TD*
G04 #@! TO.C,D2*
X140589000Y-98299000D03*
X140589000Y-101599000D03*
G04 #@! TD*
D14*
G04 #@! TO.C,D9*
G36*
X112613504Y-53585204D02*
X112637773Y-53588804D01*
X112661571Y-53594765D01*
X112684671Y-53603030D01*
X112706849Y-53613520D01*
X112727893Y-53626133D01*
X112747598Y-53640747D01*
X112765777Y-53657223D01*
X112782253Y-53675402D01*
X112796867Y-53695107D01*
X112809480Y-53716151D01*
X112819970Y-53738329D01*
X112828235Y-53761429D01*
X112834196Y-53785227D01*
X112837796Y-53809496D01*
X112839000Y-53834000D01*
X112839000Y-54934000D01*
X112837796Y-54958504D01*
X112834196Y-54982773D01*
X112828235Y-55006571D01*
X112819970Y-55029671D01*
X112809480Y-55051849D01*
X112796867Y-55072893D01*
X112782253Y-55092598D01*
X112765777Y-55110777D01*
X112747598Y-55127253D01*
X112727893Y-55141867D01*
X112706849Y-55154480D01*
X112684671Y-55164970D01*
X112661571Y-55173235D01*
X112637773Y-55179196D01*
X112613504Y-55182796D01*
X112589000Y-55184000D01*
X111439000Y-55184000D01*
X111414496Y-55182796D01*
X111390227Y-55179196D01*
X111366429Y-55173235D01*
X111343329Y-55164970D01*
X111321151Y-55154480D01*
X111300107Y-55141867D01*
X111280402Y-55127253D01*
X111262223Y-55110777D01*
X111245747Y-55092598D01*
X111231133Y-55072893D01*
X111218520Y-55051849D01*
X111208030Y-55029671D01*
X111199765Y-55006571D01*
X111193804Y-54982773D01*
X111190204Y-54958504D01*
X111189000Y-54934000D01*
X111189000Y-53834000D01*
X111190204Y-53809496D01*
X111193804Y-53785227D01*
X111199765Y-53761429D01*
X111208030Y-53738329D01*
X111218520Y-53716151D01*
X111231133Y-53695107D01*
X111245747Y-53675402D01*
X111262223Y-53657223D01*
X111280402Y-53640747D01*
X111300107Y-53626133D01*
X111321151Y-53613520D01*
X111343329Y-53603030D01*
X111366429Y-53594765D01*
X111390227Y-53588804D01*
X111414496Y-53585204D01*
X111439000Y-53584000D01*
X112589000Y-53584000D01*
X112613504Y-53585204D01*
X112613504Y-53585204D01*
G37*
D16*
X112014000Y-54384000D03*
D14*
G36*
X112613504Y-50735204D02*
X112637773Y-50738804D01*
X112661571Y-50744765D01*
X112684671Y-50753030D01*
X112706849Y-50763520D01*
X112727893Y-50776133D01*
X112747598Y-50790747D01*
X112765777Y-50807223D01*
X112782253Y-50825402D01*
X112796867Y-50845107D01*
X112809480Y-50866151D01*
X112819970Y-50888329D01*
X112828235Y-50911429D01*
X112834196Y-50935227D01*
X112837796Y-50959496D01*
X112839000Y-50984000D01*
X112839000Y-52084000D01*
X112837796Y-52108504D01*
X112834196Y-52132773D01*
X112828235Y-52156571D01*
X112819970Y-52179671D01*
X112809480Y-52201849D01*
X112796867Y-52222893D01*
X112782253Y-52242598D01*
X112765777Y-52260777D01*
X112747598Y-52277253D01*
X112727893Y-52291867D01*
X112706849Y-52304480D01*
X112684671Y-52314970D01*
X112661571Y-52323235D01*
X112637773Y-52329196D01*
X112613504Y-52332796D01*
X112589000Y-52334000D01*
X111439000Y-52334000D01*
X111414496Y-52332796D01*
X111390227Y-52329196D01*
X111366429Y-52323235D01*
X111343329Y-52314970D01*
X111321151Y-52304480D01*
X111300107Y-52291867D01*
X111280402Y-52277253D01*
X111262223Y-52260777D01*
X111245747Y-52242598D01*
X111231133Y-52222893D01*
X111218520Y-52201849D01*
X111208030Y-52179671D01*
X111199765Y-52156571D01*
X111193804Y-52132773D01*
X111190204Y-52108504D01*
X111189000Y-52084000D01*
X111189000Y-50984000D01*
X111190204Y-50959496D01*
X111193804Y-50935227D01*
X111199765Y-50911429D01*
X111208030Y-50888329D01*
X111218520Y-50866151D01*
X111231133Y-50845107D01*
X111245747Y-50825402D01*
X111262223Y-50807223D01*
X111280402Y-50790747D01*
X111300107Y-50776133D01*
X111321151Y-50763520D01*
X111343329Y-50753030D01*
X111366429Y-50744765D01*
X111390227Y-50738804D01*
X111414496Y-50735204D01*
X111439000Y-50734000D01*
X112589000Y-50734000D01*
X112613504Y-50735204D01*
X112613504Y-50735204D01*
G37*
D16*
X112014000Y-51534000D03*
G04 #@! TD*
D25*
G04 #@! TO.C,RV5*
X112294000Y-138684000D03*
D18*
X119594000Y-146184010D03*
X117134000Y-146184010D03*
X114594000Y-146184010D03*
D25*
X121894000Y-138684000D03*
G04 #@! TD*
G04 #@! TO.C,RV4*
X121894000Y-118364000D03*
D18*
X114594000Y-125864010D03*
X117134000Y-125864010D03*
X119594000Y-125864010D03*
D25*
X112294000Y-118364000D03*
G04 #@! TD*
G04 #@! TO.C,RV3*
X112294000Y-98044000D03*
D18*
X119594000Y-105544010D03*
X117134000Y-105544010D03*
X114594000Y-105544010D03*
D25*
X121894000Y-98044000D03*
G04 #@! TD*
G04 #@! TO.C,RV2*
X121894000Y-77724000D03*
D18*
X114594000Y-85224010D03*
X117134000Y-85224010D03*
X119594000Y-85224010D03*
D25*
X112294000Y-77724000D03*
G04 #@! TD*
G04 #@! TO.C,RV1*
X112294000Y-57404000D03*
D18*
X119594000Y-64904010D03*
X117134000Y-64904010D03*
X114594000Y-64904010D03*
D25*
X121894000Y-57404000D03*
G04 #@! TD*
D26*
G04 #@! TO.C,U3*
X142494000Y-65786000D03*
D27*
X142494000Y-68326000D03*
X142494000Y-70866000D03*
G04 #@! TD*
D28*
G04 #@! TO.C,J-Trig1*
X137414000Y-114962200D03*
D29*
X137414000Y-118062200D03*
D30*
X137414000Y-106662200D03*
G04 #@! TD*
G04 #@! TO.C,J-Out1*
X137414000Y-120200400D03*
D29*
X137414000Y-131600400D03*
D28*
X137414000Y-128500400D03*
G04 #@! TD*
G04 #@! TO.C,J-Inv1*
X137414000Y-142064000D03*
D29*
X137414000Y-145164000D03*
D30*
X137414000Y-133764000D03*
G04 #@! TD*
G04 #@! TO.C,J-Gate1*
X137414000Y-93124000D03*
D29*
X137414000Y-104524000D03*
D28*
X137414000Y-101424000D03*
G04 #@! TD*
G04 #@! TO.C,J-CV1*
X137414000Y-87860400D03*
D29*
X137414000Y-90960400D03*
D30*
X137414000Y-79560400D03*
G04 #@! TD*
D31*
G04 #@! TO.C,U2*
X128279305Y-83406897D03*
D14*
G36*
X128650536Y-82646757D02*
X129039445Y-83035666D01*
X127908074Y-84167037D01*
X127519165Y-83778128D01*
X128650536Y-82646757D01*
X128650536Y-82646757D01*
G37*
D31*
X128844990Y-83972583D03*
D14*
G36*
X129216221Y-83212443D02*
X129605130Y-83601352D01*
X128473759Y-84732723D01*
X128084850Y-84343814D01*
X129216221Y-83212443D01*
X129216221Y-83212443D01*
G37*
D31*
X129410676Y-84538268D03*
D14*
G36*
X129781907Y-83778128D02*
X130170816Y-84167037D01*
X129039445Y-85298408D01*
X128650536Y-84909499D01*
X129781907Y-83778128D01*
X129781907Y-83778128D01*
G37*
D31*
X129976361Y-85103953D03*
D14*
G36*
X130347592Y-84343813D02*
X130736501Y-84732722D01*
X129605130Y-85864093D01*
X129216221Y-85475184D01*
X130347592Y-84343813D01*
X130347592Y-84343813D01*
G37*
D31*
X130542047Y-85669639D03*
D14*
G36*
X130913278Y-84909499D02*
X131302187Y-85298408D01*
X130170816Y-86429779D01*
X129781907Y-86040870D01*
X130913278Y-84909499D01*
X130913278Y-84909499D01*
G37*
D31*
X131107732Y-86235324D03*
D14*
G36*
X131478963Y-85475184D02*
X131867872Y-85864093D01*
X130736501Y-86995464D01*
X130347592Y-86606555D01*
X131478963Y-85475184D01*
X131478963Y-85475184D01*
G37*
D31*
X131673417Y-86801010D03*
D14*
G36*
X132044648Y-86040870D02*
X132433557Y-86429779D01*
X131302186Y-87561150D01*
X130913277Y-87172241D01*
X132044648Y-86040870D01*
X132044648Y-86040870D01*
G37*
D31*
X132239103Y-87366695D03*
D14*
G36*
X132610334Y-86606555D02*
X132999243Y-86995464D01*
X131867872Y-88126835D01*
X131478963Y-87737926D01*
X132610334Y-86606555D01*
X132610334Y-86606555D01*
G37*
D31*
X132239103Y-89417305D03*
D14*
G36*
X132999243Y-89788536D02*
X132610334Y-90177445D01*
X131478963Y-89046074D01*
X131867872Y-88657165D01*
X132999243Y-89788536D01*
X132999243Y-89788536D01*
G37*
D31*
X131673417Y-89982990D03*
D14*
G36*
X132433557Y-90354221D02*
X132044648Y-90743130D01*
X130913277Y-89611759D01*
X131302186Y-89222850D01*
X132433557Y-90354221D01*
X132433557Y-90354221D01*
G37*
D31*
X131107732Y-90548676D03*
D14*
G36*
X131867872Y-90919907D02*
X131478963Y-91308816D01*
X130347592Y-90177445D01*
X130736501Y-89788536D01*
X131867872Y-90919907D01*
X131867872Y-90919907D01*
G37*
D31*
X130542047Y-91114361D03*
D14*
G36*
X131302187Y-91485592D02*
X130913278Y-91874501D01*
X129781907Y-90743130D01*
X130170816Y-90354221D01*
X131302187Y-91485592D01*
X131302187Y-91485592D01*
G37*
D31*
X129976361Y-91680047D03*
D14*
G36*
X130736501Y-92051278D02*
X130347592Y-92440187D01*
X129216221Y-91308816D01*
X129605130Y-90919907D01*
X130736501Y-92051278D01*
X130736501Y-92051278D01*
G37*
D31*
X129410676Y-92245732D03*
D14*
G36*
X130170816Y-92616963D02*
X129781907Y-93005872D01*
X128650536Y-91874501D01*
X129039445Y-91485592D01*
X130170816Y-92616963D01*
X130170816Y-92616963D01*
G37*
D31*
X128844990Y-92811417D03*
D14*
G36*
X129605130Y-93182648D02*
X129216221Y-93571557D01*
X128084850Y-92440186D01*
X128473759Y-92051277D01*
X129605130Y-93182648D01*
X129605130Y-93182648D01*
G37*
D31*
X128279305Y-93377103D03*
D14*
G36*
X129039445Y-93748334D02*
X128650536Y-94137243D01*
X127519165Y-93005872D01*
X127908074Y-92616963D01*
X129039445Y-93748334D01*
X129039445Y-93748334D01*
G37*
D31*
X126228695Y-93377103D03*
D14*
G36*
X126599926Y-92616963D02*
X126988835Y-93005872D01*
X125857464Y-94137243D01*
X125468555Y-93748334D01*
X126599926Y-92616963D01*
X126599926Y-92616963D01*
G37*
D31*
X125663010Y-92811417D03*
D14*
G36*
X126034241Y-92051277D02*
X126423150Y-92440186D01*
X125291779Y-93571557D01*
X124902870Y-93182648D01*
X126034241Y-92051277D01*
X126034241Y-92051277D01*
G37*
D31*
X125097324Y-92245732D03*
D14*
G36*
X125468555Y-91485592D02*
X125857464Y-91874501D01*
X124726093Y-93005872D01*
X124337184Y-92616963D01*
X125468555Y-91485592D01*
X125468555Y-91485592D01*
G37*
D31*
X124531639Y-91680047D03*
D14*
G36*
X124902870Y-90919907D02*
X125291779Y-91308816D01*
X124160408Y-92440187D01*
X123771499Y-92051278D01*
X124902870Y-90919907D01*
X124902870Y-90919907D01*
G37*
D31*
X123965953Y-91114361D03*
D14*
G36*
X124337184Y-90354221D02*
X124726093Y-90743130D01*
X123594722Y-91874501D01*
X123205813Y-91485592D01*
X124337184Y-90354221D01*
X124337184Y-90354221D01*
G37*
D31*
X123400268Y-90548676D03*
D14*
G36*
X123771499Y-89788536D02*
X124160408Y-90177445D01*
X123029037Y-91308816D01*
X122640128Y-90919907D01*
X123771499Y-89788536D01*
X123771499Y-89788536D01*
G37*
D31*
X122834583Y-89982990D03*
D14*
G36*
X123205814Y-89222850D02*
X123594723Y-89611759D01*
X122463352Y-90743130D01*
X122074443Y-90354221D01*
X123205814Y-89222850D01*
X123205814Y-89222850D01*
G37*
D31*
X122268897Y-89417305D03*
D14*
G36*
X122640128Y-88657165D02*
X123029037Y-89046074D01*
X121897666Y-90177445D01*
X121508757Y-89788536D01*
X122640128Y-88657165D01*
X122640128Y-88657165D01*
G37*
D31*
X122268897Y-87366695D03*
D14*
G36*
X123029037Y-87737926D02*
X122640128Y-88126835D01*
X121508757Y-86995464D01*
X121897666Y-86606555D01*
X123029037Y-87737926D01*
X123029037Y-87737926D01*
G37*
D31*
X122834583Y-86801010D03*
D14*
G36*
X123594723Y-87172241D02*
X123205814Y-87561150D01*
X122074443Y-86429779D01*
X122463352Y-86040870D01*
X123594723Y-87172241D01*
X123594723Y-87172241D01*
G37*
D31*
X123400268Y-86235324D03*
D14*
G36*
X124160408Y-86606555D02*
X123771499Y-86995464D01*
X122640128Y-85864093D01*
X123029037Y-85475184D01*
X124160408Y-86606555D01*
X124160408Y-86606555D01*
G37*
D31*
X123965953Y-85669639D03*
D14*
G36*
X124726093Y-86040870D02*
X124337184Y-86429779D01*
X123205813Y-85298408D01*
X123594722Y-84909499D01*
X124726093Y-86040870D01*
X124726093Y-86040870D01*
G37*
D31*
X124531639Y-85103953D03*
D14*
G36*
X125291779Y-85475184D02*
X124902870Y-85864093D01*
X123771499Y-84732722D01*
X124160408Y-84343813D01*
X125291779Y-85475184D01*
X125291779Y-85475184D01*
G37*
D31*
X125097324Y-84538268D03*
D14*
G36*
X125857464Y-84909499D02*
X125468555Y-85298408D01*
X124337184Y-84167037D01*
X124726093Y-83778128D01*
X125857464Y-84909499D01*
X125857464Y-84909499D01*
G37*
D31*
X125663010Y-83972583D03*
D14*
G36*
X126423150Y-84343814D02*
X126034241Y-84732723D01*
X124902870Y-83601352D01*
X125291779Y-83212443D01*
X126423150Y-84343814D01*
X126423150Y-84343814D01*
G37*
D31*
X126228695Y-83406897D03*
D14*
G36*
X126988835Y-83778128D02*
X126599926Y-84167037D01*
X125468555Y-83035666D01*
X125857464Y-82646757D01*
X126988835Y-83778128D01*
X126988835Y-83778128D01*
G37*
G04 #@! TD*
D32*
G04 #@! TO.C,U1*
X126539000Y-128451000D03*
X126539000Y-129101000D03*
X126539000Y-129751000D03*
X126539000Y-130401000D03*
X122239000Y-130401000D03*
X122239000Y-129751000D03*
X122239000Y-129101000D03*
X122239000Y-128451000D03*
G04 #@! TD*
M02*
