G04 #@! TF.GenerationSoftware,KiCad,Pcbnew,(5.0.0)*
G04 #@! TF.CreationDate,2018-08-18T23:54:30+08:00*
G04 #@! TF.ProjectId,Envelope,456E76656C6F70652E6B696361645F70,rev?*
G04 #@! TF.SameCoordinates,Original*
G04 #@! TF.FileFunction,Copper,L1,Top,Signal*
G04 #@! TF.FilePolarity,Positive*
%FSLAX46Y46*%
G04 Gerber Fmt 4.6, Leading zero omitted, Abs format (unit mm)*
G04 Created by KiCad (PCBNEW (5.0.0)) date 08/18/18 23:54:30*
%MOMM*%
%LPD*%
G01*
G04 APERTURE LIST*
G04 #@! TA.AperFunction,ComponentPad*
%ADD10R,1.700000X1.700000*%
G04 #@! TD*
G04 #@! TA.AperFunction,ComponentPad*
%ADD11O,1.700000X1.700000*%
G04 #@! TD*
G04 #@! TA.AperFunction,ComponentPad*
%ADD12C,2.000000*%
G04 #@! TD*
G04 #@! TA.AperFunction,ComponentPad*
%ADD13R,1.800000X1.800000*%
G04 #@! TD*
G04 #@! TA.AperFunction,ComponentPad*
%ADD14C,1.800000*%
G04 #@! TD*
G04 #@! TA.AperFunction,ComponentPad*
%ADD15O,3.556000X2.032000*%
G04 #@! TD*
G04 #@! TA.AperFunction,WasherPad*
%ADD16O,3.000000X2.200000*%
G04 #@! TD*
G04 #@! TA.AperFunction,ComponentPad*
%ADD17R,2.000000X1.905000*%
G04 #@! TD*
G04 #@! TA.AperFunction,ComponentPad*
%ADD18O,2.000000X1.905000*%
G04 #@! TD*
G04 #@! TA.AperFunction,ComponentPad*
%ADD19O,2.600000X1.600000*%
G04 #@! TD*
G04 #@! TA.AperFunction,ComponentPad*
%ADD20O,2.400000X1.600000*%
G04 #@! TD*
G04 #@! TA.AperFunction,ComponentPad*
%ADD21O,2.600000X1.500000*%
G04 #@! TD*
G04 #@! TA.AperFunction,ViaPad*
%ADD22C,0.800000*%
G04 #@! TD*
G04 #@! TA.AperFunction,ViaPad*
%ADD23C,1.270000*%
G04 #@! TD*
G04 #@! TA.AperFunction,Conductor*
%ADD24C,0.508000*%
G04 #@! TD*
G04 #@! TA.AperFunction,Conductor*
%ADD25C,1.270000*%
G04 #@! TD*
G04 #@! TA.AperFunction,Conductor*
%ADD26C,0.254000*%
G04 #@! TD*
G04 APERTURE END LIST*
D10*
G04 #@! TO.P,J3,1*
G04 #@! TO.N,GND*
X112014000Y-68834000D03*
D11*
G04 #@! TO.P,J3,2*
G04 #@! TO.N,/MCU328/TXD/PD1*
X114554000Y-68834000D03*
G04 #@! TO.P,J3,3*
G04 #@! TO.N,/MCU328/RXD/PD0*
X117094000Y-68834000D03*
G04 #@! TD*
D12*
G04 #@! TO.P,SW3,2*
G04 #@! TO.N,GND*
X130429000Y-65350000D03*
G04 #@! TO.P,SW3,1*
G04 #@! TO.N,Net-(J2-Pad5)*
X130429000Y-69850000D03*
G04 #@! TO.P,SW3,2*
G04 #@! TO.N,GND*
X123929000Y-65350000D03*
G04 #@! TO.P,SW3,1*
G04 #@! TO.N,Net-(J2-Pad5)*
X123929000Y-69850000D03*
G04 #@! TD*
D10*
G04 #@! TO.P,J2,1*
G04 #@! TO.N,Net-(J2-Pad1)*
X115824000Y-100584000D03*
D11*
G04 #@! TO.P,J2,2*
G04 #@! TO.N,+5V*
X118364000Y-100584000D03*
G04 #@! TO.P,J2,3*
G04 #@! TO.N,Net-(J2-Pad3)*
X115824000Y-98044000D03*
G04 #@! TO.P,J2,4*
G04 #@! TO.N,Net-(J2-Pad4)*
X118364000Y-98044000D03*
G04 #@! TO.P,J2,5*
G04 #@! TO.N,Net-(J2-Pad5)*
X115824000Y-95504000D03*
G04 #@! TO.P,J2,6*
G04 #@! TO.N,GND*
X118364000Y-95504000D03*
G04 #@! TD*
D13*
G04 #@! TO.P,D11,1*
G04 #@! TO.N,GND*
X128524000Y-111633000D03*
D14*
G04 #@! TO.P,D11,2*
G04 #@! TO.N,Net-(D11-Pad2)*
X125984000Y-111633000D03*
G04 #@! TD*
G04 #@! TO.P,D12,2*
G04 #@! TO.N,Net-(D12-Pad2)*
X125984000Y-98044000D03*
D13*
G04 #@! TO.P,D12,1*
G04 #@! TO.N,GND*
X128524000Y-98044000D03*
G04 #@! TD*
G04 #@! TO.P,D10,1*
G04 #@! TO.N,GND*
X128524000Y-125095000D03*
D14*
G04 #@! TO.P,D10,2*
G04 #@! TO.N,Net-(D10-Pad2)*
X125984000Y-125095000D03*
G04 #@! TD*
D15*
G04 #@! TO.P,SW1,1*
G04 #@! TO.N,/MCU328/PE0*
X137414000Y-62104000D03*
G04 #@! TO.P,SW1,2*
G04 #@! TO.N,GND*
X137414000Y-57404000D03*
G04 #@! TO.P,SW1,3*
G04 #@! TO.N,/MCU328/PE1*
X137414000Y-52704000D03*
G04 #@! TD*
G04 #@! TO.P,SW2,3*
G04 #@! TO.N,/MCU328/PE3*
X137414000Y-66294000D03*
G04 #@! TO.P,SW2,2*
G04 #@! TO.N,GND*
X137414000Y-70994000D03*
G04 #@! TO.P,SW2,1*
G04 #@! TO.N,/MCU328/PE2*
X137414000Y-75694000D03*
G04 #@! TD*
D10*
G04 #@! TO.P,J1,1*
G04 #@! TO.N,Net-(D8-Pad1)*
X125984000Y-60579000D03*
D11*
G04 #@! TO.P,J1,2*
X128524000Y-60579000D03*
G04 #@! TO.P,J1,3*
G04 #@! TO.N,GND*
X125984000Y-58039000D03*
G04 #@! TO.P,J1,4*
X128524000Y-58039000D03*
G04 #@! TO.P,J1,5*
X125984000Y-55499000D03*
G04 #@! TO.P,J1,6*
X128524000Y-55499000D03*
G04 #@! TO.P,J1,7*
X125984000Y-52959000D03*
G04 #@! TO.P,J1,8*
X128524000Y-52959000D03*
G04 #@! TO.P,J1,9*
G04 #@! TO.N,Net-(D7-Pad2)*
X125984000Y-50419000D03*
G04 #@! TO.P,J1,10*
X128524000Y-50419000D03*
G04 #@! TD*
D16*
G04 #@! TO.P,RV5,*
G04 #@! TO.N,*
X112294000Y-138684000D03*
D14*
G04 #@! TO.P,RV5,1*
G04 #@! TO.N,+5V*
X119594000Y-146184010D03*
G04 #@! TO.P,RV5,2*
G04 #@! TO.N,/MCU328/PC4*
X117134000Y-146184010D03*
G04 #@! TO.P,RV5,3*
G04 #@! TO.N,GND*
X114594000Y-146184010D03*
D16*
G04 #@! TO.P,RV5,*
G04 #@! TO.N,*
X121894000Y-138684000D03*
G04 #@! TD*
G04 #@! TO.P,RV4,*
G04 #@! TO.N,*
X121894000Y-118364000D03*
D14*
G04 #@! TO.P,RV4,3*
G04 #@! TO.N,GND*
X114594000Y-125864010D03*
G04 #@! TO.P,RV4,2*
G04 #@! TO.N,/MCU328/PC3*
X117134000Y-125864010D03*
G04 #@! TO.P,RV4,1*
G04 #@! TO.N,+5V*
X119594000Y-125864010D03*
D16*
G04 #@! TO.P,RV4,*
G04 #@! TO.N,*
X112294000Y-118364000D03*
G04 #@! TD*
G04 #@! TO.P,RV3,*
G04 #@! TO.N,*
X112294000Y-98044000D03*
D14*
G04 #@! TO.P,RV3,1*
G04 #@! TO.N,+5V*
X119594000Y-105544010D03*
G04 #@! TO.P,RV3,2*
G04 #@! TO.N,/MCU328/PC2*
X117134000Y-105544010D03*
G04 #@! TO.P,RV3,3*
G04 #@! TO.N,GND*
X114594000Y-105544010D03*
D16*
G04 #@! TO.P,RV3,*
G04 #@! TO.N,*
X121894000Y-98044000D03*
G04 #@! TD*
G04 #@! TO.P,RV2,*
G04 #@! TO.N,*
X121894000Y-77724000D03*
D14*
G04 #@! TO.P,RV2,3*
G04 #@! TO.N,GND*
X114594000Y-85224010D03*
G04 #@! TO.P,RV2,2*
G04 #@! TO.N,/MCU328/PC1*
X117134000Y-85224010D03*
G04 #@! TO.P,RV2,1*
G04 #@! TO.N,+5V*
X119594000Y-85224010D03*
D16*
G04 #@! TO.P,RV2,*
G04 #@! TO.N,*
X112294000Y-77724000D03*
G04 #@! TD*
G04 #@! TO.P,RV1,*
G04 #@! TO.N,*
X112294000Y-57404000D03*
D14*
G04 #@! TO.P,RV1,1*
G04 #@! TO.N,+5V*
X119594000Y-64904010D03*
G04 #@! TO.P,RV1,2*
G04 #@! TO.N,/MCU328/PC0*
X117134000Y-64904010D03*
G04 #@! TO.P,RV1,3*
G04 #@! TO.N,GND*
X114594000Y-64904010D03*
D16*
G04 #@! TO.P,RV1,*
G04 #@! TO.N,*
X121894000Y-57404000D03*
G04 #@! TD*
D17*
G04 #@! TO.P,U3,1*
G04 #@! TO.N,+12V*
X142494000Y-65786000D03*
D18*
G04 #@! TO.P,U3,2*
G04 #@! TO.N,GND*
X142494000Y-68326000D03*
G04 #@! TO.P,U3,3*
G04 #@! TO.N,+5V*
X142494000Y-70866000D03*
G04 #@! TD*
D19*
G04 #@! TO.P,J-Trig1,TN*
G04 #@! TO.N,+5V*
X137414000Y-114962200D03*
D20*
G04 #@! TO.P,J-Trig1,S*
G04 #@! TO.N,GND*
X137414000Y-118062200D03*
D21*
G04 #@! TO.P,J-Trig1,T*
G04 #@! TO.N,Net-(J-Trig1-PadT)*
X137414000Y-106662200D03*
G04 #@! TD*
G04 #@! TO.P,J-Out1,T*
G04 #@! TO.N,Net-(J-Out1-PadT)*
X137414000Y-120200400D03*
D20*
G04 #@! TO.P,J-Out1,S*
G04 #@! TO.N,GND*
X137414000Y-131600400D03*
D19*
G04 #@! TO.P,J-Out1,TN*
G04 #@! TO.N,Net-(J-Out1-PadTN)*
X137414000Y-128500400D03*
G04 #@! TD*
G04 #@! TO.P,J-Inv1,TN*
G04 #@! TO.N,Net-(J-Inv1-PadTN)*
X137414000Y-142064000D03*
D20*
G04 #@! TO.P,J-Inv1,S*
G04 #@! TO.N,GND*
X137414000Y-145164000D03*
D21*
G04 #@! TO.P,J-Inv1,T*
G04 #@! TO.N,Net-(J-Inv1-PadT)*
X137414000Y-133764000D03*
G04 #@! TD*
G04 #@! TO.P,J-Gate1,T*
G04 #@! TO.N,Net-(J-Gate1-PadT)*
X137414000Y-93124000D03*
D20*
G04 #@! TO.P,J-Gate1,S*
G04 #@! TO.N,GND*
X137414000Y-104524000D03*
D19*
G04 #@! TO.P,J-Gate1,TN*
G04 #@! TO.N,+5V*
X137414000Y-101424000D03*
G04 #@! TD*
G04 #@! TO.P,J-CV1,TN*
G04 #@! TO.N,Net-(J-CV1-PadTN)*
X137414000Y-87860400D03*
D20*
G04 #@! TO.P,J-CV1,S*
G04 #@! TO.N,GND*
X137414000Y-90960400D03*
D21*
G04 #@! TO.P,J-CV1,T*
G04 #@! TO.N,Net-(J-CV1-PadT)*
X137414000Y-79560400D03*
G04 #@! TD*
D22*
G04 #@! TO.N,-12V*
X127127000Y-131699000D03*
X116078000Y-131699000D03*
X112776000Y-131699000D03*
X123952000Y-131699000D03*
D23*
G04 #@! TO.N,+12V*
X145542000Y-57404000D03*
X145542000Y-55880000D03*
D22*
X137541000Y-122174000D03*
G04 #@! TO.N,/MCU328/PD3*
X129032000Y-96012000D03*
X128397000Y-88138000D03*
G04 #@! TO.N,/MCU328/PD4*
X130302000Y-94996000D03*
X130355964Y-107134036D03*
X130355964Y-108916010D03*
X128828800Y-86639400D03*
G04 #@! TO.N,/MCU328/PE0*
X129159000Y-80010000D03*
X131546600Y-76352400D03*
G04 #@! TO.N,+5V*
X131826000Y-118110000D03*
X131826000Y-115824000D03*
X134239000Y-83820000D03*
X131807000Y-83820000D03*
X125857000Y-75184000D03*
X123171000Y-75184000D03*
X117602000Y-88519000D03*
X115951000Y-93599000D03*
X128905000Y-103251000D03*
X133604000Y-103251000D03*
G04 #@! TO.N,/MCU328/PD7*
X125349000Y-81661000D03*
X124637800Y-87528400D03*
G04 #@! TO.N,/MCU328/PE2*
X126111000Y-91186000D03*
X133223000Y-85344000D03*
G04 #@! TO.N,/MCU328/PE3*
X135382000Y-77978000D03*
X124587000Y-89408000D03*
G04 #@! TO.N,/MCU328/PC0*
X113030000Y-87630000D03*
X111760000Y-81661000D03*
G04 #@! TO.N,/MCU328/PC5*
X133940742Y-78314742D03*
X125685742Y-86569742D03*
G04 #@! TO.N,/MCU328/PD2*
X124460000Y-97028000D03*
X127381002Y-88900000D03*
G04 #@! TO.N,Net-(D10-Pad2)*
X124460000Y-122174000D03*
G04 #@! TO.N,Net-(J2-Pad5)*
X123952000Y-81280000D03*
X122682000Y-83566000D03*
X112014000Y-88900000D03*
X110871000Y-85217000D03*
G04 #@! TO.N,GND*
X113436400Y-89382600D03*
X113385600Y-91109800D03*
X119024400Y-88569800D03*
X130175000Y-87680800D03*
X130149600Y-88722200D03*
X120802400Y-91795600D03*
X121945400Y-91795600D03*
X127254000Y-81127600D03*
X127254000Y-82194400D03*
X130124200Y-72491600D03*
X130098800Y-74549000D03*
X116916200Y-72974200D03*
X143078200Y-86868000D03*
X134340600Y-125145800D03*
X138150600Y-135890000D03*
X127558800Y-133273800D03*
X127558800Y-134670800D03*
X121920000Y-136347200D03*
X118770400Y-136423400D03*
X141198600Y-54635400D03*
G04 #@! TD*
D24*
G04 #@! TO.N,-12V*
X113214685Y-131699000D02*
X116078000Y-131699000D01*
X112776000Y-131699000D02*
X113214685Y-131699000D01*
X123952000Y-131699000D02*
X127127000Y-131699000D01*
D25*
G04 #@! TO.N,+12V*
X145542000Y-57404000D02*
X145542000Y-55880000D01*
X145542000Y-61468000D02*
X145542000Y-57404000D01*
X145542000Y-62230000D02*
X145542000Y-61468000D01*
X142494000Y-65278000D02*
X145542000Y-62230000D01*
X142494000Y-65786000D02*
X142494000Y-65278000D01*
D24*
X143256000Y-65786000D02*
X142494000Y-65786000D01*
X145796000Y-68326000D02*
X143256000Y-65786000D01*
X137541000Y-122174000D02*
X143256000Y-122174000D01*
X145796000Y-119634000D02*
X145796000Y-68326000D01*
X143256000Y-122174000D02*
X145796000Y-119634000D01*
D26*
G04 #@! TO.N,/MCU328/PD3*
X128397000Y-88703685D02*
X128397000Y-88138000D01*
X128397000Y-95377000D02*
X128397000Y-88703685D01*
X129032000Y-96012000D02*
X128397000Y-95377000D01*
G04 #@! TO.N,/MCU328/PD4*
X130355964Y-108912036D02*
X130355964Y-108916010D01*
X130355964Y-107134036D02*
X130355964Y-108916010D01*
X129330914Y-94024914D02*
X130302000Y-94996000D01*
X129330914Y-87852714D02*
X129330914Y-94024914D01*
X128828800Y-86639400D02*
X128828800Y-87350600D01*
X128828800Y-87350600D02*
X129330914Y-87852714D01*
G04 #@! TO.N,/MCU328/PE0*
X131546600Y-76352400D02*
X131045001Y-78758999D01*
X131045001Y-78758999D02*
X130410001Y-78758999D01*
X130410001Y-78758999D02*
X129159000Y-80010000D01*
G04 #@! TO.N,+5V*
X131826000Y-118110000D02*
X131826000Y-115824000D01*
D24*
X131826000Y-83820000D02*
X131807000Y-83820000D01*
X134239000Y-83820000D02*
X131807000Y-83820000D01*
X125857000Y-75184000D02*
X125291315Y-75184000D01*
X125291315Y-75184000D02*
X123171000Y-75184000D01*
D26*
X119594000Y-86527000D02*
X119594000Y-85224010D01*
X117602000Y-88519000D02*
X119594000Y-86527000D01*
X117094000Y-94742000D02*
X115951000Y-93599000D01*
X117094000Y-99314000D02*
X117094000Y-94742000D01*
X118364000Y-100584000D02*
X117094000Y-99314000D01*
D24*
X137619000Y-101424000D02*
X137414000Y-101424000D01*
X142494000Y-70866000D02*
X145034000Y-73406000D01*
X145034000Y-73406000D02*
X145034000Y-100838000D01*
X145034000Y-100838000D02*
X142367000Y-103505000D01*
X139700000Y-103505000D02*
X137619000Y-101424000D01*
X142367000Y-103505000D02*
X139700000Y-103505000D01*
X128905000Y-103251000D02*
X133604000Y-103251000D01*
D26*
G04 #@! TO.N,/MCU328/PD7*
X124841000Y-82169000D02*
X125349000Y-81661000D01*
X124637800Y-87528400D02*
X124841000Y-82169000D01*
G04 #@! TO.N,/MCU328/PE2*
X126111000Y-88011000D02*
X126111000Y-91186000D01*
X133223000Y-85344000D02*
X128778000Y-85344000D01*
X128778000Y-85344000D02*
X126111000Y-88011000D01*
G04 #@! TO.N,/MCU328/PE3*
X135382000Y-78543685D02*
X135382000Y-77978000D01*
X124587000Y-88773000D02*
X134816315Y-78543685D01*
X124587000Y-89408000D02*
X124587000Y-88773000D01*
X134816315Y-78543685D02*
X135382000Y-78543685D01*
G04 #@! TO.N,/MCU328/PC0*
X112014000Y-86614000D02*
X113030000Y-87630000D01*
X111760000Y-81661000D02*
X112014000Y-86614000D01*
G04 #@! TO.N,/MCU328/PC5*
X126085741Y-86169743D02*
X133940742Y-78314742D01*
X125685742Y-86569742D02*
X126085741Y-86169743D01*
G04 #@! TO.N,/MCU328/PD2*
X127381002Y-94106998D02*
X127381002Y-89465685D01*
X127381002Y-89465685D02*
X127381002Y-88900000D01*
X124460000Y-97028000D02*
X127381002Y-94106998D01*
G04 #@! TO.N,Net-(D10-Pad2)*
X125084001Y-124195001D02*
X125084001Y-122798001D01*
X125984000Y-125095000D02*
X125084001Y-124195001D01*
X125084001Y-122798001D02*
X124460000Y-122174000D01*
G04 #@! TO.N,Net-(J2-Pad5)*
X123952000Y-82296000D02*
X123952000Y-81280000D01*
X122682000Y-83566000D02*
X123952000Y-82296000D01*
X110871000Y-87757000D02*
X112014000Y-88900000D01*
X110871000Y-85217000D02*
X110871000Y-87757000D01*
X123929000Y-69850000D02*
X130429000Y-69850000D01*
G04 #@! TD*
G04 #@! TO.N,GND*
G36*
X146319000Y-54860949D02*
X146261397Y-54803346D01*
X146143566Y-54754539D01*
X146037529Y-54683687D01*
X145912450Y-54658807D01*
X145794619Y-54610000D01*
X145667080Y-54610000D01*
X145542000Y-54585120D01*
X145416920Y-54610000D01*
X145289381Y-54610000D01*
X145171550Y-54658807D01*
X145046472Y-54683687D01*
X144940437Y-54754538D01*
X144822603Y-54803346D01*
X144732416Y-54893533D01*
X144626383Y-54964382D01*
X144555534Y-55070415D01*
X144465346Y-55160603D01*
X144416537Y-55278438D01*
X144345688Y-55384471D01*
X144320808Y-55509547D01*
X144272000Y-55627381D01*
X144272000Y-57656619D01*
X144272001Y-57656621D01*
X144272000Y-61342920D01*
X144272000Y-61703949D01*
X141789890Y-64186060D01*
X141494000Y-64186060D01*
X141246235Y-64235343D01*
X141036191Y-64375691D01*
X140895843Y-64585735D01*
X140846560Y-64833500D01*
X140846560Y-66738500D01*
X140895843Y-66986265D01*
X141036191Y-67196309D01*
X141241143Y-67333255D01*
X141118027Y-67459076D01*
X140903437Y-67953020D01*
X141023406Y-68199000D01*
X142367000Y-68199000D01*
X142367000Y-68179000D01*
X142621000Y-68179000D01*
X142621000Y-68199000D01*
X143964594Y-68199000D01*
X144084563Y-67953020D01*
X144022172Y-67809407D01*
X144907001Y-68694237D01*
X144907001Y-72021765D01*
X144092265Y-71207029D01*
X144160100Y-70866000D01*
X144036891Y-70246589D01*
X143686023Y-69721477D01*
X143484526Y-69586841D01*
X143869973Y-69192924D01*
X144084563Y-68698980D01*
X143964594Y-68453000D01*
X142621000Y-68453000D01*
X142621000Y-68473000D01*
X142367000Y-68473000D01*
X142367000Y-68453000D01*
X141023406Y-68453000D01*
X140903437Y-68698980D01*
X141118027Y-69192924D01*
X141503474Y-69586841D01*
X141301977Y-69721477D01*
X140951109Y-70246589D01*
X140827900Y-70866000D01*
X140951109Y-71485411D01*
X141301977Y-72010523D01*
X141827089Y-72361391D01*
X142290150Y-72453500D01*
X142697850Y-72453500D01*
X142803291Y-72432526D01*
X144145000Y-73774236D01*
X144145001Y-100469763D01*
X141998765Y-102616000D01*
X140068236Y-102616000D01*
X139294012Y-101841776D01*
X139377113Y-101424000D01*
X139265740Y-100864091D01*
X138948577Y-100389423D01*
X138473909Y-100072260D01*
X138055333Y-99989000D01*
X136772667Y-99989000D01*
X136354091Y-100072260D01*
X135879423Y-100389423D01*
X135562260Y-100864091D01*
X135450887Y-101424000D01*
X135562260Y-101983909D01*
X135879423Y-102458577D01*
X136354091Y-102775740D01*
X136772667Y-102859000D01*
X137796765Y-102859000D01*
X138062233Y-103124469D01*
X137941000Y-103089000D01*
X137541000Y-103089000D01*
X137541000Y-104397000D01*
X139083915Y-104397000D01*
X139178140Y-104225495D01*
X139353130Y-104342419D01*
X139612444Y-104394000D01*
X139612448Y-104394000D01*
X139699999Y-104411415D01*
X139787550Y-104394000D01*
X142279445Y-104394000D01*
X142367000Y-104411416D01*
X142454555Y-104394000D01*
X142454556Y-104394000D01*
X142713870Y-104342419D01*
X143007933Y-104145933D01*
X143057531Y-104071704D01*
X144907000Y-102222235D01*
X144907000Y-119265764D01*
X142887765Y-121285000D01*
X138833715Y-121285000D01*
X138962529Y-121198929D01*
X139268641Y-120740800D01*
X139376133Y-120200400D01*
X139268641Y-119660000D01*
X138962529Y-119201871D01*
X138792615Y-119088338D01*
X138918500Y-118987096D01*
X139188367Y-118494019D01*
X139205904Y-118411239D01*
X139083915Y-118189200D01*
X137541000Y-118189200D01*
X137541000Y-118209200D01*
X137287000Y-118209200D01*
X137287000Y-118189200D01*
X135744085Y-118189200D01*
X135622096Y-118411239D01*
X135639633Y-118494019D01*
X135909500Y-118987096D01*
X136035385Y-119088338D01*
X135865471Y-119201871D01*
X135559359Y-119660000D01*
X135451867Y-120200400D01*
X135559359Y-120740800D01*
X135865471Y-121198929D01*
X136323600Y-121505041D01*
X136676126Y-121575163D01*
X136663569Y-121587720D01*
X136506000Y-121968126D01*
X136506000Y-122379874D01*
X136663569Y-122760280D01*
X136954720Y-123051431D01*
X137335126Y-123209000D01*
X137746874Y-123209000D01*
X138099350Y-123063000D01*
X143168445Y-123063000D01*
X143256000Y-123080416D01*
X143343555Y-123063000D01*
X143343556Y-123063000D01*
X143602870Y-123011419D01*
X143896933Y-122814933D01*
X143946531Y-122740704D01*
X146319001Y-120368235D01*
X146319001Y-147359000D01*
X120589827Y-147359000D01*
X120895310Y-147053517D01*
X121129000Y-146489340D01*
X121129000Y-145878680D01*
X120977547Y-145513039D01*
X135622096Y-145513039D01*
X135639633Y-145595819D01*
X135909500Y-146088896D01*
X136347517Y-146441166D01*
X136887000Y-146599000D01*
X137287000Y-146599000D01*
X137287000Y-145291000D01*
X137541000Y-145291000D01*
X137541000Y-146599000D01*
X137941000Y-146599000D01*
X138480483Y-146441166D01*
X138918500Y-146088896D01*
X139188367Y-145595819D01*
X139205904Y-145513039D01*
X139083915Y-145291000D01*
X137541000Y-145291000D01*
X137287000Y-145291000D01*
X135744085Y-145291000D01*
X135622096Y-145513039D01*
X120977547Y-145513039D01*
X120895310Y-145314503D01*
X120463507Y-144882700D01*
X120299971Y-144814961D01*
X135622096Y-144814961D01*
X135744085Y-145037000D01*
X137287000Y-145037000D01*
X137287000Y-143729000D01*
X137541000Y-143729000D01*
X137541000Y-145037000D01*
X139083915Y-145037000D01*
X139205904Y-144814961D01*
X139188367Y-144732181D01*
X138918500Y-144239104D01*
X138480483Y-143886834D01*
X137941000Y-143729000D01*
X137541000Y-143729000D01*
X137287000Y-143729000D01*
X136887000Y-143729000D01*
X136347517Y-143886834D01*
X135909500Y-144239104D01*
X135639633Y-144732181D01*
X135622096Y-144814961D01*
X120299971Y-144814961D01*
X119899330Y-144649010D01*
X119288670Y-144649010D01*
X118724493Y-144882700D01*
X118364000Y-145243193D01*
X118003507Y-144882700D01*
X117439330Y-144649010D01*
X116828670Y-144649010D01*
X116264493Y-144882700D01*
X115832690Y-145314503D01*
X115824562Y-145334125D01*
X115674159Y-145283456D01*
X114773605Y-146184010D01*
X115674159Y-147084564D01*
X115824562Y-147033895D01*
X115832690Y-147053517D01*
X116138173Y-147359000D01*
X115462607Y-147359000D01*
X115494554Y-147264169D01*
X114594000Y-146363615D01*
X113693446Y-147264169D01*
X113725393Y-147359000D01*
X108189000Y-147359000D01*
X108189000Y-145943346D01*
X113047542Y-145943346D01*
X113073161Y-146553470D01*
X113257357Y-146998158D01*
X113513841Y-147084564D01*
X114414395Y-146184010D01*
X113513841Y-145283456D01*
X113257357Y-145369862D01*
X113047542Y-145943346D01*
X108189000Y-145943346D01*
X108189000Y-145103851D01*
X113693446Y-145103851D01*
X114594000Y-146004405D01*
X115494554Y-145103851D01*
X115408148Y-144847367D01*
X114834664Y-144637552D01*
X114224540Y-144663171D01*
X113779852Y-144847367D01*
X113693446Y-145103851D01*
X108189000Y-145103851D01*
X108189000Y-142064000D01*
X135450887Y-142064000D01*
X135562260Y-142623909D01*
X135879423Y-143098577D01*
X136354091Y-143415740D01*
X136772667Y-143499000D01*
X138055333Y-143499000D01*
X138473909Y-143415740D01*
X138948577Y-143098577D01*
X139265740Y-142623909D01*
X139377113Y-142064000D01*
X139265740Y-141504091D01*
X138948577Y-141029423D01*
X138473909Y-140712260D01*
X138055333Y-140629000D01*
X136772667Y-140629000D01*
X136354091Y-140712260D01*
X135879423Y-141029423D01*
X135562260Y-141504091D01*
X135450887Y-142064000D01*
X108189000Y-142064000D01*
X108189000Y-138684000D01*
X110125010Y-138684000D01*
X110259666Y-139360963D01*
X110643135Y-139934865D01*
X111217037Y-140318334D01*
X111723120Y-140419000D01*
X112864880Y-140419000D01*
X113370963Y-140318334D01*
X113944865Y-139934865D01*
X114328334Y-139360963D01*
X114462990Y-138684000D01*
X119725010Y-138684000D01*
X119859666Y-139360963D01*
X120243135Y-139934865D01*
X120817037Y-140318334D01*
X121323120Y-140419000D01*
X122464880Y-140419000D01*
X122970963Y-140318334D01*
X123544865Y-139934865D01*
X123928334Y-139360963D01*
X124062990Y-138684000D01*
X123928334Y-138007037D01*
X123544865Y-137433135D01*
X122970963Y-137049666D01*
X122464880Y-136949000D01*
X121323120Y-136949000D01*
X120817037Y-137049666D01*
X120243135Y-137433135D01*
X119859666Y-138007037D01*
X119725010Y-138684000D01*
X114462990Y-138684000D01*
X114328334Y-138007037D01*
X113944865Y-137433135D01*
X113370963Y-137049666D01*
X112864880Y-136949000D01*
X111723120Y-136949000D01*
X111217037Y-137049666D01*
X110643135Y-137433135D01*
X110259666Y-138007037D01*
X110125010Y-138684000D01*
X108189000Y-138684000D01*
X108189000Y-133764000D01*
X135451867Y-133764000D01*
X135559359Y-134304400D01*
X135865471Y-134762529D01*
X136323600Y-135068641D01*
X136727593Y-135149000D01*
X138100407Y-135149000D01*
X138504400Y-135068641D01*
X138962529Y-134762529D01*
X139268641Y-134304400D01*
X139376133Y-133764000D01*
X139268641Y-133223600D01*
X138962529Y-132765471D01*
X138775364Y-132640411D01*
X138918500Y-132525296D01*
X139188367Y-132032219D01*
X139205904Y-131949439D01*
X139083915Y-131727400D01*
X137541000Y-131727400D01*
X137541000Y-131747400D01*
X137287000Y-131747400D01*
X137287000Y-131727400D01*
X135744085Y-131727400D01*
X135622096Y-131949439D01*
X135639633Y-132032219D01*
X135909500Y-132525296D01*
X136052636Y-132640411D01*
X135865471Y-132765471D01*
X135559359Y-133223600D01*
X135451867Y-133764000D01*
X108189000Y-133764000D01*
X108189000Y-131493126D01*
X111741000Y-131493126D01*
X111741000Y-131904874D01*
X111898569Y-132285280D01*
X112189720Y-132576431D01*
X112570126Y-132734000D01*
X112981874Y-132734000D01*
X113334350Y-132588000D01*
X115519650Y-132588000D01*
X115872126Y-132734000D01*
X116283874Y-132734000D01*
X116664280Y-132576431D01*
X116955431Y-132285280D01*
X117113000Y-131904874D01*
X117113000Y-131493126D01*
X122917000Y-131493126D01*
X122917000Y-131904874D01*
X123074569Y-132285280D01*
X123365720Y-132576431D01*
X123746126Y-132734000D01*
X124157874Y-132734000D01*
X124510350Y-132588000D01*
X126568650Y-132588000D01*
X126921126Y-132734000D01*
X127332874Y-132734000D01*
X127713280Y-132576431D01*
X128004431Y-132285280D01*
X128162000Y-131904874D01*
X128162000Y-131493126D01*
X128061858Y-131251361D01*
X135622096Y-131251361D01*
X135744085Y-131473400D01*
X137287000Y-131473400D01*
X137287000Y-130165400D01*
X137541000Y-130165400D01*
X137541000Y-131473400D01*
X139083915Y-131473400D01*
X139205904Y-131251361D01*
X139188367Y-131168581D01*
X138918500Y-130675504D01*
X138480483Y-130323234D01*
X137941000Y-130165400D01*
X137541000Y-130165400D01*
X137287000Y-130165400D01*
X136887000Y-130165400D01*
X136347517Y-130323234D01*
X135909500Y-130675504D01*
X135639633Y-131168581D01*
X135622096Y-131251361D01*
X128061858Y-131251361D01*
X128004431Y-131112720D01*
X127713280Y-130821569D01*
X127332874Y-130664000D01*
X126921126Y-130664000D01*
X126568650Y-130810000D01*
X124510350Y-130810000D01*
X124157874Y-130664000D01*
X123746126Y-130664000D01*
X123365720Y-130821569D01*
X123074569Y-131112720D01*
X122917000Y-131493126D01*
X117113000Y-131493126D01*
X116955431Y-131112720D01*
X116664280Y-130821569D01*
X116283874Y-130664000D01*
X115872126Y-130664000D01*
X115519650Y-130810000D01*
X113334350Y-130810000D01*
X112981874Y-130664000D01*
X112570126Y-130664000D01*
X112189720Y-130821569D01*
X111898569Y-131112720D01*
X111741000Y-131493126D01*
X108189000Y-131493126D01*
X108189000Y-128500400D01*
X135450887Y-128500400D01*
X135562260Y-129060309D01*
X135879423Y-129534977D01*
X136354091Y-129852140D01*
X136772667Y-129935400D01*
X138055333Y-129935400D01*
X138473909Y-129852140D01*
X138948577Y-129534977D01*
X139265740Y-129060309D01*
X139377113Y-128500400D01*
X139265740Y-127940491D01*
X138948577Y-127465823D01*
X138473909Y-127148660D01*
X138055333Y-127065400D01*
X136772667Y-127065400D01*
X136354091Y-127148660D01*
X135879423Y-127465823D01*
X135562260Y-127940491D01*
X135450887Y-128500400D01*
X108189000Y-128500400D01*
X108189000Y-126944169D01*
X113693446Y-126944169D01*
X113779852Y-127200653D01*
X114353336Y-127410468D01*
X114963460Y-127384849D01*
X115408148Y-127200653D01*
X115494554Y-126944169D01*
X114594000Y-126043615D01*
X113693446Y-126944169D01*
X108189000Y-126944169D01*
X108189000Y-125623346D01*
X113047542Y-125623346D01*
X113073161Y-126233470D01*
X113257357Y-126678158D01*
X113513841Y-126764564D01*
X114414395Y-125864010D01*
X114773605Y-125864010D01*
X115674159Y-126764564D01*
X115824562Y-126713895D01*
X115832690Y-126733517D01*
X116264493Y-127165320D01*
X116828670Y-127399010D01*
X117439330Y-127399010D01*
X118003507Y-127165320D01*
X118364000Y-126804827D01*
X118724493Y-127165320D01*
X119288670Y-127399010D01*
X119899330Y-127399010D01*
X120463507Y-127165320D01*
X120895310Y-126733517D01*
X121129000Y-126169340D01*
X121129000Y-125558680D01*
X120895310Y-124994503D01*
X120463507Y-124562700D01*
X119899330Y-124329010D01*
X119288670Y-124329010D01*
X118724493Y-124562700D01*
X118364000Y-124923193D01*
X118003507Y-124562700D01*
X117439330Y-124329010D01*
X116828670Y-124329010D01*
X116264493Y-124562700D01*
X115832690Y-124994503D01*
X115824562Y-125014125D01*
X115674159Y-124963456D01*
X114773605Y-125864010D01*
X114414395Y-125864010D01*
X113513841Y-124963456D01*
X113257357Y-125049862D01*
X113047542Y-125623346D01*
X108189000Y-125623346D01*
X108189000Y-124783851D01*
X113693446Y-124783851D01*
X114594000Y-125684405D01*
X115494554Y-124783851D01*
X115408148Y-124527367D01*
X114834664Y-124317552D01*
X114224540Y-124343171D01*
X113779852Y-124527367D01*
X113693446Y-124783851D01*
X108189000Y-124783851D01*
X108189000Y-121968126D01*
X123425000Y-121968126D01*
X123425000Y-122379874D01*
X123582569Y-122760280D01*
X123873720Y-123051431D01*
X124254126Y-123209000D01*
X124322002Y-123209000D01*
X124322001Y-124119957D01*
X124307074Y-124195001D01*
X124322001Y-124270044D01*
X124322001Y-124270048D01*
X124366213Y-124492317D01*
X124493352Y-124682595D01*
X124449000Y-124789670D01*
X124449000Y-125400330D01*
X124682690Y-125964507D01*
X125114493Y-126396310D01*
X125678670Y-126630000D01*
X126289330Y-126630000D01*
X126853507Y-126396310D01*
X127029861Y-126219956D01*
X127085673Y-126354699D01*
X127264302Y-126533327D01*
X127497691Y-126630000D01*
X128238250Y-126630000D01*
X128397000Y-126471250D01*
X128397000Y-125222000D01*
X128651000Y-125222000D01*
X128651000Y-126471250D01*
X128809750Y-126630000D01*
X129550309Y-126630000D01*
X129783698Y-126533327D01*
X129962327Y-126354699D01*
X130059000Y-126121310D01*
X130059000Y-125380750D01*
X129900250Y-125222000D01*
X128651000Y-125222000D01*
X128397000Y-125222000D01*
X128377000Y-125222000D01*
X128377000Y-124968000D01*
X128397000Y-124968000D01*
X128397000Y-123718750D01*
X128651000Y-123718750D01*
X128651000Y-124968000D01*
X129900250Y-124968000D01*
X130059000Y-124809250D01*
X130059000Y-124068690D01*
X129962327Y-123835301D01*
X129783698Y-123656673D01*
X129550309Y-123560000D01*
X128809750Y-123560000D01*
X128651000Y-123718750D01*
X128397000Y-123718750D01*
X128238250Y-123560000D01*
X127497691Y-123560000D01*
X127264302Y-123656673D01*
X127085673Y-123835301D01*
X127029861Y-123970044D01*
X126853507Y-123793690D01*
X126289330Y-123560000D01*
X125846001Y-123560000D01*
X125846001Y-122873048D01*
X125860929Y-122798001D01*
X125846001Y-122722953D01*
X125801789Y-122500684D01*
X125633372Y-122248630D01*
X125569750Y-122206119D01*
X125495000Y-122131369D01*
X125495000Y-121968126D01*
X125337431Y-121587720D01*
X125046280Y-121296569D01*
X124665874Y-121139000D01*
X124254126Y-121139000D01*
X123873720Y-121296569D01*
X123582569Y-121587720D01*
X123425000Y-121968126D01*
X108189000Y-121968126D01*
X108189000Y-118364000D01*
X110125010Y-118364000D01*
X110259666Y-119040963D01*
X110643135Y-119614865D01*
X111217037Y-119998334D01*
X111723120Y-120099000D01*
X112864880Y-120099000D01*
X113370963Y-119998334D01*
X113944865Y-119614865D01*
X114328334Y-119040963D01*
X114462990Y-118364000D01*
X119725010Y-118364000D01*
X119859666Y-119040963D01*
X120243135Y-119614865D01*
X120817037Y-119998334D01*
X121323120Y-120099000D01*
X122464880Y-120099000D01*
X122970963Y-119998334D01*
X123544865Y-119614865D01*
X123928334Y-119040963D01*
X124062990Y-118364000D01*
X123928334Y-117687037D01*
X123544865Y-117113135D01*
X122970963Y-116729666D01*
X122464880Y-116629000D01*
X121323120Y-116629000D01*
X120817037Y-116729666D01*
X120243135Y-117113135D01*
X119859666Y-117687037D01*
X119725010Y-118364000D01*
X114462990Y-118364000D01*
X114328334Y-117687037D01*
X113944865Y-117113135D01*
X113370963Y-116729666D01*
X112864880Y-116629000D01*
X111723120Y-116629000D01*
X111217037Y-116729666D01*
X110643135Y-117113135D01*
X110259666Y-117687037D01*
X110125010Y-118364000D01*
X108189000Y-118364000D01*
X108189000Y-115618126D01*
X130791000Y-115618126D01*
X130791000Y-116029874D01*
X130948569Y-116410280D01*
X131064001Y-116525712D01*
X131064000Y-117408289D01*
X130948569Y-117523720D01*
X130791000Y-117904126D01*
X130791000Y-118315874D01*
X130948569Y-118696280D01*
X131239720Y-118987431D01*
X131620126Y-119145000D01*
X132031874Y-119145000D01*
X132412280Y-118987431D01*
X132703431Y-118696280D01*
X132861000Y-118315874D01*
X132861000Y-117904126D01*
X132781900Y-117713161D01*
X135622096Y-117713161D01*
X135744085Y-117935200D01*
X137287000Y-117935200D01*
X137287000Y-116627200D01*
X137541000Y-116627200D01*
X137541000Y-117935200D01*
X139083915Y-117935200D01*
X139205904Y-117713161D01*
X139188367Y-117630381D01*
X138918500Y-117137304D01*
X138480483Y-116785034D01*
X137941000Y-116627200D01*
X137541000Y-116627200D01*
X137287000Y-116627200D01*
X136887000Y-116627200D01*
X136347517Y-116785034D01*
X135909500Y-117137304D01*
X135639633Y-117630381D01*
X135622096Y-117713161D01*
X132781900Y-117713161D01*
X132703431Y-117523720D01*
X132588000Y-117408289D01*
X132588000Y-116525711D01*
X132703431Y-116410280D01*
X132861000Y-116029874D01*
X132861000Y-115618126D01*
X132703431Y-115237720D01*
X132427911Y-114962200D01*
X135450887Y-114962200D01*
X135562260Y-115522109D01*
X135879423Y-115996777D01*
X136354091Y-116313940D01*
X136772667Y-116397200D01*
X138055333Y-116397200D01*
X138473909Y-116313940D01*
X138948577Y-115996777D01*
X139265740Y-115522109D01*
X139377113Y-114962200D01*
X139265740Y-114402291D01*
X138948577Y-113927623D01*
X138473909Y-113610460D01*
X138055333Y-113527200D01*
X136772667Y-113527200D01*
X136354091Y-113610460D01*
X135879423Y-113927623D01*
X135562260Y-114402291D01*
X135450887Y-114962200D01*
X132427911Y-114962200D01*
X132412280Y-114946569D01*
X132031874Y-114789000D01*
X131620126Y-114789000D01*
X131239720Y-114946569D01*
X130948569Y-115237720D01*
X130791000Y-115618126D01*
X108189000Y-115618126D01*
X108189000Y-111327670D01*
X124449000Y-111327670D01*
X124449000Y-111938330D01*
X124682690Y-112502507D01*
X125114493Y-112934310D01*
X125678670Y-113168000D01*
X126289330Y-113168000D01*
X126853507Y-112934310D01*
X127029861Y-112757956D01*
X127085673Y-112892699D01*
X127264302Y-113071327D01*
X127497691Y-113168000D01*
X128238250Y-113168000D01*
X128397000Y-113009250D01*
X128397000Y-111760000D01*
X128651000Y-111760000D01*
X128651000Y-113009250D01*
X128809750Y-113168000D01*
X129550309Y-113168000D01*
X129783698Y-113071327D01*
X129962327Y-112892699D01*
X130059000Y-112659310D01*
X130059000Y-111918750D01*
X129900250Y-111760000D01*
X128651000Y-111760000D01*
X128397000Y-111760000D01*
X128377000Y-111760000D01*
X128377000Y-111506000D01*
X128397000Y-111506000D01*
X128397000Y-110256750D01*
X128651000Y-110256750D01*
X128651000Y-111506000D01*
X129900250Y-111506000D01*
X130059000Y-111347250D01*
X130059000Y-110606690D01*
X129962327Y-110373301D01*
X129783698Y-110194673D01*
X129550309Y-110098000D01*
X128809750Y-110098000D01*
X128651000Y-110256750D01*
X128397000Y-110256750D01*
X128238250Y-110098000D01*
X127497691Y-110098000D01*
X127264302Y-110194673D01*
X127085673Y-110373301D01*
X127029861Y-110508044D01*
X126853507Y-110331690D01*
X126289330Y-110098000D01*
X125678670Y-110098000D01*
X125114493Y-110331690D01*
X124682690Y-110763493D01*
X124449000Y-111327670D01*
X108189000Y-111327670D01*
X108189000Y-106624169D01*
X113693446Y-106624169D01*
X113779852Y-106880653D01*
X114353336Y-107090468D01*
X114963460Y-107064849D01*
X115408148Y-106880653D01*
X115494554Y-106624169D01*
X114594000Y-105723615D01*
X113693446Y-106624169D01*
X108189000Y-106624169D01*
X108189000Y-105303346D01*
X113047542Y-105303346D01*
X113073161Y-105913470D01*
X113257357Y-106358158D01*
X113513841Y-106444564D01*
X114414395Y-105544010D01*
X114773605Y-105544010D01*
X115674159Y-106444564D01*
X115824562Y-106393895D01*
X115832690Y-106413517D01*
X116264493Y-106845320D01*
X116828670Y-107079010D01*
X117439330Y-107079010D01*
X118003507Y-106845320D01*
X118364000Y-106484827D01*
X118724493Y-106845320D01*
X119288670Y-107079010D01*
X119899330Y-107079010D01*
X120263508Y-106928162D01*
X129320964Y-106928162D01*
X129320964Y-107339910D01*
X129478533Y-107720316D01*
X129593964Y-107835747D01*
X129593965Y-108214298D01*
X129478533Y-108329730D01*
X129320964Y-108710136D01*
X129320964Y-109121884D01*
X129478533Y-109502290D01*
X129769684Y-109793441D01*
X130150090Y-109951010D01*
X130561838Y-109951010D01*
X130942244Y-109793441D01*
X131233395Y-109502290D01*
X131390964Y-109121884D01*
X131390964Y-108710136D01*
X131233395Y-108329730D01*
X131117964Y-108214299D01*
X131117964Y-107835747D01*
X131233395Y-107720316D01*
X131390964Y-107339910D01*
X131390964Y-106928162D01*
X131280800Y-106662200D01*
X135451867Y-106662200D01*
X135559359Y-107202600D01*
X135865471Y-107660729D01*
X136323600Y-107966841D01*
X136727593Y-108047200D01*
X138100407Y-108047200D01*
X138504400Y-107966841D01*
X138962529Y-107660729D01*
X139268641Y-107202600D01*
X139376133Y-106662200D01*
X139268641Y-106121800D01*
X138962529Y-105663671D01*
X138792615Y-105550138D01*
X138918500Y-105448896D01*
X139188367Y-104955819D01*
X139205904Y-104873039D01*
X139083915Y-104651000D01*
X137541000Y-104651000D01*
X137541000Y-104671000D01*
X137287000Y-104671000D01*
X137287000Y-104651000D01*
X135744085Y-104651000D01*
X135622096Y-104873039D01*
X135639633Y-104955819D01*
X135909500Y-105448896D01*
X136035385Y-105550138D01*
X135865471Y-105663671D01*
X135559359Y-106121800D01*
X135451867Y-106662200D01*
X131280800Y-106662200D01*
X131233395Y-106547756D01*
X130942244Y-106256605D01*
X130561838Y-106099036D01*
X130150090Y-106099036D01*
X129769684Y-106256605D01*
X129478533Y-106547756D01*
X129320964Y-106928162D01*
X120263508Y-106928162D01*
X120463507Y-106845320D01*
X120895310Y-106413517D01*
X121129000Y-105849340D01*
X121129000Y-105238680D01*
X120895310Y-104674503D01*
X120463507Y-104242700D01*
X119899330Y-104009010D01*
X119288670Y-104009010D01*
X118724493Y-104242700D01*
X118364000Y-104603193D01*
X118003507Y-104242700D01*
X117439330Y-104009010D01*
X116828670Y-104009010D01*
X116264493Y-104242700D01*
X115832690Y-104674503D01*
X115824562Y-104694125D01*
X115674159Y-104643456D01*
X114773605Y-105544010D01*
X114414395Y-105544010D01*
X113513841Y-104643456D01*
X113257357Y-104729862D01*
X113047542Y-105303346D01*
X108189000Y-105303346D01*
X108189000Y-104463851D01*
X113693446Y-104463851D01*
X114594000Y-105364405D01*
X115494554Y-104463851D01*
X115408148Y-104207367D01*
X114834664Y-103997552D01*
X114224540Y-104023171D01*
X113779852Y-104207367D01*
X113693446Y-104463851D01*
X108189000Y-104463851D01*
X108189000Y-103045126D01*
X127870000Y-103045126D01*
X127870000Y-103456874D01*
X128027569Y-103837280D01*
X128318720Y-104128431D01*
X128699126Y-104286000D01*
X129110874Y-104286000D01*
X129463350Y-104140000D01*
X133045650Y-104140000D01*
X133398126Y-104286000D01*
X133809874Y-104286000D01*
X134077946Y-104174961D01*
X135622096Y-104174961D01*
X135744085Y-104397000D01*
X137287000Y-104397000D01*
X137287000Y-103089000D01*
X136887000Y-103089000D01*
X136347517Y-103246834D01*
X135909500Y-103599104D01*
X135639633Y-104092181D01*
X135622096Y-104174961D01*
X134077946Y-104174961D01*
X134190280Y-104128431D01*
X134481431Y-103837280D01*
X134639000Y-103456874D01*
X134639000Y-103045126D01*
X134481431Y-102664720D01*
X134190280Y-102373569D01*
X133809874Y-102216000D01*
X133398126Y-102216000D01*
X133045650Y-102362000D01*
X129463350Y-102362000D01*
X129110874Y-102216000D01*
X128699126Y-102216000D01*
X128318720Y-102373569D01*
X128027569Y-102664720D01*
X127870000Y-103045126D01*
X108189000Y-103045126D01*
X108189000Y-98044000D01*
X110125010Y-98044000D01*
X110259666Y-98720963D01*
X110643135Y-99294865D01*
X111217037Y-99678334D01*
X111723120Y-99779000D01*
X112864880Y-99779000D01*
X113370963Y-99678334D01*
X113944865Y-99294865D01*
X114328334Y-98720963D01*
X114386449Y-98428799D01*
X114425161Y-98623418D01*
X114753375Y-99114625D01*
X114771619Y-99126816D01*
X114726235Y-99135843D01*
X114516191Y-99276191D01*
X114375843Y-99486235D01*
X114326560Y-99734000D01*
X114326560Y-101434000D01*
X114375843Y-101681765D01*
X114516191Y-101891809D01*
X114726235Y-102032157D01*
X114974000Y-102081440D01*
X116674000Y-102081440D01*
X116921765Y-102032157D01*
X117131809Y-101891809D01*
X117272157Y-101681765D01*
X117281184Y-101636381D01*
X117293375Y-101654625D01*
X117784582Y-101982839D01*
X118217744Y-102069000D01*
X118510256Y-102069000D01*
X118943418Y-101982839D01*
X119434625Y-101654625D01*
X119762839Y-101163418D01*
X119878092Y-100584000D01*
X119762839Y-100004582D01*
X119434625Y-99513375D01*
X119136239Y-99314000D01*
X119434625Y-99114625D01*
X119762839Y-98623418D01*
X119801551Y-98428799D01*
X119859666Y-98720963D01*
X120243135Y-99294865D01*
X120817037Y-99678334D01*
X121323120Y-99779000D01*
X122464880Y-99779000D01*
X122970963Y-99678334D01*
X123544865Y-99294865D01*
X123928334Y-98720963D01*
X124062990Y-98044000D01*
X124049947Y-97978426D01*
X124254126Y-98063000D01*
X124449000Y-98063000D01*
X124449000Y-98349330D01*
X124682690Y-98913507D01*
X125114493Y-99345310D01*
X125678670Y-99579000D01*
X126289330Y-99579000D01*
X126853507Y-99345310D01*
X127029861Y-99168956D01*
X127085673Y-99303699D01*
X127264302Y-99482327D01*
X127497691Y-99579000D01*
X128238250Y-99579000D01*
X128397000Y-99420250D01*
X128397000Y-98171000D01*
X128651000Y-98171000D01*
X128651000Y-99420250D01*
X128809750Y-99579000D01*
X129550309Y-99579000D01*
X129783698Y-99482327D01*
X129962327Y-99303699D01*
X130059000Y-99070310D01*
X130059000Y-98329750D01*
X129900250Y-98171000D01*
X128651000Y-98171000D01*
X128397000Y-98171000D01*
X128377000Y-98171000D01*
X128377000Y-97917000D01*
X128397000Y-97917000D01*
X128397000Y-97897000D01*
X128651000Y-97897000D01*
X128651000Y-97917000D01*
X129900250Y-97917000D01*
X130059000Y-97758250D01*
X130059000Y-97017690D01*
X129962327Y-96784301D01*
X129842868Y-96664843D01*
X129909431Y-96598280D01*
X130067000Y-96217874D01*
X130067000Y-96018936D01*
X130096126Y-96031000D01*
X130507874Y-96031000D01*
X130888280Y-95873431D01*
X131179431Y-95582280D01*
X131337000Y-95201874D01*
X131337000Y-94790126D01*
X131179431Y-94409720D01*
X130888280Y-94118569D01*
X130507874Y-93961000D01*
X130344630Y-93961000D01*
X130092914Y-93709284D01*
X130092914Y-93124000D01*
X135451867Y-93124000D01*
X135559359Y-93664400D01*
X135865471Y-94122529D01*
X136323600Y-94428641D01*
X136727593Y-94509000D01*
X138100407Y-94509000D01*
X138504400Y-94428641D01*
X138962529Y-94122529D01*
X139268641Y-93664400D01*
X139376133Y-93124000D01*
X139268641Y-92583600D01*
X138962529Y-92125471D01*
X138775364Y-92000411D01*
X138918500Y-91885296D01*
X139188367Y-91392219D01*
X139205904Y-91309439D01*
X139083915Y-91087400D01*
X137541000Y-91087400D01*
X137541000Y-91107400D01*
X137287000Y-91107400D01*
X137287000Y-91087400D01*
X135744085Y-91087400D01*
X135622096Y-91309439D01*
X135639633Y-91392219D01*
X135909500Y-91885296D01*
X136052636Y-92000411D01*
X135865471Y-92125471D01*
X135559359Y-92583600D01*
X135451867Y-93124000D01*
X130092914Y-93124000D01*
X130092914Y-90611361D01*
X135622096Y-90611361D01*
X135744085Y-90833400D01*
X137287000Y-90833400D01*
X137287000Y-89525400D01*
X137541000Y-89525400D01*
X137541000Y-90833400D01*
X139083915Y-90833400D01*
X139205904Y-90611361D01*
X139188367Y-90528581D01*
X138918500Y-90035504D01*
X138480483Y-89683234D01*
X137941000Y-89525400D01*
X137541000Y-89525400D01*
X137287000Y-89525400D01*
X136887000Y-89525400D01*
X136347517Y-89683234D01*
X135909500Y-90035504D01*
X135639633Y-90528581D01*
X135622096Y-90611361D01*
X130092914Y-90611361D01*
X130092914Y-87927756D01*
X130106311Y-87860400D01*
X135450887Y-87860400D01*
X135562260Y-88420309D01*
X135879423Y-88894977D01*
X136354091Y-89212140D01*
X136772667Y-89295400D01*
X138055333Y-89295400D01*
X138473909Y-89212140D01*
X138948577Y-88894977D01*
X139265740Y-88420309D01*
X139377113Y-87860400D01*
X139265740Y-87300491D01*
X138948577Y-86825823D01*
X138473909Y-86508660D01*
X138055333Y-86425400D01*
X136772667Y-86425400D01*
X136354091Y-86508660D01*
X135879423Y-86825823D01*
X135562260Y-87300491D01*
X135450887Y-87860400D01*
X130106311Y-87860400D01*
X130107841Y-87852713D01*
X130092914Y-87777670D01*
X130092914Y-87777666D01*
X130048702Y-87555397D01*
X129986049Y-87461629D01*
X129922796Y-87366965D01*
X129880285Y-87303343D01*
X129816663Y-87260833D01*
X129728280Y-87172449D01*
X129863800Y-86845274D01*
X129863800Y-86433526D01*
X129728135Y-86106000D01*
X132521289Y-86106000D01*
X132636720Y-86221431D01*
X133017126Y-86379000D01*
X133428874Y-86379000D01*
X133809280Y-86221431D01*
X134100431Y-85930280D01*
X134258000Y-85549874D01*
X134258000Y-85138126D01*
X134140726Y-84855000D01*
X134444874Y-84855000D01*
X134825280Y-84697431D01*
X135116431Y-84406280D01*
X135274000Y-84025874D01*
X135274000Y-83614126D01*
X135116431Y-83233720D01*
X134825280Y-82942569D01*
X134444874Y-82785000D01*
X134033126Y-82785000D01*
X133680650Y-82931000D01*
X132365350Y-82931000D01*
X132012874Y-82785000D01*
X131652631Y-82785000D01*
X135131946Y-79305685D01*
X135306952Y-79305685D01*
X135382000Y-79320613D01*
X135457048Y-79305685D01*
X135504407Y-79296265D01*
X135451867Y-79560400D01*
X135559359Y-80100800D01*
X135865471Y-80558929D01*
X136323600Y-80865041D01*
X136727593Y-80945400D01*
X138100407Y-80945400D01*
X138504400Y-80865041D01*
X138962529Y-80558929D01*
X139268641Y-80100800D01*
X139376133Y-79560400D01*
X139268641Y-79020000D01*
X138962529Y-78561871D01*
X138504400Y-78255759D01*
X138100407Y-78175400D01*
X136727593Y-78175400D01*
X136392937Y-78241967D01*
X136417000Y-78183874D01*
X136417000Y-77772126D01*
X136259431Y-77391720D01*
X136144011Y-77276300D01*
X136489391Y-77345000D01*
X138338609Y-77345000D01*
X138820188Y-77249208D01*
X139366305Y-76884305D01*
X139731208Y-76338188D01*
X139859345Y-75694000D01*
X139731208Y-75049812D01*
X139366305Y-74503695D01*
X138820188Y-74138792D01*
X138338609Y-74043000D01*
X136489391Y-74043000D01*
X136007812Y-74138792D01*
X135461695Y-74503695D01*
X135096792Y-75049812D01*
X134968655Y-75694000D01*
X135096792Y-76338188D01*
X135461695Y-76884305D01*
X135549538Y-76943000D01*
X135176126Y-76943000D01*
X134795720Y-77100569D01*
X134504569Y-77391720D01*
X134491738Y-77422696D01*
X134146616Y-77279742D01*
X133734868Y-77279742D01*
X133354462Y-77437311D01*
X133063311Y-77728462D01*
X132905742Y-78108868D01*
X132905742Y-78272111D01*
X125643112Y-85534742D01*
X125479868Y-85534742D01*
X125475873Y-85536397D01*
X125584024Y-82683926D01*
X125935280Y-82538431D01*
X126226431Y-82247280D01*
X126384000Y-81866874D01*
X126384000Y-81455126D01*
X126226431Y-81074720D01*
X125935280Y-80783569D01*
X125554874Y-80626000D01*
X125143126Y-80626000D01*
X124851428Y-80746825D01*
X124829431Y-80693720D01*
X124538280Y-80402569D01*
X124157874Y-80245000D01*
X123746126Y-80245000D01*
X123365720Y-80402569D01*
X123074569Y-80693720D01*
X122917000Y-81074126D01*
X122917000Y-81485874D01*
X123074569Y-81866280D01*
X123189329Y-81981040D01*
X122639370Y-82531000D01*
X122476126Y-82531000D01*
X122095720Y-82688569D01*
X121804569Y-82979720D01*
X121647000Y-83360126D01*
X121647000Y-83771874D01*
X121804569Y-84152280D01*
X122095720Y-84443431D01*
X122476126Y-84601000D01*
X122887874Y-84601000D01*
X123268280Y-84443431D01*
X123559431Y-84152280D01*
X123717000Y-83771874D01*
X123717000Y-83608630D01*
X124035963Y-83289667D01*
X123902885Y-86799604D01*
X123760369Y-86942120D01*
X123602800Y-87322526D01*
X123602800Y-87734274D01*
X123760369Y-88114680D01*
X123970213Y-88324524D01*
X123869212Y-88475683D01*
X123825000Y-88697952D01*
X123825000Y-88697957D01*
X123822931Y-88708358D01*
X123709569Y-88821720D01*
X123552000Y-89202126D01*
X123552000Y-89613874D01*
X123709569Y-89994280D01*
X124000720Y-90285431D01*
X124381126Y-90443000D01*
X124792874Y-90443000D01*
X125173280Y-90285431D01*
X125349001Y-90109710D01*
X125349001Y-90484288D01*
X125233569Y-90599720D01*
X125076000Y-90980126D01*
X125076000Y-91391874D01*
X125233569Y-91772280D01*
X125524720Y-92063431D01*
X125905126Y-92221000D01*
X126316874Y-92221000D01*
X126619002Y-92095855D01*
X126619002Y-93791367D01*
X124417370Y-95993000D01*
X124254126Y-95993000D01*
X123873720Y-96150569D01*
X123582569Y-96441720D01*
X123460389Y-96736690D01*
X122970963Y-96409666D01*
X122464880Y-96309000D01*
X121323120Y-96309000D01*
X120817037Y-96409666D01*
X120243135Y-96793135D01*
X119859666Y-97367037D01*
X119801551Y-97659201D01*
X119762839Y-97464582D01*
X119434625Y-96973375D01*
X119115522Y-96760157D01*
X119245358Y-96699183D01*
X119635645Y-96270924D01*
X119805476Y-95860890D01*
X119684155Y-95631000D01*
X118491000Y-95631000D01*
X118491000Y-95651000D01*
X118237000Y-95651000D01*
X118237000Y-95631000D01*
X118217000Y-95631000D01*
X118217000Y-95377000D01*
X118237000Y-95377000D01*
X118237000Y-94183181D01*
X118491000Y-94183181D01*
X118491000Y-95377000D01*
X119684155Y-95377000D01*
X119805476Y-95147110D01*
X119635645Y-94737076D01*
X119245358Y-94308817D01*
X118720892Y-94062514D01*
X118491000Y-94183181D01*
X118237000Y-94183181D01*
X118007108Y-94062514D01*
X117664073Y-94223612D01*
X117643371Y-94192629D01*
X117579749Y-94150118D01*
X116986000Y-93556370D01*
X116986000Y-93393126D01*
X116828431Y-93012720D01*
X116537280Y-92721569D01*
X116156874Y-92564000D01*
X115745126Y-92564000D01*
X115364720Y-92721569D01*
X115073569Y-93012720D01*
X114916000Y-93393126D01*
X114916000Y-93804874D01*
X115073569Y-94185280D01*
X115094039Y-94205750D01*
X114753375Y-94433375D01*
X114425161Y-94924582D01*
X114309908Y-95504000D01*
X114425161Y-96083418D01*
X114753375Y-96574625D01*
X115051761Y-96774000D01*
X114753375Y-96973375D01*
X114425161Y-97464582D01*
X114386449Y-97659201D01*
X114328334Y-97367037D01*
X113944865Y-96793135D01*
X113370963Y-96409666D01*
X112864880Y-96309000D01*
X111723120Y-96309000D01*
X111217037Y-96409666D01*
X110643135Y-96793135D01*
X110259666Y-97367037D01*
X110125010Y-98044000D01*
X108189000Y-98044000D01*
X108189000Y-85011126D01*
X109836000Y-85011126D01*
X109836000Y-85422874D01*
X109993569Y-85803280D01*
X110109000Y-85918711D01*
X110109001Y-87681952D01*
X110094073Y-87757000D01*
X110153213Y-88054317D01*
X110273546Y-88234408D01*
X110321630Y-88306371D01*
X110385251Y-88348881D01*
X110979000Y-88942631D01*
X110979000Y-89105874D01*
X111136569Y-89486280D01*
X111427720Y-89777431D01*
X111808126Y-89935000D01*
X112219874Y-89935000D01*
X112600280Y-89777431D01*
X112891431Y-89486280D01*
X113049000Y-89105874D01*
X113049000Y-88694126D01*
X113036936Y-88665000D01*
X113235874Y-88665000D01*
X113616280Y-88507431D01*
X113907431Y-88216280D01*
X114065000Y-87835874D01*
X114065000Y-87424126D01*
X113907431Y-87043720D01*
X113616280Y-86752569D01*
X113235874Y-86595000D01*
X113072631Y-86595000D01*
X112781800Y-86304169D01*
X113693446Y-86304169D01*
X113779852Y-86560653D01*
X114353336Y-86770468D01*
X114963460Y-86744849D01*
X115408148Y-86560653D01*
X115494554Y-86304169D01*
X114594000Y-85403615D01*
X113693446Y-86304169D01*
X112781800Y-86304169D01*
X112759994Y-86282364D01*
X112693378Y-84983346D01*
X113047542Y-84983346D01*
X113073161Y-85593470D01*
X113257357Y-86038158D01*
X113513841Y-86124564D01*
X114414395Y-85224010D01*
X114773605Y-85224010D01*
X115674159Y-86124564D01*
X115824562Y-86073895D01*
X115832690Y-86093517D01*
X116264493Y-86525320D01*
X116828670Y-86759010D01*
X117439330Y-86759010D01*
X118003507Y-86525320D01*
X118364000Y-86164827D01*
X118621271Y-86422098D01*
X117559370Y-87484000D01*
X117396126Y-87484000D01*
X117015720Y-87641569D01*
X116724569Y-87932720D01*
X116567000Y-88313126D01*
X116567000Y-88724874D01*
X116724569Y-89105280D01*
X117015720Y-89396431D01*
X117396126Y-89554000D01*
X117807874Y-89554000D01*
X118188280Y-89396431D01*
X118479431Y-89105280D01*
X118637000Y-88724874D01*
X118637000Y-88561630D01*
X120079750Y-87118881D01*
X120143371Y-87076371D01*
X120229354Y-86947688D01*
X120311787Y-86824319D01*
X120311787Y-86824318D01*
X120311788Y-86824317D01*
X120356000Y-86602048D01*
X120356000Y-86602044D01*
X120362979Y-86566960D01*
X120463507Y-86525320D01*
X120895310Y-86093517D01*
X121129000Y-85529340D01*
X121129000Y-84918680D01*
X120895310Y-84354503D01*
X120463507Y-83922700D01*
X119899330Y-83689010D01*
X119288670Y-83689010D01*
X118724493Y-83922700D01*
X118364000Y-84283193D01*
X118003507Y-83922700D01*
X117439330Y-83689010D01*
X116828670Y-83689010D01*
X116264493Y-83922700D01*
X115832690Y-84354503D01*
X115824562Y-84374125D01*
X115674159Y-84323456D01*
X114773605Y-85224010D01*
X114414395Y-85224010D01*
X113513841Y-84323456D01*
X113257357Y-84409862D01*
X113047542Y-84983346D01*
X112693378Y-84983346D01*
X112650327Y-84143851D01*
X113693446Y-84143851D01*
X114594000Y-85044405D01*
X115494554Y-84143851D01*
X115408148Y-83887367D01*
X114834664Y-83677552D01*
X114224540Y-83703171D01*
X113779852Y-83887367D01*
X113693446Y-84143851D01*
X112650327Y-84143851D01*
X112557182Y-82327529D01*
X112637431Y-82247280D01*
X112795000Y-81866874D01*
X112795000Y-81455126D01*
X112637431Y-81074720D01*
X112346280Y-80783569D01*
X111965874Y-80626000D01*
X111554126Y-80626000D01*
X111173720Y-80783569D01*
X110882569Y-81074720D01*
X110725000Y-81455126D01*
X110725000Y-81866874D01*
X110882569Y-82247280D01*
X111034875Y-82399586D01*
X111127353Y-84202909D01*
X111076874Y-84182000D01*
X110665126Y-84182000D01*
X110284720Y-84339569D01*
X109993569Y-84630720D01*
X109836000Y-85011126D01*
X108189000Y-85011126D01*
X108189000Y-79804126D01*
X128124000Y-79804126D01*
X128124000Y-80215874D01*
X128281569Y-80596280D01*
X128572720Y-80887431D01*
X128953126Y-81045000D01*
X129364874Y-81045000D01*
X129745280Y-80887431D01*
X130036431Y-80596280D01*
X130194000Y-80215874D01*
X130194000Y-80052630D01*
X130725632Y-79520999D01*
X131041598Y-79520999D01*
X131189604Y-79522351D01*
X131263820Y-79492401D01*
X131342318Y-79476787D01*
X131403021Y-79436226D01*
X131470719Y-79408907D01*
X131527824Y-79352836D01*
X131594372Y-79308370D01*
X131634933Y-79247666D01*
X131687023Y-79196519D01*
X131718323Y-79122864D01*
X131762789Y-79056316D01*
X131791680Y-78911071D01*
X132144522Y-77218189D01*
X132424031Y-76938680D01*
X132581600Y-76558274D01*
X132581600Y-76146526D01*
X132424031Y-75766120D01*
X132132880Y-75474969D01*
X131752474Y-75317400D01*
X131340726Y-75317400D01*
X130960320Y-75474969D01*
X130669169Y-75766120D01*
X130511600Y-76146526D01*
X130511600Y-76558274D01*
X130653775Y-76901515D01*
X130427820Y-77985615D01*
X130410001Y-77982071D01*
X130334954Y-77996999D01*
X130334953Y-77996999D01*
X130112684Y-78041211D01*
X129860630Y-78209628D01*
X129818119Y-78273250D01*
X129116370Y-78975000D01*
X128953126Y-78975000D01*
X128572720Y-79132569D01*
X128281569Y-79423720D01*
X128124000Y-79804126D01*
X108189000Y-79804126D01*
X108189000Y-77724000D01*
X110125010Y-77724000D01*
X110259666Y-78400963D01*
X110643135Y-78974865D01*
X111217037Y-79358334D01*
X111723120Y-79459000D01*
X112864880Y-79459000D01*
X113370963Y-79358334D01*
X113944865Y-78974865D01*
X114328334Y-78400963D01*
X114462990Y-77724000D01*
X119725010Y-77724000D01*
X119859666Y-78400963D01*
X120243135Y-78974865D01*
X120817037Y-79358334D01*
X121323120Y-79459000D01*
X122464880Y-79459000D01*
X122970963Y-79358334D01*
X123544865Y-78974865D01*
X123928334Y-78400963D01*
X124062990Y-77724000D01*
X123928334Y-77047037D01*
X123544865Y-76473135D01*
X123164525Y-76219000D01*
X123376874Y-76219000D01*
X123729350Y-76073000D01*
X125298650Y-76073000D01*
X125651126Y-76219000D01*
X126062874Y-76219000D01*
X126443280Y-76061431D01*
X126734431Y-75770280D01*
X126892000Y-75389874D01*
X126892000Y-74978126D01*
X126734431Y-74597720D01*
X126443280Y-74306569D01*
X126062874Y-74149000D01*
X125651126Y-74149000D01*
X125298650Y-74295000D01*
X123729350Y-74295000D01*
X123376874Y-74149000D01*
X122965126Y-74149000D01*
X122584720Y-74306569D01*
X122293569Y-74597720D01*
X122136000Y-74978126D01*
X122136000Y-75389874D01*
X122293569Y-75770280D01*
X122524061Y-76000772D01*
X122464880Y-75989000D01*
X121323120Y-75989000D01*
X120817037Y-76089666D01*
X120243135Y-76473135D01*
X119859666Y-77047037D01*
X119725010Y-77724000D01*
X114462990Y-77724000D01*
X114328334Y-77047037D01*
X113944865Y-76473135D01*
X113370963Y-76089666D01*
X112864880Y-75989000D01*
X111723120Y-75989000D01*
X111217037Y-76089666D01*
X110643135Y-76473135D01*
X110259666Y-77047037D01*
X110125010Y-77724000D01*
X108189000Y-77724000D01*
X108189000Y-69119750D01*
X110529000Y-69119750D01*
X110529000Y-69810309D01*
X110625673Y-70043698D01*
X110804301Y-70222327D01*
X111037690Y-70319000D01*
X111728250Y-70319000D01*
X111887000Y-70160250D01*
X111887000Y-68961000D01*
X110687750Y-68961000D01*
X110529000Y-69119750D01*
X108189000Y-69119750D01*
X108189000Y-67857691D01*
X110529000Y-67857691D01*
X110529000Y-68548250D01*
X110687750Y-68707000D01*
X111887000Y-68707000D01*
X111887000Y-67507750D01*
X112141000Y-67507750D01*
X112141000Y-68707000D01*
X112161000Y-68707000D01*
X112161000Y-68961000D01*
X112141000Y-68961000D01*
X112141000Y-70160250D01*
X112299750Y-70319000D01*
X112990310Y-70319000D01*
X113223699Y-70222327D01*
X113402327Y-70043698D01*
X113468904Y-69882967D01*
X113483375Y-69904625D01*
X113974582Y-70232839D01*
X114407744Y-70319000D01*
X114700256Y-70319000D01*
X115133418Y-70232839D01*
X115624625Y-69904625D01*
X115824000Y-69606239D01*
X116023375Y-69904625D01*
X116514582Y-70232839D01*
X116947744Y-70319000D01*
X117240256Y-70319000D01*
X117673418Y-70232839D01*
X118164625Y-69904625D01*
X118418430Y-69524778D01*
X122294000Y-69524778D01*
X122294000Y-70175222D01*
X122542914Y-70776153D01*
X123002847Y-71236086D01*
X123603778Y-71485000D01*
X124254222Y-71485000D01*
X124855153Y-71236086D01*
X125315086Y-70776153D01*
X125383080Y-70612000D01*
X128974920Y-70612000D01*
X129042914Y-70776153D01*
X129502847Y-71236086D01*
X130103778Y-71485000D01*
X130754222Y-71485000D01*
X131015092Y-71376944D01*
X135046025Y-71376944D01*
X135078074Y-71508477D01*
X135394764Y-72071630D01*
X135902857Y-72470724D01*
X136525000Y-72645000D01*
X137287000Y-72645000D01*
X137287000Y-71121000D01*
X137541000Y-71121000D01*
X137541000Y-72645000D01*
X138303000Y-72645000D01*
X138925143Y-72470724D01*
X139433236Y-72071630D01*
X139749926Y-71508477D01*
X139781975Y-71376944D01*
X139662836Y-71121000D01*
X137541000Y-71121000D01*
X137287000Y-71121000D01*
X135165164Y-71121000D01*
X135046025Y-71376944D01*
X131015092Y-71376944D01*
X131355153Y-71236086D01*
X131815086Y-70776153D01*
X131883471Y-70611056D01*
X135046025Y-70611056D01*
X135165164Y-70867000D01*
X137287000Y-70867000D01*
X137287000Y-69343000D01*
X137541000Y-69343000D01*
X137541000Y-70867000D01*
X139662836Y-70867000D01*
X139781975Y-70611056D01*
X139749926Y-70479523D01*
X139433236Y-69916370D01*
X138925143Y-69517276D01*
X138303000Y-69343000D01*
X137541000Y-69343000D01*
X137287000Y-69343000D01*
X136525000Y-69343000D01*
X135902857Y-69517276D01*
X135394764Y-69916370D01*
X135078074Y-70479523D01*
X135046025Y-70611056D01*
X131883471Y-70611056D01*
X132064000Y-70175222D01*
X132064000Y-69524778D01*
X131815086Y-68923847D01*
X131355153Y-68463914D01*
X130754222Y-68215000D01*
X130103778Y-68215000D01*
X129502847Y-68463914D01*
X129042914Y-68923847D01*
X128974920Y-69088000D01*
X125383080Y-69088000D01*
X125315086Y-68923847D01*
X124855153Y-68463914D01*
X124254222Y-68215000D01*
X123603778Y-68215000D01*
X123002847Y-68463914D01*
X122542914Y-68923847D01*
X122294000Y-69524778D01*
X118418430Y-69524778D01*
X118492839Y-69413418D01*
X118608092Y-68834000D01*
X118492839Y-68254582D01*
X118164625Y-67763375D01*
X117673418Y-67435161D01*
X117240256Y-67349000D01*
X116947744Y-67349000D01*
X116514582Y-67435161D01*
X116023375Y-67763375D01*
X115824000Y-68061761D01*
X115624625Y-67763375D01*
X115133418Y-67435161D01*
X114700256Y-67349000D01*
X114407744Y-67349000D01*
X113974582Y-67435161D01*
X113483375Y-67763375D01*
X113468904Y-67785033D01*
X113402327Y-67624302D01*
X113223699Y-67445673D01*
X112990310Y-67349000D01*
X112299750Y-67349000D01*
X112141000Y-67507750D01*
X111887000Y-67507750D01*
X111728250Y-67349000D01*
X111037690Y-67349000D01*
X110804301Y-67445673D01*
X110625673Y-67624302D01*
X110529000Y-67857691D01*
X108189000Y-67857691D01*
X108189000Y-66502532D01*
X122956073Y-66502532D01*
X123054736Y-66769387D01*
X123664461Y-66995908D01*
X124314460Y-66971856D01*
X124803264Y-66769387D01*
X124901927Y-66502532D01*
X129456073Y-66502532D01*
X129554736Y-66769387D01*
X130164461Y-66995908D01*
X130814460Y-66971856D01*
X131303264Y-66769387D01*
X131401927Y-66502532D01*
X130429000Y-65529605D01*
X129456073Y-66502532D01*
X124901927Y-66502532D01*
X123929000Y-65529605D01*
X122956073Y-66502532D01*
X108189000Y-66502532D01*
X108189000Y-65984169D01*
X113693446Y-65984169D01*
X113779852Y-66240653D01*
X114353336Y-66450468D01*
X114963460Y-66424849D01*
X115408148Y-66240653D01*
X115494554Y-65984169D01*
X114594000Y-65083615D01*
X113693446Y-65984169D01*
X108189000Y-65984169D01*
X108189000Y-64663346D01*
X113047542Y-64663346D01*
X113073161Y-65273470D01*
X113257357Y-65718158D01*
X113513841Y-65804564D01*
X114414395Y-64904010D01*
X114773605Y-64904010D01*
X115674159Y-65804564D01*
X115824562Y-65753895D01*
X115832690Y-65773517D01*
X116264493Y-66205320D01*
X116828670Y-66439010D01*
X117439330Y-66439010D01*
X118003507Y-66205320D01*
X118364000Y-65844827D01*
X118724493Y-66205320D01*
X119288670Y-66439010D01*
X119899330Y-66439010D01*
X120463507Y-66205320D01*
X120895310Y-65773517D01*
X121129000Y-65209340D01*
X121129000Y-65085461D01*
X122283092Y-65085461D01*
X122307144Y-65735460D01*
X122509613Y-66224264D01*
X122776468Y-66322927D01*
X123749395Y-65350000D01*
X124108605Y-65350000D01*
X125081532Y-66322927D01*
X125348387Y-66224264D01*
X125574908Y-65614539D01*
X125555331Y-65085461D01*
X128783092Y-65085461D01*
X128807144Y-65735460D01*
X129009613Y-66224264D01*
X129276468Y-66322927D01*
X130249395Y-65350000D01*
X130608605Y-65350000D01*
X131581532Y-66322927D01*
X131659771Y-66294000D01*
X134968655Y-66294000D01*
X135096792Y-66938188D01*
X135461695Y-67484305D01*
X136007812Y-67849208D01*
X136489391Y-67945000D01*
X138338609Y-67945000D01*
X138820188Y-67849208D01*
X139366305Y-67484305D01*
X139731208Y-66938188D01*
X139859345Y-66294000D01*
X139731208Y-65649812D01*
X139366305Y-65103695D01*
X138820188Y-64738792D01*
X138338609Y-64643000D01*
X136489391Y-64643000D01*
X136007812Y-64738792D01*
X135461695Y-65103695D01*
X135096792Y-65649812D01*
X134968655Y-66294000D01*
X131659771Y-66294000D01*
X131848387Y-66224264D01*
X132074908Y-65614539D01*
X132050856Y-64964540D01*
X131848387Y-64475736D01*
X131581532Y-64377073D01*
X130608605Y-65350000D01*
X130249395Y-65350000D01*
X129276468Y-64377073D01*
X129009613Y-64475736D01*
X128783092Y-65085461D01*
X125555331Y-65085461D01*
X125550856Y-64964540D01*
X125348387Y-64475736D01*
X125081532Y-64377073D01*
X124108605Y-65350000D01*
X123749395Y-65350000D01*
X122776468Y-64377073D01*
X122509613Y-64475736D01*
X122283092Y-65085461D01*
X121129000Y-65085461D01*
X121129000Y-64598680D01*
X120962813Y-64197468D01*
X122956073Y-64197468D01*
X123929000Y-65170395D01*
X124901927Y-64197468D01*
X129456073Y-64197468D01*
X130429000Y-65170395D01*
X131401927Y-64197468D01*
X131303264Y-63930613D01*
X130693539Y-63704092D01*
X130043540Y-63728144D01*
X129554736Y-63930613D01*
X129456073Y-64197468D01*
X124901927Y-64197468D01*
X124803264Y-63930613D01*
X124193539Y-63704092D01*
X123543540Y-63728144D01*
X123054736Y-63930613D01*
X122956073Y-64197468D01*
X120962813Y-64197468D01*
X120895310Y-64034503D01*
X120463507Y-63602700D01*
X119899330Y-63369010D01*
X119288670Y-63369010D01*
X118724493Y-63602700D01*
X118364000Y-63963193D01*
X118003507Y-63602700D01*
X117439330Y-63369010D01*
X116828670Y-63369010D01*
X116264493Y-63602700D01*
X115832690Y-64034503D01*
X115824562Y-64054125D01*
X115674159Y-64003456D01*
X114773605Y-64904010D01*
X114414395Y-64904010D01*
X113513841Y-64003456D01*
X113257357Y-64089862D01*
X113047542Y-64663346D01*
X108189000Y-64663346D01*
X108189000Y-63823851D01*
X113693446Y-63823851D01*
X114594000Y-64724405D01*
X115494554Y-63823851D01*
X115408148Y-63567367D01*
X114834664Y-63357552D01*
X114224540Y-63383171D01*
X113779852Y-63567367D01*
X113693446Y-63823851D01*
X108189000Y-63823851D01*
X108189000Y-62104000D01*
X134968655Y-62104000D01*
X135096792Y-62748188D01*
X135461695Y-63294305D01*
X136007812Y-63659208D01*
X136489391Y-63755000D01*
X138338609Y-63755000D01*
X138820188Y-63659208D01*
X139366305Y-63294305D01*
X139731208Y-62748188D01*
X139859345Y-62104000D01*
X139731208Y-61459812D01*
X139366305Y-60913695D01*
X138820188Y-60548792D01*
X138338609Y-60453000D01*
X136489391Y-60453000D01*
X136007812Y-60548792D01*
X135461695Y-60913695D01*
X135096792Y-61459812D01*
X134968655Y-62104000D01*
X108189000Y-62104000D01*
X108189000Y-59729000D01*
X124486560Y-59729000D01*
X124486560Y-61429000D01*
X124535843Y-61676765D01*
X124676191Y-61886809D01*
X124886235Y-62027157D01*
X125134000Y-62076440D01*
X126834000Y-62076440D01*
X127081765Y-62027157D01*
X127291809Y-61886809D01*
X127432157Y-61676765D01*
X127441184Y-61631381D01*
X127453375Y-61649625D01*
X127944582Y-61977839D01*
X128377744Y-62064000D01*
X128670256Y-62064000D01*
X129103418Y-61977839D01*
X129594625Y-61649625D01*
X129922839Y-61158418D01*
X130038092Y-60579000D01*
X129922839Y-59999582D01*
X129594625Y-59508375D01*
X129275522Y-59295157D01*
X129405358Y-59234183D01*
X129795645Y-58805924D01*
X129965476Y-58395890D01*
X129844155Y-58166000D01*
X128651000Y-58166000D01*
X128651000Y-58186000D01*
X128397000Y-58186000D01*
X128397000Y-58166000D01*
X126111000Y-58166000D01*
X126111000Y-58186000D01*
X125857000Y-58186000D01*
X125857000Y-58166000D01*
X124663845Y-58166000D01*
X124542524Y-58395890D01*
X124712355Y-58805924D01*
X124989708Y-59110261D01*
X124886235Y-59130843D01*
X124676191Y-59271191D01*
X124535843Y-59481235D01*
X124486560Y-59729000D01*
X108189000Y-59729000D01*
X108189000Y-57404000D01*
X110125010Y-57404000D01*
X110259666Y-58080963D01*
X110643135Y-58654865D01*
X111217037Y-59038334D01*
X111723120Y-59139000D01*
X112864880Y-59139000D01*
X113370963Y-59038334D01*
X113944865Y-58654865D01*
X114328334Y-58080963D01*
X114462990Y-57404000D01*
X119725010Y-57404000D01*
X119859666Y-58080963D01*
X120243135Y-58654865D01*
X120817037Y-59038334D01*
X121323120Y-59139000D01*
X122464880Y-59139000D01*
X122970963Y-59038334D01*
X123544865Y-58654865D01*
X123928334Y-58080963D01*
X124062990Y-57404000D01*
X123928334Y-56727037D01*
X123544865Y-56153135D01*
X123100007Y-55855890D01*
X124542524Y-55855890D01*
X124712355Y-56265924D01*
X125102642Y-56694183D01*
X125261954Y-56769000D01*
X125102642Y-56843817D01*
X124712355Y-57272076D01*
X124542524Y-57682110D01*
X124663845Y-57912000D01*
X125857000Y-57912000D01*
X125857000Y-55626000D01*
X126111000Y-55626000D01*
X126111000Y-57912000D01*
X128397000Y-57912000D01*
X128397000Y-55626000D01*
X128651000Y-55626000D01*
X128651000Y-57912000D01*
X129844155Y-57912000D01*
X129910151Y-57786944D01*
X135046025Y-57786944D01*
X135078074Y-57918477D01*
X135394764Y-58481630D01*
X135902857Y-58880724D01*
X136525000Y-59055000D01*
X137287000Y-59055000D01*
X137287000Y-57531000D01*
X137541000Y-57531000D01*
X137541000Y-59055000D01*
X138303000Y-59055000D01*
X138925143Y-58880724D01*
X139433236Y-58481630D01*
X139749926Y-57918477D01*
X139781975Y-57786944D01*
X139662836Y-57531000D01*
X137541000Y-57531000D01*
X137287000Y-57531000D01*
X135165164Y-57531000D01*
X135046025Y-57786944D01*
X129910151Y-57786944D01*
X129965476Y-57682110D01*
X129795645Y-57272076D01*
X129566882Y-57021056D01*
X135046025Y-57021056D01*
X135165164Y-57277000D01*
X137287000Y-57277000D01*
X137287000Y-55753000D01*
X137541000Y-55753000D01*
X137541000Y-57277000D01*
X139662836Y-57277000D01*
X139781975Y-57021056D01*
X139749926Y-56889523D01*
X139433236Y-56326370D01*
X138925143Y-55927276D01*
X138303000Y-55753000D01*
X137541000Y-55753000D01*
X137287000Y-55753000D01*
X136525000Y-55753000D01*
X135902857Y-55927276D01*
X135394764Y-56326370D01*
X135078074Y-56889523D01*
X135046025Y-57021056D01*
X129566882Y-57021056D01*
X129405358Y-56843817D01*
X129246046Y-56769000D01*
X129405358Y-56694183D01*
X129795645Y-56265924D01*
X129965476Y-55855890D01*
X129844155Y-55626000D01*
X128651000Y-55626000D01*
X128397000Y-55626000D01*
X126111000Y-55626000D01*
X125857000Y-55626000D01*
X124663845Y-55626000D01*
X124542524Y-55855890D01*
X123100007Y-55855890D01*
X122970963Y-55769666D01*
X122464880Y-55669000D01*
X121323120Y-55669000D01*
X120817037Y-55769666D01*
X120243135Y-56153135D01*
X119859666Y-56727037D01*
X119725010Y-57404000D01*
X114462990Y-57404000D01*
X114328334Y-56727037D01*
X113944865Y-56153135D01*
X113370963Y-55769666D01*
X112864880Y-55669000D01*
X111723120Y-55669000D01*
X111217037Y-55769666D01*
X110643135Y-56153135D01*
X110259666Y-56727037D01*
X110125010Y-57404000D01*
X108189000Y-57404000D01*
X108189000Y-53315890D01*
X124542524Y-53315890D01*
X124712355Y-53725924D01*
X125102642Y-54154183D01*
X125261954Y-54229000D01*
X125102642Y-54303817D01*
X124712355Y-54732076D01*
X124542524Y-55142110D01*
X124663845Y-55372000D01*
X125857000Y-55372000D01*
X125857000Y-53086000D01*
X126111000Y-53086000D01*
X126111000Y-55372000D01*
X128397000Y-55372000D01*
X128397000Y-53086000D01*
X128651000Y-53086000D01*
X128651000Y-55372000D01*
X129844155Y-55372000D01*
X129965476Y-55142110D01*
X129795645Y-54732076D01*
X129405358Y-54303817D01*
X129246046Y-54229000D01*
X129405358Y-54154183D01*
X129795645Y-53725924D01*
X129965476Y-53315890D01*
X129844155Y-53086000D01*
X128651000Y-53086000D01*
X128397000Y-53086000D01*
X126111000Y-53086000D01*
X125857000Y-53086000D01*
X124663845Y-53086000D01*
X124542524Y-53315890D01*
X108189000Y-53315890D01*
X108189000Y-50419000D01*
X124469908Y-50419000D01*
X124585161Y-50998418D01*
X124913375Y-51489625D01*
X125232478Y-51702843D01*
X125102642Y-51763817D01*
X124712355Y-52192076D01*
X124542524Y-52602110D01*
X124663845Y-52832000D01*
X125857000Y-52832000D01*
X125857000Y-52812000D01*
X126111000Y-52812000D01*
X126111000Y-52832000D01*
X128397000Y-52832000D01*
X128397000Y-52812000D01*
X128651000Y-52812000D01*
X128651000Y-52832000D01*
X129844155Y-52832000D01*
X129911705Y-52704000D01*
X134968655Y-52704000D01*
X135096792Y-53348188D01*
X135461695Y-53894305D01*
X136007812Y-54259208D01*
X136489391Y-54355000D01*
X138338609Y-54355000D01*
X138820188Y-54259208D01*
X139366305Y-53894305D01*
X139731208Y-53348188D01*
X139859345Y-52704000D01*
X139731208Y-52059812D01*
X139366305Y-51513695D01*
X138820188Y-51148792D01*
X138338609Y-51053000D01*
X136489391Y-51053000D01*
X136007812Y-51148792D01*
X135461695Y-51513695D01*
X135096792Y-52059812D01*
X134968655Y-52704000D01*
X129911705Y-52704000D01*
X129965476Y-52602110D01*
X129795645Y-52192076D01*
X129405358Y-51763817D01*
X129275522Y-51702843D01*
X129594625Y-51489625D01*
X129922839Y-50998418D01*
X130038092Y-50419000D01*
X129922839Y-49839582D01*
X129594625Y-49348375D01*
X129103418Y-49020161D01*
X128670256Y-48934000D01*
X128377744Y-48934000D01*
X127944582Y-49020161D01*
X127453375Y-49348375D01*
X127254000Y-49646761D01*
X127054625Y-49348375D01*
X126563418Y-49020161D01*
X126130256Y-48934000D01*
X125837744Y-48934000D01*
X125404582Y-49020161D01*
X124913375Y-49348375D01*
X124585161Y-49839582D01*
X124469908Y-50419000D01*
X108189000Y-50419000D01*
X108189000Y-48729000D01*
X146319000Y-48729000D01*
X146319000Y-54860949D01*
X146319000Y-54860949D01*
G37*
X146319000Y-54860949D02*
X146261397Y-54803346D01*
X146143566Y-54754539D01*
X146037529Y-54683687D01*
X145912450Y-54658807D01*
X145794619Y-54610000D01*
X145667080Y-54610000D01*
X145542000Y-54585120D01*
X145416920Y-54610000D01*
X145289381Y-54610000D01*
X145171550Y-54658807D01*
X145046472Y-54683687D01*
X144940437Y-54754538D01*
X144822603Y-54803346D01*
X144732416Y-54893533D01*
X144626383Y-54964382D01*
X144555534Y-55070415D01*
X144465346Y-55160603D01*
X144416537Y-55278438D01*
X144345688Y-55384471D01*
X144320808Y-55509547D01*
X144272000Y-55627381D01*
X144272000Y-57656619D01*
X144272001Y-57656621D01*
X144272000Y-61342920D01*
X144272000Y-61703949D01*
X141789890Y-64186060D01*
X141494000Y-64186060D01*
X141246235Y-64235343D01*
X141036191Y-64375691D01*
X140895843Y-64585735D01*
X140846560Y-64833500D01*
X140846560Y-66738500D01*
X140895843Y-66986265D01*
X141036191Y-67196309D01*
X141241143Y-67333255D01*
X141118027Y-67459076D01*
X140903437Y-67953020D01*
X141023406Y-68199000D01*
X142367000Y-68199000D01*
X142367000Y-68179000D01*
X142621000Y-68179000D01*
X142621000Y-68199000D01*
X143964594Y-68199000D01*
X144084563Y-67953020D01*
X144022172Y-67809407D01*
X144907001Y-68694237D01*
X144907001Y-72021765D01*
X144092265Y-71207029D01*
X144160100Y-70866000D01*
X144036891Y-70246589D01*
X143686023Y-69721477D01*
X143484526Y-69586841D01*
X143869973Y-69192924D01*
X144084563Y-68698980D01*
X143964594Y-68453000D01*
X142621000Y-68453000D01*
X142621000Y-68473000D01*
X142367000Y-68473000D01*
X142367000Y-68453000D01*
X141023406Y-68453000D01*
X140903437Y-68698980D01*
X141118027Y-69192924D01*
X141503474Y-69586841D01*
X141301977Y-69721477D01*
X140951109Y-70246589D01*
X140827900Y-70866000D01*
X140951109Y-71485411D01*
X141301977Y-72010523D01*
X141827089Y-72361391D01*
X142290150Y-72453500D01*
X142697850Y-72453500D01*
X142803291Y-72432526D01*
X144145000Y-73774236D01*
X144145001Y-100469763D01*
X141998765Y-102616000D01*
X140068236Y-102616000D01*
X139294012Y-101841776D01*
X139377113Y-101424000D01*
X139265740Y-100864091D01*
X138948577Y-100389423D01*
X138473909Y-100072260D01*
X138055333Y-99989000D01*
X136772667Y-99989000D01*
X136354091Y-100072260D01*
X135879423Y-100389423D01*
X135562260Y-100864091D01*
X135450887Y-101424000D01*
X135562260Y-101983909D01*
X135879423Y-102458577D01*
X136354091Y-102775740D01*
X136772667Y-102859000D01*
X137796765Y-102859000D01*
X138062233Y-103124469D01*
X137941000Y-103089000D01*
X137541000Y-103089000D01*
X137541000Y-104397000D01*
X139083915Y-104397000D01*
X139178140Y-104225495D01*
X139353130Y-104342419D01*
X139612444Y-104394000D01*
X139612448Y-104394000D01*
X139699999Y-104411415D01*
X139787550Y-104394000D01*
X142279445Y-104394000D01*
X142367000Y-104411416D01*
X142454555Y-104394000D01*
X142454556Y-104394000D01*
X142713870Y-104342419D01*
X143007933Y-104145933D01*
X143057531Y-104071704D01*
X144907000Y-102222235D01*
X144907000Y-119265764D01*
X142887765Y-121285000D01*
X138833715Y-121285000D01*
X138962529Y-121198929D01*
X139268641Y-120740800D01*
X139376133Y-120200400D01*
X139268641Y-119660000D01*
X138962529Y-119201871D01*
X138792615Y-119088338D01*
X138918500Y-118987096D01*
X139188367Y-118494019D01*
X139205904Y-118411239D01*
X139083915Y-118189200D01*
X137541000Y-118189200D01*
X137541000Y-118209200D01*
X137287000Y-118209200D01*
X137287000Y-118189200D01*
X135744085Y-118189200D01*
X135622096Y-118411239D01*
X135639633Y-118494019D01*
X135909500Y-118987096D01*
X136035385Y-119088338D01*
X135865471Y-119201871D01*
X135559359Y-119660000D01*
X135451867Y-120200400D01*
X135559359Y-120740800D01*
X135865471Y-121198929D01*
X136323600Y-121505041D01*
X136676126Y-121575163D01*
X136663569Y-121587720D01*
X136506000Y-121968126D01*
X136506000Y-122379874D01*
X136663569Y-122760280D01*
X136954720Y-123051431D01*
X137335126Y-123209000D01*
X137746874Y-123209000D01*
X138099350Y-123063000D01*
X143168445Y-123063000D01*
X143256000Y-123080416D01*
X143343555Y-123063000D01*
X143343556Y-123063000D01*
X143602870Y-123011419D01*
X143896933Y-122814933D01*
X143946531Y-122740704D01*
X146319001Y-120368235D01*
X146319001Y-147359000D01*
X120589827Y-147359000D01*
X120895310Y-147053517D01*
X121129000Y-146489340D01*
X121129000Y-145878680D01*
X120977547Y-145513039D01*
X135622096Y-145513039D01*
X135639633Y-145595819D01*
X135909500Y-146088896D01*
X136347517Y-146441166D01*
X136887000Y-146599000D01*
X137287000Y-146599000D01*
X137287000Y-145291000D01*
X137541000Y-145291000D01*
X137541000Y-146599000D01*
X137941000Y-146599000D01*
X138480483Y-146441166D01*
X138918500Y-146088896D01*
X139188367Y-145595819D01*
X139205904Y-145513039D01*
X139083915Y-145291000D01*
X137541000Y-145291000D01*
X137287000Y-145291000D01*
X135744085Y-145291000D01*
X135622096Y-145513039D01*
X120977547Y-145513039D01*
X120895310Y-145314503D01*
X120463507Y-144882700D01*
X120299971Y-144814961D01*
X135622096Y-144814961D01*
X135744085Y-145037000D01*
X137287000Y-145037000D01*
X137287000Y-143729000D01*
X137541000Y-143729000D01*
X137541000Y-145037000D01*
X139083915Y-145037000D01*
X139205904Y-144814961D01*
X139188367Y-144732181D01*
X138918500Y-144239104D01*
X138480483Y-143886834D01*
X137941000Y-143729000D01*
X137541000Y-143729000D01*
X137287000Y-143729000D01*
X136887000Y-143729000D01*
X136347517Y-143886834D01*
X135909500Y-144239104D01*
X135639633Y-144732181D01*
X135622096Y-144814961D01*
X120299971Y-144814961D01*
X119899330Y-144649010D01*
X119288670Y-144649010D01*
X118724493Y-144882700D01*
X118364000Y-145243193D01*
X118003507Y-144882700D01*
X117439330Y-144649010D01*
X116828670Y-144649010D01*
X116264493Y-144882700D01*
X115832690Y-145314503D01*
X115824562Y-145334125D01*
X115674159Y-145283456D01*
X114773605Y-146184010D01*
X115674159Y-147084564D01*
X115824562Y-147033895D01*
X115832690Y-147053517D01*
X116138173Y-147359000D01*
X115462607Y-147359000D01*
X115494554Y-147264169D01*
X114594000Y-146363615D01*
X113693446Y-147264169D01*
X113725393Y-147359000D01*
X108189000Y-147359000D01*
X108189000Y-145943346D01*
X113047542Y-145943346D01*
X113073161Y-146553470D01*
X113257357Y-146998158D01*
X113513841Y-147084564D01*
X114414395Y-146184010D01*
X113513841Y-145283456D01*
X113257357Y-145369862D01*
X113047542Y-145943346D01*
X108189000Y-145943346D01*
X108189000Y-145103851D01*
X113693446Y-145103851D01*
X114594000Y-146004405D01*
X115494554Y-145103851D01*
X115408148Y-144847367D01*
X114834664Y-144637552D01*
X114224540Y-144663171D01*
X113779852Y-144847367D01*
X113693446Y-145103851D01*
X108189000Y-145103851D01*
X108189000Y-142064000D01*
X135450887Y-142064000D01*
X135562260Y-142623909D01*
X135879423Y-143098577D01*
X136354091Y-143415740D01*
X136772667Y-143499000D01*
X138055333Y-143499000D01*
X138473909Y-143415740D01*
X138948577Y-143098577D01*
X139265740Y-142623909D01*
X139377113Y-142064000D01*
X139265740Y-141504091D01*
X138948577Y-141029423D01*
X138473909Y-140712260D01*
X138055333Y-140629000D01*
X136772667Y-140629000D01*
X136354091Y-140712260D01*
X135879423Y-141029423D01*
X135562260Y-141504091D01*
X135450887Y-142064000D01*
X108189000Y-142064000D01*
X108189000Y-138684000D01*
X110125010Y-138684000D01*
X110259666Y-139360963D01*
X110643135Y-139934865D01*
X111217037Y-140318334D01*
X111723120Y-140419000D01*
X112864880Y-140419000D01*
X113370963Y-140318334D01*
X113944865Y-139934865D01*
X114328334Y-139360963D01*
X114462990Y-138684000D01*
X119725010Y-138684000D01*
X119859666Y-139360963D01*
X120243135Y-139934865D01*
X120817037Y-140318334D01*
X121323120Y-140419000D01*
X122464880Y-140419000D01*
X122970963Y-140318334D01*
X123544865Y-139934865D01*
X123928334Y-139360963D01*
X124062990Y-138684000D01*
X123928334Y-138007037D01*
X123544865Y-137433135D01*
X122970963Y-137049666D01*
X122464880Y-136949000D01*
X121323120Y-136949000D01*
X120817037Y-137049666D01*
X120243135Y-137433135D01*
X119859666Y-138007037D01*
X119725010Y-138684000D01*
X114462990Y-138684000D01*
X114328334Y-138007037D01*
X113944865Y-137433135D01*
X113370963Y-137049666D01*
X112864880Y-136949000D01*
X111723120Y-136949000D01*
X111217037Y-137049666D01*
X110643135Y-137433135D01*
X110259666Y-138007037D01*
X110125010Y-138684000D01*
X108189000Y-138684000D01*
X108189000Y-133764000D01*
X135451867Y-133764000D01*
X135559359Y-134304400D01*
X135865471Y-134762529D01*
X136323600Y-135068641D01*
X136727593Y-135149000D01*
X138100407Y-135149000D01*
X138504400Y-135068641D01*
X138962529Y-134762529D01*
X139268641Y-134304400D01*
X139376133Y-133764000D01*
X139268641Y-133223600D01*
X138962529Y-132765471D01*
X138775364Y-132640411D01*
X138918500Y-132525296D01*
X139188367Y-132032219D01*
X139205904Y-131949439D01*
X139083915Y-131727400D01*
X137541000Y-131727400D01*
X137541000Y-131747400D01*
X137287000Y-131747400D01*
X137287000Y-131727400D01*
X135744085Y-131727400D01*
X135622096Y-131949439D01*
X135639633Y-132032219D01*
X135909500Y-132525296D01*
X136052636Y-132640411D01*
X135865471Y-132765471D01*
X135559359Y-133223600D01*
X135451867Y-133764000D01*
X108189000Y-133764000D01*
X108189000Y-131493126D01*
X111741000Y-131493126D01*
X111741000Y-131904874D01*
X111898569Y-132285280D01*
X112189720Y-132576431D01*
X112570126Y-132734000D01*
X112981874Y-132734000D01*
X113334350Y-132588000D01*
X115519650Y-132588000D01*
X115872126Y-132734000D01*
X116283874Y-132734000D01*
X116664280Y-132576431D01*
X116955431Y-132285280D01*
X117113000Y-131904874D01*
X117113000Y-131493126D01*
X122917000Y-131493126D01*
X122917000Y-131904874D01*
X123074569Y-132285280D01*
X123365720Y-132576431D01*
X123746126Y-132734000D01*
X124157874Y-132734000D01*
X124510350Y-132588000D01*
X126568650Y-132588000D01*
X126921126Y-132734000D01*
X127332874Y-132734000D01*
X127713280Y-132576431D01*
X128004431Y-132285280D01*
X128162000Y-131904874D01*
X128162000Y-131493126D01*
X128061858Y-131251361D01*
X135622096Y-131251361D01*
X135744085Y-131473400D01*
X137287000Y-131473400D01*
X137287000Y-130165400D01*
X137541000Y-130165400D01*
X137541000Y-131473400D01*
X139083915Y-131473400D01*
X139205904Y-131251361D01*
X139188367Y-131168581D01*
X138918500Y-130675504D01*
X138480483Y-130323234D01*
X137941000Y-130165400D01*
X137541000Y-130165400D01*
X137287000Y-130165400D01*
X136887000Y-130165400D01*
X136347517Y-130323234D01*
X135909500Y-130675504D01*
X135639633Y-131168581D01*
X135622096Y-131251361D01*
X128061858Y-131251361D01*
X128004431Y-131112720D01*
X127713280Y-130821569D01*
X127332874Y-130664000D01*
X126921126Y-130664000D01*
X126568650Y-130810000D01*
X124510350Y-130810000D01*
X124157874Y-130664000D01*
X123746126Y-130664000D01*
X123365720Y-130821569D01*
X123074569Y-131112720D01*
X122917000Y-131493126D01*
X117113000Y-131493126D01*
X116955431Y-131112720D01*
X116664280Y-130821569D01*
X116283874Y-130664000D01*
X115872126Y-130664000D01*
X115519650Y-130810000D01*
X113334350Y-130810000D01*
X112981874Y-130664000D01*
X112570126Y-130664000D01*
X112189720Y-130821569D01*
X111898569Y-131112720D01*
X111741000Y-131493126D01*
X108189000Y-131493126D01*
X108189000Y-128500400D01*
X135450887Y-128500400D01*
X135562260Y-129060309D01*
X135879423Y-129534977D01*
X136354091Y-129852140D01*
X136772667Y-129935400D01*
X138055333Y-129935400D01*
X138473909Y-129852140D01*
X138948577Y-129534977D01*
X139265740Y-129060309D01*
X139377113Y-128500400D01*
X139265740Y-127940491D01*
X138948577Y-127465823D01*
X138473909Y-127148660D01*
X138055333Y-127065400D01*
X136772667Y-127065400D01*
X136354091Y-127148660D01*
X135879423Y-127465823D01*
X135562260Y-127940491D01*
X135450887Y-128500400D01*
X108189000Y-128500400D01*
X108189000Y-126944169D01*
X113693446Y-126944169D01*
X113779852Y-127200653D01*
X114353336Y-127410468D01*
X114963460Y-127384849D01*
X115408148Y-127200653D01*
X115494554Y-126944169D01*
X114594000Y-126043615D01*
X113693446Y-126944169D01*
X108189000Y-126944169D01*
X108189000Y-125623346D01*
X113047542Y-125623346D01*
X113073161Y-126233470D01*
X113257357Y-126678158D01*
X113513841Y-126764564D01*
X114414395Y-125864010D01*
X114773605Y-125864010D01*
X115674159Y-126764564D01*
X115824562Y-126713895D01*
X115832690Y-126733517D01*
X116264493Y-127165320D01*
X116828670Y-127399010D01*
X117439330Y-127399010D01*
X118003507Y-127165320D01*
X118364000Y-126804827D01*
X118724493Y-127165320D01*
X119288670Y-127399010D01*
X119899330Y-127399010D01*
X120463507Y-127165320D01*
X120895310Y-126733517D01*
X121129000Y-126169340D01*
X121129000Y-125558680D01*
X120895310Y-124994503D01*
X120463507Y-124562700D01*
X119899330Y-124329010D01*
X119288670Y-124329010D01*
X118724493Y-124562700D01*
X118364000Y-124923193D01*
X118003507Y-124562700D01*
X117439330Y-124329010D01*
X116828670Y-124329010D01*
X116264493Y-124562700D01*
X115832690Y-124994503D01*
X115824562Y-125014125D01*
X115674159Y-124963456D01*
X114773605Y-125864010D01*
X114414395Y-125864010D01*
X113513841Y-124963456D01*
X113257357Y-125049862D01*
X113047542Y-125623346D01*
X108189000Y-125623346D01*
X108189000Y-124783851D01*
X113693446Y-124783851D01*
X114594000Y-125684405D01*
X115494554Y-124783851D01*
X115408148Y-124527367D01*
X114834664Y-124317552D01*
X114224540Y-124343171D01*
X113779852Y-124527367D01*
X113693446Y-124783851D01*
X108189000Y-124783851D01*
X108189000Y-121968126D01*
X123425000Y-121968126D01*
X123425000Y-122379874D01*
X123582569Y-122760280D01*
X123873720Y-123051431D01*
X124254126Y-123209000D01*
X124322002Y-123209000D01*
X124322001Y-124119957D01*
X124307074Y-124195001D01*
X124322001Y-124270044D01*
X124322001Y-124270048D01*
X124366213Y-124492317D01*
X124493352Y-124682595D01*
X124449000Y-124789670D01*
X124449000Y-125400330D01*
X124682690Y-125964507D01*
X125114493Y-126396310D01*
X125678670Y-126630000D01*
X126289330Y-126630000D01*
X126853507Y-126396310D01*
X127029861Y-126219956D01*
X127085673Y-126354699D01*
X127264302Y-126533327D01*
X127497691Y-126630000D01*
X128238250Y-126630000D01*
X128397000Y-126471250D01*
X128397000Y-125222000D01*
X128651000Y-125222000D01*
X128651000Y-126471250D01*
X128809750Y-126630000D01*
X129550309Y-126630000D01*
X129783698Y-126533327D01*
X129962327Y-126354699D01*
X130059000Y-126121310D01*
X130059000Y-125380750D01*
X129900250Y-125222000D01*
X128651000Y-125222000D01*
X128397000Y-125222000D01*
X128377000Y-125222000D01*
X128377000Y-124968000D01*
X128397000Y-124968000D01*
X128397000Y-123718750D01*
X128651000Y-123718750D01*
X128651000Y-124968000D01*
X129900250Y-124968000D01*
X130059000Y-124809250D01*
X130059000Y-124068690D01*
X129962327Y-123835301D01*
X129783698Y-123656673D01*
X129550309Y-123560000D01*
X128809750Y-123560000D01*
X128651000Y-123718750D01*
X128397000Y-123718750D01*
X128238250Y-123560000D01*
X127497691Y-123560000D01*
X127264302Y-123656673D01*
X127085673Y-123835301D01*
X127029861Y-123970044D01*
X126853507Y-123793690D01*
X126289330Y-123560000D01*
X125846001Y-123560000D01*
X125846001Y-122873048D01*
X125860929Y-122798001D01*
X125846001Y-122722953D01*
X125801789Y-122500684D01*
X125633372Y-122248630D01*
X125569750Y-122206119D01*
X125495000Y-122131369D01*
X125495000Y-121968126D01*
X125337431Y-121587720D01*
X125046280Y-121296569D01*
X124665874Y-121139000D01*
X124254126Y-121139000D01*
X123873720Y-121296569D01*
X123582569Y-121587720D01*
X123425000Y-121968126D01*
X108189000Y-121968126D01*
X108189000Y-118364000D01*
X110125010Y-118364000D01*
X110259666Y-119040963D01*
X110643135Y-119614865D01*
X111217037Y-119998334D01*
X111723120Y-120099000D01*
X112864880Y-120099000D01*
X113370963Y-119998334D01*
X113944865Y-119614865D01*
X114328334Y-119040963D01*
X114462990Y-118364000D01*
X119725010Y-118364000D01*
X119859666Y-119040963D01*
X120243135Y-119614865D01*
X120817037Y-119998334D01*
X121323120Y-120099000D01*
X122464880Y-120099000D01*
X122970963Y-119998334D01*
X123544865Y-119614865D01*
X123928334Y-119040963D01*
X124062990Y-118364000D01*
X123928334Y-117687037D01*
X123544865Y-117113135D01*
X122970963Y-116729666D01*
X122464880Y-116629000D01*
X121323120Y-116629000D01*
X120817037Y-116729666D01*
X120243135Y-117113135D01*
X119859666Y-117687037D01*
X119725010Y-118364000D01*
X114462990Y-118364000D01*
X114328334Y-117687037D01*
X113944865Y-117113135D01*
X113370963Y-116729666D01*
X112864880Y-116629000D01*
X111723120Y-116629000D01*
X111217037Y-116729666D01*
X110643135Y-117113135D01*
X110259666Y-117687037D01*
X110125010Y-118364000D01*
X108189000Y-118364000D01*
X108189000Y-115618126D01*
X130791000Y-115618126D01*
X130791000Y-116029874D01*
X130948569Y-116410280D01*
X131064001Y-116525712D01*
X131064000Y-117408289D01*
X130948569Y-117523720D01*
X130791000Y-117904126D01*
X130791000Y-118315874D01*
X130948569Y-118696280D01*
X131239720Y-118987431D01*
X131620126Y-119145000D01*
X132031874Y-119145000D01*
X132412280Y-118987431D01*
X132703431Y-118696280D01*
X132861000Y-118315874D01*
X132861000Y-117904126D01*
X132781900Y-117713161D01*
X135622096Y-117713161D01*
X135744085Y-117935200D01*
X137287000Y-117935200D01*
X137287000Y-116627200D01*
X137541000Y-116627200D01*
X137541000Y-117935200D01*
X139083915Y-117935200D01*
X139205904Y-117713161D01*
X139188367Y-117630381D01*
X138918500Y-117137304D01*
X138480483Y-116785034D01*
X137941000Y-116627200D01*
X137541000Y-116627200D01*
X137287000Y-116627200D01*
X136887000Y-116627200D01*
X136347517Y-116785034D01*
X135909500Y-117137304D01*
X135639633Y-117630381D01*
X135622096Y-117713161D01*
X132781900Y-117713161D01*
X132703431Y-117523720D01*
X132588000Y-117408289D01*
X132588000Y-116525711D01*
X132703431Y-116410280D01*
X132861000Y-116029874D01*
X132861000Y-115618126D01*
X132703431Y-115237720D01*
X132427911Y-114962200D01*
X135450887Y-114962200D01*
X135562260Y-115522109D01*
X135879423Y-115996777D01*
X136354091Y-116313940D01*
X136772667Y-116397200D01*
X138055333Y-116397200D01*
X138473909Y-116313940D01*
X138948577Y-115996777D01*
X139265740Y-115522109D01*
X139377113Y-114962200D01*
X139265740Y-114402291D01*
X138948577Y-113927623D01*
X138473909Y-113610460D01*
X138055333Y-113527200D01*
X136772667Y-113527200D01*
X136354091Y-113610460D01*
X135879423Y-113927623D01*
X135562260Y-114402291D01*
X135450887Y-114962200D01*
X132427911Y-114962200D01*
X132412280Y-114946569D01*
X132031874Y-114789000D01*
X131620126Y-114789000D01*
X131239720Y-114946569D01*
X130948569Y-115237720D01*
X130791000Y-115618126D01*
X108189000Y-115618126D01*
X108189000Y-111327670D01*
X124449000Y-111327670D01*
X124449000Y-111938330D01*
X124682690Y-112502507D01*
X125114493Y-112934310D01*
X125678670Y-113168000D01*
X126289330Y-113168000D01*
X126853507Y-112934310D01*
X127029861Y-112757956D01*
X127085673Y-112892699D01*
X127264302Y-113071327D01*
X127497691Y-113168000D01*
X128238250Y-113168000D01*
X128397000Y-113009250D01*
X128397000Y-111760000D01*
X128651000Y-111760000D01*
X128651000Y-113009250D01*
X128809750Y-113168000D01*
X129550309Y-113168000D01*
X129783698Y-113071327D01*
X129962327Y-112892699D01*
X130059000Y-112659310D01*
X130059000Y-111918750D01*
X129900250Y-111760000D01*
X128651000Y-111760000D01*
X128397000Y-111760000D01*
X128377000Y-111760000D01*
X128377000Y-111506000D01*
X128397000Y-111506000D01*
X128397000Y-110256750D01*
X128651000Y-110256750D01*
X128651000Y-111506000D01*
X129900250Y-111506000D01*
X130059000Y-111347250D01*
X130059000Y-110606690D01*
X129962327Y-110373301D01*
X129783698Y-110194673D01*
X129550309Y-110098000D01*
X128809750Y-110098000D01*
X128651000Y-110256750D01*
X128397000Y-110256750D01*
X128238250Y-110098000D01*
X127497691Y-110098000D01*
X127264302Y-110194673D01*
X127085673Y-110373301D01*
X127029861Y-110508044D01*
X126853507Y-110331690D01*
X126289330Y-110098000D01*
X125678670Y-110098000D01*
X125114493Y-110331690D01*
X124682690Y-110763493D01*
X124449000Y-111327670D01*
X108189000Y-111327670D01*
X108189000Y-106624169D01*
X113693446Y-106624169D01*
X113779852Y-106880653D01*
X114353336Y-107090468D01*
X114963460Y-107064849D01*
X115408148Y-106880653D01*
X115494554Y-106624169D01*
X114594000Y-105723615D01*
X113693446Y-106624169D01*
X108189000Y-106624169D01*
X108189000Y-105303346D01*
X113047542Y-105303346D01*
X113073161Y-105913470D01*
X113257357Y-106358158D01*
X113513841Y-106444564D01*
X114414395Y-105544010D01*
X114773605Y-105544010D01*
X115674159Y-106444564D01*
X115824562Y-106393895D01*
X115832690Y-106413517D01*
X116264493Y-106845320D01*
X116828670Y-107079010D01*
X117439330Y-107079010D01*
X118003507Y-106845320D01*
X118364000Y-106484827D01*
X118724493Y-106845320D01*
X119288670Y-107079010D01*
X119899330Y-107079010D01*
X120263508Y-106928162D01*
X129320964Y-106928162D01*
X129320964Y-107339910D01*
X129478533Y-107720316D01*
X129593964Y-107835747D01*
X129593965Y-108214298D01*
X129478533Y-108329730D01*
X129320964Y-108710136D01*
X129320964Y-109121884D01*
X129478533Y-109502290D01*
X129769684Y-109793441D01*
X130150090Y-109951010D01*
X130561838Y-109951010D01*
X130942244Y-109793441D01*
X131233395Y-109502290D01*
X131390964Y-109121884D01*
X131390964Y-108710136D01*
X131233395Y-108329730D01*
X131117964Y-108214299D01*
X131117964Y-107835747D01*
X131233395Y-107720316D01*
X131390964Y-107339910D01*
X131390964Y-106928162D01*
X131280800Y-106662200D01*
X135451867Y-106662200D01*
X135559359Y-107202600D01*
X135865471Y-107660729D01*
X136323600Y-107966841D01*
X136727593Y-108047200D01*
X138100407Y-108047200D01*
X138504400Y-107966841D01*
X138962529Y-107660729D01*
X139268641Y-107202600D01*
X139376133Y-106662200D01*
X139268641Y-106121800D01*
X138962529Y-105663671D01*
X138792615Y-105550138D01*
X138918500Y-105448896D01*
X139188367Y-104955819D01*
X139205904Y-104873039D01*
X139083915Y-104651000D01*
X137541000Y-104651000D01*
X137541000Y-104671000D01*
X137287000Y-104671000D01*
X137287000Y-104651000D01*
X135744085Y-104651000D01*
X135622096Y-104873039D01*
X135639633Y-104955819D01*
X135909500Y-105448896D01*
X136035385Y-105550138D01*
X135865471Y-105663671D01*
X135559359Y-106121800D01*
X135451867Y-106662200D01*
X131280800Y-106662200D01*
X131233395Y-106547756D01*
X130942244Y-106256605D01*
X130561838Y-106099036D01*
X130150090Y-106099036D01*
X129769684Y-106256605D01*
X129478533Y-106547756D01*
X129320964Y-106928162D01*
X120263508Y-106928162D01*
X120463507Y-106845320D01*
X120895310Y-106413517D01*
X121129000Y-105849340D01*
X121129000Y-105238680D01*
X120895310Y-104674503D01*
X120463507Y-104242700D01*
X119899330Y-104009010D01*
X119288670Y-104009010D01*
X118724493Y-104242700D01*
X118364000Y-104603193D01*
X118003507Y-104242700D01*
X117439330Y-104009010D01*
X116828670Y-104009010D01*
X116264493Y-104242700D01*
X115832690Y-104674503D01*
X115824562Y-104694125D01*
X115674159Y-104643456D01*
X114773605Y-105544010D01*
X114414395Y-105544010D01*
X113513841Y-104643456D01*
X113257357Y-104729862D01*
X113047542Y-105303346D01*
X108189000Y-105303346D01*
X108189000Y-104463851D01*
X113693446Y-104463851D01*
X114594000Y-105364405D01*
X115494554Y-104463851D01*
X115408148Y-104207367D01*
X114834664Y-103997552D01*
X114224540Y-104023171D01*
X113779852Y-104207367D01*
X113693446Y-104463851D01*
X108189000Y-104463851D01*
X108189000Y-103045126D01*
X127870000Y-103045126D01*
X127870000Y-103456874D01*
X128027569Y-103837280D01*
X128318720Y-104128431D01*
X128699126Y-104286000D01*
X129110874Y-104286000D01*
X129463350Y-104140000D01*
X133045650Y-104140000D01*
X133398126Y-104286000D01*
X133809874Y-104286000D01*
X134077946Y-104174961D01*
X135622096Y-104174961D01*
X135744085Y-104397000D01*
X137287000Y-104397000D01*
X137287000Y-103089000D01*
X136887000Y-103089000D01*
X136347517Y-103246834D01*
X135909500Y-103599104D01*
X135639633Y-104092181D01*
X135622096Y-104174961D01*
X134077946Y-104174961D01*
X134190280Y-104128431D01*
X134481431Y-103837280D01*
X134639000Y-103456874D01*
X134639000Y-103045126D01*
X134481431Y-102664720D01*
X134190280Y-102373569D01*
X133809874Y-102216000D01*
X133398126Y-102216000D01*
X133045650Y-102362000D01*
X129463350Y-102362000D01*
X129110874Y-102216000D01*
X128699126Y-102216000D01*
X128318720Y-102373569D01*
X128027569Y-102664720D01*
X127870000Y-103045126D01*
X108189000Y-103045126D01*
X108189000Y-98044000D01*
X110125010Y-98044000D01*
X110259666Y-98720963D01*
X110643135Y-99294865D01*
X111217037Y-99678334D01*
X111723120Y-99779000D01*
X112864880Y-99779000D01*
X113370963Y-99678334D01*
X113944865Y-99294865D01*
X114328334Y-98720963D01*
X114386449Y-98428799D01*
X114425161Y-98623418D01*
X114753375Y-99114625D01*
X114771619Y-99126816D01*
X114726235Y-99135843D01*
X114516191Y-99276191D01*
X114375843Y-99486235D01*
X114326560Y-99734000D01*
X114326560Y-101434000D01*
X114375843Y-101681765D01*
X114516191Y-101891809D01*
X114726235Y-102032157D01*
X114974000Y-102081440D01*
X116674000Y-102081440D01*
X116921765Y-102032157D01*
X117131809Y-101891809D01*
X117272157Y-101681765D01*
X117281184Y-101636381D01*
X117293375Y-101654625D01*
X117784582Y-101982839D01*
X118217744Y-102069000D01*
X118510256Y-102069000D01*
X118943418Y-101982839D01*
X119434625Y-101654625D01*
X119762839Y-101163418D01*
X119878092Y-100584000D01*
X119762839Y-100004582D01*
X119434625Y-99513375D01*
X119136239Y-99314000D01*
X119434625Y-99114625D01*
X119762839Y-98623418D01*
X119801551Y-98428799D01*
X119859666Y-98720963D01*
X120243135Y-99294865D01*
X120817037Y-99678334D01*
X121323120Y-99779000D01*
X122464880Y-99779000D01*
X122970963Y-99678334D01*
X123544865Y-99294865D01*
X123928334Y-98720963D01*
X124062990Y-98044000D01*
X124049947Y-97978426D01*
X124254126Y-98063000D01*
X124449000Y-98063000D01*
X124449000Y-98349330D01*
X124682690Y-98913507D01*
X125114493Y-99345310D01*
X125678670Y-99579000D01*
X126289330Y-99579000D01*
X126853507Y-99345310D01*
X127029861Y-99168956D01*
X127085673Y-99303699D01*
X127264302Y-99482327D01*
X127497691Y-99579000D01*
X128238250Y-99579000D01*
X128397000Y-99420250D01*
X128397000Y-98171000D01*
X128651000Y-98171000D01*
X128651000Y-99420250D01*
X128809750Y-99579000D01*
X129550309Y-99579000D01*
X129783698Y-99482327D01*
X129962327Y-99303699D01*
X130059000Y-99070310D01*
X130059000Y-98329750D01*
X129900250Y-98171000D01*
X128651000Y-98171000D01*
X128397000Y-98171000D01*
X128377000Y-98171000D01*
X128377000Y-97917000D01*
X128397000Y-97917000D01*
X128397000Y-97897000D01*
X128651000Y-97897000D01*
X128651000Y-97917000D01*
X129900250Y-97917000D01*
X130059000Y-97758250D01*
X130059000Y-97017690D01*
X129962327Y-96784301D01*
X129842868Y-96664843D01*
X129909431Y-96598280D01*
X130067000Y-96217874D01*
X130067000Y-96018936D01*
X130096126Y-96031000D01*
X130507874Y-96031000D01*
X130888280Y-95873431D01*
X131179431Y-95582280D01*
X131337000Y-95201874D01*
X131337000Y-94790126D01*
X131179431Y-94409720D01*
X130888280Y-94118569D01*
X130507874Y-93961000D01*
X130344630Y-93961000D01*
X130092914Y-93709284D01*
X130092914Y-93124000D01*
X135451867Y-93124000D01*
X135559359Y-93664400D01*
X135865471Y-94122529D01*
X136323600Y-94428641D01*
X136727593Y-94509000D01*
X138100407Y-94509000D01*
X138504400Y-94428641D01*
X138962529Y-94122529D01*
X139268641Y-93664400D01*
X139376133Y-93124000D01*
X139268641Y-92583600D01*
X138962529Y-92125471D01*
X138775364Y-92000411D01*
X138918500Y-91885296D01*
X139188367Y-91392219D01*
X139205904Y-91309439D01*
X139083915Y-91087400D01*
X137541000Y-91087400D01*
X137541000Y-91107400D01*
X137287000Y-91107400D01*
X137287000Y-91087400D01*
X135744085Y-91087400D01*
X135622096Y-91309439D01*
X135639633Y-91392219D01*
X135909500Y-91885296D01*
X136052636Y-92000411D01*
X135865471Y-92125471D01*
X135559359Y-92583600D01*
X135451867Y-93124000D01*
X130092914Y-93124000D01*
X130092914Y-90611361D01*
X135622096Y-90611361D01*
X135744085Y-90833400D01*
X137287000Y-90833400D01*
X137287000Y-89525400D01*
X137541000Y-89525400D01*
X137541000Y-90833400D01*
X139083915Y-90833400D01*
X139205904Y-90611361D01*
X139188367Y-90528581D01*
X138918500Y-90035504D01*
X138480483Y-89683234D01*
X137941000Y-89525400D01*
X137541000Y-89525400D01*
X137287000Y-89525400D01*
X136887000Y-89525400D01*
X136347517Y-89683234D01*
X135909500Y-90035504D01*
X135639633Y-90528581D01*
X135622096Y-90611361D01*
X130092914Y-90611361D01*
X130092914Y-87927756D01*
X130106311Y-87860400D01*
X135450887Y-87860400D01*
X135562260Y-88420309D01*
X135879423Y-88894977D01*
X136354091Y-89212140D01*
X136772667Y-89295400D01*
X138055333Y-89295400D01*
X138473909Y-89212140D01*
X138948577Y-88894977D01*
X139265740Y-88420309D01*
X139377113Y-87860400D01*
X139265740Y-87300491D01*
X138948577Y-86825823D01*
X138473909Y-86508660D01*
X138055333Y-86425400D01*
X136772667Y-86425400D01*
X136354091Y-86508660D01*
X135879423Y-86825823D01*
X135562260Y-87300491D01*
X135450887Y-87860400D01*
X130106311Y-87860400D01*
X130107841Y-87852713D01*
X130092914Y-87777670D01*
X130092914Y-87777666D01*
X130048702Y-87555397D01*
X129986049Y-87461629D01*
X129922796Y-87366965D01*
X129880285Y-87303343D01*
X129816663Y-87260833D01*
X129728280Y-87172449D01*
X129863800Y-86845274D01*
X129863800Y-86433526D01*
X129728135Y-86106000D01*
X132521289Y-86106000D01*
X132636720Y-86221431D01*
X133017126Y-86379000D01*
X133428874Y-86379000D01*
X133809280Y-86221431D01*
X134100431Y-85930280D01*
X134258000Y-85549874D01*
X134258000Y-85138126D01*
X134140726Y-84855000D01*
X134444874Y-84855000D01*
X134825280Y-84697431D01*
X135116431Y-84406280D01*
X135274000Y-84025874D01*
X135274000Y-83614126D01*
X135116431Y-83233720D01*
X134825280Y-82942569D01*
X134444874Y-82785000D01*
X134033126Y-82785000D01*
X133680650Y-82931000D01*
X132365350Y-82931000D01*
X132012874Y-82785000D01*
X131652631Y-82785000D01*
X135131946Y-79305685D01*
X135306952Y-79305685D01*
X135382000Y-79320613D01*
X135457048Y-79305685D01*
X135504407Y-79296265D01*
X135451867Y-79560400D01*
X135559359Y-80100800D01*
X135865471Y-80558929D01*
X136323600Y-80865041D01*
X136727593Y-80945400D01*
X138100407Y-80945400D01*
X138504400Y-80865041D01*
X138962529Y-80558929D01*
X139268641Y-80100800D01*
X139376133Y-79560400D01*
X139268641Y-79020000D01*
X138962529Y-78561871D01*
X138504400Y-78255759D01*
X138100407Y-78175400D01*
X136727593Y-78175400D01*
X136392937Y-78241967D01*
X136417000Y-78183874D01*
X136417000Y-77772126D01*
X136259431Y-77391720D01*
X136144011Y-77276300D01*
X136489391Y-77345000D01*
X138338609Y-77345000D01*
X138820188Y-77249208D01*
X139366305Y-76884305D01*
X139731208Y-76338188D01*
X139859345Y-75694000D01*
X139731208Y-75049812D01*
X139366305Y-74503695D01*
X138820188Y-74138792D01*
X138338609Y-74043000D01*
X136489391Y-74043000D01*
X136007812Y-74138792D01*
X135461695Y-74503695D01*
X135096792Y-75049812D01*
X134968655Y-75694000D01*
X135096792Y-76338188D01*
X135461695Y-76884305D01*
X135549538Y-76943000D01*
X135176126Y-76943000D01*
X134795720Y-77100569D01*
X134504569Y-77391720D01*
X134491738Y-77422696D01*
X134146616Y-77279742D01*
X133734868Y-77279742D01*
X133354462Y-77437311D01*
X133063311Y-77728462D01*
X132905742Y-78108868D01*
X132905742Y-78272111D01*
X125643112Y-85534742D01*
X125479868Y-85534742D01*
X125475873Y-85536397D01*
X125584024Y-82683926D01*
X125935280Y-82538431D01*
X126226431Y-82247280D01*
X126384000Y-81866874D01*
X126384000Y-81455126D01*
X126226431Y-81074720D01*
X125935280Y-80783569D01*
X125554874Y-80626000D01*
X125143126Y-80626000D01*
X124851428Y-80746825D01*
X124829431Y-80693720D01*
X124538280Y-80402569D01*
X124157874Y-80245000D01*
X123746126Y-80245000D01*
X123365720Y-80402569D01*
X123074569Y-80693720D01*
X122917000Y-81074126D01*
X122917000Y-81485874D01*
X123074569Y-81866280D01*
X123189329Y-81981040D01*
X122639370Y-82531000D01*
X122476126Y-82531000D01*
X122095720Y-82688569D01*
X121804569Y-82979720D01*
X121647000Y-83360126D01*
X121647000Y-83771874D01*
X121804569Y-84152280D01*
X122095720Y-84443431D01*
X122476126Y-84601000D01*
X122887874Y-84601000D01*
X123268280Y-84443431D01*
X123559431Y-84152280D01*
X123717000Y-83771874D01*
X123717000Y-83608630D01*
X124035963Y-83289667D01*
X123902885Y-86799604D01*
X123760369Y-86942120D01*
X123602800Y-87322526D01*
X123602800Y-87734274D01*
X123760369Y-88114680D01*
X123970213Y-88324524D01*
X123869212Y-88475683D01*
X123825000Y-88697952D01*
X123825000Y-88697957D01*
X123822931Y-88708358D01*
X123709569Y-88821720D01*
X123552000Y-89202126D01*
X123552000Y-89613874D01*
X123709569Y-89994280D01*
X124000720Y-90285431D01*
X124381126Y-90443000D01*
X124792874Y-90443000D01*
X125173280Y-90285431D01*
X125349001Y-90109710D01*
X125349001Y-90484288D01*
X125233569Y-90599720D01*
X125076000Y-90980126D01*
X125076000Y-91391874D01*
X125233569Y-91772280D01*
X125524720Y-92063431D01*
X125905126Y-92221000D01*
X126316874Y-92221000D01*
X126619002Y-92095855D01*
X126619002Y-93791367D01*
X124417370Y-95993000D01*
X124254126Y-95993000D01*
X123873720Y-96150569D01*
X123582569Y-96441720D01*
X123460389Y-96736690D01*
X122970963Y-96409666D01*
X122464880Y-96309000D01*
X121323120Y-96309000D01*
X120817037Y-96409666D01*
X120243135Y-96793135D01*
X119859666Y-97367037D01*
X119801551Y-97659201D01*
X119762839Y-97464582D01*
X119434625Y-96973375D01*
X119115522Y-96760157D01*
X119245358Y-96699183D01*
X119635645Y-96270924D01*
X119805476Y-95860890D01*
X119684155Y-95631000D01*
X118491000Y-95631000D01*
X118491000Y-95651000D01*
X118237000Y-95651000D01*
X118237000Y-95631000D01*
X118217000Y-95631000D01*
X118217000Y-95377000D01*
X118237000Y-95377000D01*
X118237000Y-94183181D01*
X118491000Y-94183181D01*
X118491000Y-95377000D01*
X119684155Y-95377000D01*
X119805476Y-95147110D01*
X119635645Y-94737076D01*
X119245358Y-94308817D01*
X118720892Y-94062514D01*
X118491000Y-94183181D01*
X118237000Y-94183181D01*
X118007108Y-94062514D01*
X117664073Y-94223612D01*
X117643371Y-94192629D01*
X117579749Y-94150118D01*
X116986000Y-93556370D01*
X116986000Y-93393126D01*
X116828431Y-93012720D01*
X116537280Y-92721569D01*
X116156874Y-92564000D01*
X115745126Y-92564000D01*
X115364720Y-92721569D01*
X115073569Y-93012720D01*
X114916000Y-93393126D01*
X114916000Y-93804874D01*
X115073569Y-94185280D01*
X115094039Y-94205750D01*
X114753375Y-94433375D01*
X114425161Y-94924582D01*
X114309908Y-95504000D01*
X114425161Y-96083418D01*
X114753375Y-96574625D01*
X115051761Y-96774000D01*
X114753375Y-96973375D01*
X114425161Y-97464582D01*
X114386449Y-97659201D01*
X114328334Y-97367037D01*
X113944865Y-96793135D01*
X113370963Y-96409666D01*
X112864880Y-96309000D01*
X111723120Y-96309000D01*
X111217037Y-96409666D01*
X110643135Y-96793135D01*
X110259666Y-97367037D01*
X110125010Y-98044000D01*
X108189000Y-98044000D01*
X108189000Y-85011126D01*
X109836000Y-85011126D01*
X109836000Y-85422874D01*
X109993569Y-85803280D01*
X110109000Y-85918711D01*
X110109001Y-87681952D01*
X110094073Y-87757000D01*
X110153213Y-88054317D01*
X110273546Y-88234408D01*
X110321630Y-88306371D01*
X110385251Y-88348881D01*
X110979000Y-88942631D01*
X110979000Y-89105874D01*
X111136569Y-89486280D01*
X111427720Y-89777431D01*
X111808126Y-89935000D01*
X112219874Y-89935000D01*
X112600280Y-89777431D01*
X112891431Y-89486280D01*
X113049000Y-89105874D01*
X113049000Y-88694126D01*
X113036936Y-88665000D01*
X113235874Y-88665000D01*
X113616280Y-88507431D01*
X113907431Y-88216280D01*
X114065000Y-87835874D01*
X114065000Y-87424126D01*
X113907431Y-87043720D01*
X113616280Y-86752569D01*
X113235874Y-86595000D01*
X113072631Y-86595000D01*
X112781800Y-86304169D01*
X113693446Y-86304169D01*
X113779852Y-86560653D01*
X114353336Y-86770468D01*
X114963460Y-86744849D01*
X115408148Y-86560653D01*
X115494554Y-86304169D01*
X114594000Y-85403615D01*
X113693446Y-86304169D01*
X112781800Y-86304169D01*
X112759994Y-86282364D01*
X112693378Y-84983346D01*
X113047542Y-84983346D01*
X113073161Y-85593470D01*
X113257357Y-86038158D01*
X113513841Y-86124564D01*
X114414395Y-85224010D01*
X114773605Y-85224010D01*
X115674159Y-86124564D01*
X115824562Y-86073895D01*
X115832690Y-86093517D01*
X116264493Y-86525320D01*
X116828670Y-86759010D01*
X117439330Y-86759010D01*
X118003507Y-86525320D01*
X118364000Y-86164827D01*
X118621271Y-86422098D01*
X117559370Y-87484000D01*
X117396126Y-87484000D01*
X117015720Y-87641569D01*
X116724569Y-87932720D01*
X116567000Y-88313126D01*
X116567000Y-88724874D01*
X116724569Y-89105280D01*
X117015720Y-89396431D01*
X117396126Y-89554000D01*
X117807874Y-89554000D01*
X118188280Y-89396431D01*
X118479431Y-89105280D01*
X118637000Y-88724874D01*
X118637000Y-88561630D01*
X120079750Y-87118881D01*
X120143371Y-87076371D01*
X120229354Y-86947688D01*
X120311787Y-86824319D01*
X120311787Y-86824318D01*
X120311788Y-86824317D01*
X120356000Y-86602048D01*
X120356000Y-86602044D01*
X120362979Y-86566960D01*
X120463507Y-86525320D01*
X120895310Y-86093517D01*
X121129000Y-85529340D01*
X121129000Y-84918680D01*
X120895310Y-84354503D01*
X120463507Y-83922700D01*
X119899330Y-83689010D01*
X119288670Y-83689010D01*
X118724493Y-83922700D01*
X118364000Y-84283193D01*
X118003507Y-83922700D01*
X117439330Y-83689010D01*
X116828670Y-83689010D01*
X116264493Y-83922700D01*
X115832690Y-84354503D01*
X115824562Y-84374125D01*
X115674159Y-84323456D01*
X114773605Y-85224010D01*
X114414395Y-85224010D01*
X113513841Y-84323456D01*
X113257357Y-84409862D01*
X113047542Y-84983346D01*
X112693378Y-84983346D01*
X112650327Y-84143851D01*
X113693446Y-84143851D01*
X114594000Y-85044405D01*
X115494554Y-84143851D01*
X115408148Y-83887367D01*
X114834664Y-83677552D01*
X114224540Y-83703171D01*
X113779852Y-83887367D01*
X113693446Y-84143851D01*
X112650327Y-84143851D01*
X112557182Y-82327529D01*
X112637431Y-82247280D01*
X112795000Y-81866874D01*
X112795000Y-81455126D01*
X112637431Y-81074720D01*
X112346280Y-80783569D01*
X111965874Y-80626000D01*
X111554126Y-80626000D01*
X111173720Y-80783569D01*
X110882569Y-81074720D01*
X110725000Y-81455126D01*
X110725000Y-81866874D01*
X110882569Y-82247280D01*
X111034875Y-82399586D01*
X111127353Y-84202909D01*
X111076874Y-84182000D01*
X110665126Y-84182000D01*
X110284720Y-84339569D01*
X109993569Y-84630720D01*
X109836000Y-85011126D01*
X108189000Y-85011126D01*
X108189000Y-79804126D01*
X128124000Y-79804126D01*
X128124000Y-80215874D01*
X128281569Y-80596280D01*
X128572720Y-80887431D01*
X128953126Y-81045000D01*
X129364874Y-81045000D01*
X129745280Y-80887431D01*
X130036431Y-80596280D01*
X130194000Y-80215874D01*
X130194000Y-80052630D01*
X130725632Y-79520999D01*
X131041598Y-79520999D01*
X131189604Y-79522351D01*
X131263820Y-79492401D01*
X131342318Y-79476787D01*
X131403021Y-79436226D01*
X131470719Y-79408907D01*
X131527824Y-79352836D01*
X131594372Y-79308370D01*
X131634933Y-79247666D01*
X131687023Y-79196519D01*
X131718323Y-79122864D01*
X131762789Y-79056316D01*
X131791680Y-78911071D01*
X132144522Y-77218189D01*
X132424031Y-76938680D01*
X132581600Y-76558274D01*
X132581600Y-76146526D01*
X132424031Y-75766120D01*
X132132880Y-75474969D01*
X131752474Y-75317400D01*
X131340726Y-75317400D01*
X130960320Y-75474969D01*
X130669169Y-75766120D01*
X130511600Y-76146526D01*
X130511600Y-76558274D01*
X130653775Y-76901515D01*
X130427820Y-77985615D01*
X130410001Y-77982071D01*
X130334954Y-77996999D01*
X130334953Y-77996999D01*
X130112684Y-78041211D01*
X129860630Y-78209628D01*
X129818119Y-78273250D01*
X129116370Y-78975000D01*
X128953126Y-78975000D01*
X128572720Y-79132569D01*
X128281569Y-79423720D01*
X128124000Y-79804126D01*
X108189000Y-79804126D01*
X108189000Y-77724000D01*
X110125010Y-77724000D01*
X110259666Y-78400963D01*
X110643135Y-78974865D01*
X111217037Y-79358334D01*
X111723120Y-79459000D01*
X112864880Y-79459000D01*
X113370963Y-79358334D01*
X113944865Y-78974865D01*
X114328334Y-78400963D01*
X114462990Y-77724000D01*
X119725010Y-77724000D01*
X119859666Y-78400963D01*
X120243135Y-78974865D01*
X120817037Y-79358334D01*
X121323120Y-79459000D01*
X122464880Y-79459000D01*
X122970963Y-79358334D01*
X123544865Y-78974865D01*
X123928334Y-78400963D01*
X124062990Y-77724000D01*
X123928334Y-77047037D01*
X123544865Y-76473135D01*
X123164525Y-76219000D01*
X123376874Y-76219000D01*
X123729350Y-76073000D01*
X125298650Y-76073000D01*
X125651126Y-76219000D01*
X126062874Y-76219000D01*
X126443280Y-76061431D01*
X126734431Y-75770280D01*
X126892000Y-75389874D01*
X126892000Y-74978126D01*
X126734431Y-74597720D01*
X126443280Y-74306569D01*
X126062874Y-74149000D01*
X125651126Y-74149000D01*
X125298650Y-74295000D01*
X123729350Y-74295000D01*
X123376874Y-74149000D01*
X122965126Y-74149000D01*
X122584720Y-74306569D01*
X122293569Y-74597720D01*
X122136000Y-74978126D01*
X122136000Y-75389874D01*
X122293569Y-75770280D01*
X122524061Y-76000772D01*
X122464880Y-75989000D01*
X121323120Y-75989000D01*
X120817037Y-76089666D01*
X120243135Y-76473135D01*
X119859666Y-77047037D01*
X119725010Y-77724000D01*
X114462990Y-77724000D01*
X114328334Y-77047037D01*
X113944865Y-76473135D01*
X113370963Y-76089666D01*
X112864880Y-75989000D01*
X111723120Y-75989000D01*
X111217037Y-76089666D01*
X110643135Y-76473135D01*
X110259666Y-77047037D01*
X110125010Y-77724000D01*
X108189000Y-77724000D01*
X108189000Y-69119750D01*
X110529000Y-69119750D01*
X110529000Y-69810309D01*
X110625673Y-70043698D01*
X110804301Y-70222327D01*
X111037690Y-70319000D01*
X111728250Y-70319000D01*
X111887000Y-70160250D01*
X111887000Y-68961000D01*
X110687750Y-68961000D01*
X110529000Y-69119750D01*
X108189000Y-69119750D01*
X108189000Y-67857691D01*
X110529000Y-67857691D01*
X110529000Y-68548250D01*
X110687750Y-68707000D01*
X111887000Y-68707000D01*
X111887000Y-67507750D01*
X112141000Y-67507750D01*
X112141000Y-68707000D01*
X112161000Y-68707000D01*
X112161000Y-68961000D01*
X112141000Y-68961000D01*
X112141000Y-70160250D01*
X112299750Y-70319000D01*
X112990310Y-70319000D01*
X113223699Y-70222327D01*
X113402327Y-70043698D01*
X113468904Y-69882967D01*
X113483375Y-69904625D01*
X113974582Y-70232839D01*
X114407744Y-70319000D01*
X114700256Y-70319000D01*
X115133418Y-70232839D01*
X115624625Y-69904625D01*
X115824000Y-69606239D01*
X116023375Y-69904625D01*
X116514582Y-70232839D01*
X116947744Y-70319000D01*
X117240256Y-70319000D01*
X117673418Y-70232839D01*
X118164625Y-69904625D01*
X118418430Y-69524778D01*
X122294000Y-69524778D01*
X122294000Y-70175222D01*
X122542914Y-70776153D01*
X123002847Y-71236086D01*
X123603778Y-71485000D01*
X124254222Y-71485000D01*
X124855153Y-71236086D01*
X125315086Y-70776153D01*
X125383080Y-70612000D01*
X128974920Y-70612000D01*
X129042914Y-70776153D01*
X129502847Y-71236086D01*
X130103778Y-71485000D01*
X130754222Y-71485000D01*
X131015092Y-71376944D01*
X135046025Y-71376944D01*
X135078074Y-71508477D01*
X135394764Y-72071630D01*
X135902857Y-72470724D01*
X136525000Y-72645000D01*
X137287000Y-72645000D01*
X137287000Y-71121000D01*
X137541000Y-71121000D01*
X137541000Y-72645000D01*
X138303000Y-72645000D01*
X138925143Y-72470724D01*
X139433236Y-72071630D01*
X139749926Y-71508477D01*
X139781975Y-71376944D01*
X139662836Y-71121000D01*
X137541000Y-71121000D01*
X137287000Y-71121000D01*
X135165164Y-71121000D01*
X135046025Y-71376944D01*
X131015092Y-71376944D01*
X131355153Y-71236086D01*
X131815086Y-70776153D01*
X131883471Y-70611056D01*
X135046025Y-70611056D01*
X135165164Y-70867000D01*
X137287000Y-70867000D01*
X137287000Y-69343000D01*
X137541000Y-69343000D01*
X137541000Y-70867000D01*
X139662836Y-70867000D01*
X139781975Y-70611056D01*
X139749926Y-70479523D01*
X139433236Y-69916370D01*
X138925143Y-69517276D01*
X138303000Y-69343000D01*
X137541000Y-69343000D01*
X137287000Y-69343000D01*
X136525000Y-69343000D01*
X135902857Y-69517276D01*
X135394764Y-69916370D01*
X135078074Y-70479523D01*
X135046025Y-70611056D01*
X131883471Y-70611056D01*
X132064000Y-70175222D01*
X132064000Y-69524778D01*
X131815086Y-68923847D01*
X131355153Y-68463914D01*
X130754222Y-68215000D01*
X130103778Y-68215000D01*
X129502847Y-68463914D01*
X129042914Y-68923847D01*
X128974920Y-69088000D01*
X125383080Y-69088000D01*
X125315086Y-68923847D01*
X124855153Y-68463914D01*
X124254222Y-68215000D01*
X123603778Y-68215000D01*
X123002847Y-68463914D01*
X122542914Y-68923847D01*
X122294000Y-69524778D01*
X118418430Y-69524778D01*
X118492839Y-69413418D01*
X118608092Y-68834000D01*
X118492839Y-68254582D01*
X118164625Y-67763375D01*
X117673418Y-67435161D01*
X117240256Y-67349000D01*
X116947744Y-67349000D01*
X116514582Y-67435161D01*
X116023375Y-67763375D01*
X115824000Y-68061761D01*
X115624625Y-67763375D01*
X115133418Y-67435161D01*
X114700256Y-67349000D01*
X114407744Y-67349000D01*
X113974582Y-67435161D01*
X113483375Y-67763375D01*
X113468904Y-67785033D01*
X113402327Y-67624302D01*
X113223699Y-67445673D01*
X112990310Y-67349000D01*
X112299750Y-67349000D01*
X112141000Y-67507750D01*
X111887000Y-67507750D01*
X111728250Y-67349000D01*
X111037690Y-67349000D01*
X110804301Y-67445673D01*
X110625673Y-67624302D01*
X110529000Y-67857691D01*
X108189000Y-67857691D01*
X108189000Y-66502532D01*
X122956073Y-66502532D01*
X123054736Y-66769387D01*
X123664461Y-66995908D01*
X124314460Y-66971856D01*
X124803264Y-66769387D01*
X124901927Y-66502532D01*
X129456073Y-66502532D01*
X129554736Y-66769387D01*
X130164461Y-66995908D01*
X130814460Y-66971856D01*
X131303264Y-66769387D01*
X131401927Y-66502532D01*
X130429000Y-65529605D01*
X129456073Y-66502532D01*
X124901927Y-66502532D01*
X123929000Y-65529605D01*
X122956073Y-66502532D01*
X108189000Y-66502532D01*
X108189000Y-65984169D01*
X113693446Y-65984169D01*
X113779852Y-66240653D01*
X114353336Y-66450468D01*
X114963460Y-66424849D01*
X115408148Y-66240653D01*
X115494554Y-65984169D01*
X114594000Y-65083615D01*
X113693446Y-65984169D01*
X108189000Y-65984169D01*
X108189000Y-64663346D01*
X113047542Y-64663346D01*
X113073161Y-65273470D01*
X113257357Y-65718158D01*
X113513841Y-65804564D01*
X114414395Y-64904010D01*
X114773605Y-64904010D01*
X115674159Y-65804564D01*
X115824562Y-65753895D01*
X115832690Y-65773517D01*
X116264493Y-66205320D01*
X116828670Y-66439010D01*
X117439330Y-66439010D01*
X118003507Y-66205320D01*
X118364000Y-65844827D01*
X118724493Y-66205320D01*
X119288670Y-66439010D01*
X119899330Y-66439010D01*
X120463507Y-66205320D01*
X120895310Y-65773517D01*
X121129000Y-65209340D01*
X121129000Y-65085461D01*
X122283092Y-65085461D01*
X122307144Y-65735460D01*
X122509613Y-66224264D01*
X122776468Y-66322927D01*
X123749395Y-65350000D01*
X124108605Y-65350000D01*
X125081532Y-66322927D01*
X125348387Y-66224264D01*
X125574908Y-65614539D01*
X125555331Y-65085461D01*
X128783092Y-65085461D01*
X128807144Y-65735460D01*
X129009613Y-66224264D01*
X129276468Y-66322927D01*
X130249395Y-65350000D01*
X130608605Y-65350000D01*
X131581532Y-66322927D01*
X131659771Y-66294000D01*
X134968655Y-66294000D01*
X135096792Y-66938188D01*
X135461695Y-67484305D01*
X136007812Y-67849208D01*
X136489391Y-67945000D01*
X138338609Y-67945000D01*
X138820188Y-67849208D01*
X139366305Y-67484305D01*
X139731208Y-66938188D01*
X139859345Y-66294000D01*
X139731208Y-65649812D01*
X139366305Y-65103695D01*
X138820188Y-64738792D01*
X138338609Y-64643000D01*
X136489391Y-64643000D01*
X136007812Y-64738792D01*
X135461695Y-65103695D01*
X135096792Y-65649812D01*
X134968655Y-66294000D01*
X131659771Y-66294000D01*
X131848387Y-66224264D01*
X132074908Y-65614539D01*
X132050856Y-64964540D01*
X131848387Y-64475736D01*
X131581532Y-64377073D01*
X130608605Y-65350000D01*
X130249395Y-65350000D01*
X129276468Y-64377073D01*
X129009613Y-64475736D01*
X128783092Y-65085461D01*
X125555331Y-65085461D01*
X125550856Y-64964540D01*
X125348387Y-64475736D01*
X125081532Y-64377073D01*
X124108605Y-65350000D01*
X123749395Y-65350000D01*
X122776468Y-64377073D01*
X122509613Y-64475736D01*
X122283092Y-65085461D01*
X121129000Y-65085461D01*
X121129000Y-64598680D01*
X120962813Y-64197468D01*
X122956073Y-64197468D01*
X123929000Y-65170395D01*
X124901927Y-64197468D01*
X129456073Y-64197468D01*
X130429000Y-65170395D01*
X131401927Y-64197468D01*
X131303264Y-63930613D01*
X130693539Y-63704092D01*
X130043540Y-63728144D01*
X129554736Y-63930613D01*
X129456073Y-64197468D01*
X124901927Y-64197468D01*
X124803264Y-63930613D01*
X124193539Y-63704092D01*
X123543540Y-63728144D01*
X123054736Y-63930613D01*
X122956073Y-64197468D01*
X120962813Y-64197468D01*
X120895310Y-64034503D01*
X120463507Y-63602700D01*
X119899330Y-63369010D01*
X119288670Y-63369010D01*
X118724493Y-63602700D01*
X118364000Y-63963193D01*
X118003507Y-63602700D01*
X117439330Y-63369010D01*
X116828670Y-63369010D01*
X116264493Y-63602700D01*
X115832690Y-64034503D01*
X115824562Y-64054125D01*
X115674159Y-64003456D01*
X114773605Y-64904010D01*
X114414395Y-64904010D01*
X113513841Y-64003456D01*
X113257357Y-64089862D01*
X113047542Y-64663346D01*
X108189000Y-64663346D01*
X108189000Y-63823851D01*
X113693446Y-63823851D01*
X114594000Y-64724405D01*
X115494554Y-63823851D01*
X115408148Y-63567367D01*
X114834664Y-63357552D01*
X114224540Y-63383171D01*
X113779852Y-63567367D01*
X113693446Y-63823851D01*
X108189000Y-63823851D01*
X108189000Y-62104000D01*
X134968655Y-62104000D01*
X135096792Y-62748188D01*
X135461695Y-63294305D01*
X136007812Y-63659208D01*
X136489391Y-63755000D01*
X138338609Y-63755000D01*
X138820188Y-63659208D01*
X139366305Y-63294305D01*
X139731208Y-62748188D01*
X139859345Y-62104000D01*
X139731208Y-61459812D01*
X139366305Y-60913695D01*
X138820188Y-60548792D01*
X138338609Y-60453000D01*
X136489391Y-60453000D01*
X136007812Y-60548792D01*
X135461695Y-60913695D01*
X135096792Y-61459812D01*
X134968655Y-62104000D01*
X108189000Y-62104000D01*
X108189000Y-59729000D01*
X124486560Y-59729000D01*
X124486560Y-61429000D01*
X124535843Y-61676765D01*
X124676191Y-61886809D01*
X124886235Y-62027157D01*
X125134000Y-62076440D01*
X126834000Y-62076440D01*
X127081765Y-62027157D01*
X127291809Y-61886809D01*
X127432157Y-61676765D01*
X127441184Y-61631381D01*
X127453375Y-61649625D01*
X127944582Y-61977839D01*
X128377744Y-62064000D01*
X128670256Y-62064000D01*
X129103418Y-61977839D01*
X129594625Y-61649625D01*
X129922839Y-61158418D01*
X130038092Y-60579000D01*
X129922839Y-59999582D01*
X129594625Y-59508375D01*
X129275522Y-59295157D01*
X129405358Y-59234183D01*
X129795645Y-58805924D01*
X129965476Y-58395890D01*
X129844155Y-58166000D01*
X128651000Y-58166000D01*
X128651000Y-58186000D01*
X128397000Y-58186000D01*
X128397000Y-58166000D01*
X126111000Y-58166000D01*
X126111000Y-58186000D01*
X125857000Y-58186000D01*
X125857000Y-58166000D01*
X124663845Y-58166000D01*
X124542524Y-58395890D01*
X124712355Y-58805924D01*
X124989708Y-59110261D01*
X124886235Y-59130843D01*
X124676191Y-59271191D01*
X124535843Y-59481235D01*
X124486560Y-59729000D01*
X108189000Y-59729000D01*
X108189000Y-57404000D01*
X110125010Y-57404000D01*
X110259666Y-58080963D01*
X110643135Y-58654865D01*
X111217037Y-59038334D01*
X111723120Y-59139000D01*
X112864880Y-59139000D01*
X113370963Y-59038334D01*
X113944865Y-58654865D01*
X114328334Y-58080963D01*
X114462990Y-57404000D01*
X119725010Y-57404000D01*
X119859666Y-58080963D01*
X120243135Y-58654865D01*
X120817037Y-59038334D01*
X121323120Y-59139000D01*
X122464880Y-59139000D01*
X122970963Y-59038334D01*
X123544865Y-58654865D01*
X123928334Y-58080963D01*
X124062990Y-57404000D01*
X123928334Y-56727037D01*
X123544865Y-56153135D01*
X123100007Y-55855890D01*
X124542524Y-55855890D01*
X124712355Y-56265924D01*
X125102642Y-56694183D01*
X125261954Y-56769000D01*
X125102642Y-56843817D01*
X124712355Y-57272076D01*
X124542524Y-57682110D01*
X124663845Y-57912000D01*
X125857000Y-57912000D01*
X125857000Y-55626000D01*
X126111000Y-55626000D01*
X126111000Y-57912000D01*
X128397000Y-57912000D01*
X128397000Y-55626000D01*
X128651000Y-55626000D01*
X128651000Y-57912000D01*
X129844155Y-57912000D01*
X129910151Y-57786944D01*
X135046025Y-57786944D01*
X135078074Y-57918477D01*
X135394764Y-58481630D01*
X135902857Y-58880724D01*
X136525000Y-59055000D01*
X137287000Y-59055000D01*
X137287000Y-57531000D01*
X137541000Y-57531000D01*
X137541000Y-59055000D01*
X138303000Y-59055000D01*
X138925143Y-58880724D01*
X139433236Y-58481630D01*
X139749926Y-57918477D01*
X139781975Y-57786944D01*
X139662836Y-57531000D01*
X137541000Y-57531000D01*
X137287000Y-57531000D01*
X135165164Y-57531000D01*
X135046025Y-57786944D01*
X129910151Y-57786944D01*
X129965476Y-57682110D01*
X129795645Y-57272076D01*
X129566882Y-57021056D01*
X135046025Y-57021056D01*
X135165164Y-57277000D01*
X137287000Y-57277000D01*
X137287000Y-55753000D01*
X137541000Y-55753000D01*
X137541000Y-57277000D01*
X139662836Y-57277000D01*
X139781975Y-57021056D01*
X139749926Y-56889523D01*
X139433236Y-56326370D01*
X138925143Y-55927276D01*
X138303000Y-55753000D01*
X137541000Y-55753000D01*
X137287000Y-55753000D01*
X136525000Y-55753000D01*
X135902857Y-55927276D01*
X135394764Y-56326370D01*
X135078074Y-56889523D01*
X135046025Y-57021056D01*
X129566882Y-57021056D01*
X129405358Y-56843817D01*
X129246046Y-56769000D01*
X129405358Y-56694183D01*
X129795645Y-56265924D01*
X129965476Y-55855890D01*
X129844155Y-55626000D01*
X128651000Y-55626000D01*
X128397000Y-55626000D01*
X126111000Y-55626000D01*
X125857000Y-55626000D01*
X124663845Y-55626000D01*
X124542524Y-55855890D01*
X123100007Y-55855890D01*
X122970963Y-55769666D01*
X122464880Y-55669000D01*
X121323120Y-55669000D01*
X120817037Y-55769666D01*
X120243135Y-56153135D01*
X119859666Y-56727037D01*
X119725010Y-57404000D01*
X114462990Y-57404000D01*
X114328334Y-56727037D01*
X113944865Y-56153135D01*
X113370963Y-55769666D01*
X112864880Y-55669000D01*
X111723120Y-55669000D01*
X111217037Y-55769666D01*
X110643135Y-56153135D01*
X110259666Y-56727037D01*
X110125010Y-57404000D01*
X108189000Y-57404000D01*
X108189000Y-53315890D01*
X124542524Y-53315890D01*
X124712355Y-53725924D01*
X125102642Y-54154183D01*
X125261954Y-54229000D01*
X125102642Y-54303817D01*
X124712355Y-54732076D01*
X124542524Y-55142110D01*
X124663845Y-55372000D01*
X125857000Y-55372000D01*
X125857000Y-53086000D01*
X126111000Y-53086000D01*
X126111000Y-55372000D01*
X128397000Y-55372000D01*
X128397000Y-53086000D01*
X128651000Y-53086000D01*
X128651000Y-55372000D01*
X129844155Y-55372000D01*
X129965476Y-55142110D01*
X129795645Y-54732076D01*
X129405358Y-54303817D01*
X129246046Y-54229000D01*
X129405358Y-54154183D01*
X129795645Y-53725924D01*
X129965476Y-53315890D01*
X129844155Y-53086000D01*
X128651000Y-53086000D01*
X128397000Y-53086000D01*
X126111000Y-53086000D01*
X125857000Y-53086000D01*
X124663845Y-53086000D01*
X124542524Y-53315890D01*
X108189000Y-53315890D01*
X108189000Y-50419000D01*
X124469908Y-50419000D01*
X124585161Y-50998418D01*
X124913375Y-51489625D01*
X125232478Y-51702843D01*
X125102642Y-51763817D01*
X124712355Y-52192076D01*
X124542524Y-52602110D01*
X124663845Y-52832000D01*
X125857000Y-52832000D01*
X125857000Y-52812000D01*
X126111000Y-52812000D01*
X126111000Y-52832000D01*
X128397000Y-52832000D01*
X128397000Y-52812000D01*
X128651000Y-52812000D01*
X128651000Y-52832000D01*
X129844155Y-52832000D01*
X129911705Y-52704000D01*
X134968655Y-52704000D01*
X135096792Y-53348188D01*
X135461695Y-53894305D01*
X136007812Y-54259208D01*
X136489391Y-54355000D01*
X138338609Y-54355000D01*
X138820188Y-54259208D01*
X139366305Y-53894305D01*
X139731208Y-53348188D01*
X139859345Y-52704000D01*
X139731208Y-52059812D01*
X139366305Y-51513695D01*
X138820188Y-51148792D01*
X138338609Y-51053000D01*
X136489391Y-51053000D01*
X136007812Y-51148792D01*
X135461695Y-51513695D01*
X135096792Y-52059812D01*
X134968655Y-52704000D01*
X129911705Y-52704000D01*
X129965476Y-52602110D01*
X129795645Y-52192076D01*
X129405358Y-51763817D01*
X129275522Y-51702843D01*
X129594625Y-51489625D01*
X129922839Y-50998418D01*
X130038092Y-50419000D01*
X129922839Y-49839582D01*
X129594625Y-49348375D01*
X129103418Y-49020161D01*
X128670256Y-48934000D01*
X128377744Y-48934000D01*
X127944582Y-49020161D01*
X127453375Y-49348375D01*
X127254000Y-49646761D01*
X127054625Y-49348375D01*
X126563418Y-49020161D01*
X126130256Y-48934000D01*
X125837744Y-48934000D01*
X125404582Y-49020161D01*
X124913375Y-49348375D01*
X124585161Y-49839582D01*
X124469908Y-50419000D01*
X108189000Y-50419000D01*
X108189000Y-48729000D01*
X146319000Y-48729000D01*
X146319000Y-54860949D01*
G04 #@! TD*
M02*
